<svg width="64" height="65" viewBox="0 0 64 65" fill="none" xmlns="http://www.w3.org/2000/svg">
<rect y="0.634766" width="64" height="64" rx="4" fill="#153E5F"/>
<g clip-path="url(#clip0_10480_27842)">
<g clip-path="url(#clip1_10480_27842)">
<path fill-rule="evenodd" clip-rule="evenodd" d="M43.653 32.7196C43.653 26.8933 39.3954 21.697 31.6972 21.697C23.9989 21.697 19.7863 26.8933 19.7863 32.7196V33.443C19.7863 39.2702 23.9989 44.5554 31.6972 44.5554C39.3954 44.5554 43.653 39.2702 43.653 33.443V32.7196ZM31.6972 49.2985C21.009 49.2985 14.0801 41.6197 14.0801 33.6234V32.6307C14.0801 24.498 21.009 16.9548 31.6972 16.9548C42.4311 16.9548 49.3601 24.498 49.3601 32.6307V33.6234C49.3601 41.6197 42.4311 49.2985 31.6972 49.2985Z" fill="#029CD7"/>
<path fill-rule="evenodd" clip-rule="evenodd" d="M35.4828 27.628C36.4586 28.2676 36.7322 29.5972 36.099 30.5951L31.1633 38.368C30.5293 39.3666 29.2247 39.6555 28.2506 39.0159C27.2764 38.3746 26.9996 37.0483 27.6344 36.0496L32.5701 28.2767C33.2041 27.2789 34.5087 26.9892 35.4828 27.628Z" fill="white"/>
</g>
</g>
<defs>
<clipPath id="clip0_10480_27842">
<rect x="14.0801" y="14.7148" width="35.84" height="35.84" rx="2.24" fill="white"/>
</clipPath>
<clipPath id="clip1_10480_27842">
<rect width="35.28" height="32.3437" fill="white" transform="translate(14.0801 16.9548)"/>
</clipPath>
</defs>
</svg>
