<svg width="64" height="64" viewBox="0 0 64 64" fill="none" xmlns="http://www.w3.org/2000/svg">
<rect width="64" height="64" rx="4" fill="#F26526"/>
<path d="M32.0598 40.5195C32.0598 40.5195 30.3928 38.5652 29.4066 37.5094L28.0214 40.6318C30.0171 43.4623 31.3319 45.9108 32.0598 47.0789C33.4685 44.7876 36.92 38.0036 44.0341 31.6463L43.2358 29.8717C38.6105 33.1514 34.666 37.3297 32.0598 40.5195Z" fill="white"/>
<path d="M42.4379 48H48.0964L43.1188 36.5884C41.6631 38.071 40.4187 39.5311 39.3152 40.9239L42.4379 48Z" fill="white"/>
<path d="M34.525 17H34.5016H29.5709H29.5475L16 48H21.6585L31.4493 25.8956L31.9189 24.7051H32.1771L32.6467 25.8956L35.5581 32.4551C36.8495 31.2196 38.2582 30.0065 39.7374 28.8609L34.525 17Z" fill="white"/>
</svg>
