<svg width="282" height="300" viewBox="0 0 282 300" fill="none" xmlns="http://www.w3.org/2000/svg">
<g clip-path="url(#clip0_10548_8436)">
<path d="M176.491 -68.2576C94.6312 -39.6695 89.7895 68.0881 144.244 93.4198C198.698 118.751 268.022 82.4325 247.701 41.3014C227.379 0.170218 127.211 49.2067 135.025 145.793C145.399 274.016 302.961 244.461 302.961 244.461" stroke="#153E5F" stroke-width="2" stroke-linecap="round"/>
<path d="M153.467 204.289C150.424 205.195 147.147 203.941 145.484 201.237L145.322 200.962L143.784 198.188L141.933 200.763L141.74 201.018C139.773 203.51 136.372 204.372 133.456 203.118L133.166 202.985L132.883 202.84C129.998 201.278 128.565 197.91 129.476 194.729L130.35 191.68L127.218 192.191C123.848 192.742 120.57 190.789 119.45 187.563C118.33 184.337 119.692 180.773 122.678 179.117L125.453 177.578L122.876 175.726C120.103 173.733 119.166 170.033 120.655 166.959C122.144 163.886 125.628 162.329 128.911 163.269L131.961 164.144L131.449 161.013C130.898 157.642 132.851 154.364 136.077 153.243C139.303 152.123 142.868 153.485 144.525 156.472L146.064 159.245L147.915 156.669C149.908 153.897 153.607 152.959 156.681 154.448C159.754 155.937 161.312 159.422 160.371 162.705L159.498 165.755L162.628 165.243C165.999 164.692 169.277 166.644 170.398 169.87C171.518 173.096 170.156 176.661 167.169 178.318L164.395 179.857L166.97 181.708C169.743 183.701 170.681 187.4 169.193 190.474C167.75 193.452 164.435 195.006 161.244 194.245L160.936 194.164L157.887 193.291L158.398 196.421L158.442 196.737C158.826 199.995 156.896 203.106 153.77 204.191L153.467 204.289Z" fill="#5AB7E8" stroke="white" stroke-width="9"/>
</g>
<defs>
<clipPath id="clip0_10548_8436">
<rect x="228.396" y="307.959" width="323" height="220" rx="8" transform="rotate(-135 228.396 307.959)" fill="white"/>
</clipPath>
</defs>
</svg>
