<svg width="200" height="201" viewBox="0 0 200 201" fill="none" xmlns="http://www.w3.org/2000/svg">
<rect y="0.200806" width="200" height="200" rx="4" fill="#EE6350"/>
<g clip-path="url(#clip0_10390_4823)">
<path d="M116.648 87.6951C117.385 87.6991 118.094 87.4152 118.625 86.904C119.154 86.3948 119.461 85.6976 119.479 84.9638C119.47 84.2198 119.169 83.5091 118.64 82.9852C118.11 82.4592 117.395 82.1605 116.648 82.1528C115.911 82.1699 115.21 82.474 114.695 83.0003C114.181 83.5245 113.895 84.23 113.898 84.9638C113.904 85.6874 114.196 86.3793 114.71 86.8887C115.226 87.4003 115.922 87.6895 116.648 87.6951ZM135.883 90.3215H142.71V90.8594C142.331 90.9257 141.966 91.0512 141.626 91.2313C141.002 91.5213 139.754 92.9268 138.796 95.2822C137.173 99.3749 135.468 104.209 133.678 109.75L133.012 111.851C132.72 112.801 132.47 113.42 132.346 113.794C132.221 114.168 132.053 114.744 131.764 115.446C131.598 115.974 131.386 116.486 131.129 116.975C130.795 117.595 130.171 118.866 129.672 119.249C128.88 119.91 127.714 120.654 126.259 120.53C123.428 120.53 121.306 118.429 121.264 115.944C121.264 114.248 122.347 113.133 123.97 113.133C125.136 113.133 126.174 113.763 126.174 115.074C126.174 116.026 125.218 117.017 125.218 117.513C125.218 118.795 125.967 119.404 127.425 119.404C128.588 119.404 129.54 118.66 130.253 117.173C131.212 115.477 131.294 113.618 130.503 111.55L124.511 95.803C123.136 92.1664 122.096 90.9709 120.807 90.8427V90.3045H130.253V90.8422C129.13 90.9663 128.548 91.6282 128.548 92.8256C128.548 93.6934 128.88 95.017 129.504 96.7126L130.628 99.7699C131.918 103.077 132.955 105.97 133.5 107.789C134.706 104.028 135.828 100.721 136.913 97.8283C137.704 95.6789 138.079 94.1495 138.079 93.2397C138.079 91.6282 137.205 90.8845 135.872 90.8845L135.883 90.3215ZM70.1648 110.452C68.959 110.242 67.9182 109.17 67.9182 106.897V79.4928L61.051 80.9804V81.5604C62.2166 81.4363 63.378 82.4678 63.378 84.6593V106.897C63.378 109.046 62.2123 110.286 61.051 110.452C60.9419 110.471 60.8314 110.484 60.7209 110.491C60.1265 110.532 59.5312 110.428 58.9862 110.187C58.0638 109.788 57.2938 109.075 56.642 108.012L53.4689 102.97C52.7997 101.906 51.8049 101.087 50.6326 100.634C49.4576 100.18 48.1676 100.115 46.9528 100.448L50.5323 96.5219C53.236 93.5468 55.7346 91.6454 58.106 90.8597V90.3212H50.2321V90.8592C52.2713 91.6449 52.1465 93.3805 49.8089 96.1118L44.774 101.938V79.4928L37.9067 80.9804V81.5604C39.0724 81.5604 40.2338 82.7158 40.2338 84.7411V106.897C40.2338 109.336 39.1106 110.286 37.9067 110.452V110.99H47.0289V110.452C45.5313 110.242 44.7823 109.088 44.7823 106.897V102.806L46.737 100.657L51.4717 108.384C52.5952 110.246 53.636 110.99 55.301 110.99H71.1465V110.569C71.1465 110.569 70.6937 110.538 70.1648 110.452ZM89.0698 107.838V98.5933C88.9786 92.5487 86.4273 89.7964 80.5842 89.7964C78.7186 89.7819 76.9021 90.3928 75.4244 91.5315C73.8842 92.6893 73.1353 94.013 73.1353 95.5426C73.1353 97.0302 73.9668 98.1458 75.3396 98.1458C76.7974 98.1458 77.8383 97.32 77.8383 96.1624C77.8383 95.2946 77.2542 94.0951 77.2542 93.2693C77.2542 91.7797 78.3798 90.4981 80.3345 90.4981C82.8331 90.4981 84.6208 92.3597 84.6208 96.4923V98.9716L82.541 99.4673C81.4579 99.6773 80.5441 99.8876 79.8352 100.098C79.1266 100.308 78.2127 100.594 77.1294 101.005C74.9652 101.833 73.8016 102.619 72.8011 104.107C72.3113 104.825 72.0502 105.676 72.0522 106.546C72.0522 109.975 74.4659 111.546 77.8383 111.546C80.5016 111.546 83.3386 110.141 84.6208 107.495C84.6391 108.33 84.8403 109.15 85.211 109.899C86.622 112.735 91.2954 111.059 91.2954 111.059V110.521C89.2495 110.838 89.0803 108.422 89.0698 107.838ZM84.627 104.976C84.627 106.34 84.1277 107.456 83.1293 108.241C82.173 109.027 81.1744 109.441 80.1335 109.441C78.0941 109.441 76.7614 108.117 76.7614 105.678C76.7614 104.523 77.396 103.447 77.927 102.827C78.3479 102.399 78.8414 102.049 79.3846 101.793C80.0913 101.421 80.4424 101.23 80.9247 101.007L82.8288 100.306C83.7849 99.9339 84.3668 99.7279 84.6165 99.604L84.627 104.976ZM176.574 90.3215H160.388V79.4928H176.574L173.176 84.9073L176.574 90.3215ZM143.672 108.359C142.676 107.342 141.891 106.138 141.362 104.816C140.832 103.495 140.568 102.082 140.586 100.659C140.564 99.2419 140.825 97.8351 141.355 96.5209C141.886 95.2045 142.674 94.0069 143.672 92.9981C145.714 90.8468 148.214 89.7689 151.134 89.7689C154.009 89.7689 156.512 90.8468 158.553 92.9981C159.565 93.9989 160.365 95.1941 160.903 96.5118C161.44 97.8272 161.704 99.2381 161.68 100.659C161.701 102.085 161.435 103.5 160.898 104.822C160.36 106.145 159.563 107.348 158.553 108.359C156.512 110.46 154.009 111.546 151.134 111.546C148.214 111.546 145.714 110.47 143.672 108.359ZM154.885 93.3428C154.062 91.7439 152.981 90.8069 151.711 90.5546C149.137 90.0401 146.86 92.6683 146.012 96.8474C145.65 98.7219 145.562 100.639 145.752 102.539C145.938 104.44 146.47 106.292 147.322 108.002C148.147 109.603 149.226 110.538 150.495 110.79C153.07 111.305 155.412 108.565 156.266 104.344C156.975 100.816 156.615 96.5197 154.874 93.3406L154.885 93.3428Z" fill="white"/>
<path d="M119.062 106.896V90.3208H104.412V90.8189C106.369 91.1089 107.299 92.5755 106.411 94.9536C101.833 107.312 102.125 106.757 101.833 107.749C101.541 106.797 100.874 104.459 99.7935 101.526C98.7123 98.5926 98.0037 96.6472 97.7118 95.7794C96.5884 92.3483 96.9629 91.0666 98.7949 90.8609V90.3229H89.3044V90.8609C90.7198 91.1509 91.968 92.7621 93.0088 95.6553L94.4664 99.4163C96.0679 103.48 97.9488 109.081 98.577 110.991H101.731C102.747 108.049 106.821 96.3109 107.367 95.1176C107.955 93.7581 108.622 92.7285 109.367 92.0163C109.727 91.6325 110.164 91.3297 110.65 91.128C111.137 90.9257 111.661 90.8289 112.189 90.844C112.189 90.844 114.475 90.844 114.475 93.0354V106.896C114.475 109.207 113.352 110.285 112.186 110.451V110.989H121.26V110.451C120.061 110.285 119.062 109.211 119.062 106.896Z" fill="white"/>
</g>
<defs>
<clipPath id="clip0_10390_4823">
<rect width="138.667" height="41.0511" fill="white" transform="translate(37.9067 79.4928)"/>
</clipPath>
</defs>
</svg>
