<svg width="64" height="64" viewBox="0 0 64 64" fill="none" xmlns="http://www.w3.org/2000/svg">
<path d="M47.641 8.7113H11.2456V53.0558H47.641V8.7113Z" fill="white"/>
<path d="M60.8718 0H3.11936C1.40017 0 0 1.40017 0 3.11936V60.8806C0 62.5998 1.40017 64 3.11936 64H36.6968L64 36.6968V3.11936C64 1.40017 62.5998 0 60.8806 0H60.8718ZM43.4495 36.0144C40.6669 38.5046 36.422 39.7452 30.7239 39.7452H26.8956V51.9922C26.8956 52.4885 26.4968 52.8873 26.0006 52.8873H17.2628C16.7665 52.8873 16.3678 52.4885 16.3678 51.9922V11.99C16.3678 11.4938 16.7665 11.095 17.2628 11.095H30.6619C36.6613 11.095 40.9859 12.3268 43.6444 14.7992C46.303 17.2717 47.6322 20.843 47.6322 25.522C47.6322 30.2011 46.2409 33.5331 43.4495 36.0144Z" fill="#DD3A03"/>
<path d="M35.5093 21.339C34.4459 20.506 32.8065 20.0983 30.5999 20.0983H26.8957V30.8211H30.5999C32.6824 30.8211 34.2864 30.4135 35.4207 29.6071C36.5462 28.8006 37.1133 27.4359 37.1133 25.5218C37.1133 23.6076 36.5816 22.172 35.5182 21.339H35.5093Z" fill="#DD3A03"/>
</svg>
