<svg width="224" height="280" viewBox="0 0 224 280" fill="none" xmlns="http://www.w3.org/2000/svg">
<g clip-path="url(#clip0_10570_32627)">
<path d="M175.087 249.32C218.007 256.333 256.673 263.947 284.488 270.589C298.399 273.91 309.584 276.985 317.228 279.617C321.053 280.934 323.969 282.133 325.893 283.186C326.857 283.715 327.544 284.192 327.968 284.61C328.408 285.042 328.47 285.313 328.449 285.452C328.429 285.591 328.292 285.829 327.749 286.101C327.225 286.363 326.434 286.599 325.363 286.795C323.227 287.186 320.104 287.398 316.08 287.432C308.039 287.501 296.496 286.862 282.285 285.589C253.868 283.043 214.83 277.961 171.91 270.948C128.99 263.935 90.3241 256.321 62.5083 249.679C48.5982 246.358 37.4129 243.283 29.769 240.651C25.9438 239.334 23.0276 238.135 21.1042 237.081C20.1395 236.553 19.4531 236.076 19.0286 235.658C18.5895 235.226 18.527 234.955 18.5472 234.816C18.5676 234.678 18.7044 234.439 19.2475 234.167C19.772 233.904 20.5631 233.669 21.6342 233.473C23.7698 233.082 26.8933 232.87 30.9169 232.836C38.9575 232.767 50.5006 233.405 64.7114 234.679C93.1287 237.225 132.167 242.307 175.087 249.32Z" stroke="#D8A45F" stroke-width="1.02448"/>
<path d="M142.859 301.545C175.748 318.256 205.233 334.014 226.315 345.982C236.857 351.967 245.292 356.999 250.998 360.727C253.854 362.592 256.013 364.123 257.409 365.277C258.11 365.856 258.597 366.324 258.883 366.678C258.98 366.798 259.044 366.895 259.085 366.968C259.006 366.98 258.894 366.987 258.744 366.982C258.303 366.966 257.653 366.857 256.787 366.639C255.061 366.207 252.58 365.38 249.417 364.188C243.097 361.805 234.109 357.984 223.101 353.019C201.088 343.09 171.027 328.593 138.138 311.881C105.249 295.17 75.7643 279.412 54.6825 267.444C44.1403 261.46 35.7058 256.428 29.9995 252.7C27.1442 250.834 24.9855 249.304 23.5894 248.15C22.8881 247.571 22.4006 247.103 22.1144 246.748C22.0168 246.628 21.9523 246.531 21.9112 246.458C21.9911 246.446 22.1027 246.439 22.2531 246.445C22.694 246.46 23.3449 246.57 24.2118 246.788C25.9374 247.22 28.4175 248.047 31.5802 249.239C37.9008 251.622 46.8888 255.442 57.8966 260.407C79.9094 270.337 109.97 284.834 142.859 301.545Z" stroke="#D8A45F" stroke-width="1.02448"/>
<path d="M200.603 33.6424C243.972 51.3077 280.777 73.9469 305.226 96.2519C317.452 107.406 326.566 118.457 331.875 128.74C337.184 139.024 338.659 148.48 335.719 156.509C332.78 164.537 325.661 170.494 315.177 174.345C304.693 178.195 290.902 179.916 274.742 179.508C242.426 178.691 200.747 169.361 157.378 151.696C114.01 134.03 77.2044 111.391 52.7559 89.0861C40.5303 77.9324 31.4163 66.8811 26.1079 56.5983C20.7989 46.3144 19.3241 36.8574 22.2638 28.8289C25.2035 20.8005 32.3217 14.8444 42.8059 10.9937C53.2892 7.14332 67.0798 5.42183 83.2399 5.83036C115.556 6.64738 157.235 15.9771 200.603 33.6424Z" stroke="#D8A45F" stroke-width="1.02448"/>
<path d="M166.299 142.278C210.572 132.559 251.57 128.493 282.058 129.769C297.307 130.408 309.897 132.381 318.946 135.633C328.025 138.896 333.383 143.386 334.481 148.949C335.579 154.511 332.364 160.884 325.273 167.697C318.206 174.487 307.408 181.595 293.667 188.597C266.193 202.597 227.062 216.122 182.788 225.842C138.515 235.561 97.5164 239.627 67.0278 238.351C51.7799 237.713 39.1902 235.739 30.1411 232.487C21.0616 229.224 15.7036 224.733 14.6059 219.17C13.5083 213.608 16.7227 207.236 23.8137 200.423C30.8811 193.633 41.6787 186.525 55.4191 179.523C82.8931 165.523 122.025 151.998 166.299 142.278Z" stroke="#D8A45F" stroke-width="1.02448"/>
<path d="M187.61 -6.59856C232.819 -1.00928 273.498 6.21429 302.72 13.373C317.333 16.9531 329.063 20.5127 337.056 23.8365C341.057 25.5 344.093 27.0926 346.084 28.5833C347.079 29.3286 347.79 30.0323 348.233 30.6859C348.672 31.3359 348.829 31.9095 348.772 32.4213C348.715 32.9332 348.437 33.4531 347.867 33.9782C347.293 34.5063 346.447 35.0173 345.315 35.4997C343.052 36.4645 339.748 37.2732 335.492 37.9159C326.986 39.2 314.794 39.802 299.791 39.7205C269.793 39.5577 228.632 36.6641 183.423 31.0748C138.214 25.4855 97.535 18.261 68.3136 11.1023C53.6995 7.52207 41.9691 3.9625 33.9758 0.638582C29.9757 -1.02482 26.9397 -2.61744 24.9494 -4.10804C23.9543 -4.85336 23.2429 -5.55703 22.8005 -6.2107C22.3608 -6.86066 22.2046 -7.43426 22.2614 -7.94609C22.3183 -8.45789 22.5961 -8.97788 23.1664 -9.50293C23.7401 -10.031 24.5866 -10.5421 25.7181 -11.0244C27.9812 -11.9892 31.2841 -12.7981 35.5404 -13.4408C44.0459 -14.7249 56.2387 -15.3268 71.2417 -15.2453C101.241 -15.0824 142.401 -12.1878 187.61 -6.59856Z" stroke="#D8A45F" stroke-width="1.02448"/>
<path d="M155.811 -73.323C194.618 -84.9672 230.574 -92.8423 257.332 -96.165C270.715 -97.8269 281.773 -98.3475 289.727 -97.6395C293.707 -97.2852 296.877 -96.6256 299.166 -95.6677C301.46 -94.7071 302.782 -93.4848 303.232 -92.0511C303.681 -90.6174 303.287 -88.8804 301.938 -86.8264C300.592 -84.7782 298.345 -82.4928 295.253 -80.0167C289.072 -75.0676 279.618 -69.4326 267.584 -63.468C243.524 -51.5425 209.237 -38.3411 170.43 -26.6969C131.623 -15.0527 95.6663 -7.17734 68.9084 -3.85462C55.5252 -2.19275 44.4673 -1.67309 36.5133 -2.3811C32.5337 -2.73534 29.3628 -3.39498 27.0747 -4.3529C24.7802 -5.31347 23.4593 -6.53602 23.0097 -7.9697C22.5602 -9.40338 22.9533 -11.1402 24.3026 -13.1941C25.6482 -15.2424 27.8956 -17.5278 30.9878 -20.0039C37.1681 -24.953 46.6224 -30.587 58.6564 -36.5517C82.717 -48.4772 117.004 -61.6788 155.811 -73.323Z" stroke="#D8A45F" stroke-width="1.02448"/>
</g>
<defs>
<clipPath id="clip0_10570_32627">
<rect width="357.982" height="530" fill="white" transform="translate(0 -116)"/>
</clipPath>
</defs>
</svg>
