<svg width="200" height="201" viewBox="0 0 200 201" fill="none" xmlns="http://www.w3.org/2000/svg">
<rect y="0.200684" width="200" height="200" rx="4" fill="#720EEC"/>
<path d="M58.3568 114.693C61.6222 114.693 64.2425 113.081 66.2179 109.372L70.612 101.148V108.122C70.612 112.234 73.2727 114.693 77.3846 114.693C80.6097 114.693 82.9882 113.282 85.286 109.372L95.4046 92.2791C97.6219 88.5299 96.0497 85.708 91.1718 85.708C88.5514 85.708 86.8582 86.5546 85.3263 89.4168L78.3522 102.519V90.8681C78.3522 87.4012 76.6993 85.708 73.6355 85.708C71.2167 85.708 69.2817 86.7562 67.7901 89.6587L61.219 102.519V90.989C61.219 87.2802 59.6871 85.708 55.9783 85.708H48.3995C45.5372 85.708 44.0859 87.0383 44.0859 89.4974C44.0859 91.9566 45.6178 93.3675 48.3995 93.3675H51.5036V108.082C51.5036 112.234 54.2852 114.693 58.3568 114.693Z" fill="white"/>
<path fill-rule="evenodd" clip-rule="evenodd" d="M110.202 85.708C101.938 85.708 95.6083 91.8759 95.6083 100.221C95.6083 108.566 101.978 114.693 110.202 114.693C118.426 114.693 124.714 108.525 124.755 100.221C124.755 91.8759 118.426 85.708 110.202 85.708ZM110.202 105.784C107.098 105.784 104.961 103.446 104.961 100.221C104.961 96.9957 107.098 94.6172 110.202 94.6172C113.306 94.6172 115.442 96.9957 115.442 100.221C115.442 103.446 113.346 105.784 110.202 105.784Z" fill="white"/>
<path fill-rule="evenodd" clip-rule="evenodd" d="M126.808 100.221C126.808 91.8759 133.137 85.708 141.361 85.708C149.585 85.708 155.914 91.9162 155.914 100.221C155.914 108.525 149.585 114.693 141.361 114.693C133.137 114.693 126.808 108.566 126.808 100.221ZM136.161 100.221C136.161 103.446 138.217 105.784 141.361 105.784C144.465 105.784 146.602 103.446 146.602 100.221C146.602 96.9957 144.465 94.6172 141.361 94.6172C138.257 94.6172 136.161 96.9957 136.161 100.221Z" fill="white"/>
</svg>
