<svg width="627" height="601" viewBox="0 0 627 601" fill="none" xmlns="http://www.w3.org/2000/svg">
<path d="M27.339 243.507C55.3504 203.419 118.021 196.237 182.241 220.728C151.49 161.901 147.507 101.758 177.708 58.5366C230.539 -17.0705 367.965 -12.2615 484.658 69.2782C601.351 150.818 653.122 278.211 600.291 353.818C552.736 421.874 436.642 424.773 328.821 365.206C338.117 395.93 335.978 425.411 320.128 448.094C297.757 480.109 253.281 491.137 203.563 481.806C221.412 502.01 229.421 525.956 223.116 548.088C211.284 589.616 153.533 609.025 94.1247 591.438C34.7168 573.852 -3.85102 525.931 7.98082 484.402C17.3285 451.593 55.3369 432.591 100.18 434.729C24.6912 378.152 -7.9377 293.992 27.339 243.507Z" fill="#F2EDFF"/>
</svg>
