<svg width="64" height="65" viewBox="0 0 64 65" fill="none" xmlns="http://www.w3.org/2000/svg">
<rect y="0.634766" width="64" height="64" rx="4" fill="#145457"/>
<g clip-path="url(#clip0_10441_1826)">
<path d="M31.84 14.6505C21.8693 14.6505 13.76 22.7598 13.76 32.7305C13.76 42.7013 21.8693 50.8105 31.84 50.8105C41.8107 50.8105 49.92 42.7013 49.92 32.7305C49.92 22.7598 41.8107 14.6505 31.84 14.6505ZM15.5858 32.7305C15.5858 30.3748 16.0935 28.1348 16.993 26.1131L24.7461 47.3593C19.3221 44.723 15.5858 39.1654 15.5858 32.7305ZM31.84 48.9847C30.2458 48.9847 28.705 48.7487 27.2488 48.3212L32.125 34.1511L37.1215 47.8403C37.1527 47.9204 37.1928 47.9961 37.2373 48.0629C35.5495 48.6596 33.7326 48.9847 31.84 48.9847ZM34.08 25.1067C35.0597 25.0532 35.9414 24.9508 35.9414 24.9508C36.8187 24.8484 36.7118 23.5614 35.839 23.6104C35.839 23.6104 33.2071 23.8152 31.506 23.8152C29.9073 23.8152 27.2265 23.6104 27.2265 23.6104C26.3492 23.5569 26.2468 24.8974 27.1241 24.9508C27.1241 24.9508 27.9524 25.0532 28.8296 25.1067L31.3635 32.0447L27.8054 42.7146L21.8826 25.1067C22.8624 25.0532 23.7441 24.9508 23.7441 24.9508C24.6214 24.8484 24.5145 23.5614 23.6417 23.6104C23.6417 23.6104 21.0098 23.8152 19.3087 23.8152C19.0059 23.8152 18.6452 23.8063 18.2622 23.7974C21.1657 19.3887 26.1622 16.4764 31.84 16.4764C36.0706 16.4764 39.927 18.0929 42.8172 20.7425C42.7459 20.7381 42.6791 20.7292 42.6079 20.7292C41.0092 20.7292 39.878 22.1186 39.878 23.6148C39.878 24.9553 40.6529 26.0864 41.4767 27.4268C42.0957 28.5089 42.8172 29.8983 42.8172 31.9112C42.8172 33.3006 42.2828 34.9171 41.5792 37.1659L39.9582 42.581L34.08 25.1067ZM46.1036 24.933C47.3728 27.2487 48.0942 29.9072 48.0942 32.7305C48.0942 38.729 44.8434 43.9615 40.0116 46.7804L44.977 32.4233C45.9032 30.1032 46.2149 28.2506 46.2149 26.6029C46.2149 26.0062 46.1749 25.4496 46.1036 24.933Z" fill="white"/>
</g>
<defs>
<clipPath id="clip0_10441_1826">
<rect width="36.16" height="36.16" fill="white" transform="translate(13.76 14.6505)"/>
</clipPath>
</defs>
</svg>
