<svg width="488" height="260" viewBox="0 0 488 260" fill="none" xmlns="http://www.w3.org/2000/svg">
<g clip-path="url(#clip0_8800_4970)">
<rect width="488" height="260" fill="#CFECFE"/>
<g clip-path="url(#clip1_8800_4970)">
<rect x="30.5" y="185.694" width="192.889" height="192.889" rx="96.4444" fill="#67C5F9"/>
<path d="M-72.4676 330.099C-21.3953 384.077 -7.42704 398.066 16.6729 412.115C40.7729 426.164 35.8958 417.477 8.92129 377.55C-18.051 337.624 -28.0344 324.314 -79.1067 270.338C-130.179 216.362 -139.468 209.3 -163.566 195.251C-187.663 181.202 -178.878 192.471 -164.966 219.971C-150.791 247.993 -123.54 276.121 -72.4676 330.099Z" stroke="#CFECFE" stroke-width="2" stroke-miterlimit="10"/>
<path d="M-73.7176 330.426C-21.3508 387.002 -6.98478 401.703 18.3761 416.995C43.7346 432.287 38.9362 423.358 11.928 382.071C-15.0803 340.787 -25.1581 326.974 -77.5249 270.397C-129.892 213.821 -139.572 206.285 -164.93 190.993C-190.289 175.701 -181.393 187.415 -167.857 215.608C-154.064 244.333 -126.084 273.85 -73.7176 330.426Z" stroke="#CFECFE" stroke-width="2" stroke-miterlimit="10"/>
<path d="M-75.0908 330.686C-21.4676 389.926 -6.70823 405.358 19.9472 421.955C46.6025 438.553 41.903 429.383 14.9352 386.744C-12.0326 344.104 -22.1868 329.781 -75.81 270.541C-129.433 211.301 -139.513 203.269 -166.169 186.671C-192.824 170.073 -183.836 182.237 -170.747 211.097C-157.408 240.508 -128.716 271.447 -75.0908 330.686Z" stroke="#CFECFE" stroke-width="2" stroke-miterlimit="10"/>
<path d="M-76.5984 330.879C-21.7616 392.845 -6.62014 409.027 21.3703 426.998C49.3607 444.969 44.7803 435.565 17.9339 391.57C-8.91257 347.575 -19.1208 332.744 -73.9554 270.778C-128.79 208.812 -139.275 200.265 -167.265 182.294C-195.255 164.323 -186.189 176.94 -173.623 206.448C-160.819 236.515 -131.435 268.913 -76.5984 330.879Z" stroke="#CFECFE" stroke-width="2" stroke-miterlimit="10"/>
<path d="M-78.2455 330.984C-22.2467 395.735 -6.72996 412.688 22.6292 432.1C51.9883 451.511 47.5517 441.881 20.9143 396.542C-5.72308 351.203 -15.9604 335.857 -71.957 271.106C-127.954 206.356 -138.849 197.271 -168.209 177.86C-197.568 158.448 -188.445 171.524 -176.484 201.647C-164.296 232.341 -134.242 266.234 -78.2455 330.984Z" stroke="#CFECFE" stroke-width="2" stroke-miterlimit="10"/>
<path d="M-80.0402 331.01C-22.9401 398.601 -7.06149 416.345 23.7046 437.265C54.4707 458.185 50.2004 448.336 23.8664 401.667C-2.46757 354.997 -12.7072 339.134 -69.8073 271.543C-126.907 203.952 -138.217 194.308 -168.981 173.388C-199.744 152.468 -190.588 166 -179.317 196.71C-167.834 228 -137.14 263.418 -80.0402 331.01Z" stroke="#CFECFE" stroke-width="2" stroke-miterlimit="10"/>
<path d="M-81.9867 330.94C-23.8506 401.428 -7.62582 419.977 24.5787 442.479C56.7831 464.981 52.7084 454.923 26.7789 406.937C0.847241 358.95 -9.36315 342.575 -67.4993 272.089C-125.636 201.602 -137.361 191.379 -169.565 168.877C-201.77 146.375 -192.598 160.37 -182.111 191.626C-171.426 223.475 -140.123 260.451 -81.9867 330.94Z" stroke="#CFECFE" stroke-width="2" stroke-miterlimit="10"/>
<path d="M-84.0974 330.764C-25.0038 404.197 -8.44643 423.57 25.2324 447.729C58.9113 471.887 55.059 461.627 29.642 412.351C4.22497 363.074 -5.92699 346.186 -65.0229 272.754C-124.119 199.321 -136.264 188.499 -169.941 164.341C-203.617 140.183 -194.459 154.638 -184.853 186.402C-175.067 218.767 -143.193 257.331 -84.0974 330.764Z" stroke="#CFECFE" stroke-width="2" stroke-miterlimit="10"/>
<path d="M-86.3774 330.481C-26.4095 406.907 -9.53974 427.119 25.6427 453.006C60.8251 478.892 57.2291 468.446 32.4414 417.906C7.65369 367.367 -2.40391 349.971 -62.3718 273.545C-122.34 197.118 -134.908 185.676 -170.09 159.79C-205.273 133.903 -196.152 148.822 -187.533 181.044C-178.752 213.876 -146.345 254.057 -86.3774 330.481Z" stroke="#CFECFE" stroke-width="2" stroke-miterlimit="10"/>
<path d="M-88.8382 330.082C-28.0926 409.542 -10.9307 430.611 25.7845 458.302C62.4998 485.994 59.1914 475.374 35.1611 423.607C11.1308 371.841 1.20134 353.941 -59.5442 274.483C-120.29 195.025 -133.283 182.94 -169.998 155.246C-206.713 127.553 -197.662 142.926 -190.14 175.555C-182.471 208.802 -149.584 250.621 -88.8382 330.082Z" stroke="#CFECFE" stroke-width="2" stroke-miterlimit="10"/>
<path d="M-91.486 329.552C-30.0685 412.083 -12.6391 434.021 25.6404 463.596C63.9198 493.171 60.9307 482.394 37.7926 429.441C14.6546 376.487 4.89366 358.094 -56.5239 275.563C-117.941 193.032 -131.357 180.285 -169.634 150.71C-207.911 121.135 -198.962 136.957 -192.653 169.935C-186.223 203.537 -152.904 247.022 -91.486 329.552Z" stroke="#CFECFE" stroke-width="2" stroke-miterlimit="10"/>
<path d="M-94.3293 328.886C-32.3589 414.518 -14.6846 437.337 25.1817 468.876C65.0479 500.416 62.4183 489.495 40.3141 435.402C18.2099 381.309 8.66253 362.43 -53.3079 276.8C-115.278 191.17 -129.116 177.737 -168.982 146.198C-208.849 114.658 -200.034 130.93 -195.062 164.193C-189.997 198.086 -156.302 243.254 -94.3293 328.886Z" stroke="#CFECFE" stroke-width="2" stroke-miterlimit="10"/>
<path d="M-97.3784 328.068C-34.9809 416.824 -17.0975 440.537 24.3824 474.12C65.8623 507.702 63.6305 496.66 42.713 441.484C21.7955 386.307 12.5066 366.956 -49.8886 278.198C-112.284 189.44 -126.54 175.303 -168.02 141.721C-209.5 108.138 -200.858 124.849 -197.352 158.327C-193.778 192.44 -159.774 239.312 -97.3784 328.068Z" stroke="#CFECFE" stroke-width="2" stroke-miterlimit="10"/>
<path d="M-100.64 327.096C-37.9597 418.996 -19.8965 443.613 23.2196 479.319C66.3357 515.025 64.54 503.882 44.9732 447.688C25.4087 391.493 16.4254 371.682 -46.2552 279.781C-108.936 187.881 -123.605 173.016 -166.719 137.31C-209.833 101.603 -201.403 118.743 -199.504 152.359C-197.566 186.609 -163.321 235.195 -100.64 327.096Z" stroke="#CFECFE" stroke-width="2" stroke-miterlimit="10"/>
<path d="M-104.129 325.95C-41.3204 421.006 -23.1111 446.533 21.6569 484.449C66.425 522.364 65.1102 511.14 47.0694 453.999C29.0287 396.859 20.4051 376.602 -42.4037 281.548C-105.212 186.495 -120.291 170.881 -165.059 132.966C-209.827 95.0506 -201.651 112.61 -201.5 146.278C-201.345 180.584 -166.938 230.894 -104.129 325.95Z" stroke="#CFECFE" stroke-width="2" stroke-miterlimit="10"/>
<path d="M-107.845 324.628C-45.074 422.839 -26.7636 449.286 19.6743 489.491C66.1123 529.697 65.3234 518.421 48.9908 460.413C32.6581 402.405 24.4503 381.728 -38.3202 283.514C-101.091 185.301 -116.567 168.923 -163.005 128.718C-209.443 88.512 -201.568 106.474 -203.318 140.103C-205.101 174.371 -170.615 226.414 -107.845 324.628Z" stroke="#CFECFE" stroke-width="2" stroke-miterlimit="10"/>
<path d="M-111.808 323.109C-49.2598 424.471 -30.8887 451.841 17.2326 494.42C65.3539 536.999 65.1381 525.699 50.7091 466.915C36.2802 408.132 28.5487 387.052 -33.9993 285.69C-96.5473 184.328 -112.415 167.159 -160.536 124.58C-208.657 82.0011 -201.128 100.347 -204.942 133.842C-208.828 167.968 -174.356 221.746 -111.808 323.109Z" stroke="#CFECFE" stroke-width="2" stroke-miterlimit="10"/>
<path d="M-116.021 321.388C-53.8931 425.886 -35.5085 454.178 14.3029 499.22C64.1144 544.262 64.5234 532.964 52.2048 473.506C39.8885 414.048 32.692 392.594 -29.4335 288.096C-91.559 183.598 -107.808 165.625 -157.62 120.583C-207.431 75.5406 -200.302 94.2601 -206.348 127.507C-212.508 161.384 -178.149 216.893 -116.021 321.388Z" stroke="#CFECFE" stroke-width="2" stroke-miterlimit="10"/>
<path d="M-120.499 319.447C-59.0076 427.053 -40.659 456.269 10.847 503.855C62.3531 551.441 63.4386 540.179 53.4507 480.159C43.4628 420.14 36.8731 398.337 -24.6186 290.731C-86.1103 183.125 -102.726 164.325 -154.23 116.74C-205.734 69.1563 -199.063 88.2196 -207.516 121.105C-216.131 154.613 -181.991 211.841 -120.499 319.447Z" stroke="#CFECFE" stroke-width="2" stroke-miterlimit="10"/>
<path d="M-125.245 317.273C-64.6184 427.95 -46.3642 458.086 6.83646 508.302C60.0371 558.518 61.8576 547.33 54.4296 486.87C47.0016 426.41 41.0907 404.292 -19.5357 293.614C-80.1621 182.936 -97.1286 163.292 -150.327 113.076C-203.525 62.8605 -197.372 82.2497 -208.418 114.647C-219.674 147.659 -185.873 206.595 -125.245 317.273Z" stroke="#CFECFE" stroke-width="2" stroke-miterlimit="10"/>
<path d="M-130.277 314.857C-70.7656 428.556 -52.6664 459.606 2.22434 512.537C57.1151 565.468 59.7267 554.39 55.1059 493.624C50.4828 432.858 45.3247 410.46 -14.1869 296.763C-73.6986 183.066 -90.9976 162.56 -145.886 109.629C-200.775 56.698 -195.196 76.3816 -209.03 108.157C-223.126 140.534 -189.789 201.159 -130.277 314.857Z" stroke="#CFECFE" stroke-width="2" stroke-miterlimit="10"/>
<path d="M-135.599 312.178C-77.4676 428.835 -59.5887 460.79 -3.01676 516.521C53.5551 572.253 57.0208 561.328 55.4588 500.402C53.8968 439.477 49.5726 416.84 -8.55912 300.183C-66.6908 183.527 -84.3 162.144 -140.87 106.413C-197.439 50.6813 -192.502 70.6324 -209.326 101.639C-226.468 133.234 -193.731 195.522 -135.599 312.178Z" stroke="#CFECFE" stroke-width="2" stroke-miterlimit="10"/>
<path d="M-141.224 309.228C-84.76 428.768 -67.1711 461.613 -8.93601 520.23C49.2991 578.847 53.684 568.118 55.455 507.192C57.226 446.269 53.8188 423.437 -2.64299 303.899C-59.1048 184.361 -77.0039 162.086 -135.239 103.469C-193.474 44.8515 -189.249 65.0318 -209.276 95.1169C-229.681 125.773 -197.688 189.687 -141.224 309.228Z" stroke="#CFECFE" stroke-width="2" stroke-miterlimit="10"/>
<path d="M-147.166 305.987C-92.6772 428.316 -75.4523 462.04 -15.5743 523.624C44.3037 585.208 49.673 574.723 55.0625 513.975C60.452 453.228 58.0517 430.249 3.56321 307.92C-50.9253 185.59 -69.0851 162.41 -128.963 100.826C-188.841 39.242 -185.402 59.6133 -208.851 88.6084C-232.744 118.154 -201.654 183.655 -147.166 305.987Z" stroke="#CFECFE" stroke-width="2" stroke-miterlimit="10"/>
<path d="M-153.428 302.436C-101.241 427.452 -84.4632 462.029 -22.9714 526.661C38.5203 591.292 44.9459 581.104 54.2505 520.723C63.5552 460.342 62.2584 437.269 10.0713 312.254C-42.1157 187.238 -60.5093 163.141 -122.001 98.507C-183.493 33.8733 -180.917 54.3997 -208.02 82.1272C-235.635 110.381 -205.613 177.421 -153.428 302.436Z" stroke="#CFECFE" stroke-width="2" stroke-miterlimit="10"/>
<path d="M-160.021 298.564C-110.486 426.139 -94.2413 461.546 -31.1696 529.309C31.9021 597.071 39.4537 587.231 52.9904 527.419C66.5271 467.606 66.4305 444.497 16.8955 316.924C-32.6395 189.351 -51.2331 164.321 -114.305 96.5585C-177.376 28.7963 -175.749 49.4284 -206.747 75.6995C-238.331 102.469 -209.556 170.989 -160.021 298.564Z" stroke="#CFECFE" stroke-width="2" stroke-miterlimit="10"/>
<path d="M-166.96 294.351C-120.448 424.342 -104.828 460.554 -40.2231 531.523C24.3814 602.492 33.1421 593.062 51.2368 534.04C69.3314 475.018 70.5429 451.937 24.0308 321.943C-22.4813 191.95 -41.2412 165.985 -105.848 95.0128C-170.455 24.0412 -169.864 44.7317 -205.003 69.3441C-240.806 94.4262 -213.472 164.357 -166.96 294.351Z" stroke="#CFECFE" stroke-width="2" stroke-miterlimit="10"/>
<path d="M-174.251 289.78C-131.16 422.028 -116.265 459.006 -50.173 533.262C15.9193 607.517 25.9612 598.556 48.9599 540.564C71.9586 482.569 74.5859 459.582 31.4945 327.334C-11.5969 195.086 -30.4849 168.17 -96.575 93.915C-162.665 19.6597 -163.202 40.3525 -202.745 63.0927C-243.038 86.2645 -217.342 157.531 -174.251 289.78Z" stroke="#CFECFE" stroke-width="2" stroke-miterlimit="10"/>
<path d="M-181.907 284.838C-142.656 419.16 -128.591 456.866 -61.0765 534.479C6.43856 612.092 17.8514 603.669 46.1138 546.96C74.3784 490.249 78.5362 467.43 39.2858 333.108C0.0354113 198.786 -18.9357 170.921 -86.4508 93.3079C-153.966 15.6949 -155.726 36.3315 -199.941 56.9725C-244.994 78.0024 -221.159 150.516 -181.907 284.838Z" stroke="#CFECFE" stroke-width="2" stroke-miterlimit="10"/>
<path d="M-189.933 279.499C-154.969 415.691 -141.848 454.083 -72.9753 535.121C-4.10284 616.159 8.76186 608.347 42.6677 553.193C76.5735 498.039 82.3856 475.47 47.4212 339.278C12.4568 203.086 -6.54812 174.266 -75.4206 93.2279C-144.293 12.1897 -147.374 32.7049 -196.543 51.0018C-246.647 69.6449 -224.898 143.307 -189.933 279.499Z" stroke="#CFECFE" stroke-width="2" stroke-miterlimit="10"/>
<path d="M-198.343 273.745C-168.136 411.58 -156.078 450.605 -85.9315 535.139C-15.7847 619.672 -1.37593 612.543 38.5667 559.239C78.5093 505.934 86.1014 483.7 55.895 345.865C25.6885 208.03 6.69935 178.255 -63.4475 93.7221C-133.594 9.18895 -138.107 29.5154 -192.519 45.2142C-247.965 61.2119 -228.549 135.91 -198.343 273.745Z" stroke="#CFECFE" stroke-width="2" stroke-miterlimit="10"/>
<path d="M-207.145 267.563C-182.198 406.791 -171.329 446.395 -99.9954 534.481C-28.6619 622.568 -12.6147 616.203 33.7715 565.063C80.1578 513.923 89.6647 492.116 64.7197 352.89C39.7746 213.663 20.8529 182.933 -50.4784 94.8469C-121.81 6.76046 -127.867 26.8217 -187.823 39.6504C-248.919 52.7242 -232.092 128.335 -207.145 267.563Z" stroke="#CFECFE" stroke-width="2" stroke-miterlimit="10"/>
<path d="M-216.349 260.929C-197.191 401.272 -187.646 441.388 -115.227 533.088C-42.8076 624.788 -25.0276 619.271 28.2337 570.63C81.4951 521.99 93.054 500.708 73.8963 360.367C54.7385 220.024 35.9494 188.348 -36.4697 96.6498C-108.889 4.95161 -116.602 24.6667 -182.414 34.3422C-249.47 44.1975 -235.506 120.588 -216.349 260.929Z" stroke="#CFECFE" stroke-width="2" stroke-miterlimit="10"/>
<path d="M-225.957 253.82C-213.147 394.972 -205.067 435.535 -131.674 530.899C-58.2823 626.262 -38.6683 621.684 21.9109 575.896C82.4901 530.108 96.2493 509.462 83.4363 368.31C70.6255 227.157 52.0319 194.542 -21.3603 99.1756C-94.7525 3.80955 -104.246 23.0976 -176.234 29.3142C-249.581 35.6499 -238.77 112.665 -225.957 253.82Z" stroke="#CFECFE" stroke-width="2" stroke-miterlimit="10"/>
<path d="M-235.988 246.217C-230.111 387.845 -223.649 428.777 -149.41 527.851C-75.17 626.926 -53.6187 623.382 14.7436 580.825C83.1059 538.271 99.2138 518.374 93.3366 376.743C87.4594 235.112 69.1332 201.568 -5.10637 102.493C-79.3459 3.41895 -90.7497 22.1811 -169.242 24.6219C-249.219 27.1121 -241.865 104.588 -235.988 246.217Z" stroke="#CFECFE" stroke-width="2" stroke-miterlimit="10"/>
<path d="M-246.439 238.102C-248.116 379.845 -243.43 421.058 -168.482 523.881C-93.5347 626.704 -69.9404 624.293 6.68595 585.375C83.3123 546.457 101.928 527.43 103.607 385.687C105.284 243.943 87.3017 209.487 12.3519 106.661C-62.5979 3.83577 -76.0424 21.9776 -161.38 20.3077C-248.338 18.6041 -244.763 96.3588 -246.439 238.102Z" stroke="#CFECFE" stroke-width="2" stroke-miterlimit="10"/>
<path d="M-257.324 229.452C-267.208 370.912 -264.466 412.313 -188.962 518.919C-113.457 625.525 -87.7093 624.35 -2.31989 589.495C83.0695 554.641 104.36 536.614 114.245 395.154C124.129 253.693 106.567 218.34 31.0645 111.734C-44.4381 5.12856 -60.065 22.54 -152.604 16.4065C-246.898 10.1562 -247.442 87.9895 -257.324 229.452Z" stroke="#CFECFE" stroke-width="2" stroke-miterlimit="10"/>
<path d="M-268.647 220.239C-287.423 360.989 -286.803 402.476 -210.909 512.886C-135.015 623.297 -107 623.473 -12.3306 593.134C82.3387 562.795 106.475 545.909 125.25 405.159C144.026 264.409 126.976 228.186 51.0827 117.775C-24.811 7.36444 -42.7619 23.933 -142.861 12.9652C-244.855 1.78838 -249.872 79.4891 -268.647 220.239Z" stroke="#CFECFE" stroke-width="2" stroke-miterlimit="10"/>
<path d="M-280.416 210.452C-308.804 350.027 -310.49 391.489 -234.389 505.722C-158.289 619.956 -127.891 621.595 -23.4047 596.252C81.0817 570.909 108.241 555.309 136.629 415.735C165.017 276.16 148.57 239.094 72.4716 124.863C-3.62667 10.6311 -24.0565 26.2377 -132.085 10.0467C-242.163 -6.4522 -252.027 70.8777 -280.416 210.452Z" stroke="#CFECFE" stroke-width="2" stroke-miterlimit="10"/>
<path d="M-292.629 200.056C-331.383 337.954 -335.572 379.272 -259.467 497.329C-183.362 615.386 -150.459 618.615 -35.6003 598.777C79.2584 578.938 109.627 564.779 148.38 426.883C187.134 288.987 171.39 251.11 95.2853 133.053C19.1804 14.9964 -3.88125 29.5131 -120.223 7.68754C-238.768 -14.5493 -253.876 62.158 -292.629 200.056Z" stroke="#CFECFE" stroke-width="2" stroke-miterlimit="10"/>
<path d="M-305.3 189.042C-355.21 324.722 -362.108 365.763 -286.214 487.643C-210.321 609.523 -174.787 614.47 -48.9835 600.668C76.8206 586.866 110.589 574.318 160.5 438.639C210.41 302.959 195.475 264.311 119.582 142.431C43.6878 20.5513 17.8281 33.843 -107.214 5.96048C-234.625 -22.4502 -255.387 53.3626 -305.3 189.042Z" stroke="#CFECFE" stroke-width="2" stroke-miterlimit="10"/>
<path d="M-318.423 177.374C-380.317 310.256 -390.139 350.882 -314.693 476.567C-239.246 602.252 -200.958 609.05 -63.6172 601.854C73.7233 594.655 111.093 583.892 172.987 451.008C234.881 318.124 220.867 278.75 145.423 153.065C69.9789 27.3806 41.1525 39.2991 -92.9921 4.91002C-229.678 -30.1308 -256.529 44.4931 -318.423 177.374Z" stroke="#CFECFE" stroke-width="2" stroke-miterlimit="10"/>
<path d="M-332.005 165.039C-406.75 294.5 -419.72 334.555 -344.975 464.016C-270.23 593.476 -229.056 602.271 -79.5674 602.271C69.9209 602.271 111.095 593.476 185.84 464.016C260.586 334.555 247.613 294.5 172.87 165.039C98.127 35.5785 66.1541 45.9732 -77.4974 4.61012C-223.873 -37.5351 -257.262 35.5785 -332.005 165.039Z" stroke="#CFECFE" stroke-width="2" stroke-miterlimit="10"/>
</g>
<g clip-path="url(#clip2_8800_4970)">
<rect x="17.6113" y="-167.139" width="192.889" height="192.889" rx="96.4444" fill="#67C5F9"/>
<path d="M139.515 -255.14C69.9899 -255.14 78.459 -229.075 22.2109 -188.209C-34.0371 -147.342 -56.2085 -163.451 -77.6926 -97.3276C-99.1767 -31.2039 -71.772 -31.2039 -50.2852 34.9171C-28.7985 101.038 -50.9725 117.15 5.27553 158.016C61.5236 198.883 69.9926 172.818 139.518 172.818C209.043 172.818 217.512 198.883 273.76 158.016C330.008 117.15 307.837 101.041 329.321 34.9171C350.805 -31.2066 378.212 -31.2066 356.728 -97.3276C335.244 -163.449 306.989 -138.245 257.798 -187.377C208.225 -236.886 209.04 -255.14 139.515 -255.14Z" stroke="#67C5F9" stroke-width="2" stroke-miterlimit="10"/>
<path d="M142.551 -249.625C73.708 -249.625 82.046 -223.961 26.3515 -183.496C-29.343 -143.031 -51.1747 -158.891 -72.4503 -93.4174C-93.7258 -27.9436 -66.7383 -27.9435 -45.4654 37.5303C-24.1926 103.004 -46.0217 118.867 9.67284 159.332C65.37 199.798 73.708 174.134 142.551 174.134C211.395 174.134 219.735 199.798 275.43 159.332C331.127 118.867 309.295 103.007 330.568 37.5303C351.841 -27.9435 378.826 -27.9436 357.553 -93.4174C336.28 -158.891 308.445 -134.027 259.724 -182.667C210.648 -231.658 211.397 -249.625 142.551 -249.625Z" stroke="#67C5F9" stroke-width="2" stroke-miterlimit="10"/>
<path d="M145.589 -244.104C77.4278 -244.104 85.6347 -218.841 30.4911 -178.774C-24.6525 -138.708 -46.1447 -154.325 -67.2062 -89.4979C-88.2678 -24.6712 -61.7055 -24.6712 -40.6439 40.1555C-19.5823 104.982 -41.0718 120.597 14.0745 160.661C69.2208 200.725 77.4278 175.462 145.589 175.462C213.751 175.462 221.96 200.725 277.104 160.661C332.247 120.597 310.758 104.982 331.822 40.1555C352.886 -24.6712 379.449 -24.6712 358.385 -89.4979C337.32 -154.325 309.908 -129.803 261.655 -177.948C213.074 -226.425 213.751 -244.104 145.589 -244.104Z" stroke="#67C5F9" stroke-width="2" stroke-miterlimit="10"/>
<path d="M148.624 -238.589C81.1443 -238.589 89.2202 -213.728 34.6275 -174.062C-19.9653 -134.396 -41.1124 -149.765 -61.9655 -85.5877C-82.8185 -21.4108 -56.676 -21.4108 -35.823 42.7688C-14.97 106.948 -36.1198 122.314 18.4729 161.977C73.0657 201.64 81.1443 176.778 148.626 176.778C216.109 176.778 224.184 201.64 278.78 161.977C333.373 122.314 312.223 106.946 333.076 42.7688C353.929 -21.4081 380.071 -21.4081 359.218 -85.5877C338.365 -149.767 311.372 -125.588 263.591 -173.238C215.496 -221.196 216.106 -238.589 148.624 -238.589Z" stroke="#67C5F9" stroke-width="2" stroke-miterlimit="10"/>
<path d="M151.663 -233.073C84.8626 -233.073 92.8128 -208.609 38.7709 -169.348C-15.2709 -130.086 -36.0785 -145.203 -56.7202 -81.6729C-77.362 -18.1432 -51.642 -18.1432 -31.0003 45.3865C-10.3585 108.916 -31.1661 124.036 22.8758 163.298C76.9177 202.562 84.8652 178.099 151.665 178.099C218.466 178.099 226.413 202.562 280.455 163.298C334.497 124.033 313.687 108.916 334.331 45.3865C354.973 -18.1432 380.696 -18.1432 360.051 -81.6729C339.409 -145.203 312.839 -121.368 265.525 -168.524C217.92 -215.966 218.46 -233.073 151.663 -233.073Z" stroke="#67C5F9" stroke-width="2" stroke-miterlimit="10"/>
<path d="M154.696 -227.558C88.5776 -227.558 96.3968 -203.496 42.9058 -164.632C-10.5852 -125.769 -31.0531 -140.64 -51.4836 -77.7601C-71.9141 -14.8802 -46.614 -14.8775 -26.1835 48.0024C-5.75297 110.882 -26.2209 125.756 27.2701 164.617C80.7611 203.48 88.5776 179.418 154.696 179.418C220.814 179.418 228.631 203.48 282.122 164.617C335.613 125.753 315.145 110.882 335.575 48.0024C356.006 -14.8775 381.306 -14.8802 360.875 -77.7601C340.445 -140.64 314.294 -117.15 267.451 -163.812C220.341 -210.737 220.814 -227.558 154.696 -227.558Z" stroke="#67C5F9" stroke-width="2" stroke-miterlimit="10"/>
<path d="M157.734 -222.042C92.2971 -222.042 99.9853 -198.381 47.0479 -159.919C-5.88956 -121.457 -26.0179 -136.079 -46.2398 -73.8463C-66.4617 -11.6135 -41.5814 -11.6135 -21.3622 50.6193C-1.14296 112.852 -21.2686 127.477 31.6689 165.937C84.6063 204.396 92.2945 180.738 157.731 180.738C223.167 180.738 230.855 204.399 283.793 165.937C336.73 127.474 316.605 112.852 336.824 50.6193C357.046 -11.6135 381.923 -11.6135 361.702 -73.8463C341.48 -136.079 315.752 -112.932 269.379 -159.098C222.763 -205.508 223.17 -222.042 157.734 -222.042Z" stroke="#67C5F9" stroke-width="2" stroke-miterlimit="10"/>
<path d="M160.77 -216.528C96.0152 -216.528 103.572 -193.268 51.1858 -155.207C-1.20082 -117.146 -20.9868 -131.522 -40.9975 -69.9361C-61.0082 -8.35049 -36.5504 -8.35049 -16.5397 53.2325C3.47092 114.815 -16.3151 129.194 36.0715 167.255C88.458 205.317 96.0152 182.057 160.77 182.057C225.524 182.057 233.081 205.317 285.468 167.255C337.854 129.194 318.068 114.818 338.079 53.2325C358.09 -8.35317 382.547 -8.35316 362.537 -69.9361C342.526 -131.522 317.218 -108.717 271.314 -154.388C225.187 -200.282 225.524 -216.528 160.77 -216.528Z" stroke="#67C5F9" stroke-width="2" stroke-miterlimit="10"/>
<path d="M163.807 -211.006C99.7342 -211.006 107.163 -188.147 55.3246 -150.485C3.48622 -112.822 -15.9575 -126.952 -35.7569 -66.0163C-55.5563 -5.08051 -31.5211 -5.08052 -11.7217 55.858C8.07772 116.796 -11.3687 130.921 40.467 168.584C92.3027 206.244 99.7315 183.385 163.804 183.385C227.877 183.385 235.305 206.244 287.141 168.584C338.977 130.924 319.53 116.794 339.33 55.858C359.129 -5.07785 383.165 -5.07784 363.365 -66.0163C343.566 -126.952 318.677 -104.492 273.244 -149.669C227.609 -195.047 227.879 -211.006 163.807 -211.006Z" stroke="#67C5F9" stroke-width="2" stroke-miterlimit="10"/>
<path d="M166.844 -205.491C103.453 -205.491 110.751 -183.031 59.4658 -145.772C8.18096 -108.513 -10.9232 -122.392 -30.5113 -62.1035C-50.0994 -1.81483 -26.4867 -1.81481 -6.89589 58.4739C12.6949 118.763 -6.41187 132.641 44.873 169.903C96.1578 207.165 103.456 184.704 166.846 184.704C230.237 184.704 237.535 207.165 288.819 169.903C340.104 132.641 321 118.763 340.588 58.4739C360.176 -1.81481 383.792 -1.81483 364.204 -62.1035C344.616 -122.392 320.15 -100.272 275.184 -144.957C230.034 -189.821 230.234 -205.491 166.844 -205.491Z" stroke="#67C5F9" stroke-width="2" stroke-miterlimit="10"/>
<path d="M169.879 -199.974C107.17 -199.974 114.337 -177.915 63.6028 -141.057C12.8689 -104.199 -5.89295 -117.829 -25.2725 -58.1905C-44.6521 1.44831 -21.4565 1.44832 -2.07962 61.0899C17.2973 120.731 -1.46457 134.362 49.2667 171.222C100.001 208.082 107.167 186.023 169.876 186.023C232.585 186.023 239.752 208.082 290.486 171.222C341.22 134.362 322.455 120.729 341.832 61.0899C361.212 1.451 384.404 1.45099 365.025 -58.1905C345.645 -117.832 321.602 -96.0538 277.107 -140.244C232.454 -184.59 232.588 -199.974 169.879 -199.974Z" stroke="#67C5F9" stroke-width="2" stroke-miterlimit="10"/>
<path d="M172.916 -194.459C110.889 -194.459 117.925 -172.801 67.7443 -136.342C17.5639 -99.8825 -0.861019 -113.269 -20.0266 -54.2749C-39.1923 4.71951 -16.4219 4.71681 2.7464 63.7085C21.9147 122.7 3.48982 136.084 53.6729 172.544C103.856 209.003 110.892 187.345 172.919 187.345C234.945 187.345 241.984 209.003 292.164 172.544C342.345 136.084 323.922 122.7 343.091 63.7085C362.259 4.71681 385.029 4.71683 365.864 -54.2749C346.695 -113.267 323.072 -91.8333 279.045 -135.529C234.879 -179.364 234.943 -194.459 172.916 -194.459Z" stroke="#67C5F9" stroke-width="2" stroke-miterlimit="10"/>
<path d="M175.954 -188.943C114.609 -188.943 121.514 -167.687 71.8846 -131.628C22.2551 -95.5702 4.1725 -108.708 -14.7845 -50.3638C-33.7416 7.98082 -11.391 7.98082 7.566 66.3227C26.523 124.665 8.44044 137.803 58.07 173.861C107.699 209.919 114.607 188.662 175.952 188.662C237.297 188.662 244.204 209.919 293.834 173.861C343.463 137.803 325.381 124.665 344.338 66.3227C363.295 7.97814 385.645 7.97814 366.688 -50.3638C347.731 -108.708 324.527 -87.6173 280.971 -130.818C237.302 -174.131 237.299 -188.943 175.954 -188.943Z" stroke="#67C5F9" stroke-width="2" stroke-miterlimit="10"/>
<path d="M178.989 -183.429C118.324 -183.429 125.103 -162.573 76.024 -126.916C26.9453 -91.259 9.20237 -104.146 -9.54341 -46.4509C-28.2892 11.2438 -6.36118 11.2438 12.3873 68.9386C31.1357 126.633 13.3928 139.523 62.4714 175.182C111.55 210.842 118.326 189.984 178.992 189.984C239.658 189.984 246.434 210.84 295.513 175.182C344.591 139.525 326.851 126.636 345.597 68.9386C364.343 11.2438 386.273 11.2438 367.528 -46.4509C348.782 -104.146 325.998 -83.3996 282.912 -126.106C239.725 -168.906 239.655 -183.429 178.989 -183.429Z" stroke="#67C5F9" stroke-width="2" stroke-miterlimit="10"/>
<path d="M182.026 -177.907C122.042 -177.907 128.69 -157.453 80.162 -122.194C31.6342 -86.9355 14.2335 -99.5789 -4.3037 -42.5313C-22.8409 14.5164 -1.33004 14.5164 17.2045 71.564C35.739 128.612 18.3383 141.252 66.8661 176.511C115.394 211.77 122.039 191.312 182.023 191.312C242.007 191.312 248.652 211.767 297.18 176.511C345.708 141.255 328.307 128.612 346.841 71.564C365.376 14.5164 386.887 14.5164 368.35 -42.5313C349.815 -99.5789 327.451 -79.1751 284.833 -121.387C242.146 -163.67 242.007 -177.907 182.026 -177.907Z" stroke="#67C5F9" stroke-width="2" stroke-miterlimit="10"/>
<path d="M185.062 -172.393C125.76 -172.393 132.277 -152.337 84.2997 -117.482C36.3228 -82.6269 19.2644 -95.0189 0.938428 -38.6211C-17.3875 17.7767 3.70083 17.7767 22.0268 74.1772C40.3527 130.578 23.2916 142.97 71.2685 177.827C119.245 212.685 125.76 192.629 185.062 192.629C244.363 192.629 250.88 212.685 298.855 177.827C346.829 142.97 329.77 130.575 348.096 74.1772C366.422 17.7794 387.508 17.7794 369.185 -38.6211C350.861 -95.0216 328.917 -74.9628 286.77 -116.677C244.569 -158.444 244.363 -172.393 185.062 -172.393Z" stroke="#67C5F9" stroke-width="2" stroke-miterlimit="10"/>
<path d="M188.099 -166.877C129.479 -166.877 135.864 -147.222 88.4411 -112.766C41.0178 -78.3093 24.299 -90.4579 6.18429 -34.7073C-11.9304 21.0434 8.73543 21.0434 26.8501 76.794C44.9648 132.545 28.246 144.691 75.6694 179.147C123.093 213.603 129.479 193.948 188.099 193.948C246.719 193.948 253.104 213.603 300.528 179.147C347.951 144.691 331.232 132.545 349.347 76.794C367.462 21.0434 388.128 21.0434 370.013 -34.7073C351.898 -90.4579 330.377 -70.7441 288.7 -111.963C246.994 -153.215 246.719 -166.877 188.099 -166.877Z" stroke="#67C5F9" stroke-width="2" stroke-miterlimit="10"/>
<path d="M191.134 -161.362C133.196 -161.362 139.451 -142.109 92.5782 -108.053C45.7057 -73.998 29.3265 -85.8979 11.4231 -30.7971C-6.4803 24.3037 13.763 24.3064 31.6664 79.4072C49.5698 134.508 33.1907 146.408 80.0658 180.463C126.938 214.519 133.196 195.265 191.131 195.265C249.067 195.265 255.324 214.519 302.197 180.463C349.069 146.408 332.69 134.508 350.596 79.4072C368.502 24.3064 388.745 24.3037 370.839 -30.7971C352.933 -85.8979 331.834 -66.5291 290.626 -107.256C249.414 -147.989 249.072 -161.362 191.134 -161.362Z" stroke="#67C5F9" stroke-width="2" stroke-miterlimit="10"/>
<path d="M194.17 -155.846C136.914 -155.846 143.04 -136.993 96.7187 -103.339C50.3971 -69.6848 34.3603 -81.336 16.6681 -26.8823C-1.02407 27.5713 18.7994 27.5714 36.4916 82.025C54.1837 136.479 38.1469 148.13 84.4685 181.784C130.79 215.438 136.917 196.586 194.173 196.586C251.429 196.586 257.555 215.438 303.877 181.784C350.199 148.13 334.162 136.479 351.854 82.025C369.546 27.5714 389.37 27.5713 371.677 -26.8823C353.985 -81.336 333.303 -62.3095 292.565 -102.542C251.838 -142.759 251.426 -155.846 194.17 -155.846Z" stroke="#67C5F9" stroke-width="2" stroke-miterlimit="10"/>
<path d="M197.208 -150.33C140.634 -150.33 146.629 -131.879 100.859 -98.623C55.0878 -65.3673 39.3932 -76.7725 21.9097 -22.9687C4.42608 30.8352 23.8297 30.8379 41.3106 84.6417C58.7915 138.446 43.0969 149.851 88.8677 183.107C134.638 216.36 140.634 197.908 197.208 197.908C253.782 197.908 259.778 216.36 305.549 183.107C351.319 149.854 335.622 138.448 353.106 84.6417C370.589 30.8352 389.99 30.8352 372.507 -22.9687C355.023 -76.7725 334.764 -58.0909 294.496 -97.8288C254.261 -137.529 253.782 -150.33 197.208 -150.33Z" stroke="#67C5F9" stroke-width="2" stroke-miterlimit="10"/>
<path d="M200.243 -144.811C144.35 -144.811 150.215 -126.76 104.997 -93.9057C59.7803 -61.0511 44.4227 -72.2103 27.1503 -19.0509C9.87801 34.1085 28.8591 34.1058 46.1315 87.2652C63.4038 140.425 48.0488 151.578 93.266 184.433C138.483 217.288 144.35 199.234 200.243 199.234C256.135 199.234 262.002 217.285 307.219 184.433C352.436 151.581 337.081 140.425 354.354 87.2652C371.626 34.1058 390.607 34.1085 373.335 -19.0509C356.063 -72.2103 336.223 -53.8683 296.424 -93.1115C256.683 -132.298 256.138 -144.811 200.243 -144.811Z" stroke="#67C5F9" stroke-width="2" stroke-miterlimit="10"/>
<path d="M203.281 -139.295C148.071 -139.295 153.804 -121.643 109.138 -89.1923C64.4717 -56.7415 49.4564 -67.6494 32.3953 -15.1398C15.3343 37.3698 33.8928 37.3698 50.9539 89.8794C68.015 142.389 52.9996 153.297 97.6659 185.75C142.332 218.204 148.068 200.552 203.279 200.552C258.489 200.552 264.225 218.204 308.892 185.75C353.558 153.297 338.543 142.389 355.606 89.8794C372.67 37.3698 391.226 37.3698 374.165 -15.1398C357.104 -67.6494 337.684 -49.6524 298.355 -88.4008C259.104 -127.072 258.492 -139.295 203.281 -139.295Z" stroke="#67C5F9" stroke-width="2" stroke-miterlimit="10"/>
<path d="M206.318 -133.781C151.789 -133.781 157.394 -116.53 113.276 -84.4772C69.1578 -52.4249 54.4874 -63.0867 37.635 -11.227C20.7825 40.6328 38.9239 40.6328 55.7737 92.4952C72.6235 144.358 57.9505 155.017 102.066 187.069C146.181 219.121 151.786 201.871 206.318 201.871C260.849 201.871 266.451 219.121 310.569 187.069C354.685 155.017 340.012 144.355 356.861 92.4952C373.711 40.6355 391.85 40.6355 375 -11.227C358.15 -63.0894 339.151 -45.4373 300.29 -83.691C261.528 -121.843 260.849 -133.781 206.318 -133.781Z" stroke="#67C5F9" stroke-width="2" stroke-miterlimit="10"/>
<path d="M209.353 -128.264C155.504 -128.264 160.981 -111.414 117.416 -79.7629C73.8514 -48.1116 59.518 -58.5275 42.8768 -7.31218C26.2355 43.9031 43.9545 43.9004 60.593 95.1131C77.2316 146.326 62.9008 156.739 106.463 188.39C150.027 220.041 155.501 203.191 209.351 203.191C263.2 203.191 268.674 220.041 312.238 188.39C355.803 156.739 341.47 146.326 358.108 95.1131C374.747 43.9004 392.466 43.9004 375.824 -7.31218C359.183 -58.5248 340.606 -41.2177 302.216 -78.9767C263.949 -116.615 263.2 -128.264 209.353 -128.264Z" stroke="#67C5F9" stroke-width="2" stroke-miterlimit="10"/>
<path d="M212.389 -122.744C159.222 -122.744 164.567 -106.296 121.554 -75.0455C78.54 -43.7954 64.5489 -53.9598 48.1189 -3.39701C31.689 47.1658 48.9853 47.1684 65.4153 97.7312C81.8453 148.294 67.8515 158.461 110.865 189.711C153.879 220.961 159.222 204.513 212.389 204.513C265.557 204.513 270.9 220.961 313.913 189.711C356.927 158.461 342.933 148.294 359.363 97.7312C375.793 47.1684 393.089 47.1658 376.659 -3.39701C360.229 -53.9598 342.072 -36.9977 304.15 -74.2619C266.372 -111.384 265.557 -122.744 212.389 -122.744Z" stroke="#67C5F9" stroke-width="2" stroke-miterlimit="10"/>
<path d="M215.427 -117.234C162.941 -117.234 168.156 -101.186 125.696 -70.3344C83.2356 -39.4828 69.5841 -49.4039 53.3627 0.511798C37.1413 50.4275 54.0179 50.4274 70.2366 100.343C86.4553 150.259 72.8038 160.177 115.264 191.029C157.724 221.88 162.939 205.83 215.424 205.83C267.91 205.83 273.124 221.878 315.584 191.029C358.044 160.18 344.393 150.261 360.612 100.343C376.83 50.4248 393.704 50.4275 377.486 0.511798C361.267 -49.4039 343.529 -32.7867 306.078 -69.5563C268.792 -106.16 267.91 -117.234 215.427 -117.234Z" stroke="#67C5F9" stroke-width="2" stroke-miterlimit="10"/>
<path d="M218.463 -111.714C166.659 -111.714 171.743 -96.0649 129.834 -65.617C87.9244 -35.1692 74.6125 -44.8389 58.605 4.42962C42.5976 53.6981 59.049 53.6981 75.0591 102.967C91.0692 152.235 77.7573 161.905 119.667 192.355C161.576 222.806 166.659 207.157 218.463 207.157C270.267 207.157 275.35 222.806 317.259 192.355C359.169 161.905 345.859 152.235 361.867 102.967C377.874 53.6981 394.328 53.6981 378.321 4.42962C362.313 -44.8389 344.996 -28.564 308.012 -64.8389C271.216 -100.929 270.267 -111.714 218.463 -111.714Z" stroke="#67C5F9" stroke-width="2" stroke-miterlimit="10"/>
<path d="M221.501 -106.197C170.379 -106.197 175.335 -90.9494 133.976 -60.9027C92.6178 -30.8559 79.6481 -40.2769 63.8493 8.34175C48.0504 56.9604 64.0846 56.9604 79.8808 105.582C95.677 154.203 82.7074 163.624 124.066 193.674C165.424 223.723 170.379 208.475 221.501 208.475C272.623 208.475 277.578 223.723 318.936 193.674C360.295 163.624 347.325 154.201 363.121 105.582C378.917 56.9631 394.952 56.9631 379.153 8.34175C363.354 -40.2796 346.459 -24.3497 309.943 -60.1272C273.639 -95.7014 272.623 -106.197 221.501 -106.197Z" stroke="#67C5F9" stroke-width="2" stroke-miterlimit="10"/>
<path d="M224.535 -100.683C174.095 -100.683 178.919 -85.8359 138.112 -56.1876C97.3041 -26.5393 84.6741 -35.7143 69.0891 12.2573C53.5042 60.2288 69.1132 60.2288 84.7008 108.2C100.288 156.172 87.6584 165.347 128.466 194.995C169.273 224.644 174.098 209.797 224.537 209.797C274.977 209.797 279.801 224.644 320.609 194.995C361.416 165.347 348.786 156.172 364.374 108.2C379.962 60.2288 395.571 60.2288 379.986 12.2573C364.398 -35.7143 347.923 -20.1294 311.878 -55.4148C276.057 -90.4755 274.974 -100.683 224.535 -100.683Z" stroke="#67C5F9" stroke-width="2" stroke-miterlimit="10"/>
<path d="M227.572 -95.1671C177.814 -95.1671 182.507 -80.7214 142.251 -51.4742C101.994 -22.227 89.7063 -31.156 74.3299 16.1684C58.9536 63.4928 74.1428 63.4928 89.5191 110.815C104.895 158.139 92.6078 167.065 132.862 196.312C173.116 225.56 177.811 211.114 227.569 211.114C277.327 211.114 282.02 225.56 322.277 196.312C362.534 167.065 350.243 158.136 365.62 110.815C380.996 63.4928 396.185 63.4901 380.809 16.1684C365.432 -31.1533 349.374 -15.9134 313.8 -50.704C278.48 -85.2487 277.33 -95.1671 227.572 -95.1671Z" stroke="#67C5F9" stroke-width="2" stroke-miterlimit="10"/>
<path d="M230.608 -89.6456C181.532 -89.6456 186.094 -75.601 146.391 -46.755C106.688 -17.9089 94.7401 -26.5892 79.575 20.0854C64.4099 66.76 79.1765 66.76 94.3443 113.435C109.512 160.109 97.5613 168.789 137.267 197.635C176.973 226.482 181.535 212.437 230.611 212.437C279.687 212.437 284.252 226.482 323.955 197.635C363.658 168.789 351.712 160.109 366.877 113.435C382.043 66.76 396.812 66.76 381.647 20.0854C366.482 -26.5892 350.843 -11.6942 315.737 -45.9902C280.901 -80.016 279.684 -89.6456 230.608 -89.6456Z" stroke="#67C5F9" stroke-width="2" stroke-miterlimit="10"/>
<path d="M233.645 -84.1359C185.251 -84.1359 189.682 -70.4924 150.53 -42.0448C111.378 -13.5972 99.7691 -22.0314 84.8152 23.996C69.8614 70.0234 84.2082 70.0234 99.1621 116.048C114.116 162.076 102.51 170.507 141.662 198.955C180.814 227.4 185.248 213.756 233.642 213.756C282.036 213.756 286.47 227.4 325.622 198.955C364.775 170.51 353.169 162.076 368.123 116.048C383.076 70.0208 397.423 70.0208 382.469 23.996C367.516 -22.0288 352.297 -7.48139 317.661 -41.28C283.323 -74.7924 282.039 -84.1359 233.645 -84.1359Z" stroke="#67C5F9" stroke-width="2" stroke-miterlimit="10"/>
<path d="M236.681 -78.6144C188.967 -78.6144 193.272 -65.3693 154.671 -37.3255C116.069 -9.28172 104.803 -17.4646 90.0578 27.913C75.3126 73.2906 89.2395 73.2906 103.982 118.671C118.727 164.049 107.461 172.234 146.063 200.281C184.664 228.327 188.967 215.082 236.681 215.082C284.396 215.082 288.699 228.327 327.3 200.281C365.902 172.234 354.635 164.051 369.381 118.671C384.126 73.2933 398.05 73.2933 383.305 27.913C368.56 -17.4646 353.761 -3.25953 319.596 -36.5661C285.744 -69.5597 284.396 -78.6144 236.681 -78.6144Z" stroke="#67C5F9" stroke-width="2" stroke-miterlimit="10"/>
<path d="M239.717 -73.0988C192.684 -73.0988 196.858 -60.2548 158.808 -32.6095C120.757 -4.96412 109.833 -12.9037 95.2993 31.8268C80.7653 76.5573 94.2697 76.5573 108.804 121.288C123.338 166.018 112.411 173.955 150.462 201.601C188.512 229.246 192.684 216.402 239.717 216.402C286.75 216.402 290.921 229.246 328.972 201.601C367.022 173.955 356.096 166.018 370.63 121.288C385.164 76.5573 398.668 76.5573 384.134 31.8268C369.6 -12.9037 355.221 0.956437 321.524 -31.8527C288.167 -64.3329 286.75 -73.0988 239.717 -73.0988Z" stroke="#67C5F9" stroke-width="2" stroke-miterlimit="10"/>
<path d="M242.753 -67.5841C196.402 -67.5841 200.445 -55.1413 162.948 -27.8971C125.451 -0.65284 114.864 -8.3437 100.542 35.7396C86.2188 79.8203 99.3007 79.8203 113.623 123.904C127.946 167.987 117.362 175.675 154.862 202.919C192.361 230.164 196.402 217.721 242.753 217.721C289.104 217.721 293.147 230.164 330.644 202.919C368.141 175.675 357.557 167.984 371.882 123.904C386.205 79.823 399.289 79.823 384.964 35.7396C370.639 -8.3437 356.682 5.17145 323.453 -27.143C290.585 -59.1071 289.104 -67.5841 242.753 -67.5841Z" stroke="#67C5F9" stroke-width="2" stroke-miterlimit="10"/>
<path d="M245.789 -62.0675C200.12 -62.0675 204.033 -50.0258 167.087 -23.1827C130.141 3.6604 119.896 -3.78175 105.784 39.6518C91.6729 83.0853 104.335 83.0853 118.447 126.519C132.558 169.952 122.316 177.395 159.262 204.238C196.208 231.081 200.12 219.039 245.789 219.039C291.459 219.039 295.371 231.081 332.317 204.238C369.263 177.395 359.021 169.952 373.132 126.519C387.244 83.0853 399.906 83.0853 385.795 39.6518C371.683 -3.78175 358.141 9.38842 325.383 -22.4313C293.007 -53.8819 291.459 -62.0675 245.789 -62.0675Z" stroke="#67C5F9" stroke-width="2" stroke-miterlimit="10"/>
<path d="M248.827 -56.5471C203.839 -56.5471 207.623 -44.9066 171.225 -18.4619C134.828 7.98275 124.928 0.786615 111.025 43.5703C97.1221 86.354 109.364 86.3567 123.265 129.14C137.165 171.924 127.262 179.12 163.658 205.562C200.053 232.004 203.837 220.364 248.824 220.364C293.811 220.364 297.592 232.004 333.99 205.562C370.385 179.12 360.483 171.924 374.383 129.14C388.286 86.354 400.526 86.354 386.623 43.5703C372.72 0.783939 359.6 13.6092 327.31 -17.7158C295.429 -48.6504 293.814 -56.5471 248.827 -56.5471Z" stroke="#67C5F9" stroke-width="2" stroke-miterlimit="10"/>
<path d="M251.861 -51.0314C207.556 -51.0314 211.209 -39.7919 175.364 -13.7484C139.52 12.2951 129.957 5.34771 116.268 47.4843C102.579 89.6208 114.396 89.6208 128.088 131.757C141.78 173.894 132.217 180.841 168.061 206.885C203.905 232.926 207.558 221.686 251.864 221.686C296.169 221.686 299.822 232.928 335.666 206.885C371.51 180.844 361.948 173.897 375.639 131.757C389.331 89.6208 401.151 89.6208 387.459 47.4843C373.767 5.34771 361.065 17.8253 329.245 -13.005C297.848 -43.4261 296.166 -51.0314 251.861 -51.0314Z" stroke="#67C5F9" stroke-width="2" stroke-miterlimit="10"/>
<path d="M254.899 -45.5167C211.275 -45.5167 214.797 -34.6757 179.504 -9.03599C144.21 16.6037 134.99 9.905 121.51 51.3944C108.029 92.8838 119.426 92.8838 132.907 134.373C146.387 175.863 137.167 182.561 172.457 208.204C207.748 233.846 211.273 223.005 254.896 223.005C298.519 223.005 302.041 233.846 337.335 208.204C372.628 182.561 363.405 175.863 376.885 134.373C390.366 92.8838 401.763 92.8838 388.283 51.3944C374.802 9.905 362.52 22.0376 331.168 -8.29793C300.268 -38.1976 298.522 -45.5167 254.899 -45.5167Z" stroke="#67C5F9" stroke-width="2" stroke-miterlimit="10"/>
<path d="M257.935 -40.0002C214.993 -40.0002 218.384 -29.5604 183.644 -4.31907C148.904 20.9222 140.023 14.4695 126.752 55.3091C113.482 96.1487 124.457 96.1487 137.729 136.991C150.998 177.831 142.117 184.283 176.86 209.525C211.6 234.766 214.993 224.326 257.935 224.326C300.876 224.326 304.27 234.766 339.009 209.525C373.749 184.283 364.871 177.831 378.14 136.991C391.409 96.1513 402.387 96.1514 389.118 55.3091C375.848 14.4695 363.983 26.2545 333.102 -3.58368C302.689 -32.9699 300.879 -40.0002 257.935 -40.0002Z" stroke="#67C5F9" stroke-width="2" stroke-miterlimit="10"/>
<path d="M260.972 -34.4855C218.713 -34.4855 221.973 -24.4467 187.784 0.393447C153.595 25.2336 145.053 19.0296 131.995 59.222C118.938 99.4145 129.492 99.4145 142.55 139.607C155.611 179.799 147.07 186.003 181.259 210.844C215.448 235.684 218.71 225.645 260.97 225.645C303.229 225.645 306.492 235.684 340.681 210.844C374.87 186.003 366.331 179.799 379.389 139.607C392.45 99.4145 403.004 99.4145 389.944 59.222C376.883 19.0296 365.441 30.4696 335.028 1.12615C305.109 -27.7466 303.232 -34.4855 260.972 -34.4855Z" stroke="#67C5F9" stroke-width="2" stroke-miterlimit="10"/>
<path d="M264.008 -28.9708C222.428 -28.9708 225.562 -19.3332 191.924 5.10586C158.286 29.5449 150.087 23.5896 137.238 63.1322C124.388 102.678 134.523 102.678 147.373 142.22C160.222 181.765 152.023 187.721 185.661 212.16C219.299 236.599 222.431 226.961 264.011 226.961C305.591 226.961 308.723 236.599 342.361 212.16C375.999 187.721 367.8 181.763 380.649 142.22C393.499 102.675 403.631 102.675 390.784 63.1322C377.938 23.5896 366.91 34.6819 336.967 5.83322C307.53 -22.5235 305.589 -28.9708 264.008 -28.9708Z" stroke="#67C5F9" stroke-width="2" stroke-miterlimit="10"/>
<path d="M267.045 -23.4503C226.146 -23.4503 229.149 -14.2138 196.062 9.82678C162.975 33.8674 155.118 28.1554 142.48 67.0535C129.842 105.949 139.555 105.949 152.193 144.845C164.831 183.74 156.974 189.449 190.059 213.487C223.143 237.525 226.146 228.289 267.045 228.289C307.943 228.289 310.943 237.525 344.031 213.487C377.118 189.449 369.259 183.74 381.897 144.845C394.535 105.949 404.247 105.949 391.609 67.0535C378.971 28.1581 368.363 38.9055 338.891 10.5515C309.946 -17.2944 307.94 -23.4503 267.045 -23.4503Z" stroke="#67C5F9" stroke-width="2" stroke-miterlimit="10"/>
<path d="M270.082 -17.9348C229.866 -17.9348 232.738 -9.09674 200.201 14.5401C167.665 38.1769 160.148 32.7162 147.721 70.9646C135.294 109.213 144.584 109.213 157.014 147.459C169.441 185.707 161.924 191.168 194.46 214.807C226.996 238.446 229.866 229.608 270.082 229.608C310.299 229.608 313.168 238.446 345.704 214.807C378.241 191.168 370.724 185.707 383.15 147.459C395.577 109.21 404.87 109.21 392.443 70.9646C380.016 32.7189 369.825 43.116 340.821 15.2594C312.368 -12.0704 310.299 -17.9348 270.082 -17.9348Z" stroke="#67C5F9" stroke-width="2" stroke-miterlimit="10"/>
<path d="M273.119 -12.4191C233.584 -12.4191 236.325 -3.98215 204.343 19.2535C172.36 42.4892 165.182 37.2773 152.967 74.8758C140.751 112.474 149.622 112.474 161.837 150.076C174.053 187.674 166.878 192.889 198.861 216.127C230.843 239.365 233.584 230.928 273.119 230.928C312.654 230.928 315.395 239.365 347.378 216.127C379.36 192.889 372.186 187.677 384.401 150.076C396.617 112.474 405.489 112.477 393.271 74.8758C381.053 37.2746 371.284 47.3294 342.749 19.9675C314.788 -6.84079 312.651 -12.4191 273.119 -12.4191Z" stroke="#67C5F9" stroke-width="2" stroke-miterlimit="10"/>
<path d="M276.152 -6.90356C237.3 -6.90356 239.91 1.13225 208.478 23.9695C177.046 46.8067 170.211 41.8408 158.204 78.7922C146.197 115.744 154.647 115.744 166.654 152.695C178.661 189.646 171.826 194.612 203.258 217.449C234.69 240.287 237.302 232.251 276.152 232.251C315.002 232.251 317.615 240.287 349.047 217.449C380.479 194.612 373.644 189.646 385.651 152.695C397.658 115.744 406.105 115.744 394.101 78.7922C382.094 41.8408 372.742 51.5453 344.675 24.6808C317.206 -1.61676 315.005 -6.90356 276.152 -6.90356Z" stroke="#67C5F9" stroke-width="2" stroke-miterlimit="10"/>
<path d="M279.192 -1.38794C241.021 -1.38794 243.502 6.24674 212.621 28.6828C181.74 51.119 175.245 46.4018 163.449 82.7033C151.653 119.005 159.681 119.005 171.477 155.309C183.273 191.611 176.777 196.331 207.658 218.767C238.539 241.203 241.021 233.568 279.192 233.568C317.362 233.568 319.844 241.203 350.725 218.767C381.606 196.331 375.111 191.611 386.906 155.309C398.702 119.008 406.73 119.008 394.934 82.7033C383.138 46.3991 374.204 55.7586 346.607 29.3861C319.625 3.60736 317.362 -1.38794 279.192 -1.38794Z" stroke="#67C5F9" stroke-width="2" stroke-miterlimit="10"/>
<path d="M282.227 4.12671C244.738 4.12671 247.089 11.3603 216.759 33.3979C186.428 55.4356 180.275 50.9618 168.691 86.6162C157.106 122.271 164.712 122.271 176.296 157.925C187.881 193.579 181.727 198.051 212.057 220.086C242.388 242.121 244.738 234.887 282.227 234.887C319.716 234.887 322.067 242.121 352.397 220.086C382.727 198.051 376.571 193.579 388.158 157.925C399.745 122.271 407.351 122.271 395.763 86.6162C384.179 50.9618 375.662 59.971 348.533 34.0959C322.045 8.82786 319.716 4.12671 282.227 4.12671Z" stroke="#67C5F9" stroke-width="2" stroke-miterlimit="10"/>
<path d="M285.261 9.64734C248.454 9.64734 250.673 16.4798 220.897 38.1163C191.12 59.7528 185.307 55.5277 173.931 90.535C162.558 125.542 169.743 125.542 181.116 160.547C192.489 195.554 186.678 199.777 216.455 221.41C246.232 243.044 248.454 236.212 285.261 236.212C322.068 236.212 324.29 243.044 354.067 221.41C383.843 199.777 378.032 195.551 389.406 160.547C400.779 125.54 407.964 125.54 396.591 90.535C385.218 55.5277 377.115 64.1919 350.459 38.8116C324.461 14.057 322.071 9.64734 285.261 9.64734Z" stroke="#67C5F9" stroke-width="2" stroke-miterlimit="10"/>
<path d="M288.3 15.162C252.175 15.162 254.263 21.596 225.037 42.8287C195.812 64.0615 190.338 60.0877 179.176 94.4452C168.014 128.803 174.777 128.803 185.939 163.16C197.103 197.518 191.629 201.494 220.858 222.729C250.083 243.965 252.175 237.531 288.3 237.531C324.425 237.531 326.516 243.965 355.742 222.729C384.967 201.494 379.496 197.52 390.661 163.16C401.825 128.803 408.588 128.803 397.424 94.4452C386.259 60.0877 378.576 68.4016 352.388 43.516C326.882 19.2802 324.425 15.162 288.3 15.162Z" stroke="#67C5F9" stroke-width="2" stroke-miterlimit="10"/>
<path d="M291.334 20.6785C255.89 20.6785 257.848 26.7113 229.173 47.5456C200.498 68.3799 195.366 64.6522 184.413 98.3598C173.46 132.067 179.803 132.07 190.756 165.778C201.71 199.485 196.578 203.216 225.253 224.05C253.928 244.884 255.888 238.852 291.334 238.852C326.777 238.852 328.737 244.884 357.415 224.05C386.089 203.216 380.958 199.488 391.911 165.778C402.864 132.067 409.207 132.067 398.254 98.3598C387.301 64.6522 380.035 72.6158 354.315 48.2276C329.299 24.5052 326.779 20.6785 291.334 20.6785Z" stroke="#67C5F9" stroke-width="2" stroke-miterlimit="10"/>
<path d="M294.372 26.1942C259.608 26.1942 261.44 31.826 233.316 52.2591C205.192 72.6923 200.403 69.2106 189.661 102.274C178.919 135.334 184.839 135.334 195.581 168.397C206.323 201.458 201.534 204.94 229.658 225.373C257.782 245.806 259.611 240.174 294.375 240.174C329.139 240.174 330.968 245.806 359.092 225.373C387.216 204.94 382.424 201.458 393.169 168.397C403.911 135.337 409.831 135.337 399.089 102.274C388.347 69.2106 381.499 76.8292 356.247 52.9357C331.717 29.7294 329.134 26.1942 294.372 26.1942Z" stroke="#67C5F9" stroke-width="2" stroke-miterlimit="10"/>
</g>
<circle cx="445.168" cy="171.806" r="96.7595" transform="rotate(162.236 445.168 171.806)" fill="#67C5F9"/>
<circle cx="379.835" cy="30.4728" r="96.7595" transform="rotate(162.236 379.835 30.4728)" fill="#67C5F9"/>
<g filter="url(#filter0_dddd_8800_4970)">
<rect x="96" y="86" width="88" height="88" rx="4" fill="white" shape-rendering="crispEdges"/>
<g clip-path="url(#clip3_8800_4970)">
<path d="M142.196 123.339C141.532 122.818 140.507 122.563 139.127 122.563H136.812V129.266H139.127C140.429 129.266 141.432 129.011 142.141 128.507C142.844 128.003 143.199 127.15 143.199 125.953C143.199 124.757 142.867 123.859 142.202 123.339H142.196Z" fill="#DD3A03"/>
<path d="M158.05 110H121.95C120.875 110 120 110.875 120 111.95V148.056C120 149.13 120.875 150.006 121.95 150.006H142.939L160.006 132.939V111.95C160.006 110.875 159.13 110 158.056 110H158.05ZM147.16 132.512C145.42 134.069 142.767 134.844 139.205 134.844H136.812V142.5C136.812 142.81 136.563 143.059 136.253 143.059H130.791C130.481 143.059 130.231 142.81 130.231 142.5V117.495C130.231 117.185 130.481 116.935 130.791 116.935H139.166C142.916 116.935 145.62 117.705 147.282 119.251C148.943 120.796 149.774 123.029 149.774 125.953C149.774 128.878 148.905 130.961 147.16 132.512Z" fill="#DD3A03"/>
</g>
</g>
<g filter="url(#filter1_dddd_8800_4970)">
<rect x="200" y="86" width="88" height="88" rx="4" fill="white" shape-rendering="crispEdges"/>
<g clip-path="url(#clip4_8800_4970)">
<path d="M244 110C232.97 110 224 118.97 224 130C224 141.03 232.97 150 244 150C255.03 150 264 141.03 264 130C264 118.97 255.03 110 244 110ZM226.02 130C226.02 127.394 226.581 124.916 227.576 122.68L236.153 146.182C230.153 143.266 226.02 137.118 226.02 130ZM244 147.98C242.236 147.98 240.532 147.719 238.921 147.246L244.315 131.571L249.842 146.714C249.877 146.803 249.921 146.887 249.97 146.961C248.103 147.621 246.094 147.98 244 147.98ZM246.478 121.567C247.562 121.507 248.537 121.394 248.537 121.394C249.507 121.281 249.389 119.857 248.424 119.911C248.424 119.911 245.512 120.138 243.631 120.138C241.862 120.138 238.897 119.911 238.897 119.911C237.926 119.852 237.813 121.335 238.783 121.394C238.783 121.394 239.7 121.507 240.67 121.567L243.473 129.241L239.537 141.044L232.985 121.567C234.069 121.507 235.044 121.394 235.044 121.394C236.015 121.281 235.897 119.857 234.931 119.911C234.931 119.911 232.02 120.138 230.138 120.138C229.803 120.138 229.404 120.128 228.98 120.118C232.192 115.241 237.719 112.02 244 112.02C248.68 112.02 252.946 113.808 256.143 116.739C256.064 116.734 255.99 116.724 255.911 116.724C254.143 116.724 252.892 118.261 252.892 119.916C252.892 121.399 253.749 122.65 254.66 124.133C255.345 125.33 256.143 126.867 256.143 129.094C256.143 130.631 255.552 132.419 254.773 134.906L252.98 140.897L246.478 121.567ZM259.778 121.374C261.182 123.936 261.98 126.877 261.98 130C261.98 136.635 258.384 142.424 253.039 145.542L258.532 129.66C259.557 127.094 259.901 125.044 259.901 123.222C259.901 122.562 259.857 121.946 259.778 121.374Z" fill="#3858E9"/>
</g>
</g>
<g filter="url(#filter2_dddd_8800_4970)">
<rect x="304" y="86" width="88" height="88" rx="4" fill="white" shape-rendering="crispEdges"/>
<path d="M332.593 117.479C325.677 117.479 320.054 123.102 320.054 130.018C320.054 136.933 325.677 142.557 332.593 142.557C339.508 142.557 345.131 136.948 345.131 130.018C345.131 123.088 339.522 117.479 332.593 117.479ZM321.303 130.018C321.303 128.385 321.658 126.823 322.269 125.417L327.637 140.157C323.945 138.311 321.303 134.491 321.303 130.018ZM332.593 141.307C331.499 141.307 330.42 141.151 329.397 140.853L332.763 131.026L336.228 140.526C336.256 140.583 336.285 140.626 336.299 140.682C335.149 141.08 333.927 141.307 332.593 141.307ZM334.155 124.721C334.836 124.664 335.433 124.622 335.433 124.622C336.015 124.551 335.972 123.656 335.362 123.699C335.362 123.699 333.516 123.827 332.351 123.827C331.258 123.827 329.383 123.699 329.383 123.699C328.801 123.642 328.702 124.593 329.312 124.622C329.312 124.622 329.895 124.693 330.491 124.721L332.223 129.549L329.781 136.933L325.72 124.721C326.401 124.664 326.998 124.622 326.998 124.622C327.58 124.551 327.537 123.656 326.927 123.699C326.927 123.699 325.081 123.827 323.916 123.827C323.689 123.827 323.462 123.827 323.178 123.798C325.18 120.745 328.645 118.729 332.578 118.729C335.518 118.729 338.187 119.851 340.19 121.697H340.033C338.94 121.697 338.145 122.662 338.145 123.713C338.145 124.636 338.684 125.445 339.238 126.368C339.65 127.107 340.161 128.101 340.161 129.478C340.161 130.444 339.877 131.679 339.295 133.128L338.173 136.862L334.155 124.721ZM338.301 139.774L341.752 129.819C342.391 128.215 342.618 126.936 342.618 125.786C342.618 125.374 342.59 125.005 342.547 124.636C343.442 126.241 343.924 128.087 343.924 130.046C343.882 134.179 341.61 137.828 338.301 139.774Z" fill="black"/>
<path d="M366.02 123.046H370.763C371.785 123.046 372.623 123.173 373.291 123.401C373.958 123.628 374.498 123.94 374.867 124.324C375.279 124.707 375.534 125.147 375.69 125.644C375.847 126.127 375.946 126.667 375.946 127.206C375.946 127.788 375.875 128.356 375.69 128.896C375.534 129.436 375.25 129.89 374.867 130.33C374.483 130.742 373.944 131.055 373.305 131.268C372.666 131.495 371.828 131.623 370.82 131.623H368.732V136.365H366.006V123.046H366.02ZM370.749 129.308C371.232 129.308 371.643 129.251 371.956 129.152C372.297 129.052 372.538 128.925 372.723 128.74C372.907 128.555 373.021 128.356 373.106 128.101C373.177 127.845 373.205 127.561 373.205 127.263C373.205 126.965 373.177 126.681 373.106 126.439C373.035 126.212 372.907 125.999 372.723 125.857C372.538 125.701 372.282 125.573 371.956 125.474C371.658 125.403 371.232 125.346 370.749 125.346H368.761V129.294H370.749V129.308Z" fill="black"/>
<path d="M348.1 123.046H351.209L354.447 132.46L357.77 123.046H360.752L355.739 136.38H353.112L348.1 123.046Z" fill="black"/>
<path fill-rule="evenodd" clip-rule="evenodd" d="M364.217 123.046H362.328L361.434 125.445V136.365H364.217V123.046Z" fill="black"/>
</g>
</g>
<defs>
<filter id="filter0_dddd_8800_4970" x="80" y="85" width="120" height="121" filterUnits="userSpaceOnUse" color-interpolation-filters="sRGB">
<feFlood flood-opacity="0" result="BackgroundImageFix"/>
<feColorMatrix in="SourceAlpha" type="matrix" values="0 0 0 0 0 0 0 0 0 0 0 0 0 0 0 0 0 0 127 0" result="hardAlpha"/>
<feOffset dy="16"/>
<feGaussianBlur stdDeviation="8"/>
<feComposite in2="hardAlpha" operator="out"/>
<feColorMatrix type="matrix" values="0 0 0 0 0 0 0 0 0 0 0 0 0 0 0 0 0 0 0.02 0"/>
<feBlend mode="normal" in2="BackgroundImageFix" result="effect1_dropShadow_8800_4970"/>
<feColorMatrix in="SourceAlpha" type="matrix" values="0 0 0 0 0 0 0 0 0 0 0 0 0 0 0 0 0 0 127 0" result="hardAlpha"/>
<feOffset dy="4"/>
<feGaussianBlur stdDeviation="2.5"/>
<feComposite in2="hardAlpha" operator="out"/>
<feColorMatrix type="matrix" values="0 0 0 0 0 0 0 0 0 0 0 0 0 0 0 0 0 0 0.03 0"/>
<feBlend mode="normal" in2="effect1_dropShadow_8800_4970" result="effect2_dropShadow_8800_4970"/>
<feColorMatrix in="SourceAlpha" type="matrix" values="0 0 0 0 0 0 0 0 0 0 0 0 0 0 0 0 0 0 127 0" result="hardAlpha"/>
<feOffset dy="4"/>
<feGaussianBlur stdDeviation="2.5"/>
<feComposite in2="hardAlpha" operator="out"/>
<feColorMatrix type="matrix" values="0 0 0 0 0 0 0 0 0 0 0 0 0 0 0 0 0 0 0.04 0"/>
<feBlend mode="normal" in2="effect2_dropShadow_8800_4970" result="effect3_dropShadow_8800_4970"/>
<feColorMatrix in="SourceAlpha" type="matrix" values="0 0 0 0 0 0 0 0 0 0 0 0 0 0 0 0 0 0 127 0" result="hardAlpha"/>
<feOffset dy="2"/>
<feGaussianBlur stdDeviation="1.5"/>
<feComposite in2="hardAlpha" operator="out"/>
<feColorMatrix type="matrix" values="0 0 0 0 0 0 0 0 0 0 0 0 0 0 0 0 0 0 0.05 0"/>
<feBlend mode="normal" in2="effect3_dropShadow_8800_4970" result="effect4_dropShadow_8800_4970"/>
<feBlend mode="normal" in="SourceGraphic" in2="effect4_dropShadow_8800_4970" result="shape"/>
</filter>
<filter id="filter1_dddd_8800_4970" x="184" y="85" width="120" height="121" filterUnits="userSpaceOnUse" color-interpolation-filters="sRGB">
<feFlood flood-opacity="0" result="BackgroundImageFix"/>
<feColorMatrix in="SourceAlpha" type="matrix" values="0 0 0 0 0 0 0 0 0 0 0 0 0 0 0 0 0 0 127 0" result="hardAlpha"/>
<feOffset dy="16"/>
<feGaussianBlur stdDeviation="8"/>
<feComposite in2="hardAlpha" operator="out"/>
<feColorMatrix type="matrix" values="0 0 0 0 0 0 0 0 0 0 0 0 0 0 0 0 0 0 0.02 0"/>
<feBlend mode="normal" in2="BackgroundImageFix" result="effect1_dropShadow_8800_4970"/>
<feColorMatrix in="SourceAlpha" type="matrix" values="0 0 0 0 0 0 0 0 0 0 0 0 0 0 0 0 0 0 127 0" result="hardAlpha"/>
<feOffset dy="4"/>
<feGaussianBlur stdDeviation="2.5"/>
<feComposite in2="hardAlpha" operator="out"/>
<feColorMatrix type="matrix" values="0 0 0 0 0 0 0 0 0 0 0 0 0 0 0 0 0 0 0.03 0"/>
<feBlend mode="normal" in2="effect1_dropShadow_8800_4970" result="effect2_dropShadow_8800_4970"/>
<feColorMatrix in="SourceAlpha" type="matrix" values="0 0 0 0 0 0 0 0 0 0 0 0 0 0 0 0 0 0 127 0" result="hardAlpha"/>
<feOffset dy="4"/>
<feGaussianBlur stdDeviation="2.5"/>
<feComposite in2="hardAlpha" operator="out"/>
<feColorMatrix type="matrix" values="0 0 0 0 0 0 0 0 0 0 0 0 0 0 0 0 0 0 0.04 0"/>
<feBlend mode="normal" in2="effect2_dropShadow_8800_4970" result="effect3_dropShadow_8800_4970"/>
<feColorMatrix in="SourceAlpha" type="matrix" values="0 0 0 0 0 0 0 0 0 0 0 0 0 0 0 0 0 0 127 0" result="hardAlpha"/>
<feOffset dy="2"/>
<feGaussianBlur stdDeviation="1.5"/>
<feComposite in2="hardAlpha" operator="out"/>
<feColorMatrix type="matrix" values="0 0 0 0 0 0 0 0 0 0 0 0 0 0 0 0 0 0 0.05 0"/>
<feBlend mode="normal" in2="effect3_dropShadow_8800_4970" result="effect4_dropShadow_8800_4970"/>
<feBlend mode="normal" in="SourceGraphic" in2="effect4_dropShadow_8800_4970" result="shape"/>
</filter>
<filter id="filter2_dddd_8800_4970" x="288" y="85" width="120" height="121" filterUnits="userSpaceOnUse" color-interpolation-filters="sRGB">
<feFlood flood-opacity="0" result="BackgroundImageFix"/>
<feColorMatrix in="SourceAlpha" type="matrix" values="0 0 0 0 0 0 0 0 0 0 0 0 0 0 0 0 0 0 127 0" result="hardAlpha"/>
<feOffset dy="16"/>
<feGaussianBlur stdDeviation="8"/>
<feComposite in2="hardAlpha" operator="out"/>
<feColorMatrix type="matrix" values="0 0 0 0 0 0 0 0 0 0 0 0 0 0 0 0 0 0 0.02 0"/>
<feBlend mode="normal" in2="BackgroundImageFix" result="effect1_dropShadow_8800_4970"/>
<feColorMatrix in="SourceAlpha" type="matrix" values="0 0 0 0 0 0 0 0 0 0 0 0 0 0 0 0 0 0 127 0" result="hardAlpha"/>
<feOffset dy="4"/>
<feGaussianBlur stdDeviation="2.5"/>
<feComposite in2="hardAlpha" operator="out"/>
<feColorMatrix type="matrix" values="0 0 0 0 0 0 0 0 0 0 0 0 0 0 0 0 0 0 0.03 0"/>
<feBlend mode="normal" in2="effect1_dropShadow_8800_4970" result="effect2_dropShadow_8800_4970"/>
<feColorMatrix in="SourceAlpha" type="matrix" values="0 0 0 0 0 0 0 0 0 0 0 0 0 0 0 0 0 0 127 0" result="hardAlpha"/>
<feOffset dy="4"/>
<feGaussianBlur stdDeviation="2.5"/>
<feComposite in2="hardAlpha" operator="out"/>
<feColorMatrix type="matrix" values="0 0 0 0 0 0 0 0 0 0 0 0 0 0 0 0 0 0 0.04 0"/>
<feBlend mode="normal" in2="effect2_dropShadow_8800_4970" result="effect3_dropShadow_8800_4970"/>
<feColorMatrix in="SourceAlpha" type="matrix" values="0 0 0 0 0 0 0 0 0 0 0 0 0 0 0 0 0 0 127 0" result="hardAlpha"/>
<feOffset dy="2"/>
<feGaussianBlur stdDeviation="1.5"/>
<feComposite in2="hardAlpha" operator="out"/>
<feColorMatrix type="matrix" values="0 0 0 0 0 0 0 0 0 0 0 0 0 0 0 0 0 0 0.05 0"/>
<feBlend mode="normal" in2="effect3_dropShadow_8800_4970" result="effect4_dropShadow_8800_4970"/>
<feBlend mode="normal" in="SourceGraphic" in2="effect4_dropShadow_8800_4970" result="shape"/>
</filter>
<clipPath id="clip0_8800_4970">
<rect width="488" height="260" fill="white"/>
</clipPath>
<clipPath id="clip1_8800_4970">
<rect x="30.5" y="185.694" width="192.889" height="192.889" rx="96.4444" fill="white"/>
</clipPath>
<clipPath id="clip2_8800_4970">
<rect x="17.6113" y="-167.139" width="192.889" height="192.889" rx="96.4444" fill="white"/>
</clipPath>
<clipPath id="clip3_8800_4970">
<rect width="40" height="40" fill="white" transform="translate(120 110)"/>
</clipPath>
<clipPath id="clip4_8800_4970">
<rect width="40" height="40" fill="white" transform="translate(224 110)"/>
</clipPath>
</defs>
</svg>
