<svg width="488" height="260" viewBox="0 0 488 260" fill="none" xmlns="http://www.w3.org/2000/svg">
<g clip-path="url(#clip0_8800_3986)">
<rect width="488" height="260" fill="#153E5F"/>
<rect x="-86.0609" y="-265.579" width="398.848" height="950.952" rx="149" transform="rotate(-17.085 -86.0609 -265.579)" stroke="#67C5F9" stroke-width="2"/>
<rect x="95.9231" y="-214.913" width="290.4" height="693.135" rx="145.2" transform="rotate(-0.518266 95.9231 -214.913)" stroke="#67C5F9" stroke-width="2"/>
<rect x="205.453" y="-125.427" width="199.678" height="477.458" rx="99.839" transform="rotate(14.0717 205.453 -125.427)" stroke="#67C5F9" stroke-width="2"/>
<rect x="256.802" y="-54.123" width="142.451" height="341.41" rx="71.2257" transform="rotate(26.5952 256.802 -54.123)" stroke="#67C5F9" stroke-width="2"/>
<g filter="url(#filter0_dddd_8800_3986)">
<rect x="40" y="78" width="164" height="104" rx="4" fill="white"/>
<g clip-path="url(#clip1_8800_3986)">
<path d="M89.2208 118C82.4807 118 77 123.382 77 130C77 136.618 82.4807 142 89.2208 142C95.9609 142 101.442 136.618 101.442 130C101.442 123.382 95.9609 118 89.2208 118ZM88.5911 131.992H82.504L88.5911 120.359V131.992ZM89.8272 139.618V127.985H95.9142L89.8272 139.618Z" fill="#069E08"/>
<path d="M108.554 137.924C108.204 137.397 107.877 136.87 107.551 136.366C109.277 135.336 109.86 134.511 109.86 132.954V123.954H107.831V122.237H112.145V132.496C112.145 135.107 111.376 136.573 108.554 137.924Z" fill="black"/>
<path d="M126.628 131.786C126.628 132.657 127.258 132.748 127.678 132.748C128.098 132.748 128.704 132.611 129.17 132.473V134.076C128.517 134.282 127.841 134.443 126.908 134.443C125.789 134.443 124.483 134.031 124.483 132.107V127.389H123.293V125.763H124.483V123.359H126.628V125.763H129.334V127.389H126.628V131.786Z" fill="black"/>
<path d="M131.107 138.725V125.74H133.16V126.519C133.976 125.901 134.886 125.511 136.005 125.511C137.941 125.511 139.48 126.84 139.48 129.702C139.48 132.542 137.801 134.42 135.026 134.42C134.349 134.42 133.813 134.328 133.253 134.214V138.702H131.107V138.725ZM135.445 127.252C134.816 127.252 134.023 127.55 133.276 128.191V132.611C133.743 132.702 134.233 132.771 134.886 132.771C136.402 132.771 137.264 131.832 137.264 129.863C137.264 128.053 136.635 127.252 135.445 127.252Z" fill="black"/>
<path d="M147.923 134.237H145.917V133.298H145.87C145.171 133.824 144.308 134.397 143.025 134.397C141.905 134.397 140.693 133.595 140.693 131.969C140.693 129.794 142.582 129.382 143.911 129.198L145.8 128.947V128.695C145.8 127.55 145.334 127.183 144.238 127.183C143.701 127.183 142.442 127.343 141.416 127.756L141.229 126.061C142.162 125.74 143.445 125.511 144.518 125.511C146.617 125.511 147.969 126.336 147.969 128.786V134.237H147.923ZM145.777 130.275L144.004 130.55C143.468 130.618 142.908 130.939 142.908 131.718C142.908 132.405 143.305 132.794 143.888 132.794C144.518 132.794 145.194 132.427 145.777 132.015V130.275Z" fill="black"/>
<path d="M156.786 133.962C155.9 134.259 155.107 134.443 154.104 134.443C150.885 134.443 149.603 132.634 149.603 130C149.603 127.229 151.375 125.511 154.244 125.511C155.317 125.511 155.97 125.695 156.693 125.924V127.71C156.063 127.481 155.153 127.229 154.267 127.229C152.961 127.229 151.842 127.916 151.842 129.885C151.842 132.061 152.961 132.725 154.384 132.725C155.06 132.725 155.806 132.588 156.809 132.198V133.962H156.786Z" fill="black"/>
<path d="M160.843 129.405C161.03 129.199 161.17 128.992 163.875 125.763H166.674L163.175 129.794L167 134.26H164.201L160.866 130.229V134.26H158.721V122.237H160.866V129.405H160.843Z" fill="black"/>
<path d="M121.684 133.962C120.565 134.305 119.609 134.443 118.489 134.443C115.737 134.443 114.035 133.092 114.035 129.931C114.035 127.618 115.481 125.511 118.256 125.511C121.008 125.511 121.964 127.389 121.964 129.176C121.964 129.771 121.917 130.092 121.894 130.435H116.343C116.39 132.29 117.463 132.725 119.072 132.725C119.958 132.725 120.751 132.519 121.661 132.198V133.962H121.684ZM119.725 129.038C119.725 128.008 119.375 127.114 118.233 127.114C117.16 127.114 116.507 127.87 116.367 129.038H119.725Z" fill="black"/>
</g>
</g>
<g filter="url(#filter1_dddd_8800_3986)">
<rect x="220" y="78" width="164" height="104" rx="4" fill="white"/>
<path d="M275.933 139C277.977 139 279.617 137.999 280.854 135.695L283.604 130.588V134.919C283.604 137.473 285.27 139 287.844 139C289.862 139 291.351 138.124 292.79 135.695L299.124 125.081C300.511 122.752 299.527 121 296.474 121C294.834 121 293.774 121.526 292.815 123.303L288.449 131.439V124.204C288.449 122.051 287.415 121 285.497 121C283.983 121 282.772 121.651 281.838 123.453L277.725 131.439V124.28C277.725 121.976 276.766 121 274.444 121H269.7C267.908 121 267 121.826 267 123.353C267 124.88 267.959 125.757 269.7 125.757H271.643V134.894C271.643 137.473 273.384 139 275.933 139Z" fill="#873EFF"/>
<path fill-rule="evenodd" clip-rule="evenodd" d="M308.386 121C303.213 121 299.251 124.83 299.251 130.013C299.251 135.195 303.238 139 308.386 139C313.534 139 317.47 135.17 317.496 130.013C317.496 124.83 313.534 121 308.386 121ZM308.386 133.467C306.443 133.467 305.105 132.015 305.105 130.013C305.105 128.01 306.443 126.533 308.386 126.533C310.329 126.533 311.666 128.01 311.666 130.013C311.666 132.015 310.354 133.467 308.386 133.467Z" fill="#873EFF"/>
<path fill-rule="evenodd" clip-rule="evenodd" d="M318.781 130.013C318.781 124.83 322.743 121 327.89 121C333.038 121 337 124.855 337 130.013C337 135.17 333.038 139 327.89 139C322.743 139 318.781 135.195 318.781 130.013ZM324.635 130.013C324.635 132.015 325.922 133.467 327.89 133.467C329.833 133.467 331.171 132.015 331.171 130.013C331.171 128.01 329.833 126.533 327.89 126.533C325.947 126.533 324.635 128.01 324.635 130.013Z" fill="#873EFF"/>
</g>
<g filter="url(#filter2_dddd_8800_3986)">
<rect x="400" y="78" width="180" height="104" rx="4" fill="white"/>
<path d="M440.833 130C440.833 126.906 442.062 123.938 444.25 121.75C446.438 119.563 449.406 118.333 452.5 118.333C455.594 118.333 458.562 119.563 460.75 121.75C462.937 123.938 464.167 126.906 464.167 130C464.167 133.094 462.937 136.062 460.75 138.25C458.562 140.438 455.594 141.667 452.5 141.667C449.406 141.667 446.438 140.438 444.25 138.25C442.062 136.062 440.833 133.094 440.833 130ZM452.5 120.333C451.23 120.333 449.973 120.583 448.801 121.069C447.628 121.555 446.562 122.267 445.665 123.165C444.767 124.062 444.055 125.128 443.569 126.301C443.083 127.474 442.833 128.731 442.833 130C442.833 131.269 443.083 132.526 443.569 133.699C444.055 134.872 444.767 135.938 445.665 136.835C446.562 137.733 447.628 138.445 448.801 138.931C449.973 139.417 451.23 139.667 452.5 139.667C455.064 139.667 457.522 138.648 459.335 136.835C461.148 135.023 462.167 132.564 462.167 130C462.167 127.436 461.148 124.978 459.335 123.165C457.522 121.352 455.064 120.333 452.5 120.333ZM450.716 126.836C450.297 127.129 450.167 127.439 450.167 127.667C450.167 127.895 450.297 128.204 450.716 128.497C451.132 128.788 451.76 129 452.5 129C453.6 129 454.64 129.311 455.431 129.864C456.217 130.416 456.833 131.273 456.833 132.333C456.833 133.393 456.219 134.251 455.431 134.803C454.884 135.184 454.221 135.451 453.5 135.579V136C453.5 136.265 453.395 136.52 453.207 136.707C453.019 136.895 452.765 137 452.5 137C452.235 137 451.98 136.895 451.793 136.707C451.605 136.52 451.5 136.265 451.5 136V135.579C450.808 135.463 450.149 135.198 449.569 134.803C448.783 134.251 448.167 133.393 448.167 132.333C448.167 132.068 448.272 131.814 448.459 131.626C448.647 131.439 448.901 131.333 449.167 131.333C449.432 131.333 449.686 131.439 449.874 131.626C450.061 131.814 450.167 132.068 450.167 132.333C450.167 132.561 450.297 132.871 450.716 133.164C451.132 133.455 451.76 133.667 452.5 133.667C453.24 133.667 453.868 133.455 454.284 133.164C454.703 132.871 454.833 132.561 454.833 132.333C454.833 132.105 454.703 131.796 454.284 131.503C453.868 131.212 453.24 131 452.5 131C451.4 131 450.36 130.689 449.569 130.136C448.783 129.584 448.167 128.727 448.167 127.667C448.167 126.607 448.781 125.749 449.569 125.197C450.149 124.802 450.808 124.537 451.5 124.421V124C451.5 123.735 451.605 123.48 451.793 123.293C451.98 123.105 452.235 123 452.5 123C452.765 123 453.019 123.105 453.207 123.293C453.395 123.48 453.5 123.735 453.5 124V124.421C454.22 124.549 454.885 124.816 455.431 125.197C456.217 125.749 456.833 126.607 456.833 127.667C456.833 127.932 456.728 128.186 456.54 128.374C456.353 128.561 456.098 128.667 455.833 128.667C455.568 128.667 455.314 128.561 455.126 128.374C454.939 128.186 454.833 127.932 454.833 127.667C454.833 127.439 454.703 127.129 454.284 126.836C453.868 126.545 453.24 126.333 452.5 126.333C451.76 126.333 451.132 126.545 450.716 126.836Z" fill="#1D2327"/>
<path d="M474.631 131.375V130.02H477.532C478.245 130.02 478.799 129.834 479.194 129.463C479.59 129.092 479.788 128.577 479.788 127.917V127.903C479.788 127.234 479.59 126.716 479.194 126.35C478.799 125.984 478.245 125.801 477.532 125.801H474.631V124.431H477.935C478.623 124.431 479.229 124.575 479.751 124.863C480.278 125.151 480.691 125.557 480.989 126.079C481.287 126.597 481.436 127.2 481.436 127.888V127.903C481.436 128.591 481.287 129.197 480.989 129.719C480.691 130.242 480.278 130.649 479.751 130.942C479.229 131.23 478.623 131.375 477.935 131.375H474.631ZM473.826 135V124.431H475.444V135H473.826ZM485.259 135.132C484.756 135.132 484.304 135.037 483.904 134.846C483.508 134.651 483.196 134.377 482.966 134.026C482.737 133.669 482.622 133.25 482.622 132.766V132.751C482.622 132.278 482.737 131.873 482.966 131.536C483.201 131.194 483.538 130.928 483.977 130.737C484.421 130.542 484.958 130.427 485.588 130.393L488.518 130.217V131.331L485.793 131.506C485.242 131.536 484.836 131.65 484.578 131.851C484.319 132.051 484.189 132.329 484.189 132.686V132.7C484.189 133.071 484.329 133.362 484.607 133.572C484.89 133.777 485.247 133.879 485.676 133.879C486.077 133.879 486.431 133.799 486.738 133.638C487.051 133.477 487.295 133.259 487.471 132.986C487.651 132.712 487.742 132.405 487.742 132.063V129.558C487.742 129.119 487.605 128.782 487.332 128.547C487.058 128.313 486.65 128.196 486.108 128.196C485.664 128.196 485.3 128.274 485.017 128.43C484.739 128.586 484.551 128.806 484.453 129.089L484.446 129.119H482.937L482.944 129.06C483.008 128.625 483.181 128.247 483.464 127.925C483.748 127.603 484.121 127.351 484.585 127.17C485.049 126.99 485.581 126.899 486.182 126.899C486.846 126.899 487.41 127.007 487.874 127.222C488.337 127.432 488.689 127.737 488.928 128.137C489.172 128.533 489.294 129.006 489.294 129.558V135H487.742V133.872H487.617C487.466 134.136 487.273 134.363 487.039 134.553C486.804 134.744 486.538 134.888 486.24 134.985C485.942 135.083 485.615 135.132 485.259 135.132ZM492.056 137.791C491.958 137.791 491.853 137.788 491.741 137.783C491.628 137.778 491.521 137.769 491.418 137.754V136.523C491.497 136.533 491.582 136.541 491.675 136.545C491.772 136.55 491.865 136.553 491.953 136.553C492.324 136.553 492.625 136.465 492.854 136.289C493.083 136.118 493.257 135.828 493.374 135.417L493.499 135.007L490.605 127.046H492.297L494.561 134.231L494.062 133.418H494.67L494.18 134.231L496.436 127.046H498.083L495.11 135.322C494.89 135.952 494.644 136.445 494.37 136.802C494.102 137.163 493.782 137.417 493.411 137.563C493.04 137.715 492.588 137.791 492.056 137.791ZM499.709 135V127.046H501.27V128.269H501.394C501.565 127.834 501.838 127.498 502.214 127.258C502.59 127.019 503.037 126.899 503.555 126.899C503.916 126.899 504.241 126.958 504.529 127.075C504.817 127.192 505.063 127.358 505.269 127.573C505.479 127.783 505.642 128.03 505.759 128.313H505.884C506.016 128.03 506.201 127.783 506.44 127.573C506.68 127.358 506.958 127.192 507.275 127.075C507.593 126.958 507.935 126.899 508.301 126.899C508.838 126.899 509.294 127.002 509.67 127.207C510.051 127.412 510.342 127.71 510.542 128.101C510.747 128.491 510.85 128.962 510.85 129.514V135H509.282V129.895C509.282 129.524 509.226 129.216 509.114 128.972C509.001 128.728 508.831 128.545 508.601 128.423C508.376 128.301 508.091 128.24 507.744 128.24C507.402 128.24 507.104 128.318 506.851 128.474C506.597 128.625 506.399 128.833 506.257 129.097C506.121 129.355 506.052 129.646 506.052 129.968V135H504.492V129.727C504.492 129.424 504.429 129.163 504.302 128.943C504.18 128.718 504.001 128.545 503.767 128.423C503.538 128.301 503.267 128.24 502.954 128.24C502.632 128.24 502.344 128.323 502.09 128.489C501.836 128.655 501.636 128.882 501.489 129.17C501.343 129.453 501.27 129.768 501.27 130.115V135H499.709ZM516.394 135.154C515.623 135.154 514.958 134.988 514.402 134.656C513.845 134.319 513.416 133.843 513.113 133.228C512.815 132.612 512.666 131.885 512.666 131.045V131.038C512.666 130.212 512.815 129.49 513.113 128.87C513.416 128.25 513.84 127.766 514.387 127.419C514.934 127.073 515.576 126.899 516.313 126.899C517.056 126.899 517.693 127.065 518.225 127.397C518.757 127.729 519.167 128.196 519.456 128.796C519.744 129.392 519.888 130.088 519.888 130.884V131.44H513.464V130.312H519.111L518.35 131.353V130.73C518.35 130.159 518.264 129.685 518.093 129.309C517.922 128.933 517.683 128.652 517.375 128.467C517.073 128.281 516.721 128.188 516.321 128.188C515.925 128.188 515.571 128.286 515.259 128.481C514.946 128.677 514.7 128.965 514.519 129.346C514.338 129.722 514.248 130.183 514.248 130.73V131.36C514.248 131.882 514.336 132.332 514.512 132.708C514.688 133.079 514.939 133.364 515.266 133.564C515.593 133.76 515.981 133.857 516.431 133.857C516.772 133.857 517.068 133.811 517.317 133.718C517.566 133.621 517.769 133.501 517.925 133.359C518.086 133.218 518.198 133.076 518.262 132.935L518.284 132.876H519.8L519.785 132.942C519.717 133.206 519.597 133.467 519.426 133.726C519.255 133.984 519.031 134.221 518.752 134.436C518.474 134.651 518.137 134.824 517.742 134.956C517.351 135.088 516.902 135.154 516.394 135.154ZM521.785 135V127.046H523.345V128.254H523.469C523.665 127.83 523.953 127.498 524.333 127.258C524.714 127.019 525.193 126.899 525.769 126.899C526.663 126.899 527.346 127.156 527.82 127.668C528.293 128.176 528.53 128.904 528.53 129.851V135H526.97V130.225C526.97 129.556 526.829 129.058 526.545 128.73C526.267 128.403 525.835 128.24 525.249 128.24C524.858 128.24 524.521 128.325 524.238 128.496C523.955 128.667 523.735 128.909 523.579 129.221C523.423 129.529 523.345 129.9 523.345 130.334V135H521.785ZM533.745 135.051C532.881 135.051 532.256 134.885 531.87 134.553C531.484 134.216 531.292 133.667 531.292 132.905V128.291H530.046V127.046H531.292V125.046H532.888V127.046H534.595V128.291H532.888V132.532C532.888 132.961 532.974 133.271 533.145 133.462C533.32 133.652 533.604 133.748 533.994 133.748C534.116 133.748 534.219 133.745 534.302 133.74C534.385 133.735 534.482 133.728 534.595 133.718V134.971C534.473 134.99 534.338 135.007 534.192 135.022C534.05 135.042 533.901 135.051 533.745 135.051ZM539.216 135.154C538.582 135.154 538.027 135.061 537.554 134.875C537.085 134.685 536.711 134.424 536.433 134.092C536.16 133.755 535.996 133.367 535.942 132.927V132.913H537.517V132.927C537.62 133.225 537.815 133.469 538.103 133.66C538.396 133.845 538.779 133.938 539.253 133.938C539.585 133.938 539.875 133.892 540.125 133.799C540.374 133.701 540.569 133.569 540.71 133.403C540.852 133.237 540.923 133.044 540.923 132.825V132.81C540.923 132.561 540.823 132.351 540.623 132.18C540.422 132.004 540.09 131.863 539.626 131.755L538.359 131.47C537.861 131.353 537.449 131.199 537.122 131.008C536.799 130.813 536.558 130.574 536.396 130.291C536.24 130.002 536.162 129.666 536.162 129.28V129.272C536.162 128.809 536.294 128.398 536.558 128.042C536.821 127.686 537.185 127.407 537.649 127.207C538.118 127.002 538.65 126.899 539.246 126.899C539.846 126.899 540.371 126.992 540.82 127.178C541.27 127.363 541.626 127.622 541.89 127.954C542.153 128.281 542.31 128.662 542.358 129.097V129.104H540.857V129.089C540.784 128.811 540.608 128.579 540.33 128.394C540.051 128.203 539.688 128.108 539.238 128.108C538.945 128.108 538.687 128.154 538.462 128.247C538.237 128.335 538.059 128.459 537.927 128.621C537.795 128.782 537.729 128.972 537.729 129.192V129.199C537.729 129.365 537.771 129.512 537.854 129.639C537.942 129.766 538.079 129.878 538.264 129.976C538.45 130.068 538.691 130.151 538.989 130.225L540.249 130.51C541.011 130.691 541.577 130.952 541.948 131.294C542.319 131.636 542.505 132.095 542.505 132.671V132.686C542.505 133.174 542.361 133.604 542.073 133.975C541.79 134.346 541.399 134.636 540.901 134.846C540.408 135.051 539.846 135.154 539.216 135.154Z" fill="black"/>
</g>
</g>
<defs>
<filter id="filter0_dddd_8800_3986" x="24" y="77" width="196" height="137" filterUnits="userSpaceOnUse" color-interpolation-filters="sRGB">
<feFlood flood-opacity="0" result="BackgroundImageFix"/>
<feColorMatrix in="SourceAlpha" type="matrix" values="0 0 0 0 0 0 0 0 0 0 0 0 0 0 0 0 0 0 127 0" result="hardAlpha"/>
<feOffset dy="16"/>
<feGaussianBlur stdDeviation="8"/>
<feComposite in2="hardAlpha" operator="out"/>
<feColorMatrix type="matrix" values="0 0 0 0 0 0 0 0 0 0 0 0 0 0 0 0 0 0 0.02 0"/>
<feBlend mode="normal" in2="BackgroundImageFix" result="effect1_dropShadow_8800_3986"/>
<feColorMatrix in="SourceAlpha" type="matrix" values="0 0 0 0 0 0 0 0 0 0 0 0 0 0 0 0 0 0 127 0" result="hardAlpha"/>
<feOffset dy="4"/>
<feGaussianBlur stdDeviation="2.5"/>
<feComposite in2="hardAlpha" operator="out"/>
<feColorMatrix type="matrix" values="0 0 0 0 0 0 0 0 0 0 0 0 0 0 0 0 0 0 0.03 0"/>
<feBlend mode="normal" in2="effect1_dropShadow_8800_3986" result="effect2_dropShadow_8800_3986"/>
<feColorMatrix in="SourceAlpha" type="matrix" values="0 0 0 0 0 0 0 0 0 0 0 0 0 0 0 0 0 0 127 0" result="hardAlpha"/>
<feOffset dy="4"/>
<feGaussianBlur stdDeviation="2.5"/>
<feComposite in2="hardAlpha" operator="out"/>
<feColorMatrix type="matrix" values="0 0 0 0 0 0 0 0 0 0 0 0 0 0 0 0 0 0 0.04 0"/>
<feBlend mode="normal" in2="effect2_dropShadow_8800_3986" result="effect3_dropShadow_8800_3986"/>
<feColorMatrix in="SourceAlpha" type="matrix" values="0 0 0 0 0 0 0 0 0 0 0 0 0 0 0 0 0 0 127 0" result="hardAlpha"/>
<feOffset dy="2"/>
<feGaussianBlur stdDeviation="1.5"/>
<feComposite in2="hardAlpha" operator="out"/>
<feColorMatrix type="matrix" values="0 0 0 0 0 0 0 0 0 0 0 0 0 0 0 0 0 0 0.05 0"/>
<feBlend mode="normal" in2="effect3_dropShadow_8800_3986" result="effect4_dropShadow_8800_3986"/>
<feBlend mode="normal" in="SourceGraphic" in2="effect4_dropShadow_8800_3986" result="shape"/>
</filter>
<filter id="filter1_dddd_8800_3986" x="204" y="77" width="196" height="137" filterUnits="userSpaceOnUse" color-interpolation-filters="sRGB">
<feFlood flood-opacity="0" result="BackgroundImageFix"/>
<feColorMatrix in="SourceAlpha" type="matrix" values="0 0 0 0 0 0 0 0 0 0 0 0 0 0 0 0 0 0 127 0" result="hardAlpha"/>
<feOffset dy="16"/>
<feGaussianBlur stdDeviation="8"/>
<feComposite in2="hardAlpha" operator="out"/>
<feColorMatrix type="matrix" values="0 0 0 0 0 0 0 0 0 0 0 0 0 0 0 0 0 0 0.02 0"/>
<feBlend mode="normal" in2="BackgroundImageFix" result="effect1_dropShadow_8800_3986"/>
<feColorMatrix in="SourceAlpha" type="matrix" values="0 0 0 0 0 0 0 0 0 0 0 0 0 0 0 0 0 0 127 0" result="hardAlpha"/>
<feOffset dy="4"/>
<feGaussianBlur stdDeviation="2.5"/>
<feComposite in2="hardAlpha" operator="out"/>
<feColorMatrix type="matrix" values="0 0 0 0 0 0 0 0 0 0 0 0 0 0 0 0 0 0 0.03 0"/>
<feBlend mode="normal" in2="effect1_dropShadow_8800_3986" result="effect2_dropShadow_8800_3986"/>
<feColorMatrix in="SourceAlpha" type="matrix" values="0 0 0 0 0 0 0 0 0 0 0 0 0 0 0 0 0 0 127 0" result="hardAlpha"/>
<feOffset dy="4"/>
<feGaussianBlur stdDeviation="2.5"/>
<feComposite in2="hardAlpha" operator="out"/>
<feColorMatrix type="matrix" values="0 0 0 0 0 0 0 0 0 0 0 0 0 0 0 0 0 0 0.04 0"/>
<feBlend mode="normal" in2="effect2_dropShadow_8800_3986" result="effect3_dropShadow_8800_3986"/>
<feColorMatrix in="SourceAlpha" type="matrix" values="0 0 0 0 0 0 0 0 0 0 0 0 0 0 0 0 0 0 127 0" result="hardAlpha"/>
<feOffset dy="2"/>
<feGaussianBlur stdDeviation="1.5"/>
<feComposite in2="hardAlpha" operator="out"/>
<feColorMatrix type="matrix" values="0 0 0 0 0 0 0 0 0 0 0 0 0 0 0 0 0 0 0.05 0"/>
<feBlend mode="normal" in2="effect3_dropShadow_8800_3986" result="effect4_dropShadow_8800_3986"/>
<feBlend mode="normal" in="SourceGraphic" in2="effect4_dropShadow_8800_3986" result="shape"/>
</filter>
<filter id="filter2_dddd_8800_3986" x="384" y="77" width="212" height="137" filterUnits="userSpaceOnUse" color-interpolation-filters="sRGB">
<feFlood flood-opacity="0" result="BackgroundImageFix"/>
<feColorMatrix in="SourceAlpha" type="matrix" values="0 0 0 0 0 0 0 0 0 0 0 0 0 0 0 0 0 0 127 0" result="hardAlpha"/>
<feOffset dy="16"/>
<feGaussianBlur stdDeviation="8"/>
<feComposite in2="hardAlpha" operator="out"/>
<feColorMatrix type="matrix" values="0 0 0 0 0 0 0 0 0 0 0 0 0 0 0 0 0 0 0.02 0"/>
<feBlend mode="normal" in2="BackgroundImageFix" result="effect1_dropShadow_8800_3986"/>
<feColorMatrix in="SourceAlpha" type="matrix" values="0 0 0 0 0 0 0 0 0 0 0 0 0 0 0 0 0 0 127 0" result="hardAlpha"/>
<feOffset dy="4"/>
<feGaussianBlur stdDeviation="2.5"/>
<feComposite in2="hardAlpha" operator="out"/>
<feColorMatrix type="matrix" values="0 0 0 0 0 0 0 0 0 0 0 0 0 0 0 0 0 0 0.03 0"/>
<feBlend mode="normal" in2="effect1_dropShadow_8800_3986" result="effect2_dropShadow_8800_3986"/>
<feColorMatrix in="SourceAlpha" type="matrix" values="0 0 0 0 0 0 0 0 0 0 0 0 0 0 0 0 0 0 127 0" result="hardAlpha"/>
<feOffset dy="4"/>
<feGaussianBlur stdDeviation="2.5"/>
<feComposite in2="hardAlpha" operator="out"/>
<feColorMatrix type="matrix" values="0 0 0 0 0 0 0 0 0 0 0 0 0 0 0 0 0 0 0.04 0"/>
<feBlend mode="normal" in2="effect2_dropShadow_8800_3986" result="effect3_dropShadow_8800_3986"/>
<feColorMatrix in="SourceAlpha" type="matrix" values="0 0 0 0 0 0 0 0 0 0 0 0 0 0 0 0 0 0 127 0" result="hardAlpha"/>
<feOffset dy="2"/>
<feGaussianBlur stdDeviation="1.5"/>
<feComposite in2="hardAlpha" operator="out"/>
<feColorMatrix type="matrix" values="0 0 0 0 0 0 0 0 0 0 0 0 0 0 0 0 0 0 0.05 0"/>
<feBlend mode="normal" in2="effect3_dropShadow_8800_3986" result="effect4_dropShadow_8800_3986"/>
<feBlend mode="normal" in="SourceGraphic" in2="effect4_dropShadow_8800_3986" result="shape"/>
</filter>
<clipPath id="clip0_8800_3986">
<rect width="488" height="260" fill="white"/>
</clipPath>
<clipPath id="clip1_8800_3986">
<rect width="90" height="24" fill="white" transform="translate(77 118)"/>
</clipPath>
</defs>
</svg>
