<svg width="488" height="260" viewBox="0 0 488 260" fill="none" xmlns="http://www.w3.org/2000/svg">
<g clip-path="url(#clip0_8800_3033)">
<rect width="488" height="260" fill="#67C5F9"/>
<path d="M486.168 130.573L339.701 339.809L191.755 128.455L338.22 -80.7811L486.168 130.573Z" stroke="#B9E4FE" stroke-width="3"/>
<path d="M137.447 324.464L0.236328 128.447L135.965 -65.451L273.176 130.566L137.447 324.464Z" fill="#B9E4FE"/>
<g filter="url(#filter0_dddd_8800_3033)">
<rect x="80" y="38" width="328" height="184" rx="4" fill="white" shape-rendering="crispEdges"/>
<g filter="url(#filter1_i_8800_3033)">
<rect x="96" y="54" width="40" height="40" rx="20" fill="#F4B1FF"/>
<circle cx="116.314" cy="74.3145" r="12" fill="white"/>
<path d="M101.726 90.3149V90.3149C108.956 85.1291 114.963 78.2417 119.068 70.3483V70.3483" stroke="#022836" stroke-width="2" stroke-linecap="round" stroke-linejoin="round"/>
<path d="M110.046 71.8601L118.989 69.9749L120.875 78.9184" stroke="#022836" stroke-width="2" stroke-linecap="round" stroke-linejoin="round"/>
</g>
<rect x="125.22" y="76.72" width="18.56" height="18.56" rx="9.28" fill="#F4B1FF"/>
<rect x="125.22" y="76.72" width="18.56" height="18.56" rx="9.28" stroke="white" stroke-width="2.56"/>
<path d="M138.037 83.7842L132.992 88.5635L130.931 86.3884" stroke="#022836" stroke-width="1.6" stroke-linecap="round"/>
<path d="M155.326 79V68.4312H162.027V69.8301H156.944V72.9429H161.756V74.2905H156.944V77.6011H162.027V79H155.326ZM164.217 79V71.0459H165.777V72.269H165.902C166.073 71.8345 166.346 71.4976 166.722 71.2583C167.098 71.019 167.545 70.8994 168.062 70.8994C168.424 70.8994 168.749 70.958 169.037 71.0752C169.325 71.1924 169.571 71.3584 169.776 71.5732C169.986 71.7832 170.15 72.0298 170.267 72.313H170.392C170.523 72.0298 170.709 71.7832 170.948 71.5732C171.188 71.3584 171.466 71.1924 171.783 71.0752C172.101 70.958 172.442 70.8994 172.809 70.8994C173.346 70.8994 173.802 71.002 174.178 71.207C174.559 71.4121 174.85 71.71 175.05 72.1006C175.255 72.4912 175.357 72.9624 175.357 73.5142V79H173.79V73.895C173.79 73.5239 173.734 73.2163 173.622 72.9722C173.509 72.728 173.338 72.5449 173.109 72.4229C172.884 72.3008 172.599 72.2397 172.252 72.2397C171.91 72.2397 171.612 72.3179 171.358 72.4741C171.104 72.6255 170.907 72.833 170.765 73.0967C170.628 73.3555 170.56 73.646 170.56 73.9683V79H169V73.7266C169 73.4238 168.937 73.1626 168.81 72.9429C168.688 72.7183 168.509 72.5449 168.275 72.4229C168.045 72.3008 167.774 72.2397 167.462 72.2397C167.14 72.2397 166.852 72.3228 166.598 72.4888C166.344 72.6548 166.144 72.8818 165.997 73.1699C165.851 73.4531 165.777 73.7681 165.777 74.1147V79H164.217ZM180.902 79.1538C180.13 79.1538 179.466 78.9878 178.91 78.6558C178.353 78.3188 177.923 77.8428 177.621 77.2275C177.323 76.6123 177.174 75.8848 177.174 75.0449V75.0376C177.174 74.2124 177.323 73.4897 177.621 72.8696C177.923 72.2495 178.348 71.7661 178.895 71.4194C179.442 71.0728 180.084 70.8994 180.821 70.8994C181.563 70.8994 182.201 71.0654 182.733 71.3975C183.265 71.7295 183.675 72.1958 183.963 72.7964C184.251 73.3921 184.396 74.0879 184.396 74.8838V75.4404H177.972V74.3125H183.619L182.857 75.3525V74.73C182.857 74.1587 182.772 73.6851 182.601 73.3091C182.43 72.9331 182.191 72.6523 181.883 72.4668C181.581 72.2812 181.229 72.1885 180.829 72.1885C180.433 72.1885 180.079 72.2861 179.767 72.4814C179.454 72.6768 179.208 72.9648 179.027 73.3457C178.846 73.7217 178.756 74.1831 178.756 74.73V75.3599C178.756 75.8823 178.844 76.3315 179.02 76.7075C179.195 77.0786 179.447 77.3643 179.774 77.5645C180.101 77.7598 180.489 77.8574 180.938 77.8574C181.28 77.8574 181.576 77.811 181.825 77.7183C182.074 77.6206 182.276 77.501 182.433 77.3594C182.594 77.2178 182.706 77.0762 182.77 76.9346L182.792 76.876H184.308L184.293 76.9419C184.225 77.2056 184.105 77.4668 183.934 77.7256C183.763 77.9844 183.539 78.2212 183.26 78.436C182.982 78.6509 182.645 78.8242 182.25 78.9561C181.859 79.0879 181.41 79.1538 180.902 79.1538ZM186.292 79V71.0459H187.853V72.2471H187.977C188.119 71.8223 188.368 71.4951 188.724 71.2656C189.085 71.0312 189.53 70.9141 190.057 70.9141C190.189 70.9141 190.318 70.9214 190.445 70.936C190.572 70.9507 190.675 70.9653 190.753 70.98V72.4302C190.611 72.4009 190.47 72.3789 190.328 72.3643C190.191 72.3496 190.05 72.3423 189.903 72.3423C189.498 72.3423 189.142 72.4204 188.834 72.5767C188.526 72.7329 188.285 72.9526 188.109 73.2358C187.938 73.519 187.853 73.8511 187.853 74.2319V79H186.292ZM195.433 81.7979C194.759 81.7979 194.176 81.7051 193.683 81.5195C193.189 81.3389 192.799 81.0825 192.511 80.7505C192.223 80.4185 192.047 80.0327 191.983 79.5933L191.991 79.5786H193.58L193.587 79.5933C193.651 79.8716 193.841 80.0986 194.159 80.2744C194.481 80.4502 194.911 80.5381 195.448 80.5381C196.107 80.5381 196.622 80.3892 196.993 80.0913C197.364 79.7935 197.55 79.3735 197.55 78.8315V77.2642H197.425C197.269 77.5522 197.069 77.7988 196.825 78.0039C196.581 78.2041 196.302 78.3555 195.99 78.458C195.677 78.5605 195.338 78.6118 194.972 78.6118C194.293 78.6118 193.707 78.4507 193.214 78.1284C192.721 77.8013 192.34 77.3521 192.071 76.7808C191.808 76.2046 191.676 75.543 191.676 74.7959V74.7812C191.676 74.0244 191.81 73.3555 192.079 72.7744C192.347 72.1934 192.728 71.7393 193.221 71.4121C193.719 71.0801 194.312 70.9141 195.001 70.9141C195.372 70.9141 195.714 70.9727 196.026 71.0898C196.339 71.207 196.615 71.373 196.854 71.5879C197.093 71.8027 197.291 72.0591 197.447 72.3569H197.535V71.0459H199.103V78.8462C199.103 79.4468 198.954 79.9668 198.656 80.4062C198.358 80.8506 197.933 81.1924 197.381 81.4316C196.83 81.6758 196.18 81.7979 195.433 81.7979ZM195.404 77.3081C195.858 77.3081 196.246 77.2031 196.568 76.9932C196.891 76.7783 197.14 76.4829 197.315 76.1069C197.491 75.7261 197.579 75.2866 197.579 74.7886V74.7739C197.579 74.2808 197.491 73.8438 197.315 73.4629C197.14 73.082 196.891 72.7842 196.568 72.5693C196.246 72.3496 195.858 72.2397 195.404 72.2397C194.95 72.2397 194.564 72.3496 194.247 72.5693C193.929 72.7842 193.688 73.082 193.521 73.4629C193.355 73.8438 193.272 74.2808 193.272 74.7739V74.7886C193.272 75.2866 193.355 75.7261 193.521 76.1069C193.688 76.4829 193.929 76.7783 194.247 76.9932C194.564 77.2031 194.95 77.3081 195.404 77.3081ZM201.432 79V71.0459H202.992V79H201.432ZM202.223 69.6177C201.954 69.6177 201.722 69.5225 201.527 69.332C201.332 69.1367 201.234 68.9048 201.234 68.6362C201.234 68.3628 201.332 68.1309 201.527 67.9404C201.722 67.75 201.954 67.6548 202.223 67.6548C202.496 67.6548 202.728 67.75 202.918 67.9404C203.109 68.1309 203.204 68.3628 203.204 68.6362C203.204 68.9048 203.109 69.1367 202.918 69.332C202.728 69.5225 202.496 69.6177 202.223 69.6177ZM205.321 79V71.0459H206.881V72.2544H207.005C207.201 71.8296 207.489 71.4976 207.87 71.2583C208.25 71.019 208.729 70.8994 209.305 70.8994C210.199 70.8994 210.882 71.1558 211.356 71.6685C211.83 72.1763 212.066 72.9038 212.066 73.8511V79H210.506V74.2246C210.506 73.5557 210.365 73.0576 210.082 72.7305C209.803 72.4033 209.371 72.2397 208.785 72.2397C208.395 72.2397 208.058 72.3252 207.774 72.4961C207.491 72.667 207.271 72.9087 207.115 73.2212C206.959 73.5288 206.881 73.8999 206.881 74.3345V79H205.321ZM217.655 81.7979C216.981 81.7979 216.397 81.7051 215.904 81.5195C215.411 81.3389 215.021 81.0825 214.732 80.7505C214.444 80.4185 214.269 80.0327 214.205 79.5933L214.212 79.5786H215.802L215.809 79.5933C215.873 79.8716 216.063 80.0986 216.38 80.2744C216.703 80.4502 217.132 80.5381 217.669 80.5381C218.329 80.5381 218.844 80.3892 219.215 80.0913C219.586 79.7935 219.771 79.3735 219.771 78.8315V77.2642H219.647C219.491 77.5522 219.291 77.7988 219.046 78.0039C218.802 78.2041 218.524 78.3555 218.211 78.458C217.899 78.5605 217.56 78.6118 217.193 78.6118C216.515 78.6118 215.929 78.4507 215.436 78.1284C214.942 77.8013 214.562 77.3521 214.293 76.7808C214.029 76.2046 213.897 75.543 213.897 74.7959V74.7812C213.897 74.0244 214.032 73.3555 214.3 72.7744C214.569 72.1934 214.95 71.7393 215.443 71.4121C215.941 71.0801 216.534 70.9141 217.223 70.9141C217.594 70.9141 217.936 70.9727 218.248 71.0898C218.561 71.207 218.836 71.373 219.076 71.5879C219.315 71.8027 219.513 72.0591 219.669 72.3569H219.757V71.0459H221.324V78.8462C221.324 79.4468 221.175 79.9668 220.877 80.4062C220.58 80.8506 220.155 81.1924 219.603 81.4316C219.051 81.6758 218.402 81.7979 217.655 81.7979ZM217.625 77.3081C218.08 77.3081 218.468 77.2031 218.79 76.9932C219.112 76.7783 219.361 76.4829 219.537 76.1069C219.713 75.7261 219.801 75.2866 219.801 74.7886V74.7739C219.801 74.2808 219.713 73.8438 219.537 73.4629C219.361 73.082 219.112 72.7842 218.79 72.5693C218.468 72.3496 218.08 72.2397 217.625 72.2397C217.171 72.2397 216.786 72.3496 216.468 72.5693C216.151 72.7842 215.909 73.082 215.743 73.4629C215.577 73.8438 215.494 74.2808 215.494 74.7739V74.7886C215.494 75.2866 215.577 75.7261 215.743 76.1069C215.909 76.4829 216.151 76.7783 216.468 76.9932C216.786 77.2031 217.171 77.3081 217.625 77.3081ZM228.714 75.3745V74.0195H231.615C232.328 74.0195 232.882 73.834 233.277 73.4629C233.673 73.0918 233.871 72.5767 233.871 71.9175V71.9028C233.871 71.2339 233.673 70.7163 233.277 70.3501C232.882 69.9839 232.328 69.8008 231.615 69.8008H228.714V68.4312H232.018C232.706 68.4312 233.312 68.5752 233.834 68.8633C234.361 69.1514 234.774 69.5566 235.072 70.0791C235.37 70.5967 235.519 71.1997 235.519 71.8882V71.9028C235.519 72.5913 235.37 73.1968 235.072 73.7192C234.774 74.2417 234.361 74.6494 233.834 74.9424C233.312 75.2305 232.706 75.3745 232.018 75.3745H228.714ZM227.909 79V68.4312H229.527V79H227.909ZM239.342 79.1318C238.839 79.1318 238.387 79.0366 237.987 78.8462C237.591 78.6509 237.279 78.3774 237.049 78.0259C236.82 77.6694 236.705 77.2495 236.705 76.7661V76.7515C236.705 76.2778 236.82 75.8726 237.049 75.5356C237.284 75.1938 237.621 74.9277 238.06 74.7373C238.504 74.542 239.042 74.4272 239.671 74.3931L242.601 74.2173V75.3306L239.876 75.5063C239.325 75.5356 238.919 75.6504 238.661 75.8506C238.402 76.0508 238.272 76.3291 238.272 76.6855V76.7002C238.272 77.0713 238.412 77.3618 238.69 77.5718C238.973 77.7769 239.33 77.8794 239.759 77.8794C240.16 77.8794 240.514 77.7988 240.821 77.6377C241.134 77.4766 241.378 77.2593 241.554 76.9858C241.734 76.7124 241.825 76.4048 241.825 76.063V73.5581C241.825 73.1187 241.688 72.7817 241.415 72.5474C241.141 72.313 240.733 72.1958 240.191 72.1958C239.747 72.1958 239.383 72.2739 239.1 72.4302C238.822 72.5864 238.634 72.8062 238.536 73.0894L238.529 73.1187H237.02L237.027 73.0601C237.091 72.6255 237.264 72.2471 237.547 71.9248C237.831 71.6025 238.204 71.3511 238.668 71.1704C239.132 70.9897 239.664 70.8994 240.265 70.8994C240.929 70.8994 241.493 71.0068 241.957 71.2217C242.42 71.4316 242.772 71.7368 243.011 72.1372C243.255 72.5327 243.377 73.0063 243.377 73.5581V79H241.825V77.8721H241.7C241.549 78.1357 241.356 78.3628 241.122 78.5532C240.887 78.7437 240.621 78.8877 240.323 78.9854C240.025 79.083 239.698 79.1318 239.342 79.1318ZM245.633 79V71.0459H247.193V72.2471H247.318C247.459 71.8223 247.708 71.4951 248.065 71.2656C248.426 71.0312 248.871 70.9141 249.398 70.9141C249.53 70.9141 249.659 70.9214 249.786 70.936C249.913 70.9507 250.016 70.9653 250.094 70.98V72.4302C249.952 72.4009 249.811 72.3789 249.669 72.3643C249.532 72.3496 249.391 72.3423 249.244 72.3423C248.839 72.3423 248.482 72.4204 248.175 72.5767C247.867 72.7329 247.625 72.9526 247.45 73.2358C247.279 73.519 247.193 73.8511 247.193 74.2319V79H245.633ZM254.767 79.0513C253.902 79.0513 253.277 78.8853 252.892 78.5532C252.506 78.2163 252.313 77.667 252.313 76.9053V72.291H251.068V71.0459H252.313V69.0464H253.91V71.0459H255.616V72.291H253.91V76.5317C253.91 76.9614 253.995 77.2715 254.166 77.4619C254.342 77.6523 254.625 77.7476 255.016 77.7476C255.138 77.7476 255.24 77.7451 255.323 77.7402C255.406 77.7354 255.504 77.728 255.616 77.7183V78.9707C255.494 78.9902 255.36 79.0073 255.213 79.022C255.072 79.0415 254.923 79.0513 254.767 79.0513ZM257.484 79V71.0459H259.044V72.2544H259.168C259.364 71.8296 259.652 71.4976 260.033 71.2583C260.414 71.019 260.892 70.8994 261.468 70.8994C262.362 70.8994 263.045 71.1558 263.519 71.6685C263.993 72.1763 264.229 72.9038 264.229 73.8511V79H262.669V74.2246C262.669 73.5557 262.528 73.0576 262.245 72.7305C261.966 72.4033 261.534 72.2397 260.948 72.2397C260.558 72.2397 260.221 72.3252 259.938 72.4961C259.654 72.667 259.435 72.9087 259.278 73.2212C259.122 73.5288 259.044 73.8999 259.044 74.3345V79H257.484ZM269.789 79.1538C269.017 79.1538 268.353 78.9878 267.796 78.6558C267.24 78.3188 266.81 77.8428 266.507 77.2275C266.209 76.6123 266.061 75.8848 266.061 75.0449V75.0376C266.061 74.2124 266.209 73.4897 266.507 72.8696C266.81 72.2495 267.235 71.7661 267.782 71.4194C268.329 71.0728 268.971 70.8994 269.708 70.8994C270.45 70.8994 271.087 71.0654 271.62 71.3975C272.152 71.7295 272.562 72.1958 272.85 72.7964C273.138 73.3921 273.282 74.0879 273.282 74.8838V75.4404H266.859V74.3125H272.506L271.744 75.3525V74.73C271.744 74.1587 271.659 73.6851 271.488 73.3091C271.317 72.9331 271.078 72.6523 270.77 72.4668C270.467 72.2812 270.116 72.1885 269.715 72.1885C269.32 72.1885 268.966 72.2861 268.653 72.4814C268.341 72.6768 268.094 72.9648 267.914 73.3457C267.733 73.7217 267.643 74.1831 267.643 74.73V75.3599C267.643 75.8823 267.73 76.3315 267.906 76.7075C268.082 77.0786 268.333 77.3643 268.661 77.5645C268.988 77.7598 269.376 77.8574 269.825 77.8574C270.167 77.8574 270.462 77.811 270.711 77.7183C270.96 77.6206 271.163 77.501 271.319 77.3594C271.48 77.2178 271.593 77.0762 271.656 76.9346L271.678 76.876H273.194L273.18 76.9419C273.111 77.2056 272.992 77.4668 272.821 77.7256C272.65 77.9844 272.425 78.2212 272.147 78.436C271.869 78.6509 271.532 78.8242 271.136 78.9561C270.746 79.0879 270.296 79.1538 269.789 79.1538ZM275.179 79V71.0459H276.739V72.2471H276.864C277.005 71.8223 277.254 71.4951 277.611 71.2656C277.972 71.0312 278.417 70.9141 278.944 70.9141C279.076 70.9141 279.205 70.9214 279.332 70.936C279.459 70.9507 279.562 70.9653 279.64 70.98V72.4302C279.498 72.4009 279.356 72.3789 279.215 72.3643C279.078 72.3496 278.937 72.3423 278.79 72.3423C278.385 72.3423 278.028 72.4204 277.721 72.5767C277.413 72.7329 277.171 72.9526 276.996 73.2358C276.825 73.519 276.739 73.8511 276.739 74.2319V79H275.179Z" fill="#1D2327"/>
<g filter="url(#filter2_i_8800_3033)">
<rect x="96" y="110" width="40" height="40" rx="20" fill="#022836"/>
<path d="M113.674 130.37L120.876 120.081L128.15 130.472L120.948 140.761L113.674 130.37Z" fill="#5AB7E8"/>
<path d="M117.716 130.472L111.124 139.888L104.46 130.369L111.052 120.953L117.716 130.472Z" fill="#022836" stroke="white" stroke-linejoin="round"/>
</g>
<rect x="125.22" y="132.72" width="18.56" height="18.56" rx="9.28" fill="#022836"/>
<rect x="125.22" y="132.72" width="18.56" height="18.56" rx="9.28" stroke="white" stroke-width="2.56"/>
<path d="M138.037 139.784L132.992 144.564L130.931 142.388" stroke="#5AB7E8" stroke-width="1.6" stroke-linecap="round"/>
<path d="M154.513 135L158.336 124.431H159.632V126.277H159.142L156.212 135H154.513ZM156.344 132.129L156.798 130.833H161.61L162.064 132.129H156.344ZM162.196 135L159.266 126.277V124.431H160.072L163.895 135H162.196ZM168.465 137.798C167.792 137.798 167.208 137.705 166.715 137.52C166.222 137.339 165.831 137.083 165.543 136.75C165.255 136.418 165.079 136.033 165.016 135.593L165.023 135.579H166.612L166.62 135.593C166.683 135.872 166.874 136.099 167.191 136.274C167.513 136.45 167.943 136.538 168.48 136.538C169.139 136.538 169.654 136.389 170.025 136.091C170.396 135.793 170.582 135.374 170.582 134.832V133.264H170.458C170.301 133.552 170.101 133.799 169.857 134.004C169.613 134.204 169.334 134.355 169.022 134.458C168.709 134.561 168.37 134.612 168.004 134.612C167.325 134.612 166.739 134.451 166.246 134.128C165.753 133.801 165.372 133.352 165.104 132.781C164.84 132.205 164.708 131.543 164.708 130.796V130.781C164.708 130.024 164.842 129.355 165.111 128.774C165.379 128.193 165.76 127.739 166.253 127.412C166.751 127.08 167.345 126.914 168.033 126.914C168.404 126.914 168.746 126.973 169.059 127.09C169.371 127.207 169.647 127.373 169.886 127.588C170.125 127.803 170.323 128.059 170.479 128.357H170.567V127.046H172.135V134.846C172.135 135.447 171.986 135.967 171.688 136.406C171.39 136.851 170.965 137.192 170.414 137.432C169.862 137.676 169.212 137.798 168.465 137.798ZM168.436 133.308C168.89 133.308 169.278 133.203 169.601 132.993C169.923 132.778 170.172 132.483 170.348 132.107C170.523 131.726 170.611 131.287 170.611 130.789V130.774C170.611 130.281 170.523 129.844 170.348 129.463C170.172 129.082 169.923 128.784 169.601 128.569C169.278 128.35 168.89 128.24 168.436 128.24C167.982 128.24 167.596 128.35 167.279 128.569C166.961 128.784 166.72 129.082 166.554 129.463C166.388 129.844 166.305 130.281 166.305 130.774V130.789C166.305 131.287 166.388 131.726 166.554 132.107C166.72 132.483 166.961 132.778 167.279 132.993C167.596 133.203 167.982 133.308 168.436 133.308ZM177.767 135.154C176.996 135.154 176.332 134.988 175.775 134.656C175.218 134.319 174.789 133.843 174.486 133.228C174.188 132.612 174.039 131.885 174.039 131.045V131.038C174.039 130.212 174.188 129.49 174.486 128.87C174.789 128.25 175.213 127.766 175.76 127.419C176.307 127.073 176.949 126.899 177.687 126.899C178.429 126.899 179.066 127.065 179.598 127.397C180.13 127.729 180.541 128.196 180.829 128.796C181.117 129.392 181.261 130.088 181.261 130.884V131.44H174.837V130.312H180.484L179.723 131.353V130.73C179.723 130.159 179.637 129.685 179.466 129.309C179.295 128.933 179.056 128.652 178.749 128.467C178.446 128.281 178.094 128.188 177.694 128.188C177.298 128.188 176.944 128.286 176.632 128.481C176.319 128.677 176.073 128.965 175.892 129.346C175.711 129.722 175.621 130.183 175.621 130.73V131.36C175.621 131.882 175.709 132.332 175.885 132.708C176.061 133.079 176.312 133.364 176.639 133.564C176.966 133.76 177.354 133.857 177.804 133.857C178.146 133.857 178.441 133.811 178.69 133.718C178.939 133.621 179.142 133.501 179.298 133.359C179.459 133.218 179.571 133.076 179.635 132.935L179.657 132.876H181.173L181.158 132.942C181.09 133.206 180.97 133.467 180.799 133.726C180.628 133.984 180.404 134.221 180.125 134.436C179.847 134.651 179.51 134.824 179.115 134.956C178.724 135.088 178.275 135.154 177.767 135.154ZM183.158 135V127.046H184.718V128.254H184.842C185.038 127.83 185.326 127.498 185.707 127.258C186.087 127.019 186.566 126.899 187.142 126.899C188.036 126.899 188.719 127.156 189.193 127.668C189.667 128.176 189.903 128.904 189.903 129.851V135H188.343V130.225C188.343 129.556 188.202 129.058 187.918 128.73C187.64 128.403 187.208 128.24 186.622 128.24C186.231 128.24 185.895 128.325 185.611 128.496C185.328 128.667 185.108 128.909 184.952 129.221C184.796 129.529 184.718 129.9 184.718 130.334V135H183.158ZM195.47 135.154C194.698 135.154 194.034 134.988 193.478 134.656C192.921 134.319 192.491 133.84 192.188 133.22C191.886 132.6 191.734 131.863 191.734 131.008V130.994C191.734 130.149 191.883 129.421 192.181 128.811C192.484 128.201 192.914 127.729 193.47 127.397C194.032 127.065 194.698 126.899 195.47 126.899C196.134 126.899 196.705 127.014 197.184 127.244C197.662 127.473 198.043 127.788 198.326 128.188C198.614 128.589 198.795 129.045 198.868 129.558L198.875 129.595H197.367L197.359 129.58C197.271 129.189 197.066 128.865 196.744 128.606C196.427 128.342 196.002 128.21 195.47 128.21C195.025 128.21 194.642 128.323 194.32 128.547C194.002 128.772 193.758 129.092 193.587 129.507C193.417 129.922 193.331 130.417 193.331 130.994V131.008C193.331 131.589 193.417 132.092 193.587 132.517C193.763 132.942 194.01 133.269 194.327 133.499C194.649 133.723 195.03 133.835 195.47 133.835C195.973 133.835 196.378 133.726 196.686 133.506C196.998 133.286 197.22 132.961 197.352 132.532L197.367 132.495L198.868 132.488L198.854 132.554C198.756 133.066 198.565 133.518 198.282 133.909C198.004 134.299 197.63 134.604 197.162 134.824C196.693 135.044 196.129 135.154 195.47 135.154ZM201.446 137.791C201.349 137.791 201.244 137.788 201.131 137.783C201.019 137.778 200.912 137.769 200.809 137.754V136.523C200.887 136.533 200.973 136.541 201.065 136.545C201.163 136.55 201.256 136.553 201.344 136.553C201.715 136.553 202.015 136.465 202.245 136.289C202.474 136.118 202.647 135.828 202.765 135.417L202.889 135.007L199.996 127.046H201.688L203.951 134.231L203.453 133.418H204.061L203.57 134.231L205.826 127.046H207.474L204.5 135.322C204.281 135.952 204.034 136.445 203.761 136.802C203.492 137.163 203.172 137.417 202.801 137.563C202.43 137.715 201.979 137.791 201.446 137.791ZM214.183 131.375V130.02H217.083C217.796 130.02 218.351 129.834 218.746 129.463C219.142 129.092 219.339 128.577 219.339 127.917V127.903C219.339 127.234 219.142 126.716 218.746 126.35C218.351 125.984 217.796 125.801 217.083 125.801H214.183V124.431H217.486C218.175 124.431 218.78 124.575 219.303 124.863C219.83 125.151 220.243 125.557 220.541 126.079C220.838 126.597 220.987 127.2 220.987 127.888V127.903C220.987 128.591 220.838 129.197 220.541 129.719C220.243 130.242 219.83 130.649 219.303 130.942C218.78 131.23 218.175 131.375 217.486 131.375H214.183ZM213.377 135V124.431H214.996V135H213.377ZM224.811 135.132C224.308 135.132 223.856 135.037 223.456 134.846C223.06 134.651 222.748 134.377 222.518 134.026C222.289 133.669 222.174 133.25 222.174 132.766V132.751C222.174 132.278 222.289 131.873 222.518 131.536C222.752 131.194 223.089 130.928 223.529 130.737C223.973 130.542 224.51 130.427 225.14 130.393L228.07 130.217V131.331L225.345 131.506C224.793 131.536 224.388 131.65 224.129 131.851C223.871 132.051 223.741 132.329 223.741 132.686V132.7C223.741 133.071 223.88 133.362 224.159 133.572C224.442 133.777 224.798 133.879 225.228 133.879C225.628 133.879 225.982 133.799 226.29 133.638C226.603 133.477 226.847 133.259 227.022 132.986C227.203 132.712 227.293 132.405 227.293 132.063V129.558C227.293 129.119 227.157 128.782 226.883 128.547C226.61 128.313 226.202 128.196 225.66 128.196C225.216 128.196 224.852 128.274 224.569 128.43C224.291 128.586 224.103 128.806 224.005 129.089L223.998 129.119H222.489L222.496 129.06C222.56 128.625 222.733 128.247 223.016 127.925C223.299 127.603 223.673 127.351 224.137 127.17C224.601 126.99 225.133 126.899 225.733 126.899C226.397 126.899 226.961 127.007 227.425 127.222C227.889 127.432 228.241 127.737 228.48 128.137C228.724 128.533 228.846 129.006 228.846 129.558V135H227.293V133.872H227.169C227.018 134.136 226.825 134.363 226.59 134.553C226.356 134.744 226.09 134.888 225.792 134.985C225.494 135.083 225.167 135.132 224.811 135.132ZM231.102 135V127.046H232.662V128.247H232.787C232.928 127.822 233.177 127.495 233.534 127.266C233.895 127.031 234.339 126.914 234.867 126.914C234.999 126.914 235.128 126.921 235.255 126.936C235.382 126.951 235.484 126.965 235.562 126.98V128.43C235.421 128.401 235.279 128.379 235.138 128.364C235.001 128.35 234.859 128.342 234.713 128.342C234.308 128.342 233.951 128.42 233.644 128.577C233.336 128.733 233.094 128.953 232.918 129.236C232.748 129.519 232.662 129.851 232.662 130.232V135H231.102ZM240.235 135.051C239.371 135.051 238.746 134.885 238.36 134.553C237.975 134.216 237.782 133.667 237.782 132.905V128.291H236.537V127.046H237.782V125.046H239.378V127.046H241.085V128.291H239.378V132.532C239.378 132.961 239.464 133.271 239.635 133.462C239.811 133.652 240.094 133.748 240.484 133.748C240.606 133.748 240.709 133.745 240.792 133.74C240.875 133.735 240.973 133.728 241.085 133.718V134.971C240.963 134.99 240.829 135.007 240.682 135.022C240.541 135.042 240.392 135.051 240.235 135.051ZM242.953 135V127.046H244.513V128.254H244.637C244.833 127.83 245.121 127.498 245.501 127.258C245.882 127.019 246.361 126.899 246.937 126.899C247.831 126.899 248.514 127.156 248.988 127.668C249.461 128.176 249.698 128.904 249.698 129.851V135H248.138V130.225C248.138 129.556 247.997 129.058 247.713 128.73C247.435 128.403 247.003 128.24 246.417 128.24C246.026 128.24 245.689 128.325 245.406 128.496C245.123 128.667 244.903 128.909 244.747 129.221C244.591 129.529 244.513 129.9 244.513 130.334V135H242.953ZM255.257 135.154C254.486 135.154 253.822 134.988 253.265 134.656C252.708 134.319 252.279 133.843 251.976 133.228C251.678 132.612 251.529 131.885 251.529 131.045V131.038C251.529 130.212 251.678 129.49 251.976 128.87C252.279 128.25 252.704 127.766 253.25 127.419C253.797 127.073 254.439 126.899 255.177 126.899C255.919 126.899 256.556 127.065 257.088 127.397C257.621 127.729 258.031 128.196 258.319 128.796C258.607 129.392 258.751 130.088 258.751 130.884V131.44H252.328V130.312H257.975L257.213 131.353V130.73C257.213 130.159 257.127 129.685 256.957 129.309C256.786 128.933 256.546 128.652 256.239 128.467C255.936 128.281 255.584 128.188 255.184 128.188C254.789 128.188 254.435 128.286 254.122 128.481C253.81 128.677 253.563 128.965 253.382 129.346C253.202 129.722 253.111 130.183 253.111 130.73V131.36C253.111 131.882 253.199 132.332 253.375 132.708C253.551 133.079 253.802 133.364 254.129 133.564C254.457 133.76 254.845 133.857 255.294 133.857C255.636 133.857 255.931 133.811 256.18 133.718C256.429 133.621 256.632 133.501 256.788 133.359C256.949 133.218 257.062 133.076 257.125 132.935L257.147 132.876H258.663L258.648 132.942C258.58 133.206 258.46 133.467 258.29 133.726C258.119 133.984 257.894 134.221 257.616 134.436C257.337 134.651 257 134.824 256.605 134.956C256.214 135.088 255.765 135.154 255.257 135.154ZM260.648 135V127.046H262.208V128.247H262.333C262.474 127.822 262.723 127.495 263.08 127.266C263.441 127.031 263.885 126.914 264.413 126.914C264.544 126.914 264.674 126.921 264.801 126.936C264.928 126.951 265.03 126.965 265.108 126.98V128.43C264.967 128.401 264.825 128.379 264.684 128.364C264.547 128.35 264.405 128.342 264.259 128.342C263.854 128.342 263.497 128.42 263.189 128.577C262.882 128.733 262.64 128.953 262.464 129.236C262.293 129.519 262.208 129.851 262.208 130.232V135H260.648Z" fill="#1D2327"/>
<g opacity="0.5">
<g filter="url(#filter3_i_8800_3033)">
<rect x="96" y="166" width="40" height="40" rx="20" fill="#104E30"/>
<path d="M105.425 185.85H103.396L105.587 185.968C110.442 186.227 113.584 191.207 111.729 195.701C114.53 190.019 120.183 186.295 126.509 185.966L128.728 185.85H126.42C121.645 185.85 118.453 180.934 120.394 176.572C117.571 182.256 111.772 185.85 105.425 185.85Z" fill="#53DC81" stroke="#53DC81" stroke-width="1.07143" stroke-linejoin="round"/>
</g>
<path d="M156.131 187.375V186.02H159.032C159.745 186.02 160.299 185.834 160.694 185.463C161.09 185.092 161.288 184.577 161.288 183.917V183.903C161.288 183.234 161.09 182.716 160.694 182.35C160.299 181.984 159.745 181.801 159.032 181.801H156.131V180.431H159.435C160.123 180.431 160.729 180.575 161.251 180.863C161.778 181.151 162.191 181.557 162.489 182.079C162.787 182.597 162.936 183.2 162.936 183.888V183.903C162.936 184.591 162.787 185.197 162.489 185.719C162.191 186.242 161.778 186.649 161.251 186.942C160.729 187.23 160.123 187.375 159.435 187.375H156.131ZM155.326 191V180.431H156.944V191H155.326ZM164.876 191V183.046H166.437V184.247H166.561C166.703 183.822 166.952 183.495 167.308 183.266C167.669 183.031 168.114 182.914 168.641 182.914C168.773 182.914 168.902 182.921 169.029 182.936C169.156 182.951 169.259 182.965 169.337 182.98V184.43C169.195 184.401 169.054 184.379 168.912 184.364C168.775 184.35 168.634 184.342 168.487 184.342C168.082 184.342 167.726 184.42 167.418 184.577C167.11 184.733 166.869 184.953 166.693 185.236C166.522 185.519 166.437 185.851 166.437 186.232V191H164.876ZM174.017 191.154C173.246 191.154 172.579 190.988 172.018 190.656C171.456 190.324 171.021 189.85 170.714 189.235C170.411 188.615 170.26 187.88 170.26 187.03V187.016C170.26 186.161 170.411 185.426 170.714 184.811C171.021 184.196 171.456 183.725 172.018 183.397C172.579 183.065 173.246 182.899 174.017 182.899C174.793 182.899 175.46 183.065 176.017 183.397C176.578 183.725 177.01 184.196 177.313 184.811C177.616 185.426 177.767 186.161 177.767 187.016V187.03C177.767 187.88 177.616 188.615 177.313 189.235C177.01 189.85 176.578 190.324 176.017 190.656C175.46 190.988 174.793 191.154 174.017 191.154ZM174.017 189.835C174.476 189.835 174.864 189.726 175.182 189.506C175.504 189.281 175.748 188.961 175.914 188.546C176.085 188.126 176.17 187.621 176.17 187.03V187.016C176.17 186.425 176.085 185.922 175.914 185.507C175.743 185.087 175.499 184.767 175.182 184.547C174.864 184.323 174.476 184.21 174.017 184.21C173.558 184.21 173.167 184.323 172.845 184.547C172.528 184.767 172.284 185.087 172.113 185.507C171.947 185.922 171.864 186.425 171.864 187.016V187.03C171.864 187.621 171.947 188.126 172.113 188.546C172.284 188.961 172.528 189.281 172.845 189.506C173.167 189.726 173.558 189.835 174.017 189.835ZM183.136 191L186.959 180.431H188.255V182.277H187.765L184.835 191H183.136ZM184.967 188.129L185.421 186.833H190.233L190.687 188.129H184.967ZM190.819 191L187.889 182.277V180.431H188.695L192.518 191H190.819ZM197.088 193.798C196.415 193.798 195.831 193.705 195.338 193.52C194.845 193.339 194.454 193.083 194.166 192.75C193.878 192.418 193.702 192.033 193.639 191.593L193.646 191.579H195.235L195.243 191.593C195.306 191.872 195.497 192.099 195.814 192.274C196.136 192.45 196.566 192.538 197.103 192.538C197.762 192.538 198.277 192.389 198.648 192.091C199.02 191.793 199.205 191.374 199.205 190.832V189.264H199.081C198.924 189.552 198.724 189.799 198.48 190.004C198.236 190.204 197.958 190.355 197.645 190.458C197.333 190.561 196.993 190.612 196.627 190.612C195.948 190.612 195.362 190.451 194.869 190.128C194.376 189.801 193.995 189.352 193.727 188.781C193.463 188.205 193.331 187.543 193.331 186.796V186.781C193.331 186.024 193.465 185.355 193.734 184.774C194.002 184.193 194.383 183.739 194.876 183.412C195.375 183.08 195.968 182.914 196.656 182.914C197.027 182.914 197.369 182.973 197.682 183.09C197.994 183.207 198.27 183.373 198.509 183.588C198.749 183.803 198.946 184.059 199.103 184.357H199.19V183.046H200.758V190.846C200.758 191.447 200.609 191.967 200.311 192.406C200.013 192.851 199.588 193.192 199.037 193.432C198.485 193.676 197.835 193.798 197.088 193.798ZM197.059 189.308C197.513 189.308 197.901 189.203 198.224 188.993C198.546 188.778 198.795 188.483 198.971 188.107C199.146 187.726 199.234 187.287 199.234 186.789V186.774C199.234 186.281 199.146 185.844 198.971 185.463C198.795 185.082 198.546 184.784 198.224 184.569C197.901 184.35 197.513 184.24 197.059 184.24C196.605 184.24 196.219 184.35 195.902 184.569C195.584 184.784 195.343 185.082 195.177 185.463C195.011 185.844 194.928 186.281 194.928 186.774V186.789C194.928 187.287 195.011 187.726 195.177 188.107C195.343 188.483 195.584 188.778 195.902 188.993C196.219 189.203 196.605 189.308 197.059 189.308ZM206.39 191.154C205.619 191.154 204.955 190.988 204.398 190.656C203.841 190.319 203.412 189.843 203.109 189.228C202.811 188.612 202.662 187.885 202.662 187.045V187.038C202.662 186.212 202.811 185.49 203.109 184.87C203.412 184.25 203.836 183.766 204.383 183.419C204.93 183.073 205.572 182.899 206.31 182.899C207.052 182.899 207.689 183.065 208.221 183.397C208.753 183.729 209.164 184.196 209.452 184.796C209.74 185.392 209.884 186.088 209.884 186.884V187.44H203.46V186.312H209.107L208.346 187.353V186.73C208.346 186.159 208.26 185.685 208.089 185.309C207.918 184.933 207.679 184.652 207.372 184.467C207.069 184.281 206.717 184.188 206.317 184.188C205.921 184.188 205.567 184.286 205.255 184.481C204.942 184.677 204.696 184.965 204.515 185.346C204.334 185.722 204.244 186.183 204.244 186.73V187.36C204.244 187.882 204.332 188.332 204.508 188.708C204.684 189.079 204.935 189.364 205.262 189.564C205.589 189.76 205.978 189.857 206.427 189.857C206.769 189.857 207.064 189.811 207.313 189.718C207.562 189.621 207.765 189.501 207.921 189.359C208.082 189.218 208.194 189.076 208.258 188.935L208.28 188.876H209.796L209.781 188.942C209.713 189.206 209.593 189.467 209.422 189.726C209.251 189.984 209.027 190.221 208.749 190.436C208.47 190.651 208.133 190.824 207.738 190.956C207.347 191.088 206.898 191.154 206.39 191.154ZM211.781 191V183.046H213.341V184.254H213.465C213.661 183.83 213.949 183.498 214.33 183.258C214.71 183.019 215.189 182.899 215.765 182.899C216.659 182.899 217.342 183.156 217.816 183.668C218.29 184.176 218.526 184.904 218.526 185.851V191H216.966V186.225C216.966 185.556 216.825 185.058 216.542 184.73C216.263 184.403 215.831 184.24 215.245 184.24C214.854 184.24 214.518 184.325 214.234 184.496C213.951 184.667 213.731 184.909 213.575 185.221C213.419 185.529 213.341 185.9 213.341 186.334V191H211.781ZM224.093 191.154C223.321 191.154 222.657 190.988 222.101 190.656C221.544 190.319 221.114 189.84 220.812 189.22C220.509 188.6 220.357 187.863 220.357 187.008V186.994C220.357 186.149 220.506 185.421 220.804 184.811C221.107 184.201 221.537 183.729 222.093 183.397C222.655 183.065 223.321 182.899 224.093 182.899C224.757 182.899 225.328 183.014 225.807 183.244C226.285 183.473 226.666 183.788 226.949 184.188C227.237 184.589 227.418 185.045 227.491 185.558L227.499 185.595H225.99L225.982 185.58C225.895 185.189 225.689 184.865 225.367 184.606C225.05 184.342 224.625 184.21 224.093 184.21C223.648 184.21 223.265 184.323 222.943 184.547C222.625 184.772 222.381 185.092 222.21 185.507C222.04 185.922 221.954 186.417 221.954 186.994V187.008C221.954 187.589 222.04 188.092 222.21 188.517C222.386 188.942 222.633 189.269 222.95 189.499C223.272 189.723 223.653 189.835 224.093 189.835C224.596 189.835 225.001 189.726 225.309 189.506C225.621 189.286 225.843 188.961 225.975 188.532L225.99 188.495L227.491 188.488L227.477 188.554C227.379 189.066 227.188 189.518 226.905 189.909C226.627 190.299 226.253 190.604 225.785 190.824C225.316 191.044 224.752 191.154 224.093 191.154ZM230.069 193.791C229.972 193.791 229.867 193.788 229.754 193.783C229.642 193.778 229.535 193.769 229.432 193.754V192.523C229.51 192.533 229.596 192.541 229.688 192.545C229.786 192.55 229.879 192.553 229.967 192.553C230.338 192.553 230.638 192.465 230.868 192.289C231.097 192.118 231.271 191.828 231.388 191.417L231.512 191.007L228.619 183.046H230.311L232.574 190.231L232.076 189.418H232.684L232.193 190.231L234.449 183.046H236.097L233.124 191.322C232.904 191.952 232.657 192.445 232.384 192.802C232.115 193.163 231.795 193.417 231.424 193.563C231.053 193.715 230.602 193.791 230.069 193.791ZM242.806 187.375V186.02H245.707C246.419 186.02 246.974 185.834 247.369 185.463C247.765 185.092 247.962 184.577 247.962 183.917V183.903C247.962 183.234 247.765 182.716 247.369 182.35C246.974 181.984 246.419 181.801 245.707 181.801H242.806V180.431H246.109C246.798 180.431 247.403 180.575 247.926 180.863C248.453 181.151 248.866 181.557 249.164 182.079C249.461 182.597 249.61 183.2 249.61 183.888V183.903C249.61 184.591 249.461 185.197 249.164 185.719C248.866 186.242 248.453 186.649 247.926 186.942C247.403 187.23 246.798 187.375 246.109 187.375H242.806ZM242 191V180.431H243.619V191H242ZM253.434 191.132C252.931 191.132 252.479 191.037 252.079 190.846C251.683 190.651 251.371 190.377 251.141 190.026C250.912 189.669 250.797 189.25 250.797 188.766V188.751C250.797 188.278 250.912 187.873 251.141 187.536C251.375 187.194 251.712 186.928 252.152 186.737C252.596 186.542 253.133 186.427 253.763 186.393L256.693 186.217V187.331L253.968 187.506C253.417 187.536 253.011 187.65 252.752 187.851C252.494 188.051 252.364 188.329 252.364 188.686V188.7C252.364 189.071 252.503 189.362 252.782 189.572C253.065 189.777 253.421 189.879 253.851 189.879C254.251 189.879 254.605 189.799 254.913 189.638C255.226 189.477 255.47 189.259 255.646 188.986C255.826 188.712 255.917 188.405 255.917 188.063V185.558C255.917 185.119 255.78 184.782 255.506 184.547C255.233 184.313 254.825 184.196 254.283 184.196C253.839 184.196 253.475 184.274 253.192 184.43C252.914 184.586 252.726 184.806 252.628 185.089L252.621 185.119H251.112L251.119 185.06C251.183 184.625 251.356 184.247 251.639 183.925C251.922 183.603 252.296 183.351 252.76 183.17C253.224 182.99 253.756 182.899 254.356 182.899C255.021 182.899 255.584 183.007 256.048 183.222C256.512 183.432 256.864 183.737 257.103 184.137C257.347 184.533 257.469 185.006 257.469 185.558V191H255.917V189.872H255.792C255.641 190.136 255.448 190.363 255.213 190.553C254.979 190.744 254.713 190.888 254.415 190.985C254.117 191.083 253.79 191.132 253.434 191.132ZM259.725 191V183.046H261.285V184.247H261.41C261.551 183.822 261.8 183.495 262.157 183.266C262.518 183.031 262.962 182.914 263.49 182.914C263.622 182.914 263.751 182.921 263.878 182.936C264.005 182.951 264.107 182.965 264.186 182.98V184.43C264.044 184.401 263.902 184.379 263.761 184.364C263.624 184.35 263.482 184.342 263.336 184.342C262.931 184.342 262.574 184.42 262.267 184.577C261.959 184.733 261.717 184.953 261.542 185.236C261.371 185.519 261.285 185.851 261.285 186.232V191H259.725ZM268.858 191.051C267.994 191.051 267.369 190.885 266.983 190.553C266.598 190.216 266.405 189.667 266.405 188.905V184.291H265.16V183.046H266.405V181.046H268.001V183.046H269.708V184.291H268.001V188.532C268.001 188.961 268.087 189.271 268.258 189.462C268.434 189.652 268.717 189.748 269.107 189.748C269.229 189.748 269.332 189.745 269.415 189.74C269.498 189.735 269.596 189.728 269.708 189.718V190.971C269.586 190.99 269.452 191.007 269.305 191.022C269.164 191.042 269.015 191.051 268.858 191.051ZM271.576 191V183.046H273.136V184.254H273.26C273.456 183.83 273.744 183.498 274.125 183.258C274.505 183.019 274.984 182.899 275.56 182.899C276.454 182.899 277.137 183.156 277.611 183.668C278.084 184.176 278.321 184.904 278.321 185.851V191H276.761V186.225C276.761 185.556 276.62 185.058 276.336 184.73C276.058 184.403 275.626 184.24 275.04 184.24C274.649 184.24 274.312 184.325 274.029 184.496C273.746 184.667 273.526 184.909 273.37 185.221C273.214 185.529 273.136 185.9 273.136 186.334V191H271.576ZM283.88 191.154C283.109 191.154 282.445 190.988 281.888 190.656C281.332 190.319 280.902 189.843 280.599 189.228C280.301 188.612 280.152 187.885 280.152 187.045V187.038C280.152 186.212 280.301 185.49 280.599 184.87C280.902 184.25 281.327 183.766 281.874 183.419C282.42 183.073 283.062 182.899 283.8 182.899C284.542 182.899 285.179 183.065 285.711 183.397C286.244 183.729 286.654 184.196 286.942 184.796C287.23 185.392 287.374 186.088 287.374 186.884V187.44H280.951V186.312H286.598L285.836 187.353V186.73C285.836 186.159 285.75 185.685 285.58 185.309C285.409 184.933 285.169 184.652 284.862 184.467C284.559 184.281 284.208 184.188 283.807 184.188C283.412 184.188 283.058 184.286 282.745 184.481C282.433 184.677 282.186 184.965 282.005 185.346C281.825 185.722 281.734 186.183 281.734 186.73V187.36C281.734 187.882 281.822 188.332 281.998 188.708C282.174 189.079 282.425 189.364 282.752 189.564C283.08 189.76 283.468 189.857 283.917 189.857C284.259 189.857 284.554 189.811 284.803 189.718C285.052 189.621 285.255 189.501 285.411 189.359C285.572 189.218 285.685 189.076 285.748 188.935L285.77 188.876H287.286L287.271 188.942C287.203 189.206 287.083 189.467 286.913 189.726C286.742 189.984 286.517 190.221 286.239 190.436C285.96 190.651 285.624 190.824 285.228 190.956C284.837 191.088 284.388 191.154 283.88 191.154ZM289.271 191V183.046H290.831V184.247H290.956C291.097 183.822 291.346 183.495 291.703 183.266C292.064 183.031 292.508 182.914 293.036 182.914C293.167 182.914 293.297 182.921 293.424 182.936C293.551 182.951 293.653 182.965 293.731 182.98V184.43C293.59 184.401 293.448 184.379 293.307 184.364C293.17 184.35 293.028 184.342 292.882 184.342C292.477 184.342 292.12 184.42 291.812 184.577C291.505 184.733 291.263 184.953 291.087 185.236C290.917 185.519 290.831 185.851 290.831 186.232V191H289.271Z" fill="#1D2327"/>
</g>
</g>
</g>
<defs>
<filter id="filter0_dddd_8800_3033" x="64" y="37" width="360" height="217" filterUnits="userSpaceOnUse" color-interpolation-filters="sRGB">
<feFlood flood-opacity="0" result="BackgroundImageFix"/>
<feColorMatrix in="SourceAlpha" type="matrix" values="0 0 0 0 0 0 0 0 0 0 0 0 0 0 0 0 0 0 127 0" result="hardAlpha"/>
<feOffset dy="16"/>
<feGaussianBlur stdDeviation="8"/>
<feComposite in2="hardAlpha" operator="out"/>
<feColorMatrix type="matrix" values="0 0 0 0 0 0 0 0 0 0 0 0 0 0 0 0 0 0 0.02 0"/>
<feBlend mode="normal" in2="BackgroundImageFix" result="effect1_dropShadow_8800_3033"/>
<feColorMatrix in="SourceAlpha" type="matrix" values="0 0 0 0 0 0 0 0 0 0 0 0 0 0 0 0 0 0 127 0" result="hardAlpha"/>
<feOffset dy="4"/>
<feGaussianBlur stdDeviation="2.5"/>
<feComposite in2="hardAlpha" operator="out"/>
<feColorMatrix type="matrix" values="0 0 0 0 0 0 0 0 0 0 0 0 0 0 0 0 0 0 0.03 0"/>
<feBlend mode="normal" in2="effect1_dropShadow_8800_3033" result="effect2_dropShadow_8800_3033"/>
<feColorMatrix in="SourceAlpha" type="matrix" values="0 0 0 0 0 0 0 0 0 0 0 0 0 0 0 0 0 0 127 0" result="hardAlpha"/>
<feOffset dy="4"/>
<feGaussianBlur stdDeviation="2.5"/>
<feComposite in2="hardAlpha" operator="out"/>
<feColorMatrix type="matrix" values="0 0 0 0 0 0 0 0 0 0 0 0 0 0 0 0 0 0 0.04 0"/>
<feBlend mode="normal" in2="effect2_dropShadow_8800_3033" result="effect3_dropShadow_8800_3033"/>
<feColorMatrix in="SourceAlpha" type="matrix" values="0 0 0 0 0 0 0 0 0 0 0 0 0 0 0 0 0 0 127 0" result="hardAlpha"/>
<feOffset dy="2"/>
<feGaussianBlur stdDeviation="1.5"/>
<feComposite in2="hardAlpha" operator="out"/>
<feColorMatrix type="matrix" values="0 0 0 0 0 0 0 0 0 0 0 0 0 0 0 0 0 0 0.05 0"/>
<feBlend mode="normal" in2="effect3_dropShadow_8800_3033" result="effect4_dropShadow_8800_3033"/>
<feBlend mode="normal" in="SourceGraphic" in2="effect4_dropShadow_8800_3033" result="shape"/>
</filter>
<filter id="filter1_i_8800_3033" x="96" y="54" width="41" height="41" filterUnits="userSpaceOnUse" color-interpolation-filters="sRGB">
<feFlood flood-opacity="0" result="BackgroundImageFix"/>
<feBlend mode="normal" in="SourceGraphic" in2="BackgroundImageFix" result="shape"/>
<feColorMatrix in="SourceAlpha" type="matrix" values="0 0 0 0 0 0 0 0 0 0 0 0 0 0 0 0 0 0 127 0" result="hardAlpha"/>
<feOffset dx="1" dy="1"/>
<feGaussianBlur stdDeviation="1"/>
<feComposite in2="hardAlpha" operator="arithmetic" k2="-1" k3="1"/>
<feColorMatrix type="matrix" values="0 0 0 0 0 0 0 0 0 0 0 0 0 0 0 0 0 0 0.05 0"/>
<feBlend mode="normal" in2="shape" result="effect1_innerShadow_8800_3033"/>
</filter>
<filter id="filter2_i_8800_3033" x="96" y="110" width="41" height="41" filterUnits="userSpaceOnUse" color-interpolation-filters="sRGB">
<feFlood flood-opacity="0" result="BackgroundImageFix"/>
<feBlend mode="normal" in="SourceGraphic" in2="BackgroundImageFix" result="shape"/>
<feColorMatrix in="SourceAlpha" type="matrix" values="0 0 0 0 0 0 0 0 0 0 0 0 0 0 0 0 0 0 127 0" result="hardAlpha"/>
<feOffset dx="1" dy="1"/>
<feGaussianBlur stdDeviation="1"/>
<feComposite in2="hardAlpha" operator="arithmetic" k2="-1" k3="1"/>
<feColorMatrix type="matrix" values="0 0 0 0 0 0 0 0 0 0 0 0 0 0 0 0 0 0 0.05 0"/>
<feBlend mode="normal" in2="shape" result="effect1_innerShadow_8800_3033"/>
</filter>
<filter id="filter3_i_8800_3033" x="96" y="166" width="41" height="41" filterUnits="userSpaceOnUse" color-interpolation-filters="sRGB">
<feFlood flood-opacity="0" result="BackgroundImageFix"/>
<feBlend mode="normal" in="SourceGraphic" in2="BackgroundImageFix" result="shape"/>
<feColorMatrix in="SourceAlpha" type="matrix" values="0 0 0 0 0 0 0 0 0 0 0 0 0 0 0 0 0 0 127 0" result="hardAlpha"/>
<feOffset dx="1" dy="1"/>
<feGaussianBlur stdDeviation="1"/>
<feComposite in2="hardAlpha" operator="arithmetic" k2="-1" k3="1"/>
<feColorMatrix type="matrix" values="0 0 0 0 0 0 0 0 0 0 0 0 0 0 0 0 0 0 0.05 0"/>
<feBlend mode="normal" in2="shape" result="effect1_innerShadow_8800_3033"/>
</filter>
<clipPath id="clip0_8800_3033">
<rect width="488" height="260" fill="white"/>
</clipPath>
</defs>
</svg>
