<svg width="488" height="260" viewBox="0 0 488 260" fill="none" xmlns="http://www.w3.org/2000/svg">
<g clip-path="url(#clip0_8800_3135)">
<rect width="488" height="260" fill="#96D6FC"/>
<path d="M539.813 -276.717L-50.9004 64.332" stroke="#185683" stroke-width="1.5" stroke-linecap="round" stroke-linejoin="round" stroke-dasharray="0.04 4.88"/>
<path d="M539.813 -158.534L-50.9004 182.514" stroke="#185683" stroke-width="1.5" stroke-linecap="round" stroke-linejoin="round" stroke-dasharray="0.04 4.88"/>
<path d="M539.813 -40.3523L-50.9004 300.696" stroke="#185683" stroke-width="1.5" stroke-linecap="round" stroke-linejoin="round" stroke-dasharray="0.04 4.88"/>
<path d="M539.814 77.8313L-50.9004 418.881" stroke="#185683" stroke-width="1.5" stroke-linecap="round" stroke-linejoin="round" stroke-dasharray="0.04 4.88"/>
<path d="M539.151 196.532L-51.5625 537.58" stroke="#185683" stroke-width="1.5" stroke-linecap="round" stroke-linejoin="round" stroke-dasharray="0.04 4.88"/>
<path d="M-50.9001 -276.717L539.813 64.332" stroke="#185683" stroke-width="1.5" stroke-linecap="round" stroke-linejoin="round" stroke-dasharray="0.04 4.88"/>
<path d="M-50.9001 -160.784L539.813 180.264" stroke="#185683" stroke-width="1.5" stroke-linecap="round" stroke-linejoin="round" stroke-dasharray="0.04 4.88"/>
<path d="M-51.5623 -42.343L539.151 298.706" stroke="#185683" stroke-width="1.5" stroke-linecap="round" stroke-linejoin="round" stroke-dasharray="0.04 4.88"/>
<path d="M-50.9001 77.8313L539.813 418.88" stroke="#185683" stroke-width="1.5" stroke-linecap="round" stroke-linejoin="round" stroke-dasharray="0.04 4.88"/>
<path d="M-50.9001 196.013L539.813 537.062" stroke="#185683" stroke-width="1.5" stroke-linecap="round" stroke-linejoin="round" stroke-dasharray="0.04 4.88"/>
<circle cx="144.75" cy="68.8448" r="45.5625" fill="#2CA7EE"/>
<circle cx="350.625" cy="188.095" r="19.6875" fill="#2CA7EE"/>
<circle cx="141.75" cy="188.47" r="10.6875" fill="#2CA7EE"/>
<circle cx="449.625" cy="248.095" r="14.4375" fill="#2CA7EE"/>
<circle cx="350.625" cy="68.8448" r="9.1875" fill="#2CA7EE"/>
<g filter="url(#filter0_dddd_8800_3135)">
<rect x="80" y="86" width="328" height="88" rx="4" fill="white"/>
<path d="M103.805 127.754C102.586 127.754 101.504 127.574 100.559 127.215C99.6211 126.848 98.875 126.316 98.3203 125.621C97.7656 124.926 97.457 124.09 97.3945 123.113L97.3828 122.961L100.512 122.961L100.535 123.066C100.613 123.473 100.781 123.832 101.039 124.145C101.297 124.457 101.656 124.699 102.117 124.871C102.586 125.043 103.176 125.129 103.887 125.129C104.598 125.129 105.176 125.047 105.621 124.883C106.066 124.719 106.395 124.492 106.605 124.203C106.824 123.906 106.934 123.566 106.934 123.184L106.934 123.16C106.934 122.645 106.746 122.234 106.371 121.93C106.004 121.617 105.313 121.348 104.297 121.121L102.363 120.711C101.324 120.492 100.453 120.184 99.75 119.785C99.0469 119.379 98.5156 118.875 98.1563 118.273C97.8047 117.664 97.6289 116.945 97.6289 116.117L97.6289 116.094C97.6289 115.125 97.8906 114.285 98.4141 113.574C98.9375 112.863 99.6563 112.312 100.57 111.922C101.492 111.531 102.551 111.336 103.746 111.336C104.957 111.336 106.016 111.523 106.922 111.898C107.828 112.266 108.543 112.797 109.066 113.492C109.598 114.18 109.898 115.008 109.969 115.977L109.98 116.152L106.852 116.152L106.84 116.059C106.777 115.605 106.613 115.223 106.348 114.91C106.082 114.598 105.73 114.363 105.293 114.207C104.855 114.043 104.344 113.961 103.758 113.961C103.133 113.961 102.609 114.047 102.188 114.219C101.766 114.383 101.445 114.609 101.227 114.898C101.008 115.18 100.898 115.492 100.898 115.836L100.898 115.859C100.898 116.18 100.98 116.465 101.145 116.715C101.309 116.965 101.57 117.184 101.93 117.371C102.297 117.551 102.777 117.707 103.371 117.84L105.328 118.262C106.961 118.605 108.18 119.137 108.984 119.855C109.797 120.566 110.203 121.559 110.203 122.832L110.203 122.844C110.203 123.891 109.926 124.781 109.371 125.516C108.824 126.242 108.066 126.797 107.098 127.18C106.137 127.562 105.039 127.754 103.805 127.754ZM103.23 129.699L103.23 109.391L104.426 109.391L104.426 129.699L103.23 129.699ZM117.129 128L117.129 114.359L117.035 114.359L112.746 117.277L112.746 114.125L117.117 111.09L120.645 111.09L120.645 128L117.129 128ZM123.586 131.715L124.465 125.094L127.723 125.094L125.93 131.715L123.586 131.715ZM138.633 128L138.633 124.895L130.254 124.895L130.254 121.977C130.699 121.25 131.145 120.523 131.59 119.797C132.043 119.062 132.496 118.332 132.949 117.605C133.402 116.879 133.852 116.152 134.297 115.426C134.75 114.699 135.203 113.977 135.656 113.258C136.109 112.531 136.563 111.809 137.016 111.09L141.996 111.09L141.996 122.07L144.223 122.07L144.223 124.895L141.996 124.895L141.996 128L138.633 128ZM133.348 122.164L138.703 122.164L138.703 113.668L138.598 113.668C138.254 114.223 137.906 114.777 137.555 115.332C137.203 115.887 136.852 116.445 136.5 117.008C136.148 117.57 135.793 118.133 135.434 118.695C135.082 119.258 134.73 119.82 134.379 120.383C134.035 120.937 133.691 121.496 133.348 122.059L133.348 122.164ZM152.637 128.305C151.363 128.305 150.246 128.098 149.285 127.684C148.332 127.262 147.574 126.68 147.012 125.937C146.457 125.187 146.141 124.324 146.063 123.348L146.051 123.207L149.426 123.207L149.449 123.336C149.504 123.742 149.664 124.105 149.93 124.426C150.203 124.746 150.566 125 151.02 125.187C151.48 125.375 152.016 125.469 152.625 125.469C153.234 125.469 153.762 125.367 154.207 125.164C154.652 124.961 154.996 124.68 155.238 124.32C155.488 123.961 155.613 123.551 155.613 123.09L155.613 123.066C155.613 122.254 155.328 121.633 154.758 121.203C154.188 120.773 153.391 120.559 152.367 120.559L150.434 120.559L150.434 118.039L152.32 118.039C152.914 118.039 153.43 117.941 153.867 117.746C154.305 117.551 154.641 117.281 154.875 116.937C155.117 116.586 155.238 116.184 155.238 115.73L155.238 115.707C155.238 115.246 155.133 114.852 154.922 114.523C154.719 114.195 154.418 113.945 154.02 113.773C153.629 113.594 153.156 113.504 152.602 113.504C152.055 113.504 151.57 113.594 151.148 113.773C150.727 113.953 150.391 114.207 150.141 114.535C149.891 114.863 149.738 115.25 149.684 115.695L149.672 115.801L146.426 115.801L146.438 115.66C146.516 114.676 146.82 113.82 147.352 113.094C147.883 112.359 148.594 111.793 149.484 111.395C150.383 110.988 151.422 110.785 152.602 110.785C153.82 110.785 154.875 110.973 155.766 111.348C156.664 111.715 157.359 112.234 157.852 112.906C158.344 113.57 158.59 114.348 158.59 115.238L158.59 115.262C158.59 115.965 158.434 116.582 158.121 117.113C157.809 117.645 157.383 118.082 156.844 118.426C156.313 118.77 155.719 119.012 155.063 119.152L155.063 119.223C156.32 119.34 157.324 119.746 158.074 120.441C158.832 121.137 159.211 122.059 159.211 123.207L159.211 123.23C159.211 124.238 158.938 125.125 158.391 125.891C157.844 126.656 157.078 127.25 156.094 127.672C155.109 128.094 153.957 128.305 152.637 128.305ZM167.918 128.305C166.645 128.305 165.527 128.098 164.566 127.684C163.613 127.262 162.855 126.68 162.293 125.937C161.738 125.187 161.422 124.324 161.344 123.348L161.332 123.207L164.707 123.207L164.73 123.336C164.785 123.742 164.945 124.105 165.211 124.426C165.484 124.746 165.848 125 166.301 125.187C166.762 125.375 167.297 125.469 167.906 125.469C168.516 125.469 169.043 125.367 169.488 125.164C169.934 124.961 170.277 124.68 170.52 124.32C170.77 123.961 170.895 123.551 170.895 123.09L170.895 123.066C170.895 122.254 170.609 121.633 170.039 121.203C169.469 120.773 168.672 120.559 167.648 120.559L165.715 120.559L165.715 118.039L167.602 118.039C168.195 118.039 168.711 117.941 169.148 117.746C169.586 117.551 169.922 117.281 170.156 116.937C170.398 116.586 170.52 116.184 170.52 115.73L170.52 115.707C170.52 115.246 170.414 114.852 170.203 114.523C170 114.195 169.699 113.945 169.301 113.773C168.91 113.594 168.438 113.504 167.883 113.504C167.336 113.504 166.852 113.594 166.43 113.773C166.008 113.953 165.672 114.207 165.422 114.535C165.172 114.863 165.02 115.25 164.965 115.695L164.953 115.801L161.707 115.801L161.719 115.66C161.797 114.676 162.102 113.82 162.633 113.094C163.164 112.359 163.875 111.793 164.766 111.395C165.664 110.988 166.703 110.785 167.883 110.785C169.102 110.785 170.156 110.973 171.047 111.348C171.945 111.715 172.641 112.234 173.133 112.906C173.625 113.57 173.871 114.348 173.871 115.238L173.871 115.262C173.871 115.965 173.715 116.582 173.402 117.113C173.09 117.645 172.664 118.082 172.125 118.426C171.594 118.77 171 119.012 170.344 119.152L170.344 119.223C171.602 119.34 172.605 119.746 173.355 120.441C174.113 121.137 174.492 122.059 174.492 123.207L174.492 123.23C174.492 124.238 174.219 125.125 173.672 125.891C173.125 126.656 172.359 127.25 171.375 127.672C170.391 128.094 169.238 128.305 167.918 128.305Z" fill="#1D2327"/>
<path d="M97.168 148L97.168 138.84L98.2788 138.84L103.249 145.969L103.351 145.969L103.351 138.84L104.48 138.84L104.48 148L103.37 148L98.3994 140.897L98.2979 140.897L98.2979 148L97.168 148ZM109.47 148.121C107.515 148.121 106.334 146.75 106.334 144.604L106.334 144.598C106.334 142.484 107.54 141.037 109.4 141.037C111.26 141.037 112.39 142.42 112.39 144.464L112.39 144.896L107.464 144.896C107.496 146.312 108.276 147.137 109.495 147.137C110.422 147.137 110.993 146.699 111.177 146.286L111.203 146.229L112.307 146.229L112.294 146.28C112.06 147.207 111.082 148.121 109.47 148.121ZM109.394 142.021C108.378 142.021 107.604 142.712 107.483 144.014L111.266 144.014C111.152 142.662 110.403 142.021 109.394 142.021ZM113.304 148L115.646 144.579L113.278 141.157L114.58 141.157L116.205 143.703L116.306 143.703L117.912 141.157L119.15 141.157L116.827 144.534L119.182 148L117.887 148L116.268 145.417L116.167 145.417L114.542 148L113.304 148ZM123.098 148.051C121.689 148.051 121.099 147.53 121.099 146.223L121.099 142.071L120.02 142.071L120.02 141.157L121.099 141.157L121.099 139.386L122.241 139.386L122.241 141.157L123.739 141.157L123.739 142.071L122.241 142.071L122.241 145.943C122.241 146.75 122.521 147.073 123.231 147.073C123.428 147.073 123.536 147.067 123.739 147.048L123.739 147.987C123.523 148.025 123.314 148.051 123.098 148.051ZM131.839 148.121C129.884 148.121 128.703 146.75 128.703 144.604L128.703 144.598C128.703 142.484 129.909 141.037 131.769 141.037C133.629 141.037 134.759 142.42 134.759 144.464L134.759 144.896L129.833 144.896C129.865 146.312 130.646 147.137 131.864 147.137C132.791 147.137 133.362 146.699 133.546 146.286L133.572 146.229L134.676 146.229L134.664 146.28C134.429 147.207 133.451 148.121 131.839 148.121ZM131.763 142.021C130.747 142.021 129.973 142.712 129.852 144.014L133.635 144.014C133.521 142.662 132.772 142.021 131.763 142.021ZM138.821 148.121C137.298 148.121 136.25 147.384 136.124 146.254L137.253 146.254C137.438 146.826 137.983 147.2 138.859 147.2C139.78 147.2 140.434 146.762 140.434 146.14L140.434 146.127C140.434 145.664 140.084 145.34 139.24 145.137L138.18 144.883C136.898 144.579 136.32 144.02 136.32 143.036L136.32 143.03C136.32 141.894 137.412 141.037 138.866 141.037C140.3 141.037 141.297 141.754 141.449 142.871L140.364 142.871C140.218 142.332 139.685 141.957 138.859 141.957C138.047 141.957 137.45 142.376 137.45 142.979L137.45 142.992C137.45 143.455 137.793 143.747 138.599 143.944L139.653 144.198C140.941 144.509 141.563 145.067 141.563 146.045L141.563 146.058C141.563 147.276 140.376 148.121 138.821 148.121ZM145.645 148.051C144.236 148.051 143.646 147.53 143.646 146.223L143.646 142.071L142.566 142.071L142.566 141.157L143.646 141.157L143.646 139.386L144.788 139.386L144.788 141.157L146.286 141.157L146.286 142.071L144.788 142.071L144.788 145.943C144.788 146.75 145.067 147.073 145.778 147.073C145.975 147.073 146.083 147.067 146.286 147.048L146.286 147.987C146.07 148.025 145.861 148.051 145.645 148.051ZM148.521 139.837C148.102 139.837 147.759 139.494 147.759 139.075C147.759 138.656 148.102 138.313 148.521 138.313C148.939 138.313 149.282 138.656 149.282 139.075C149.282 139.494 148.939 139.837 148.521 139.837ZM147.962 148L147.962 141.157L149.066 141.157L149.066 148L147.962 148ZM151.148 148L151.148 141.157L152.253 141.157L152.253 142.198L152.354 142.198C152.659 141.462 153.307 141.037 154.202 141.037C155.128 141.037 155.776 141.525 156.093 142.236L156.195 142.236C156.563 141.513 157.344 141.037 158.29 141.037C159.686 141.037 160.467 141.836 160.467 143.271L160.467 148L159.362 148L159.362 143.525C159.362 142.516 158.899 142.014 157.934 142.014C156.982 142.014 156.354 142.731 156.354 143.601L156.354 148L155.249 148L155.249 143.354C155.249 142.541 154.69 142.014 153.827 142.014C152.932 142.014 152.253 142.795 152.253 143.76L152.253 148L151.148 148ZM164.339 148.121C163.038 148.121 162.054 147.333 162.054 146.089L162.054 146.077C162.054 144.858 162.955 144.153 164.548 144.058L166.51 143.937L166.51 143.315C166.51 142.471 165.996 142.014 164.974 142.014C164.155 142.014 163.615 142.319 163.438 142.852L163.431 142.871L162.327 142.871L162.333 142.833C162.511 141.76 163.552 141.037 165.012 141.037C166.681 141.037 167.614 141.894 167.614 143.315L167.614 148L166.51 148L166.51 146.991L166.408 146.991C165.977 147.721 165.259 148.121 164.339 148.121ZM163.184 146.064C163.184 146.756 163.774 147.162 164.567 147.162C165.691 147.162 166.51 146.426 166.51 145.448L166.51 144.826L164.682 144.94C163.641 145.004 163.184 145.372 163.184 146.051L163.184 146.064ZM172.064 148.051C170.655 148.051 170.064 147.53 170.064 146.223L170.064 142.071L168.985 142.071L168.985 141.157L170.064 141.157L170.064 139.386L171.207 139.386L171.207 141.157L172.705 141.157L172.705 142.071L171.207 142.071L171.207 145.943C171.207 146.75 171.486 147.073 172.197 147.073C172.394 147.073 172.502 147.067 172.705 147.048L172.705 147.987C172.489 148.025 172.28 148.051 172.064 148.051ZM177.047 148.121C175.092 148.121 173.911 146.75 173.911 144.604L173.911 144.598C173.911 142.484 175.117 141.037 176.977 141.037C178.837 141.037 179.967 142.42 179.967 144.464L179.967 144.896L175.041 144.896C175.073 146.312 175.854 147.137 177.072 147.137C177.999 147.137 178.57 146.699 178.754 146.286L178.78 146.229L179.884 146.229L179.872 146.28C179.637 147.207 178.659 148.121 177.047 148.121ZM176.971 142.021C175.955 142.021 175.181 142.712 175.06 144.014L178.843 144.014C178.729 142.662 177.98 142.021 176.971 142.021ZM184.207 148.121C182.474 148.121 181.338 146.718 181.338 144.585L181.338 144.572C181.338 142.427 182.468 141.037 184.207 141.037C185.146 141.037 185.965 141.506 186.34 142.236L186.441 142.236L186.441 138.44L187.546 138.44L187.546 148L186.441 148L186.441 146.908L186.34 146.908C185.921 147.67 185.159 148.121 184.207 148.121ZM184.461 147.143C185.705 147.143 186.467 146.166 186.467 144.585L186.467 144.572C186.467 142.992 185.705 142.014 184.461 142.014C183.21 142.014 182.468 142.979 182.468 144.572L182.468 144.585C182.468 146.178 183.21 147.143 184.461 147.143ZM193.322 150.285L193.322 141.157L194.427 141.157L194.427 142.249L194.528 142.249C194.947 141.487 195.709 141.037 196.661 141.037C198.394 141.037 199.53 142.439 199.53 144.572L199.53 144.585C199.53 146.73 198.4 148.121 196.661 148.121C195.722 148.121 194.903 147.651 194.528 146.921L194.427 146.921L194.427 150.285L193.322 150.285ZM196.407 147.143C197.658 147.143 198.4 146.178 198.4 144.585L198.4 144.572C198.4 142.979 197.658 142.014 196.407 142.014C195.163 142.014 194.401 142.992 194.401 144.572L194.401 144.585C194.401 146.166 195.163 147.143 196.407 147.143ZM203.136 148.121C201.834 148.121 200.851 147.333 200.851 146.089L200.851 146.077C200.851 144.858 201.752 144.153 203.345 144.058L205.307 143.937L205.307 143.315C205.307 142.471 204.792 142.014 203.771 142.014C202.952 142.014 202.412 142.319 202.234 142.852L202.228 142.871L201.124 142.871L201.13 142.833C201.308 141.76 202.349 141.037 203.809 141.037C205.478 141.037 206.411 141.894 206.411 143.315L206.411 148L205.307 148L205.307 146.991L205.205 146.991C204.773 147.721 204.056 148.121 203.136 148.121ZM201.98 146.064C201.98 146.756 202.571 147.162 203.364 147.162C204.488 147.162 205.307 146.426 205.307 145.448L205.307 144.826L203.479 144.94C202.438 145.004 201.98 145.372 201.98 146.051L201.98 146.064ZM208.76 150.399C208.614 150.399 208.423 150.387 208.271 150.361L208.271 149.454C208.404 149.479 208.576 149.485 208.728 149.485C209.356 149.485 209.737 149.2 209.985 148.413L210.112 148.006L207.579 141.157L208.76 141.157L210.639 146.788L210.74 146.788L212.613 141.157L213.774 141.157L211.102 148.419C210.537 149.955 209.972 150.399 208.76 150.399ZM217.792 148.121C215.844 148.121 214.638 146.775 214.638 144.585L214.638 144.572C214.638 142.376 215.844 141.037 217.792 141.037C219.741 141.037 220.947 142.376 220.947 144.572L220.947 144.585C220.947 146.775 219.741 148.121 217.792 148.121ZM217.792 147.143C219.087 147.143 219.817 146.197 219.817 144.585L219.817 144.572C219.817 142.954 219.087 142.014 217.792 142.014C216.498 142.014 215.768 142.954 215.768 144.572L215.768 144.585C215.768 146.197 216.498 147.143 217.792 147.143ZM224.953 148.121C223.397 148.121 222.598 147.207 222.598 145.588L222.598 141.157L223.702 141.157L223.702 145.321C223.702 146.553 224.146 147.143 225.238 147.143C226.444 147.143 227.085 146.407 227.085 145.207L227.085 141.157L228.19 141.157L228.19 148L227.085 148L227.085 146.978L226.984 146.978C226.647 147.708 225.956 148.121 224.953 148.121ZM232.684 148.051C231.275 148.051 230.685 147.53 230.685 146.223L230.685 142.071L229.605 142.071L229.605 141.157L230.685 141.157L230.685 139.386L231.827 139.386L231.827 141.157L233.325 141.157L233.325 142.071L231.827 142.071L231.827 145.943C231.827 146.75 232.106 147.073 232.817 147.073C233.014 147.073 233.122 147.067 233.325 147.048L233.325 147.987C233.109 148.025 232.9 148.051 232.684 148.051ZM240.511 148.121C239.209 148.121 238.226 147.333 238.226 146.089L238.226 146.077C238.226 144.858 239.127 144.153 240.72 144.058L242.682 143.937L242.682 143.315C242.682 142.471 242.167 142.014 241.146 142.014C240.327 142.014 239.787 142.319 239.609 142.852L239.603 142.871L238.499 142.871L238.505 142.833C238.683 141.76 239.724 141.037 241.184 141.037C242.853 141.037 243.786 141.894 243.786 143.315L243.786 148L242.682 148L242.682 146.991L242.58 146.991C242.148 147.721 241.431 148.121 240.511 148.121ZM239.355 146.064C239.355 146.756 239.946 147.162 240.739 147.162C241.863 147.162 242.682 146.426 242.682 145.448L242.682 144.826L240.854 144.94C239.813 145.004 239.355 145.372 239.355 146.051L239.355 146.064ZM245.805 148L245.805 141.157L246.909 141.157L246.909 142.198L247.011 142.198C247.315 141.462 247.963 141.037 248.858 141.037C249.785 141.037 250.432 141.525 250.75 142.236L250.851 142.236C251.219 141.513 252 141.037 252.946 141.037C254.342 141.037 255.123 141.836 255.123 143.271L255.123 148L254.019 148L254.019 143.525C254.019 142.516 253.555 142.014 252.59 142.014C251.638 142.014 251.01 142.731 251.01 143.601L251.01 148L249.905 148L249.905 143.354C249.905 142.541 249.347 142.014 248.483 142.014C247.588 142.014 246.909 142.795 246.909 143.76L246.909 148L245.805 148ZM259.928 148.121C257.979 148.121 256.773 146.775 256.773 144.585L256.773 144.572C256.773 142.376 257.979 141.037 259.928 141.037C261.877 141.037 263.083 142.376 263.083 144.572L263.083 144.585C263.083 146.775 261.877 148.121 259.928 148.121ZM259.928 147.143C261.223 147.143 261.953 146.197 261.953 144.585L261.953 144.572C261.953 142.954 261.223 142.014 259.928 142.014C258.633 142.014 257.903 142.954 257.903 144.572L257.903 144.585C257.903 146.197 258.633 147.143 259.928 147.143ZM267.088 148.121C265.533 148.121 264.733 147.207 264.733 145.588L264.733 141.157L265.838 141.157L265.838 145.321C265.838 146.553 266.282 147.143 267.374 147.143C268.58 147.143 269.221 146.407 269.221 145.207L269.221 141.157L270.326 141.157L270.326 148L269.221 148L269.221 146.978L269.12 146.978C268.783 147.708 268.091 148.121 267.088 148.121ZM272.389 148L272.389 141.157L273.493 141.157L273.493 142.186L273.595 142.186C273.938 141.462 274.579 141.037 275.588 141.037C277.124 141.037 277.981 141.944 277.981 143.569L277.981 148L276.876 148L276.876 143.836C276.876 142.604 276.369 142.014 275.277 142.014C274.185 142.014 273.493 142.75 273.493 143.95L273.493 148L272.389 148ZM282.412 148.051C281.002 148.051 280.412 147.53 280.412 146.223L280.412 142.071L279.333 142.071L279.333 141.157L280.412 141.157L280.412 139.386L281.555 139.386L281.555 141.157L283.053 141.157L283.053 142.071L281.555 142.071L281.555 145.943C281.555 146.75 281.834 147.073 282.545 147.073C282.742 147.073 282.85 147.067 283.053 147.048L283.053 147.987C282.837 148.025 282.627 148.051 282.412 148.051Z" fill="#50575E"/>
<g filter="url(#filter1_dddd_8800_3135)">
<rect x="376" y="54" width="64" height="64" rx="4" fill="#CFECFE" shape-rendering="crispEdges"/>
<path d="M399.667 78H413.333L410.5 81L412.333 82.8333L418.333 76.8333L412.5 70.1666L410.667 71.8333L413.833 75.6666H399.667C398.167 75.6666 396.833 76.1666 395.833 77.1666C393.5 79.6666 393.5 84.1666 393.5 86.5V86.8333H396V86.3333C396 84.5 396 80.5 397.667 78.8333C398.167 78.3333 398.833 78 399.667 78ZM422.667 84.6666V84.3333H420.167V84.8333C420.167 86.6666 420.167 90.6666 418.5 92.3333C418 92.8333 417.333 93.1666 416.333 93.1666H402.667L405.5 90.3333L403.667 88.5L397.833 94.3333L403.667 101L405.5 99.3333L402.333 95.5H416.333C417.833 95.5 419.167 95 420.167 94C422.667 91.6666 422.667 87 422.667 84.6666Z" fill="#12304A"/>
</g>
</g>
</g>
<defs>
<filter id="filter0_dddd_8800_3135" x="64" y="53" width="392" height="153" filterUnits="userSpaceOnUse" color-interpolation-filters="sRGB">
<feFlood flood-opacity="0" result="BackgroundImageFix"/>
<feColorMatrix in="SourceAlpha" type="matrix" values="0 0 0 0 0 0 0 0 0 0 0 0 0 0 0 0 0 0 127 0" result="hardAlpha"/>
<feOffset dy="16"/>
<feGaussianBlur stdDeviation="8"/>
<feComposite in2="hardAlpha" operator="out"/>
<feColorMatrix type="matrix" values="0 0 0 0 0 0 0 0 0 0 0 0 0 0 0 0 0 0 0.02 0"/>
<feBlend mode="normal" in2="BackgroundImageFix" result="effect1_dropShadow_8800_3135"/>
<feColorMatrix in="SourceAlpha" type="matrix" values="0 0 0 0 0 0 0 0 0 0 0 0 0 0 0 0 0 0 127 0" result="hardAlpha"/>
<feOffset dy="4"/>
<feGaussianBlur stdDeviation="2.5"/>
<feComposite in2="hardAlpha" operator="out"/>
<feColorMatrix type="matrix" values="0 0 0 0 0 0 0 0 0 0 0 0 0 0 0 0 0 0 0.03 0"/>
<feBlend mode="normal" in2="effect1_dropShadow_8800_3135" result="effect2_dropShadow_8800_3135"/>
<feColorMatrix in="SourceAlpha" type="matrix" values="0 0 0 0 0 0 0 0 0 0 0 0 0 0 0 0 0 0 127 0" result="hardAlpha"/>
<feOffset dy="4"/>
<feGaussianBlur stdDeviation="2.5"/>
<feComposite in2="hardAlpha" operator="out"/>
<feColorMatrix type="matrix" values="0 0 0 0 0 0 0 0 0 0 0 0 0 0 0 0 0 0 0.04 0"/>
<feBlend mode="normal" in2="effect2_dropShadow_8800_3135" result="effect3_dropShadow_8800_3135"/>
<feColorMatrix in="SourceAlpha" type="matrix" values="0 0 0 0 0 0 0 0 0 0 0 0 0 0 0 0 0 0 127 0" result="hardAlpha"/>
<feOffset dy="2"/>
<feGaussianBlur stdDeviation="1.5"/>
<feComposite in2="hardAlpha" operator="out"/>
<feColorMatrix type="matrix" values="0 0 0 0 0 0 0 0 0 0 0 0 0 0 0 0 0 0 0.05 0"/>
<feBlend mode="normal" in2="effect3_dropShadow_8800_3135" result="effect4_dropShadow_8800_3135"/>
<feBlend mode="normal" in="SourceGraphic" in2="effect4_dropShadow_8800_3135" result="shape"/>
</filter>
<filter id="filter1_dddd_8800_3135" x="372" y="53" width="72" height="73" filterUnits="userSpaceOnUse" color-interpolation-filters="sRGB">
<feFlood flood-opacity="0" result="BackgroundImageFix"/>
<feColorMatrix in="SourceAlpha" type="matrix" values="0 0 0 0 0 0 0 0 0 0 0 0 0 0 0 0 0 0 127 0" result="hardAlpha"/>
<feOffset dy="4"/>
<feGaussianBlur stdDeviation="2"/>
<feComposite in2="hardAlpha" operator="out"/>
<feColorMatrix type="matrix" values="0 0 0 0 0 0 0 0 0 0 0 0 0 0 0 0 0 0 0.01 0"/>
<feBlend mode="normal" in2="BackgroundImageFix" result="effect1_dropShadow_8800_3135"/>
<feColorMatrix in="SourceAlpha" type="matrix" values="0 0 0 0 0 0 0 0 0 0 0 0 0 0 0 0 0 0 127 0" result="hardAlpha"/>
<feOffset dy="3"/>
<feGaussianBlur stdDeviation="1.5"/>
<feComposite in2="hardAlpha" operator="out"/>
<feColorMatrix type="matrix" values="0 0 0 0 0 0 0 0 0 0 0 0 0 0 0 0 0 0 0.02 0"/>
<feBlend mode="normal" in2="effect1_dropShadow_8800_3135" result="effect2_dropShadow_8800_3135"/>
<feColorMatrix in="SourceAlpha" type="matrix" values="0 0 0 0 0 0 0 0 0 0 0 0 0 0 0 0 0 0 127 0" result="hardAlpha"/>
<feOffset dy="1"/>
<feGaussianBlur stdDeviation="1"/>
<feComposite in2="hardAlpha" operator="out"/>
<feColorMatrix type="matrix" values="0 0 0 0 0 0 0 0 0 0 0 0 0 0 0 0 0 0 0.02 0"/>
<feBlend mode="normal" in2="effect2_dropShadow_8800_3135" result="effect3_dropShadow_8800_3135"/>
<feColorMatrix in="SourceAlpha" type="matrix" values="0 0 0 0 0 0 0 0 0 0 0 0 0 0 0 0 0 0 127 0" result="hardAlpha"/>
<feOffset dy="1"/>
<feGaussianBlur stdDeviation="0.5"/>
<feComposite in2="hardAlpha" operator="out"/>
<feColorMatrix type="matrix" values="0 0 0 0 0 0 0 0 0 0 0 0 0 0 0 0 0 0 0.03 0"/>
<feBlend mode="normal" in2="effect3_dropShadow_8800_3135" result="effect4_dropShadow_8800_3135"/>
<feBlend mode="normal" in="SourceGraphic" in2="effect4_dropShadow_8800_3135" result="shape"/>
</filter>
<clipPath id="clip0_8800_3135">
<rect width="488" height="260" fill="white"/>
</clipPath>
</defs>
</svg>
