<svg width="488" height="260" viewBox="0 0 488 260" fill="none" xmlns="http://www.w3.org/2000/svg">
<g clip-path="url(#clip0_8800_2934)">
<rect width="488" height="260" fill="#873EFF"/>
<path d="M95.6062 275.805C93.4977 318.22 147.463 357.978 216.141 364.607C284.819 371.236 342.202 342.226 344.311 299.811C344.721 291.568 343.011 283.428 339.489 275.61C397.202 266.634 438.077 239.765 440.427 203.755C441.918 180.903 427.639 158.238 402.765 139.194C456.903 80.6636 476.773 14.4036 446.831 -30.5475C404.727 -93.756 280.073 -90.8949 168.409 -24.1569C56.7448 42.5812 0.3547 147.924 42.4584 211.133C55.7037 231.017 77.1192 244.361 103.729 251.237C98.8872 258.71 96.0456 266.966 95.6062 275.805Z" fill="#5007AA"/>
<g filter="url(#filter0_dddd_8800_2934)">
<rect x="80" y="86" width="328" height="88" rx="4" fill="white"/>
<path d="M103.805 127.754C102.586 127.754 101.504 127.574 100.559 127.215C99.6211 126.848 98.875 126.316 98.3203 125.621C97.7656 124.926 97.457 124.09 97.3945 123.113L97.3828 122.961L100.512 122.961L100.535 123.066C100.613 123.473 100.781 123.832 101.039 124.145C101.297 124.457 101.656 124.699 102.117 124.871C102.586 125.043 103.176 125.129 103.887 125.129C104.598 125.129 105.176 125.047 105.621 124.883C106.066 124.719 106.395 124.492 106.605 124.203C106.824 123.906 106.934 123.566 106.934 123.184L106.934 123.16C106.934 122.645 106.746 122.234 106.371 121.93C106.004 121.617 105.313 121.348 104.297 121.121L102.363 120.711C101.324 120.492 100.453 120.184 99.75 119.785C99.0469 119.379 98.5156 118.875 98.1563 118.273C97.8047 117.664 97.6289 116.945 97.6289 116.117L97.6289 116.094C97.6289 115.125 97.8906 114.285 98.4141 113.574C98.9375 112.863 99.6563 112.312 100.57 111.922C101.492 111.531 102.551 111.336 103.746 111.336C104.957 111.336 106.016 111.523 106.922 111.898C107.828 112.266 108.543 112.797 109.066 113.492C109.598 114.18 109.898 115.008 109.969 115.977L109.98 116.152L106.852 116.152L106.84 116.059C106.777 115.605 106.613 115.223 106.348 114.91C106.082 114.598 105.73 114.363 105.293 114.207C104.855 114.043 104.344 113.961 103.758 113.961C103.133 113.961 102.609 114.047 102.188 114.219C101.766 114.383 101.445 114.609 101.227 114.898C101.008 115.18 100.898 115.492 100.898 115.836L100.898 115.859C100.898 116.18 100.98 116.465 101.145 116.715C101.309 116.965 101.57 117.184 101.93 117.371C102.297 117.551 102.777 117.707 103.371 117.84L105.328 118.262C106.961 118.605 108.18 119.137 108.984 119.855C109.797 120.566 110.203 121.559 110.203 122.832L110.203 122.844C110.203 123.891 109.926 124.781 109.371 125.516C108.824 126.242 108.066 126.797 107.098 127.18C106.137 127.562 105.039 127.754 103.805 127.754ZM103.23 129.699L103.23 109.391L104.426 109.391L104.426 129.699L103.23 129.699ZM117.129 128L117.129 114.359L117.035 114.359L112.746 117.277L112.746 114.125L117.117 111.09L120.645 111.09L120.645 128L117.129 128ZM123.586 131.715L124.465 125.094L127.723 125.094L125.93 131.715L123.586 131.715ZM130.816 128L138.082 113.996L138.082 113.902L129.48 113.902L129.48 111.09L141.586 111.09L141.586 113.937L134.52 128L130.816 128ZM143.836 128L143.836 125.586L149.719 120.043C150.461 119.34 151.023 118.758 151.406 118.297C151.797 117.836 152.063 117.426 152.203 117.066C152.344 116.707 152.414 116.332 152.414 115.941L152.414 115.906C152.414 115.445 152.305 115.035 152.086 114.676C151.875 114.316 151.574 114.035 151.184 113.832C150.801 113.629 150.355 113.527 149.848 113.527C149.277 113.527 148.773 113.645 148.336 113.879C147.898 114.105 147.555 114.422 147.305 114.828C147.063 115.227 146.934 115.684 146.918 116.199L146.918 116.293L143.637 116.293L143.637 116.199C143.637 115.137 143.902 114.199 144.434 113.387C144.973 112.566 145.711 111.926 146.648 111.465C147.594 111.004 148.664 110.773 149.859 110.773C151.047 110.773 152.09 110.984 152.988 111.406C153.895 111.82 154.602 112.398 155.109 113.141C155.617 113.875 155.871 114.727 155.871 115.695L155.871 115.719C155.871 116.391 155.746 117.023 155.496 117.617C155.254 118.203 154.848 118.828 154.277 119.492C153.707 120.148 152.93 120.93 151.945 121.836L147.199 126.184L148.477 123.957L148.477 126.184L147.211 125.176L156.105 125.176L156.105 128L143.836 128ZM165.082 128.305C163.738 128.305 162.551 128.098 161.52 127.684C160.496 127.27 159.695 126.695 159.117 125.961C158.547 125.219 158.262 124.363 158.262 123.395L158.262 123.371C158.262 122.637 158.426 121.977 158.754 121.391C159.09 120.805 159.551 120.316 160.137 119.926C160.73 119.527 161.406 119.254 162.164 119.105L162.164 119.035C161.188 118.793 160.395 118.344 159.785 117.687C159.176 117.023 158.871 116.234 158.871 115.32L158.871 115.297C158.871 114.43 159.133 113.656 159.656 112.977C160.188 112.297 160.918 111.762 161.848 111.371C162.785 110.98 163.863 110.785 165.082 110.785C166.301 110.785 167.375 110.98 168.305 111.371C169.242 111.762 169.973 112.297 170.496 112.977C171.027 113.656 171.293 114.43 171.293 115.297L171.293 115.32C171.293 116.234 170.988 117.023 170.379 117.687C169.77 118.344 168.977 118.793 168 119.035L168 119.105C168.758 119.254 169.43 119.527 170.016 119.926C170.602 120.316 171.063 120.805 171.398 121.391C171.734 121.977 171.902 122.637 171.902 123.371L171.902 123.395C171.902 124.363 171.613 125.219 171.035 125.961C170.465 126.695 169.664 127.27 168.633 127.684C167.609 128.098 166.426 128.305 165.082 128.305ZM165.082 125.738C165.699 125.738 166.242 125.629 166.711 125.41C167.188 125.184 167.559 124.875 167.824 124.484C168.098 124.094 168.234 123.652 168.234 123.16L168.234 123.137C168.234 122.629 168.102 122.184 167.836 121.801C167.57 121.41 167.199 121.102 166.723 120.875C166.246 120.648 165.699 120.535 165.082 120.535C164.457 120.535 163.906 120.648 163.43 120.875C162.961 121.102 162.594 121.41 162.328 121.801C162.063 122.184 161.93 122.629 161.93 123.137L161.93 123.16C161.93 123.652 162.063 124.094 162.328 124.484C162.602 124.875 162.973 125.184 163.441 125.41C163.918 125.629 164.465 125.738 165.082 125.738ZM165.082 117.969C165.613 117.969 166.082 117.871 166.488 117.676C166.895 117.48 167.211 117.211 167.438 116.867C167.672 116.516 167.789 116.113 167.789 115.66L167.789 115.637C167.789 115.184 167.672 114.785 167.438 114.441C167.211 114.09 166.895 113.82 166.488 113.633C166.082 113.437 165.613 113.34 165.082 113.34C164.551 113.34 164.082 113.437 163.676 113.633C163.27 113.82 162.949 114.09 162.715 114.441C162.488 114.785 162.375 115.184 162.375 115.637L162.375 115.66C162.375 116.113 162.488 116.516 162.715 116.867C162.941 117.211 163.258 117.48 163.664 117.676C164.078 117.871 164.551 117.969 165.082 117.969Z" fill="#1D2327"/>
<path d="M99.5483 148L99.5483 139.869L96.5967 139.869L96.5967 138.84L103.643 138.84L103.643 139.869L100.691 139.869L100.691 148L99.5483 148ZM106.81 148.121C104.861 148.121 103.655 146.775 103.655 144.585L103.655 144.572C103.655 142.376 104.861 141.037 106.81 141.037C108.759 141.037 109.965 142.376 109.965 144.572L109.965 144.585C109.965 146.775 108.759 148.121 106.81 148.121ZM106.81 147.143C108.105 147.143 108.835 146.197 108.835 144.585L108.835 144.572C108.835 142.954 108.105 142.014 106.81 142.014C105.515 142.014 104.785 142.954 104.785 144.572L104.785 144.585C104.785 146.197 105.515 147.143 106.81 147.143ZM114.11 148.051C112.701 148.051 112.11 147.53 112.11 146.223L112.11 142.071L111.031 142.071L111.031 141.157L112.11 141.157L112.11 139.386L113.253 139.386L113.253 141.157L114.751 141.157L114.751 142.071L113.253 142.071L113.253 145.943C113.253 146.75 113.532 147.073 114.243 147.073C114.44 147.073 114.548 147.067 114.751 147.048L114.751 147.987C114.535 148.025 114.326 148.051 114.11 148.051ZM118.28 148.121C116.979 148.121 115.995 147.333 115.995 146.089L115.995 146.077C115.995 144.858 116.896 144.153 118.49 144.058L120.451 143.937L120.451 143.315C120.451 142.471 119.937 142.014 118.915 142.014C118.096 142.014 117.557 142.319 117.379 142.852L117.373 142.871L116.268 142.871L116.274 142.833C116.452 141.76 117.493 141.037 118.953 141.037C120.623 141.037 121.556 141.894 121.556 143.315L121.556 148L120.451 148L120.451 146.991L120.35 146.991C119.918 147.721 119.201 148.121 118.28 148.121ZM117.125 146.064C117.125 146.756 117.715 147.162 118.509 147.162C119.632 147.162 120.451 146.426 120.451 145.448L120.451 144.826L118.623 144.94C117.582 145.004 117.125 145.372 117.125 146.051L117.125 146.064ZM123.638 148L123.638 138.44L124.742 138.44L124.742 148L123.638 148ZM132.556 148L130.062 138.84L131.255 138.84L133.077 146.286L133.153 146.286L135.203 138.84L136.358 138.84L138.409 146.286L138.485 146.286L140.307 138.84L141.5 138.84L139.005 148L137.926 148L135.819 140.77L135.743 140.77L133.635 148L132.556 148ZM145.277 148.121C143.328 148.121 142.122 146.775 142.122 144.585L142.122 144.572C142.122 142.376 143.328 141.037 145.277 141.037C147.226 141.037 148.432 142.376 148.432 144.572L148.432 144.585C148.432 146.775 147.226 148.121 145.277 148.121ZM145.277 147.143C146.572 147.143 147.302 146.197 147.302 144.585L147.302 144.572C147.302 142.954 146.572 142.014 145.277 142.014C143.982 142.014 143.252 142.954 143.252 144.572L143.252 144.585C143.252 146.197 143.982 147.143 145.277 147.143ZM152.958 148.121C151.009 148.121 149.803 146.775 149.803 144.585L149.803 144.572C149.803 142.376 151.009 141.037 152.958 141.037C154.906 141.037 156.112 142.376 156.112 144.572L156.112 144.585C156.112 146.775 154.906 148.121 152.958 148.121ZM152.958 147.143C154.252 147.143 154.982 146.197 154.982 144.585L154.982 144.572C154.982 142.954 154.252 142.014 152.958 142.014C151.663 142.014 150.933 142.954 150.933 144.572L150.933 144.585C150.933 146.197 151.663 147.143 152.958 147.143ZM157.966 148L157.966 138.84L161.419 138.84C163.139 138.84 164.358 140.027 164.358 141.767L164.358 141.779C164.358 143.519 163.139 144.731 161.419 144.731L159.108 144.731L159.108 148L157.966 148ZM161.127 139.856L159.108 139.856L159.108 143.715L161.127 143.715C162.435 143.715 163.19 142.998 163.19 141.792L163.19 141.779C163.19 140.573 162.435 139.856 161.127 139.856ZM167.716 148.121C166.415 148.121 165.431 147.333 165.431 146.089L165.431 146.077C165.431 144.858 166.332 144.153 167.925 144.058L169.887 143.937L169.887 143.315C169.887 142.471 169.373 142.014 168.351 142.014C167.532 142.014 166.992 142.319 166.814 142.852L166.808 142.871L165.704 142.871L165.71 142.833C165.888 141.76 166.929 141.037 168.389 141.037C170.058 141.037 170.991 141.894 170.991 143.315L170.991 148L169.887 148L169.887 146.991L169.785 146.991C169.354 147.721 168.636 148.121 167.716 148.121ZM166.561 146.064C166.561 146.756 167.151 147.162 167.944 147.162C169.068 147.162 169.887 146.426 169.887 145.448L169.887 144.826L168.059 144.94C167.018 145.004 166.561 145.372 166.561 146.051L166.561 146.064ZM173.34 150.399C173.194 150.399 173.003 150.387 172.851 150.361L172.851 149.454C172.984 149.479 173.156 149.485 173.308 149.485C173.937 149.485 174.317 149.2 174.565 148.413L174.692 148.006L172.159 141.157L173.34 141.157L175.219 146.788L175.32 146.788L177.193 141.157L178.354 141.157L175.682 148.419C175.117 149.955 174.552 150.399 173.34 150.399ZM179.814 148L179.814 141.157L180.919 141.157L180.919 142.198L181.021 142.198C181.325 141.462 181.973 141.037 182.868 141.037C183.794 141.037 184.442 141.525 184.759 142.236L184.861 142.236C185.229 141.513 186.01 141.037 186.956 141.037C188.352 141.037 189.133 141.836 189.133 143.271L189.133 148L188.028 148L188.028 143.525C188.028 142.516 187.565 142.014 186.6 142.014C185.648 142.014 185.02 142.731 185.02 143.601L185.02 148L183.915 148L183.915 143.354C183.915 142.541 183.356 142.014 182.493 142.014C181.598 142.014 180.919 142.795 180.919 143.76L180.919 148L179.814 148ZM193.919 148.121C191.964 148.121 190.783 146.75 190.783 144.604L190.783 144.598C190.783 142.484 191.989 141.037 193.849 141.037C195.709 141.037 196.839 142.42 196.839 144.464L196.839 144.896L191.913 144.896C191.945 146.312 192.726 147.137 193.944 147.137C194.871 147.137 195.442 146.699 195.626 146.286L195.652 146.229L196.756 146.229L196.744 146.28C196.509 147.207 195.531 148.121 193.919 148.121ZM193.843 142.021C192.827 142.021 192.053 142.712 191.932 144.014L195.715 144.014C195.601 142.662 194.852 142.021 193.843 142.021ZM198.553 148L198.553 141.157L199.657 141.157L199.657 142.186L199.759 142.186C200.102 141.462 200.743 141.037 201.752 141.037C203.288 141.037 204.145 141.944 204.145 143.569L204.145 148L203.041 148L203.041 143.836C203.041 142.604 202.533 142.014 201.441 142.014C200.349 142.014 199.657 142.75 199.657 143.95L199.657 148L198.553 148ZM208.576 148.051C207.167 148.051 206.576 147.53 206.576 146.223L206.576 142.071L205.497 142.071L205.497 141.157L206.576 141.157L206.576 139.386L207.719 139.386L207.719 141.157L209.217 141.157L209.217 142.071L207.719 142.071L207.719 145.943C207.719 146.75 207.998 147.073 208.709 147.073C208.906 147.073 209.014 147.067 209.217 147.048L209.217 147.987C209.001 148.025 208.792 148.051 208.576 148.051ZM213.089 148.121C211.565 148.121 210.518 147.384 210.391 146.254L211.521 146.254C211.705 146.826 212.251 147.2 213.127 147.2C214.047 147.2 214.701 146.762 214.701 146.14L214.701 146.127C214.701 145.664 214.352 145.34 213.508 145.137L212.448 144.883C211.166 144.579 210.588 144.02 210.588 143.036L210.588 143.03C210.588 141.894 211.68 141.037 213.133 141.037C214.568 141.037 215.564 141.754 215.717 142.871L214.631 142.871C214.485 142.332 213.952 141.957 213.127 141.957C212.314 141.957 211.718 142.376 211.718 142.979L211.718 142.992C211.718 143.455 212.061 143.747 212.867 143.944L213.92 144.198C215.209 144.509 215.831 145.067 215.831 146.045L215.831 146.058C215.831 147.276 214.644 148.121 213.089 148.121ZM224 148.121C222.083 148.121 220.858 146.73 220.858 144.56L220.858 144.547C220.858 142.42 222.077 141.037 223.994 141.037C225.657 141.037 226.654 141.995 226.857 143.214L226.863 143.252L225.765 143.252L225.759 143.233C225.587 142.56 224.978 142.014 223.994 142.014C222.763 142.014 221.988 143.004 221.988 144.547L221.988 144.56C221.988 146.134 222.775 147.143 223.994 147.143C224.915 147.143 225.499 146.737 225.752 145.975L225.765 145.937L226.857 145.931L226.844 146C226.565 147.238 225.645 148.121 224 148.121ZM231.288 148.121C229.339 148.121 228.133 146.775 228.133 144.585L228.133 144.572C228.133 142.376 229.339 141.037 231.288 141.037C233.236 141.037 234.442 142.376 234.442 144.572L234.442 144.585C234.442 146.775 233.236 148.121 231.288 148.121ZM231.288 147.143C232.583 147.143 233.313 146.197 233.313 144.585L233.313 144.572C233.313 142.954 232.583 142.014 231.288 142.014C229.993 142.014 229.263 142.954 229.263 144.572L229.263 144.585C229.263 146.197 229.993 147.143 231.288 147.143ZM236.156 148L236.156 141.157L237.261 141.157L237.261 142.198L237.362 142.198C237.667 141.462 238.314 141.037 239.209 141.037C240.136 141.037 240.784 141.525 241.101 142.236L241.203 142.236C241.571 141.513 242.352 141.037 243.297 141.037C244.694 141.037 245.475 141.836 245.475 143.271L245.475 148L244.37 148L244.37 143.525C244.37 142.516 243.907 142.014 242.942 142.014C241.99 142.014 241.361 142.731 241.361 143.601L241.361 148L240.257 148L240.257 143.354C240.257 142.541 239.698 142.014 238.835 142.014C237.94 142.014 237.261 142.795 237.261 143.76L237.261 148L236.156 148ZM247.468 148L247.468 141.157L248.572 141.157L248.572 142.198L248.674 142.198C248.979 141.462 249.626 141.037 250.521 141.037C251.448 141.037 252.095 141.525 252.413 142.236L252.514 142.236C252.882 141.513 253.663 141.037 254.609 141.037C256.005 141.037 256.786 141.836 256.786 143.271L256.786 148L255.682 148L255.682 143.525C255.682 142.516 255.218 142.014 254.253 142.014C253.301 142.014 252.673 142.731 252.673 143.601L252.673 148L251.568 148L251.568 143.354C251.568 142.541 251.01 142.014 250.146 142.014C249.251 142.014 248.572 142.795 248.572 143.76L248.572 148L247.468 148ZM259.363 139.837C258.944 139.837 258.602 139.494 258.602 139.075C258.602 138.656 258.944 138.313 259.363 138.313C259.782 138.313 260.125 138.656 260.125 139.075C260.125 139.494 259.782 139.837 259.363 139.837ZM258.805 148L258.805 141.157L259.909 141.157L259.909 148L258.805 148ZM264.34 148.121C262.816 148.121 261.769 147.384 261.642 146.254L262.772 146.254C262.956 146.826 263.502 147.2 264.378 147.2C265.298 147.2 265.952 146.762 265.952 146.14L265.952 146.127C265.952 145.664 265.603 145.34 264.759 145.137L263.699 144.883C262.417 144.579 261.839 144.02 261.839 143.036L261.839 143.03C261.839 141.894 262.931 141.037 264.384 141.037C265.819 141.037 266.815 141.754 266.968 142.871L265.882 142.871C265.736 142.332 265.203 141.957 264.378 141.957C263.565 141.957 262.969 142.376 262.969 142.979L262.969 142.992C262.969 143.455 263.312 143.747 264.118 143.944L265.171 144.198C266.46 144.509 267.082 145.067 267.082 146.045L267.082 146.058C267.082 147.276 265.895 148.121 264.34 148.121ZM269.38 139.837C268.961 139.837 268.618 139.494 268.618 139.075C268.618 138.656 268.961 138.313 269.38 138.313C269.799 138.313 270.142 138.656 270.142 139.075C270.142 139.494 269.799 139.837 269.38 139.837ZM268.821 148L268.821 141.157L269.926 141.157L269.926 148L268.821 148ZM274.82 148.121C272.871 148.121 271.665 146.775 271.665 144.585L271.665 144.572C271.665 142.376 272.871 141.037 274.82 141.037C276.769 141.037 277.975 142.376 277.975 144.572L277.975 144.585C277.975 146.775 276.769 148.121 274.82 148.121ZM274.82 147.143C276.115 147.143 276.845 146.197 276.845 144.585L276.845 144.572C276.845 142.954 276.115 142.014 274.82 142.014C273.525 142.014 272.795 142.954 272.795 144.572L272.795 144.585C272.795 146.197 273.525 147.143 274.82 147.143ZM279.688 148L279.688 141.157L280.793 141.157L280.793 142.186L280.895 142.186C281.237 141.462 281.878 141.037 282.888 141.037C284.424 141.037 285.281 141.944 285.281 143.569L285.281 148L284.176 148L284.176 143.836C284.176 142.604 283.668 142.014 282.577 142.014C281.485 142.014 280.793 142.75 280.793 143.95L280.793 148L279.688 148ZM289.629 148.121C288.105 148.121 287.058 147.384 286.931 146.254L288.061 146.254C288.245 146.826 288.791 147.2 289.667 147.2C290.587 147.2 291.241 146.762 291.241 146.14L291.241 146.127C291.241 145.664 290.892 145.34 290.048 145.137L288.988 144.883C287.706 144.579 287.128 144.02 287.128 143.036L287.128 143.03C287.128 141.894 288.22 141.037 289.673 141.037C291.108 141.037 292.104 141.754 292.257 142.871L291.171 142.871C291.025 142.332 290.492 141.957 289.667 141.957C288.854 141.957 288.258 142.376 288.258 142.979L288.258 142.992C288.258 143.455 288.601 143.747 289.407 143.944L290.46 144.198C291.749 144.509 292.371 145.067 292.371 146.045L292.371 146.058C292.371 147.276 291.184 148.121 289.629 148.121ZM297.741 150.285L297.741 141.157L298.846 141.157L298.846 142.249L298.947 142.249C299.366 141.487 300.128 141.037 301.08 141.037C302.813 141.037 303.949 142.439 303.949 144.572L303.949 144.585C303.949 146.73 302.819 148.121 301.08 148.121C300.141 148.121 299.322 147.651 298.947 146.921L298.846 146.921L298.846 150.285L297.741 150.285ZM300.826 147.143C302.077 147.143 302.819 146.178 302.819 144.585L302.819 144.572C302.819 142.979 302.077 142.014 300.826 142.014C299.582 142.014 298.82 142.992 298.82 144.572L298.82 144.585C298.82 146.166 299.582 147.143 300.826 147.143ZM307.555 148.121C306.253 148.121 305.27 147.333 305.27 146.089L305.27 146.077C305.27 144.858 306.171 144.153 307.764 144.058L309.726 143.937L309.726 143.315C309.726 142.471 309.211 142.014 308.189 142.014C307.371 142.014 306.831 142.319 306.653 142.852L306.647 142.871L305.542 142.871L305.549 142.833C305.727 141.76 306.768 141.037 308.228 141.037C309.897 141.037 310.83 141.894 310.83 143.315L310.83 148L309.726 148L309.726 146.991L309.624 146.991C309.192 147.721 308.475 148.121 307.555 148.121ZM306.399 146.064C306.399 146.756 306.99 147.162 307.783 147.162C308.907 147.162 309.726 146.426 309.726 145.448L309.726 144.826L307.897 144.94C306.856 145.004 306.399 145.372 306.399 146.051L306.399 146.064ZM313.433 139.837C313.014 139.837 312.671 139.494 312.671 139.075C312.671 138.656 313.014 138.313 313.433 138.313C313.852 138.313 314.194 138.656 314.194 139.075C314.194 139.494 313.852 139.837 313.433 139.837ZM312.874 148L312.874 141.157L313.979 141.157L313.979 148L312.874 148ZM318.587 148.121C316.854 148.121 315.718 146.718 315.718 144.585L315.718 144.572C315.718 142.427 316.848 141.037 318.587 141.037C319.526 141.037 320.345 141.506 320.72 142.236L320.821 142.236L320.821 138.44L321.926 138.44L321.926 148L320.821 148L320.821 146.908L320.72 146.908C320.301 147.67 319.539 148.121 318.587 148.121ZM318.841 147.143C320.085 147.143 320.847 146.166 320.847 144.585L320.847 144.572C320.847 142.992 320.085 142.014 318.841 142.014C317.59 142.014 316.848 142.979 316.848 144.572L316.848 144.585C316.848 146.178 317.59 147.143 318.841 147.143Z" fill="#50575E"/>
<path d="M334.5 140.333V141.333H333.5V140.333H334.5Z" fill="#50575E"/>
<path d="M334.5 145.667V142.333H333.5V145.667H334.5Z" fill="#50575E"/>
<path fill-rule="evenodd" clip-rule="evenodd" d="M334 137.667C331.055 137.667 328.667 140.055 328.667 143C328.667 145.946 331.055 148.333 334 148.333C336.946 148.333 339.334 145.946 339.334 143C339.334 140.055 336.946 137.667 334 137.667ZM329.667 143C329.667 145.393 331.607 147.333 334 147.333C336.394 147.333 338.334 145.393 338.334 143C338.334 140.607 336.394 138.667 334 138.667C331.607 138.667 329.667 140.607 329.667 143Z" fill="#50575E"/>
<g filter="url(#filter1_dddd_8800_2934)">
<rect x="376" y="54" width="64" height="64" rx="4" fill="#E1D7FF" shape-rendering="crispEdges"/>
<path d="M401.926 94.1237C403.593 94.1237 404.926 93.2966 405.939 91.3953L408.173 87.21V90.7656C408.173 92.8521 409.532 94.1237 411.643 94.1237C413.272 94.1237 414.47 93.383 415.655 91.3953L420.828 82.6914C421.964 80.7901 421.161 79.3333 418.668 79.3333C417.334 79.3333 416.47 79.7777 415.692 81.2346L412.124 87.9137V81.9753C412.124 80.1975 411.285 79.3333 409.717 79.3333C408.494 79.3333 407.519 79.8642 406.754 81.3457L403.396 87.9014V82.0371C403.396 80.1358 402.618 79.3333 400.717 79.3333H396.865C395.408 79.3333 394.667 80.0123 394.667 81.2716C394.667 82.5309 395.432 83.2346 396.865 83.2346H398.445V90.7533C398.457 92.8521 399.852 94.1237 401.926 94.1237Z" fill="#873EFF"/>
</g>
</g>
</g>
<defs>
<filter id="filter0_dddd_8800_2934" x="64" y="53" width="392" height="153" filterUnits="userSpaceOnUse" color-interpolation-filters="sRGB">
<feFlood flood-opacity="0" result="BackgroundImageFix"/>
<feColorMatrix in="SourceAlpha" type="matrix" values="0 0 0 0 0 0 0 0 0 0 0 0 0 0 0 0 0 0 127 0" result="hardAlpha"/>
<feOffset dy="16"/>
<feGaussianBlur stdDeviation="8"/>
<feComposite in2="hardAlpha" operator="out"/>
<feColorMatrix type="matrix" values="0 0 0 0 0 0 0 0 0 0 0 0 0 0 0 0 0 0 0.02 0"/>
<feBlend mode="normal" in2="BackgroundImageFix" result="effect1_dropShadow_8800_2934"/>
<feColorMatrix in="SourceAlpha" type="matrix" values="0 0 0 0 0 0 0 0 0 0 0 0 0 0 0 0 0 0 127 0" result="hardAlpha"/>
<feOffset dy="4"/>
<feGaussianBlur stdDeviation="2.5"/>
<feComposite in2="hardAlpha" operator="out"/>
<feColorMatrix type="matrix" values="0 0 0 0 0 0 0 0 0 0 0 0 0 0 0 0 0 0 0.03 0"/>
<feBlend mode="normal" in2="effect1_dropShadow_8800_2934" result="effect2_dropShadow_8800_2934"/>
<feColorMatrix in="SourceAlpha" type="matrix" values="0 0 0 0 0 0 0 0 0 0 0 0 0 0 0 0 0 0 127 0" result="hardAlpha"/>
<feOffset dy="4"/>
<feGaussianBlur stdDeviation="2.5"/>
<feComposite in2="hardAlpha" operator="out"/>
<feColorMatrix type="matrix" values="0 0 0 0 0 0 0 0 0 0 0 0 0 0 0 0 0 0 0.04 0"/>
<feBlend mode="normal" in2="effect2_dropShadow_8800_2934" result="effect3_dropShadow_8800_2934"/>
<feColorMatrix in="SourceAlpha" type="matrix" values="0 0 0 0 0 0 0 0 0 0 0 0 0 0 0 0 0 0 127 0" result="hardAlpha"/>
<feOffset dy="2"/>
<feGaussianBlur stdDeviation="1.5"/>
<feComposite in2="hardAlpha" operator="out"/>
<feColorMatrix type="matrix" values="0 0 0 0 0 0 0 0 0 0 0 0 0 0 0 0 0 0 0.05 0"/>
<feBlend mode="normal" in2="effect3_dropShadow_8800_2934" result="effect4_dropShadow_8800_2934"/>
<feBlend mode="normal" in="SourceGraphic" in2="effect4_dropShadow_8800_2934" result="shape"/>
</filter>
<filter id="filter1_dddd_8800_2934" x="372" y="53" width="72" height="73" filterUnits="userSpaceOnUse" color-interpolation-filters="sRGB">
<feFlood flood-opacity="0" result="BackgroundImageFix"/>
<feColorMatrix in="SourceAlpha" type="matrix" values="0 0 0 0 0 0 0 0 0 0 0 0 0 0 0 0 0 0 127 0" result="hardAlpha"/>
<feOffset dy="4"/>
<feGaussianBlur stdDeviation="2"/>
<feComposite in2="hardAlpha" operator="out"/>
<feColorMatrix type="matrix" values="0 0 0 0 0 0 0 0 0 0 0 0 0 0 0 0 0 0 0.01 0"/>
<feBlend mode="normal" in2="BackgroundImageFix" result="effect1_dropShadow_8800_2934"/>
<feColorMatrix in="SourceAlpha" type="matrix" values="0 0 0 0 0 0 0 0 0 0 0 0 0 0 0 0 0 0 127 0" result="hardAlpha"/>
<feOffset dy="3"/>
<feGaussianBlur stdDeviation="1.5"/>
<feComposite in2="hardAlpha" operator="out"/>
<feColorMatrix type="matrix" values="0 0 0 0 0 0 0 0 0 0 0 0 0 0 0 0 0 0 0.02 0"/>
<feBlend mode="normal" in2="effect1_dropShadow_8800_2934" result="effect2_dropShadow_8800_2934"/>
<feColorMatrix in="SourceAlpha" type="matrix" values="0 0 0 0 0 0 0 0 0 0 0 0 0 0 0 0 0 0 127 0" result="hardAlpha"/>
<feOffset dy="1"/>
<feGaussianBlur stdDeviation="1"/>
<feComposite in2="hardAlpha" operator="out"/>
<feColorMatrix type="matrix" values="0 0 0 0 0 0 0 0 0 0 0 0 0 0 0 0 0 0 0.02 0"/>
<feBlend mode="normal" in2="effect2_dropShadow_8800_2934" result="effect3_dropShadow_8800_2934"/>
<feColorMatrix in="SourceAlpha" type="matrix" values="0 0 0 0 0 0 0 0 0 0 0 0 0 0 0 0 0 0 127 0" result="hardAlpha"/>
<feOffset dy="1"/>
<feGaussianBlur stdDeviation="0.5"/>
<feComposite in2="hardAlpha" operator="out"/>
<feColorMatrix type="matrix" values="0 0 0 0 0 0 0 0 0 0 0 0 0 0 0 0 0 0 0.03 0"/>
<feBlend mode="normal" in2="effect3_dropShadow_8800_2934" result="effect4_dropShadow_8800_2934"/>
<feBlend mode="normal" in="SourceGraphic" in2="effect4_dropShadow_8800_2934" result="shape"/>
</filter>
<clipPath id="clip0_8800_2934">
<rect width="488" height="260" fill="white"/>
</clipPath>
</defs>
</svg>
