<svg width="488" height="260" viewBox="0 0 488 260" fill="none" xmlns="http://www.w3.org/2000/svg">
<g clip-path="url(#clip0_8945_1051)">
<rect width="488" height="260" fill="#153E5F"/>
<circle cx="126.502" cy="235.502" r="145.139" transform="rotate(162.236 126.502 235.502)" fill="#185683"/>
<circle cx="28.5011" cy="23.5002" r="145.139" transform="rotate(162.236 28.5011 23.5002)" fill="#185683"/>
<g filter="url(#filter0_dddd_8945_1051)">
<g clip-path="url(#clip1_8945_1051)">
<rect x="80" y="38" width="328" height="184" rx="4" fill="white"/>
<rect width="328" height="92" transform="translate(80 38)" fill="#D3EDFE"/>
<path d="M97.5234 81L97.5234 64.0898L101.063 64.0898L101.063 78.082L108.48 78.082L108.48 81L97.5234 81ZM114.188 81.1992C113.352 81.1992 112.617 81.0391 111.984 80.7187C111.352 80.3906 110.855 79.9414 110.496 79.3711C110.145 78.793 109.969 78.1328 109.969 77.3906L109.969 77.3672C109.969 76.6016 110.16 75.9492 110.543 75.4102C110.926 74.8633 111.48 74.4336 112.207 74.1211C112.941 73.8008 113.832 73.6094 114.879 73.5469L119.754 73.2422L119.754 75.3633L115.395 75.6445C114.723 75.6836 114.211 75.8398 113.859 76.1133C113.516 76.3789 113.344 76.7383 113.344 77.1914L113.344 77.2031C113.344 77.6719 113.52 78.0391 113.871 78.3047C114.23 78.5703 114.707 78.7031 115.301 78.7031C115.816 78.7031 116.273 78.6016 116.672 78.3984C117.078 78.1953 117.398 77.9219 117.633 77.5781C117.867 77.2266 117.984 76.832 117.984 76.3945L117.984 72.5273C117.984 71.9727 117.805 71.5352 117.445 71.2148C117.094 70.8945 116.578 70.7344 115.898 70.7344C115.266 70.7344 114.758 70.8633 114.375 71.1211C114 71.3711 113.766 71.6953 113.672 72.0937L113.648 72.1992L110.508 72.1992L110.52 72.0586C110.59 71.2852 110.852 70.6055 111.305 70.0195C111.766 69.4258 112.395 68.9609 113.191 68.625C113.996 68.2812 114.949 68.1094 116.051 68.1094C117.145 68.1094 118.09 68.2852 118.887 68.6367C119.684 68.9883 120.301 69.4805 120.738 70.1133C121.176 70.7461 121.395 71.4922 121.395 72.3516L121.395 81L117.984 81L117.984 79.1602L117.891 79.1602C117.656 79.582 117.352 79.9453 116.977 80.25C116.609 80.5547 116.191 80.7891 115.723 80.9531C115.254 81.1172 114.742 81.1992 114.188 81.1992ZM128.074 81.2578C127.145 81.2578 126.355 81.0703 125.707 80.6953C125.059 80.3203 124.566 79.7773 124.23 79.0664C123.895 78.3555 123.727 77.5078 123.727 76.5234L123.727 68.3789L127.148 68.3789L127.148 75.8086C127.148 76.6445 127.34 77.2891 127.723 77.7422C128.105 78.1953 128.684 78.4219 129.457 78.4219C129.848 78.4219 130.195 78.3555 130.5 78.2227C130.813 78.0898 131.078 77.9023 131.297 77.6602C131.523 77.4102 131.691 77.1172 131.801 76.7812C131.918 76.4375 131.977 76.0547 131.977 75.6328L131.977 68.3789L135.398 68.3789L135.398 81L131.977 81L131.977 78.9492L131.883 78.9492C131.672 79.4258 131.387 79.8398 131.027 80.1914C130.676 80.5352 130.254 80.8008 129.762 80.9883C129.27 81.168 128.707 81.2578 128.074 81.2578ZM143.695 85.3945C142.539 85.3945 141.535 85.2344 140.684 84.9141C139.832 84.6016 139.156 84.1719 138.656 83.625C138.156 83.0859 137.852 82.4766 137.742 81.7969L137.73 81.7031L141.07 81.7031L141.105 81.7734C141.23 82.0937 141.516 82.3711 141.961 82.6055C142.406 82.8398 142.992 82.957 143.719 82.957C144.602 82.957 145.277 82.7461 145.746 82.3242C146.215 81.9023 146.449 81.3398 146.449 80.6367L146.449 78.6211L146.355 78.6211C146.137 79.0664 145.836 79.4492 145.453 79.7695C145.078 80.082 144.641 80.3242 144.141 80.4961C143.641 80.668 143.086 80.7539 142.477 80.7539C141.43 80.7539 140.52 80.5039 139.746 80.0039C138.98 79.4961 138.391 78.7773 137.977 77.8477C137.57 76.918 137.367 75.8125 137.367 74.5312L137.367 74.5078C137.367 73.1875 137.574 72.0508 137.988 71.0977C138.41 70.1445 139.008 69.4141 139.781 68.9062C140.555 68.3906 141.473 68.1328 142.535 68.1328C143.129 68.1328 143.672 68.2305 144.164 68.4258C144.656 68.6211 145.086 68.8984 145.453 69.2578C145.828 69.6094 146.129 70.0312 146.355 70.5234L146.449 70.5234L146.449 68.3789L149.871 68.3789L149.871 80.6367C149.871 81.582 149.621 82.4102 149.121 83.1211C148.621 83.8398 147.906 84.3984 146.977 84.7969C146.055 85.1953 144.961 85.3945 143.695 85.3945ZM143.66 78.2227C144.23 78.2227 144.727 78.0742 145.148 77.7773C145.57 77.4805 145.895 77.0625 146.121 76.5234C146.355 75.9766 146.473 75.332 146.473 74.5898L146.473 74.5781C146.473 73.8359 146.355 73.1953 146.121 72.6562C145.887 72.1094 145.559 71.6914 145.137 71.4023C144.723 71.1055 144.23 70.957 143.66 70.957C143.082 70.957 142.582 71.1055 142.16 71.4023C141.738 71.6914 141.414 72.1055 141.188 72.6445C140.961 73.1836 140.848 73.8242 140.848 74.5664L140.848 74.5898C140.848 75.332 140.961 75.9766 141.188 76.5234C141.414 77.0703 141.738 77.4922 142.16 77.7891C142.582 78.0781 143.082 78.2227 143.66 78.2227ZM158.039 81.2578C156.75 81.2578 155.641 80.9961 154.711 80.4727C153.789 79.9414 153.078 79.1836 152.578 78.1992C152.078 77.2148 151.828 76.0508 151.828 74.707L151.828 74.6953C151.828 73.3594 152.074 72.1992 152.566 71.2148C153.066 70.2305 153.77 69.4687 154.676 68.9297C155.59 68.3828 156.664 68.1094 157.898 68.1094C159.125 68.1094 160.188 68.375 161.086 68.9062C161.984 69.4297 162.676 70.168 163.16 71.1211C163.652 72.0664 163.898 73.1758 163.898 74.4492L163.898 75.5039L153.516 75.5039L153.516 73.3477L162.27 73.3477L160.652 75.3633L160.652 74.0391C160.652 73.2969 160.539 72.6758 160.313 72.1758C160.086 71.6758 159.77 71.3008 159.363 71.0508C158.957 70.8008 158.488 70.6758 157.957 70.6758C157.418 70.6758 156.941 70.8047 156.527 71.0625C156.113 71.3203 155.789 71.7031 155.555 72.2109C155.32 72.7109 155.203 73.3203 155.203 74.0391L155.203 75.375C155.203 76.0781 155.32 76.6797 155.555 77.1797C155.789 77.6719 156.121 78.0508 156.551 78.3164C156.988 78.5742 157.508 78.7031 158.109 78.7031C158.578 78.7031 158.984 78.6328 159.328 78.4922C159.68 78.3437 159.961 78.1602 160.172 77.9414C160.391 77.7148 160.539 77.4883 160.617 77.2617L160.641 77.1914L163.793 77.1914L163.758 77.3203C163.664 77.7734 163.48 78.2305 163.207 78.6914C162.941 79.1523 162.574 79.5781 162.105 79.9687C161.645 80.3594 161.074 80.6719 160.395 80.9062C159.723 81.1406 158.938 81.2578 158.039 81.2578ZM165.844 81L165.844 68.3789L169.266 68.3789L169.266 70.5352L169.359 70.5352C169.547 69.7773 169.895 69.1875 170.402 68.7656C170.91 68.3437 171.539 68.1328 172.289 68.1328C172.492 68.1328 172.684 68.1445 172.863 68.168C173.043 68.1914 173.199 68.2266 173.332 68.2734L173.332 71.2734C173.168 71.2109 172.973 71.1641 172.746 71.1328C172.52 71.1016 172.281 71.0859 172.031 71.0859C171.453 71.0859 170.957 71.1953 170.543 71.4141C170.129 71.6328 169.813 71.957 169.594 72.3867C169.375 72.8086 169.266 73.3242 169.266 73.9336L169.266 81L165.844 81ZM183.762 81L179.285 64.0898L182.953 64.0898L185.625 76.207L185.719 76.207L188.824 64.0898L191.906 64.0898L195.035 76.207L195.117 76.207L197.789 64.0898L201.457 64.0898L196.969 81L193.535 81L190.406 69.6562L190.324 69.6562L187.195 81L183.762 81ZM205.406 81.1992C204.57 81.1992 203.836 81.0391 203.203 80.7187C202.57 80.3906 202.074 79.9414 201.715 79.3711C201.363 78.793 201.188 78.1328 201.188 77.3906L201.188 77.3672C201.188 76.6016 201.379 75.9492 201.762 75.4102C202.145 74.8633 202.699 74.4336 203.426 74.1211C204.16 73.8008 205.051 73.6094 206.098 73.5469L210.973 73.2422L210.973 75.3633L206.613 75.6445C205.941 75.6836 205.43 75.8398 205.078 76.1133C204.734 76.3789 204.563 76.7383 204.563 77.1914L204.563 77.2031C204.563 77.6719 204.738 78.0391 205.09 78.3047C205.449 78.5703 205.926 78.7031 206.52 78.7031C207.035 78.7031 207.492 78.6016 207.891 78.3984C208.297 78.1953 208.617 77.9219 208.852 77.5781C209.086 77.2266 209.203 76.832 209.203 76.3945L209.203 72.5273C209.203 71.9727 209.023 71.5352 208.664 71.2148C208.313 70.8945 207.797 70.7344 207.117 70.7344C206.484 70.7344 205.977 70.8633 205.594 71.1211C205.219 71.3711 204.984 71.6953 204.891 72.0937L204.867 72.1992L201.727 72.1992L201.738 72.0586C201.809 71.2852 202.07 70.6055 202.523 70.0195C202.984 69.4258 203.613 68.9609 204.41 68.625C205.215 68.2812 206.168 68.1094 207.27 68.1094C208.363 68.1094 209.309 68.2852 210.105 68.6367C210.902 68.9883 211.52 69.4805 211.957 70.1133C212.395 70.7461 212.613 71.4922 212.613 72.3516L212.613 81L209.203 81L209.203 79.1602L209.109 79.1602C208.875 79.582 208.57 79.9453 208.195 80.25C207.828 80.5547 207.41 80.7891 206.941 80.9531C206.473 81.1172 205.961 81.1992 205.406 81.1992ZM220.078 81.2227C218.648 81.2227 217.598 80.9336 216.926 80.3555C216.254 79.7773 215.918 78.8242 215.918 77.4961L215.918 70.957L214.125 70.957L214.125 68.3789L215.918 68.3789L215.918 65.3086L219.375 65.3086L219.375 68.3789L221.742 68.3789L221.742 70.957L219.375 70.957L219.375 77.0508C219.375 77.6289 219.504 78.0391 219.762 78.2812C220.027 78.5156 220.426 78.6328 220.957 78.6328C221.121 78.6328 221.262 78.6289 221.379 78.6211C221.504 78.6055 221.625 78.5898 221.742 78.5742L221.742 81.082C221.547 81.1211 221.309 81.1523 221.027 81.1758C220.746 81.207 220.43 81.2227 220.078 81.2227ZM229.371 81.2578C228.082 81.2578 226.973 80.9961 226.043 80.4727C225.113 79.9414 224.398 79.1836 223.898 78.1992C223.398 77.2148 223.148 76.0391 223.148 74.6719L223.148 74.6602C223.148 73.3086 223.398 72.1445 223.898 71.168C224.406 70.1836 225.121 69.4297 226.043 68.9062C226.973 68.375 228.074 68.1094 229.348 68.1094C230.48 68.1094 231.465 68.3203 232.301 68.7422C233.137 69.1641 233.789 69.7383 234.258 70.4648C234.734 71.1836 235 72 235.055 72.9141L235.066 72.9961L231.879 72.9961L231.867 72.9023C231.758 72.3008 231.492 71.8008 231.07 71.4023C230.656 70.9961 230.094 70.793 229.383 70.793C228.82 70.793 228.332 70.9492 227.918 71.2617C227.504 71.5664 227.184 72.0078 226.957 72.5859C226.738 73.1641 226.629 73.8594 226.629 74.6719L226.629 74.6953C226.629 75.5156 226.738 76.2187 226.957 76.8047C227.184 77.3828 227.504 77.8242 227.918 78.1289C228.332 78.4258 228.824 78.5742 229.395 78.5742C230.09 78.5742 230.645 78.3867 231.059 78.0117C231.48 77.6367 231.75 77.1289 231.867 76.4883L231.891 76.4062L235.066 76.3945L235.066 76.4766C234.996 77.3906 234.723 78.2109 234.246 78.9375C233.77 79.6562 233.117 80.2227 232.289 80.6367C231.469 81.0508 230.496 81.2578 229.371 81.2578ZM237 81L237 63.9258L240.422 63.9258L240.422 70.5117L240.516 70.5117C240.836 69.7461 241.32 69.1562 241.969 68.7422C242.617 68.3203 243.41 68.1094 244.348 68.1094C245.262 68.1094 246.047 68.3086 246.703 68.707C247.359 69.1055 247.863 69.6719 248.215 70.4062C248.566 71.1406 248.742 72.0156 248.742 73.0312L248.742 81L245.32 81L245.32 73.7461C245.32 72.8633 245.113 72.1758 244.699 71.6836C244.293 71.1914 243.699 70.9453 242.918 70.9453C242.41 70.9453 241.969 71.0664 241.594 71.3086C241.219 71.543 240.93 71.8711 240.727 72.293C240.523 72.7148 240.422 73.2031 240.422 73.7578L240.422 81L237 81ZM263.906 81.3164C262.266 81.3164 260.844 80.9648 259.641 80.2617C258.438 79.5508 257.508 78.543 256.852 77.2383C256.203 75.9258 255.879 74.3594 255.879 72.5391L255.879 72.5273C255.879 70.707 256.203 69.1445 256.852 67.8398C257.508 66.5352 258.438 65.5312 259.641 64.8281C260.844 64.125 262.266 63.7734 263.906 63.7734C265.273 63.7734 266.488 64.0391 267.551 64.5703C268.621 65.1016 269.48 65.832 270.129 66.7617C270.785 67.6836 271.168 68.7422 271.277 69.9375L271.289 70.0547L267.844 70.0547L267.797 69.8789C267.672 69.2539 267.434 68.7109 267.082 68.25C266.738 67.7812 266.297 67.418 265.758 67.1602C265.227 66.9023 264.609 66.7734 263.906 66.7734C263.008 66.7734 262.227 67.0078 261.563 67.4766C260.906 67.9375 260.398 68.5977 260.039 69.457C259.68 70.3086 259.5 71.332 259.5 72.5273L259.5 72.5391C259.5 73.7266 259.68 74.7539 260.039 75.6211C260.398 76.4883 260.91 77.1562 261.574 77.625C262.238 78.0859 263.02 78.3164 263.918 78.3164C264.598 78.3164 265.203 78.1914 265.734 77.9414C266.266 77.6914 266.711 77.332 267.07 76.8633C267.43 76.3945 267.684 75.832 267.832 75.1758L267.855 75.0703L271.301 75.0703L271.289 75.1875C271.18 76.3828 270.797 77.4414 270.141 78.3633C269.484 79.2852 268.621 80.0078 267.551 80.5312C266.488 81.0547 265.273 81.3164 263.906 81.3164ZM279.129 81.2578C277.855 81.2578 276.75 80.9961 275.813 80.4727C274.875 79.9492 274.152 79.1992 273.645 78.2227C273.137 77.2383 272.883 76.0625 272.883 74.6953L272.883 74.6719C272.883 73.3125 273.141 72.1445 273.656 71.168C274.172 70.1836 274.895 69.4297 275.824 68.9062C276.762 68.375 277.863 68.1094 279.129 68.1094C280.395 68.1094 281.492 68.375 282.422 68.9062C283.359 69.4297 284.086 70.1797 284.602 71.1562C285.117 72.1328 285.375 73.3047 285.375 74.6719L285.375 74.6953C285.375 76.0703 285.121 77.2461 284.613 78.2227C284.105 79.1992 283.383 79.9492 282.445 80.4727C281.516 80.9961 280.41 81.2578 279.129 81.2578ZM279.141 78.5742C279.711 78.5742 280.199 78.4219 280.605 78.1172C281.02 77.8125 281.336 77.3711 281.555 76.793C281.781 76.2148 281.895 75.5156 281.895 74.6953L281.895 74.6719C281.895 73.8516 281.781 73.1523 281.555 72.5742C281.328 71.9961 281.008 71.5547 280.594 71.25C280.18 70.9453 279.691 70.793 279.129 70.793C278.574 70.793 278.086 70.9492 277.664 71.2617C277.25 71.5664 276.93 72.0078 276.703 72.5859C276.477 73.1562 276.363 73.8516 276.363 74.6719L276.363 74.6953C276.363 75.5156 276.477 76.2148 276.703 76.793C276.93 77.3711 277.25 77.8125 277.664 78.1172C278.078 78.4219 278.57 78.5742 279.141 78.5742ZM288.867 81.2109C288.328 81.2109 287.871 81.0273 287.496 80.6602C287.129 80.2852 286.945 79.8281 286.945 79.2891C286.945 78.75 287.129 78.2969 287.496 77.9297C287.871 77.5547 288.328 77.3672 288.867 77.3672C289.414 77.3672 289.871 77.5547 290.238 77.9297C290.613 78.2969 290.801 78.75 290.801 79.2891C290.801 79.8281 290.613 80.2852 290.238 80.6602C289.871 81.0273 289.414 81.2109 288.867 81.2109Z" fill="#1D2327"/>
<path d="M97.168 103L97.168 93.8403L98.3105 93.8403L98.3105 101.972L102.729 101.972L102.729 103L97.168 103ZM106.296 103.121C104.995 103.121 104.011 102.333 104.011 101.089L104.011 101.077C104.011 99.8579 104.912 99.1533 106.505 99.0581L108.467 98.9375L108.467 98.3154C108.467 97.4712 107.953 97.0142 106.931 97.0142C106.112 97.0142 105.572 97.3188 105.395 97.8521L105.388 97.8711L104.284 97.8711L104.29 97.833C104.468 96.7603 105.509 96.0366 106.969 96.0366C108.638 96.0366 109.571 96.8936 109.571 98.3154L109.571 103L108.467 103L108.467 101.991L108.365 101.991C107.934 102.721 107.216 103.121 106.296 103.121ZM105.141 101.064C105.141 101.756 105.731 102.162 106.524 102.162C107.648 102.162 108.467 101.426 108.467 100.448L108.467 99.8262L106.639 99.9404C105.598 100.004 105.141 100.372 105.141 101.051L105.141 101.064ZM113.938 103.121C112.415 103.121 111.368 102.384 111.241 101.254L112.371 101.254C112.555 101.826 113.101 102.2 113.977 102.2C114.897 102.2 115.551 101.762 115.551 101.14L115.551 101.127C115.551 100.664 115.202 100.34 114.357 100.137L113.297 99.8833C112.015 99.5786 111.438 99.02 111.438 98.0361L111.438 98.0298C111.438 96.8936 112.529 96.0366 113.983 96.0366C115.417 96.0366 116.414 96.7539 116.566 97.8711L115.481 97.8711C115.335 97.3315 114.802 96.957 113.977 96.957C113.164 96.957 112.567 97.376 112.567 97.979L112.567 97.9917C112.567 98.4551 112.91 98.7471 113.716 98.9438L114.77 99.1978C116.059 99.5088 116.681 100.067 116.681 101.045L116.681 101.058C116.681 102.276 115.494 103.121 113.938 103.121ZM120.762 103.051C119.353 103.051 118.763 102.53 118.763 101.223L118.763 97.0713L117.684 97.0713L117.684 96.1572L118.763 96.1572L118.763 94.3862L119.905 94.3862L119.905 96.1572L121.403 96.1572L121.403 97.0713L119.905 97.0713L119.905 100.943C119.905 101.75 120.185 102.073 120.896 102.073C121.092 102.073 121.2 102.067 121.403 102.048L121.403 102.987C121.188 103.025 120.978 103.051 120.762 103.051ZM129.82 103.152C127.929 103.152 126.704 102.099 126.583 100.651L126.577 100.575L127.675 100.575L127.681 100.639C127.77 101.54 128.602 102.162 129.82 102.162C131.02 102.162 131.839 101.489 131.839 100.518L131.839 100.505C131.839 99.3818 131.033 98.7534 129.75 98.7534L128.602 98.7534L128.602 97.7886L129.7 97.7886C130.792 97.7886 131.553 97.1157 131.553 96.2017L131.553 96.189C131.553 95.2305 130.925 94.6782 129.808 94.6782C128.729 94.6782 127.96 95.2495 127.865 96.1763L127.859 96.2397L126.761 96.2397L126.767 96.1763C126.913 94.6846 128.094 93.688 129.808 93.688C131.553 93.688 132.702 94.6592 132.702 96.0493L132.702 96.062C132.702 97.1919 131.902 97.9663 130.76 98.2075L130.76 98.2329C132.093 98.3472 133 99.1787 133 100.48L133 100.493C133 102.022 131.655 103.152 129.82 103.152ZM137.92 103.216C135.895 103.216 134.689 101.369 134.689 98.4233L134.689 98.4106C134.689 95.4653 135.895 93.6245 137.92 93.6245C139.945 93.6245 141.164 95.4653 141.164 98.4106L141.164 98.4233C141.164 101.369 139.945 103.216 137.92 103.216ZM137.92 102.219C139.234 102.219 140.015 100.759 140.015 98.4233L140.015 98.4106C140.015 96.0747 139.234 94.6274 137.92 94.6274C136.606 94.6274 135.838 96.0747 135.838 98.4106L135.838 98.4233C135.838 100.759 136.606 102.219 137.92 102.219ZM149.231 103.121C147.499 103.121 146.362 101.718 146.362 99.585L146.362 99.5723C146.362 97.4268 147.492 96.0366 149.231 96.0366C150.171 96.0366 150.99 96.5063 151.364 97.2363L151.466 97.2363L151.466 93.4404L152.57 93.4404L152.57 103L151.466 103L151.466 101.908L151.364 101.908C150.945 102.67 150.184 103.121 149.231 103.121ZM149.485 102.143C150.729 102.143 151.491 101.166 151.491 99.585L151.491 99.5723C151.491 97.9917 150.729 97.0142 149.485 97.0142C148.235 97.0142 147.492 97.979 147.492 99.5723L147.492 99.585C147.492 101.178 148.235 102.143 149.485 102.143ZM156.569 103.121C155.268 103.121 154.284 102.333 154.284 101.089L154.284 101.077C154.284 99.8579 155.186 99.1533 156.779 99.0581L158.74 98.9375L158.74 98.3154C158.74 97.4712 158.226 97.0142 157.204 97.0142C156.385 97.0142 155.846 97.3188 155.668 97.8521L155.662 97.8711L154.557 97.8711L154.563 97.833C154.741 96.7603 155.782 96.0366 157.242 96.0366C158.912 96.0366 159.845 96.8936 159.845 98.3154L159.845 103L158.74 103L158.74 101.991L158.639 101.991C158.207 102.721 157.49 103.121 156.569 103.121ZM155.414 101.064C155.414 101.756 156.004 102.162 156.798 102.162C157.921 102.162 158.74 101.426 158.74 100.448L158.74 99.8262L156.912 99.9404C155.871 100.004 155.414 100.372 155.414 101.051L155.414 101.064ZM162.193 105.399C162.047 105.399 161.857 105.387 161.705 105.361L161.705 104.454C161.838 104.479 162.009 104.485 162.162 104.485C162.79 104.485 163.171 104.2 163.418 103.413L163.545 103.006L161.013 96.1572L162.193 96.1572L164.072 101.788L164.174 101.788L166.046 96.1572L167.208 96.1572L164.536 103.419C163.971 104.955 163.406 105.399 162.193 105.399ZM170.826 103.121C169.303 103.121 168.255 102.384 168.128 101.254L169.258 101.254C169.442 101.826 169.988 102.2 170.864 102.2C171.785 102.2 172.438 101.762 172.438 101.14L172.438 101.127C172.438 100.664 172.089 100.34 171.245 100.137L170.185 99.8833C168.903 99.5786 168.325 99.02 168.325 98.0361L168.325 98.0298C168.325 96.8936 169.417 96.0366 170.871 96.0366C172.305 96.0366 173.302 96.7539 173.454 97.8711L172.369 97.8711C172.223 97.3315 171.689 96.957 170.864 96.957C170.052 96.957 169.455 97.376 169.455 97.979L169.455 97.9917C169.455 98.4551 169.798 98.7471 170.604 98.9438L171.658 99.1978C172.946 99.5088 173.568 100.067 173.568 101.045L173.568 101.058C173.568 102.276 172.381 103.121 170.826 103.121Z" fill="#50575E"/>
<path d="M99.5215 160L96.4043 151.545L97.5117 151.545L99.9961 158.635L100.09 158.635L102.574 151.545L103.682 151.545L100.564 160L99.5215 160ZM105.059 160L105.059 153.684L106.078 153.684L106.078 160L105.059 160ZM105.574 152.465C105.383 152.465 105.217 152.396 105.076 152.26C104.939 152.119 104.871 151.953 104.871 151.762C104.871 151.566 104.939 151.4 105.076 151.264C105.217 151.127 105.383 151.059 105.574 151.059C105.77 151.059 105.936 151.127 106.072 151.264C106.209 151.4 106.277 151.566 106.277 151.762C106.277 151.953 106.209 152.119 106.072 152.26C105.936 152.396 105.77 152.465 105.574 152.465ZM110.168 160.111C109.699 160.111 109.285 160.041 108.926 159.9C108.566 159.756 108.277 159.555 108.059 159.297C107.844 159.039 107.717 158.736 107.678 158.389L108.721 158.389C108.807 158.65 108.975 158.861 109.225 159.021C109.475 159.182 109.801 159.262 110.203 159.262C110.488 159.262 110.738 159.221 110.953 159.139C111.172 159.053 111.344 158.937 111.469 158.793C111.594 158.645 111.656 158.475 111.656 158.283L111.656 158.271C111.656 158.057 111.57 157.875 111.398 157.727C111.227 157.574 110.945 157.451 110.555 157.357L109.576 157.123C109.182 157.029 108.857 156.908 108.604 156.76C108.35 156.607 108.162 156.422 108.041 156.203C107.92 155.98 107.859 155.719 107.859 155.418L107.859 155.412C107.859 155.061 107.961 154.746 108.164 154.469C108.371 154.191 108.652 153.973 109.008 153.812C109.363 153.652 109.764 153.572 110.209 153.572C110.65 153.572 111.041 153.643 111.381 153.783C111.725 153.92 112 154.115 112.207 154.369C112.418 154.623 112.547 154.922 112.594 155.266L111.592 155.266C111.525 155.016 111.373 154.812 111.135 154.656C110.896 154.5 110.586 154.422 110.203 154.422C109.953 154.422 109.73 154.463 109.535 154.545C109.34 154.623 109.186 154.732 109.072 154.873C108.959 155.014 108.902 155.178 108.902 155.365L108.902 155.377C108.902 155.518 108.939 155.643 109.014 155.752C109.088 155.861 109.203 155.957 109.359 156.039C109.516 156.121 109.717 156.193 109.963 156.256L110.936 156.49C111.529 156.635 111.971 156.842 112.26 157.111C112.553 157.381 112.699 157.742 112.699 158.195L112.699 158.207C112.699 158.582 112.588 158.914 112.365 159.203C112.143 159.488 111.84 159.711 111.457 159.871C111.078 160.031 110.648 160.111 110.168 160.111ZM114.305 160L114.305 153.684L115.324 153.684L115.324 160L114.305 160ZM114.82 152.465C114.629 152.465 114.463 152.396 114.322 152.26C114.186 152.119 114.117 151.953 114.117 151.762C114.117 151.566 114.186 151.4 114.322 151.264C114.463 151.127 114.629 151.059 114.82 151.059C115.016 151.059 115.182 151.127 115.318 151.264C115.455 151.4 115.523 151.566 115.523 151.762C115.523 151.953 115.455 152.119 115.318 152.26C115.182 152.396 115.016 152.465 114.82 152.465ZM119.49 160.047C118.842 160.047 118.371 159.916 118.078 159.654C117.789 159.393 117.645 158.961 117.645 158.359L117.645 154.527L116.648 154.527L116.648 153.684L117.645 153.684L117.645 152.049L118.699 152.049L118.699 153.684L120.082 153.684L120.082 154.527L118.699 154.527L118.699 158.102C118.699 158.473 118.77 158.74 118.91 158.904C119.051 159.064 119.285 159.145 119.613 159.145C119.703 159.145 119.779 159.143 119.842 159.139C119.908 159.135 119.988 159.129 120.082 159.121L120.082 159.988C119.984 160.004 119.887 160.018 119.789 160.029C119.691 160.041 119.592 160.047 119.49 160.047ZM124.119 160.111C123.521 160.111 123.004 159.98 122.566 159.719C122.133 159.453 121.797 159.076 121.559 158.588C121.324 158.1 121.207 157.52 121.207 156.848L121.207 156.836C121.207 156.16 121.324 155.578 121.559 155.09C121.797 154.602 122.133 154.227 122.566 153.965C123.004 153.703 123.521 153.572 124.119 153.572C124.721 153.572 125.238 153.703 125.672 153.965C126.105 154.227 126.439 154.602 126.674 155.09C126.912 155.578 127.031 156.16 127.031 156.836L127.031 156.848C127.031 157.52 126.912 158.1 126.674 158.588C126.439 159.076 126.105 159.453 125.672 159.719C125.238 159.98 124.721 160.111 124.119 160.111ZM124.119 159.209C124.518 159.209 124.855 159.115 125.133 158.928C125.41 158.74 125.621 158.471 125.766 158.119C125.914 157.768 125.988 157.344 125.988 156.848L125.988 156.836C125.988 156.336 125.914 155.91 125.766 155.559C125.621 155.207 125.41 154.939 125.133 154.756C124.855 154.568 124.518 154.475 124.119 154.475C123.721 154.475 123.383 154.568 123.105 154.756C122.828 154.939 122.615 155.207 122.467 155.559C122.322 155.91 122.25 156.336 122.25 156.836L122.25 156.848C122.25 157.344 122.322 157.768 122.467 158.119C122.615 158.471 122.828 158.74 123.105 158.928C123.383 159.115 123.721 159.209 124.119 159.209ZM128.613 160L128.613 153.684L129.633 153.684L129.633 154.621L129.727 154.621C129.848 154.289 130.053 154.031 130.342 153.848C130.631 153.664 130.988 153.572 131.414 153.572C131.512 153.572 131.607 153.578 131.701 153.59C131.799 153.598 131.873 153.605 131.924 153.613L131.924 154.604C131.818 154.584 131.715 154.57 131.613 154.562C131.516 154.551 131.41 154.545 131.297 154.545C130.973 154.545 130.686 154.609 130.436 154.738C130.186 154.867 129.988 155.047 129.844 155.277C129.703 155.508 129.633 155.777 129.633 156.086L129.633 160L128.613 160ZM135.234 160.111C134.766 160.111 134.352 160.041 133.992 159.9C133.633 159.756 133.344 159.555 133.125 159.297C132.91 159.039 132.783 158.736 132.744 158.389L133.787 158.389C133.873 158.65 134.041 158.861 134.291 159.021C134.541 159.182 134.867 159.262 135.27 159.262C135.555 159.262 135.805 159.221 136.02 159.139C136.238 159.053 136.41 158.937 136.535 158.793C136.66 158.645 136.723 158.475 136.723 158.283L136.723 158.271C136.723 158.057 136.637 157.875 136.465 157.727C136.293 157.574 136.012 157.451 135.621 157.357L134.643 157.123C134.248 157.029 133.924 156.908 133.67 156.76C133.416 156.607 133.229 156.422 133.107 156.203C132.986 155.98 132.926 155.719 132.926 155.418L132.926 155.412C132.926 155.061 133.027 154.746 133.23 154.469C133.438 154.191 133.719 153.973 134.074 153.812C134.43 153.652 134.83 153.572 135.275 153.572C135.717 153.572 136.107 153.643 136.447 153.783C136.791 153.92 137.066 154.115 137.273 154.369C137.484 154.623 137.613 154.922 137.66 155.266L136.658 155.266C136.592 155.016 136.439 154.812 136.201 154.656C135.963 154.5 135.652 154.422 135.27 154.422C135.02 154.422 134.797 154.463 134.602 154.545C134.406 154.623 134.252 154.732 134.139 154.873C134.025 155.014 133.969 155.178 133.969 155.365L133.969 155.377C133.969 155.518 134.006 155.643 134.08 155.752C134.154 155.861 134.27 155.957 134.426 156.039C134.582 156.121 134.783 156.193 135.029 156.256L136.002 156.49C136.596 156.635 137.037 156.842 137.326 157.111C137.619 157.381 137.766 157.742 137.766 158.195L137.766 158.207C137.766 158.582 137.654 158.914 137.432 159.203C137.209 159.488 136.906 159.711 136.523 159.871C136.145 160.031 135.715 160.111 135.234 160.111Z" fill="#50575E"/>
<path d="M105.797 195.375C104.297 195.375 102.969 195.094 101.813 194.531C100.656 193.969 99.7292 193.203 99.0313 192.234C98.3438 191.266 97.9479 190.167 97.8438 188.937L97.8281 188.734L101.125 188.734L101.141 188.859C101.245 189.536 101.505 190.151 101.922 190.703C102.349 191.255 102.896 191.693 103.563 192.016C104.24 192.328 104.995 192.484 105.828 192.484C106.786 192.484 107.63 192.281 108.359 191.875C109.089 191.469 109.656 190.906 110.063 190.187C110.479 189.458 110.688 188.625 110.688 187.687L110.688 187.656C110.688 186.729 110.479 185.911 110.063 185.203C109.646 184.495 109.073 183.937 108.344 183.531C107.625 183.125 106.797 182.922 105.859 182.922C105.161 182.922 104.516 183.026 103.922 183.234C103.328 183.432 102.797 183.734 102.328 184.141C102.13 184.318 101.938 184.516 101.75 184.734C101.563 184.953 101.401 185.187 101.266 185.437L98.2344 185.437L99.3594 172.453L112.75 172.453L112.75 175.375L102.141 175.375L101.453 182.547L101.531 182.547C101.865 182.036 102.286 181.604 102.797 181.25C103.318 180.896 103.901 180.63 104.547 180.453C105.203 180.266 105.901 180.172 106.641 180.172C108.078 180.172 109.354 180.495 110.469 181.141C111.583 181.776 112.458 182.651 113.094 183.766C113.74 184.88 114.063 186.156 114.063 187.594L114.063 187.625C114.063 189.146 113.708 190.49 113 191.656C112.302 192.823 111.328 193.734 110.078 194.391C108.839 195.047 107.411 195.375 105.797 195.375ZM125.016 195.375C123.359 195.375 121.891 195.099 120.609 194.547C119.339 193.995 118.339 193.234 117.609 192.266C116.891 191.286 116.531 190.161 116.531 188.891L116.531 188.859C116.531 187.911 116.74 187.047 117.156 186.266C117.573 185.474 118.156 184.807 118.906 184.266C119.656 183.714 120.516 183.333 121.484 183.125L121.484 183.047C120.234 182.682 119.229 182.057 118.469 181.172C117.719 180.286 117.344 179.25 117.344 178.062L117.344 178.031C117.344 176.885 117.672 175.865 118.328 174.969C118.984 174.073 119.891 173.37 121.047 172.859C122.203 172.339 123.526 172.078 125.016 172.078C126.505 172.078 127.828 172.339 128.984 172.859C130.141 173.37 131.047 174.073 131.703 174.969C132.359 175.865 132.688 176.885 132.688 178.031L132.688 178.062C132.688 179.25 132.313 180.286 131.563 181.172C130.813 182.057 129.807 182.682 128.547 183.047L128.547 183.125C129.526 183.333 130.385 183.714 131.125 184.266C131.875 184.807 132.458 185.474 132.875 186.266C133.292 187.047 133.5 187.911 133.5 188.859L133.5 188.891C133.5 190.161 133.141 191.286 132.422 192.266C131.703 193.234 130.703 193.995 129.422 194.547C128.141 195.099 126.672 195.375 125.016 195.375ZM125.016 192.594C125.984 192.594 126.839 192.427 127.578 192.094C128.318 191.76 128.901 191.297 129.328 190.703C129.755 190.109 129.969 189.432 129.969 188.672L129.969 188.641C129.969 187.87 129.755 187.187 129.328 186.594C128.911 185.99 128.328 185.521 127.578 185.187C126.839 184.844 125.984 184.672 125.016 184.672C124.047 184.672 123.188 184.844 122.438 185.187C121.698 185.521 121.115 185.99 120.688 186.594C120.271 187.187 120.063 187.87 120.063 188.641L120.063 188.672C120.063 189.432 120.276 190.109 120.703 190.703C121.13 191.297 121.714 191.76 122.453 192.094C123.203 192.427 124.057 192.594 125.016 192.594ZM125.016 181.875C125.859 181.875 126.599 181.729 127.234 181.437C127.87 181.135 128.365 180.719 128.719 180.187C129.083 179.656 129.266 179.047 129.266 178.359L129.266 178.328C129.266 177.641 129.083 177.036 128.719 176.516C128.365 175.984 127.865 175.573 127.219 175.281C126.583 174.979 125.849 174.828 125.016 174.828C124.172 174.828 123.432 174.979 122.797 175.281C122.161 175.573 121.661 175.984 121.297 176.516C120.943 177.036 120.766 177.641 120.766 178.328L120.766 178.359C120.766 179.047 120.943 179.656 121.297 180.187C121.661 180.719 122.161 181.135 122.797 181.437C123.432 181.729 124.172 181.875 125.016 181.875ZM144.797 195.375C143.016 195.375 141.484 194.901 140.203 193.953C138.922 193.005 137.938 191.661 137.25 189.922C136.563 188.182 136.219 186.12 136.219 183.734L136.219 183.703C136.219 181.318 136.563 179.255 137.25 177.516C137.938 175.776 138.922 174.437 140.203 173.5C141.484 172.552 143.016 172.078 144.797 172.078C146.589 172.078 148.125 172.552 149.406 173.5C150.688 174.437 151.672 175.776 152.359 177.516C153.047 179.255 153.391 181.318 153.391 183.703L153.391 183.734C153.391 186.12 153.047 188.182 152.359 189.922C151.672 191.661 150.688 193.005 149.406 193.953C148.125 194.901 146.589 195.375 144.797 195.375ZM144.797 192.484C145.88 192.484 146.802 192.135 147.563 191.437C148.323 190.729 148.906 189.719 149.313 188.406C149.719 187.094 149.922 185.536 149.922 183.734L149.922 183.703C149.922 181.901 149.719 180.349 149.313 179.047C148.906 177.734 148.323 176.729 147.563 176.031C146.802 175.333 145.88 174.984 144.797 174.984C143.724 174.984 142.807 175.333 142.047 176.031C141.286 176.729 140.703 177.734 140.297 179.047C139.901 180.349 139.703 181.901 139.703 183.703L139.703 183.734C139.703 185.536 139.901 187.094 140.297 188.406C140.703 189.719 141.286 190.729 142.047 191.437C142.807 192.135 143.724 192.484 144.797 192.484Z" fill="#101517"/>
<path d="M251.521 160L248.404 151.545L249.512 151.545L251.996 158.635L252.09 158.635L254.574 151.545L255.682 151.545L252.564 160L251.521 160ZM257.059 160L257.059 153.684L258.078 153.684L258.078 160L257.059 160ZM257.574 152.465C257.383 152.465 257.217 152.396 257.076 152.26C256.939 152.119 256.871 151.953 256.871 151.762C256.871 151.566 256.939 151.4 257.076 151.264C257.217 151.127 257.383 151.059 257.574 151.059C257.77 151.059 257.936 151.127 258.072 151.264C258.209 151.4 258.277 151.566 258.277 151.762C258.277 151.953 258.209 152.119 258.072 152.26C257.936 152.396 257.77 152.465 257.574 152.465ZM262.578 160.111C261.977 160.111 261.459 159.979 261.025 159.713C260.596 159.447 260.264 159.072 260.029 158.588C259.799 158.1 259.684 157.525 259.684 156.865L259.684 156.859C259.684 156.207 259.799 155.635 260.029 155.143C260.264 154.65 260.594 154.266 261.02 153.988C261.445 153.711 261.943 153.572 262.514 153.572C263.088 153.572 263.58 153.705 263.99 153.971C264.404 154.236 264.721 154.607 264.939 155.084C265.162 155.557 265.273 156.107 265.273 156.736L265.273 157.135L260.211 157.135L260.211 156.32L264.752 156.32L264.248 157.064L264.248 156.66C264.248 156.164 264.174 155.756 264.025 155.436C263.877 155.115 263.672 154.877 263.41 154.721C263.148 154.561 262.848 154.48 262.508 154.48C262.168 154.48 261.863 154.564 261.594 154.732C261.328 154.896 261.117 155.141 260.961 155.465C260.805 155.789 260.727 156.187 260.727 156.66L260.727 157.064C260.727 157.514 260.803 157.898 260.955 158.219C261.107 158.535 261.324 158.779 261.605 158.951C261.887 159.119 262.219 159.203 262.602 159.203C262.887 159.203 263.135 159.164 263.346 159.086C263.557 159.008 263.73 158.908 263.867 158.787C264.004 158.666 264.1 158.543 264.154 158.418L264.178 158.365L265.197 158.365L265.186 158.412C265.131 158.627 265.033 158.836 264.893 159.039C264.756 159.238 264.578 159.42 264.359 159.584C264.141 159.744 263.881 159.873 263.58 159.971C263.283 160.064 262.949 160.111 262.578 160.111ZM268.074 160L266.305 153.684L267.324 153.684L268.566 158.734L268.66 158.734L270.072 153.684L271.039 153.684L272.451 158.734L272.545 158.734L273.787 153.684L274.801 153.684L273.031 160L272.006 160L270.594 155.113L270.5 155.113L269.094 160L268.074 160ZM278.141 160.111C277.672 160.111 277.258 160.041 276.898 159.9C276.539 159.756 276.25 159.555 276.031 159.297C275.816 159.039 275.689 158.736 275.65 158.389L276.693 158.389C276.779 158.65 276.947 158.861 277.197 159.021C277.447 159.182 277.773 159.262 278.176 159.262C278.461 159.262 278.711 159.221 278.926 159.139C279.145 159.053 279.316 158.937 279.441 158.793C279.566 158.645 279.629 158.475 279.629 158.283L279.629 158.271C279.629 158.057 279.543 157.875 279.371 157.727C279.199 157.574 278.918 157.451 278.527 157.357L277.549 157.123C277.154 157.029 276.83 156.908 276.576 156.76C276.322 156.607 276.135 156.422 276.014 156.203C275.893 155.98 275.832 155.719 275.832 155.418L275.832 155.412C275.832 155.061 275.934 154.746 276.137 154.469C276.344 154.191 276.625 153.973 276.98 153.812C277.336 153.652 277.736 153.572 278.182 153.572C278.623 153.572 279.014 153.643 279.354 153.783C279.697 153.92 279.973 154.115 280.18 154.369C280.391 154.623 280.52 154.922 280.566 155.266L279.564 155.266C279.498 155.016 279.346 154.812 279.107 154.656C278.869 154.5 278.559 154.422 278.176 154.422C277.926 154.422 277.703 154.463 277.508 154.545C277.313 154.623 277.158 154.732 277.045 154.873C276.932 155.014 276.875 155.178 276.875 155.365L276.875 155.377C276.875 155.518 276.912 155.643 276.986 155.752C277.061 155.861 277.176 155.957 277.332 156.039C277.488 156.121 277.689 156.193 277.936 156.256L278.908 156.49C279.502 156.635 279.943 156.842 280.232 157.111C280.525 157.381 280.672 157.742 280.672 158.195L280.672 158.207C280.672 158.582 280.561 158.914 280.338 159.203C280.115 159.488 279.813 159.711 279.43 159.871C279.051 160.031 278.621 160.111 278.141 160.111Z" fill="#50575E"/>
<path d="M257.609 195.375C256.005 195.375 254.604 195.109 253.406 194.578C252.208 194.036 251.26 193.292 250.563 192.344C249.875 191.396 249.479 190.307 249.375 189.078L249.359 188.891L252.656 188.891L252.688 189.047C252.76 189.724 253.005 190.323 253.422 190.844C253.849 191.354 254.417 191.755 255.125 192.047C255.844 192.339 256.672 192.484 257.609 192.484C258.536 192.484 259.344 192.328 260.031 192.016C260.729 191.693 261.271 191.25 261.656 190.687C262.052 190.125 262.25 189.479 262.25 188.75L262.25 188.719C262.25 187.437 261.813 186.453 260.938 185.766C260.073 185.078 258.885 184.734 257.375 184.734L254.625 184.734L254.625 182.016L257.266 182.016C258.13 182.016 258.885 181.859 259.531 181.547C260.188 181.234 260.698 180.807 261.063 180.266C261.427 179.724 261.609 179.099 261.609 178.391L261.609 178.359C261.609 177.63 261.453 177.01 261.141 176.5C260.828 175.979 260.37 175.583 259.766 175.312C259.161 175.042 258.432 174.906 257.578 174.906C256.745 174.906 256 175.047 255.344 175.328C254.698 175.599 254.177 175.995 253.781 176.516C253.396 177.026 253.167 177.63 253.094 178.328L253.078 178.484L249.828 178.484L249.844 178.312C249.958 177.062 250.349 175.969 251.016 175.031C251.693 174.094 252.589 173.37 253.703 172.859C254.818 172.339 256.109 172.078 257.578 172.078C259.078 172.078 260.38 172.328 261.484 172.828C262.599 173.318 263.458 174 264.063 174.875C264.677 175.75 264.984 176.766 264.984 177.922L264.984 177.953C264.984 178.88 264.776 179.703 264.359 180.422C263.953 181.141 263.391 181.74 262.672 182.219C261.964 182.687 261.151 183.016 260.234 183.203L260.234 183.281C261.891 183.417 263.224 183.964 264.234 184.922C265.245 185.88 265.75 187.151 265.75 188.734L265.75 188.766C265.75 190.047 265.401 191.187 264.703 192.187C264.016 193.187 263.057 193.969 261.828 194.531C260.609 195.094 259.203 195.375 257.609 195.375ZM269.094 195L269.094 192.625L277.047 184.625C278.047 183.615 278.807 182.781 279.328 182.125C279.859 181.458 280.219 180.865 280.406 180.344C280.604 179.812 280.703 179.25 280.703 178.656L280.703 178.625C280.703 177.906 280.536 177.271 280.203 176.719C279.87 176.156 279.406 175.719 278.813 175.406C278.219 175.094 277.536 174.937 276.766 174.937C275.891 174.937 275.109 175.12 274.422 175.484C273.734 175.849 273.193 176.339 272.797 176.953C272.401 177.568 272.198 178.255 272.188 179.016L272.188 179.125L268.906 179.125L268.906 179.016C268.906 177.672 269.25 176.479 269.938 175.437C270.635 174.385 271.578 173.562 272.766 172.969C273.953 172.375 275.276 172.078 276.734 172.078C278.172 172.078 279.443 172.354 280.547 172.906C281.661 173.458 282.536 174.219 283.172 175.187C283.807 176.146 284.125 177.229 284.125 178.437L284.125 178.469C284.125 179.323 283.964 180.135 283.641 180.906C283.328 181.677 282.792 182.531 282.031 183.469C281.281 184.396 280.229 185.531 278.875 186.875L272.563 193.094L273.719 190.875L273.719 193.094L272.578 192.078L284.469 192.078L284.469 195L269.094 195ZM295.766 195.375C293.984 195.375 292.453 194.901 291.172 193.953C289.891 193.005 288.906 191.661 288.219 189.922C287.531 188.182 287.188 186.12 287.188 183.734L287.188 183.703C287.188 181.318 287.531 179.255 288.219 177.516C288.906 175.776 289.891 174.437 291.172 173.5C292.453 172.552 293.984 172.078 295.766 172.078C297.557 172.078 299.094 172.552 300.375 173.5C301.656 174.437 302.641 175.776 303.328 177.516C304.016 179.255 304.359 181.318 304.359 183.703L304.359 183.734C304.359 186.12 304.016 188.182 303.328 189.922C302.641 191.661 301.656 193.005 300.375 193.953C299.094 194.901 297.557 195.375 295.766 195.375ZM295.766 192.484C296.849 192.484 297.771 192.135 298.531 191.437C299.292 190.729 299.875 189.719 300.281 188.406C300.688 187.094 300.891 185.536 300.891 183.734L300.891 183.703C300.891 181.901 300.688 180.349 300.281 179.047C299.875 177.734 299.292 176.729 298.531 176.031C297.771 175.333 296.849 174.984 295.766 174.984C294.693 174.984 293.776 175.333 293.016 176.031C292.255 176.729 291.672 177.734 291.266 179.047C290.87 180.349 290.672 181.901 290.672 183.703L290.672 183.734C290.672 185.536 290.87 187.094 291.266 188.406C291.672 189.719 292.255 190.729 293.016 191.437C293.776 192.135 294.693 192.484 295.766 192.484ZM315.703 195.375C313.922 195.375 312.391 194.901 311.109 193.953C309.828 193.005 308.844 191.661 308.156 189.922C307.469 188.182 307.125 186.12 307.125 183.734L307.125 183.703C307.125 181.318 307.469 179.255 308.156 177.516C308.844 175.776 309.828 174.437 311.109 173.5C312.391 172.552 313.922 172.078 315.703 172.078C317.495 172.078 319.031 172.552 320.313 173.5C321.594 174.437 322.578 175.776 323.266 177.516C323.953 179.255 324.297 181.318 324.297 183.703L324.297 183.734C324.297 186.12 323.953 188.182 323.266 189.922C322.578 191.661 321.594 193.005 320.313 193.953C319.031 194.901 317.495 195.375 315.703 195.375ZM315.703 192.484C316.786 192.484 317.708 192.135 318.469 191.437C319.229 190.729 319.813 189.719 320.219 188.406C320.625 187.094 320.828 185.536 320.828 183.734L320.828 183.703C320.828 181.901 320.625 180.349 320.219 179.047C319.813 177.734 319.229 176.729 318.469 176.031C317.708 175.333 316.786 174.984 315.703 174.984C314.63 174.984 313.714 175.333 312.953 176.031C312.193 176.729 311.609 177.734 311.203 179.047C310.807 180.349 310.609 181.901 310.609 183.703L310.609 183.734C310.609 185.536 310.807 187.094 311.203 188.406C311.609 189.719 312.193 190.729 312.953 191.437C313.714 192.135 314.63 192.484 315.703 192.484Z" fill="#101517"/>
</g>
</g>
<g filter="url(#filter1_dddd_8945_1051)">
<rect x="376" y="52" width="64" height="64" rx="4" fill="#2CA7EE" shape-rendering="crispEdges"/>
<path d="M393.742 91.5083C393.852 91.6299 393.986 91.7284 394.134 91.7984C394.283 91.8684 394.444 91.9084 394.608 91.9161C394.772 91.9239 394.936 91.8992 395.091 91.8435C395.245 91.7879 395.387 91.7023 395.509 91.5917L403.85 84.0083L410.557 89.8767L418.417 82.0183V87.3333H420.917V77.75H411.334V80.25H416.65L410.444 86.455L403.817 80.6583L393.825 89.7417C393.704 89.8521 393.605 89.9855 393.535 90.1341C393.465 90.2827 393.425 90.4437 393.417 90.6077C393.41 90.7718 393.434 90.9358 393.49 91.0903C393.546 91.2449 393.631 91.3869 393.742 91.5083Z" fill="black"/>
</g>
</g>
<defs>
<filter id="filter0_dddd_8945_1051" x="64" y="37" width="360" height="217" filterUnits="userSpaceOnUse" color-interpolation-filters="sRGB">
<feFlood flood-opacity="0" result="BackgroundImageFix"/>
<feColorMatrix in="SourceAlpha" type="matrix" values="0 0 0 0 0 0 0 0 0 0 0 0 0 0 0 0 0 0 127 0" result="hardAlpha"/>
<feOffset dy="16"/>
<feGaussianBlur stdDeviation="8"/>
<feComposite in2="hardAlpha" operator="out"/>
<feColorMatrix type="matrix" values="0 0 0 0 0 0 0 0 0 0 0 0 0 0 0 0 0 0 0.02 0"/>
<feBlend mode="normal" in2="BackgroundImageFix" result="effect1_dropShadow_8945_1051"/>
<feColorMatrix in="SourceAlpha" type="matrix" values="0 0 0 0 0 0 0 0 0 0 0 0 0 0 0 0 0 0 127 0" result="hardAlpha"/>
<feOffset dy="4"/>
<feGaussianBlur stdDeviation="2.5"/>
<feComposite in2="hardAlpha" operator="out"/>
<feColorMatrix type="matrix" values="0 0 0 0 0 0 0 0 0 0 0 0 0 0 0 0 0 0 0.03 0"/>
<feBlend mode="normal" in2="effect1_dropShadow_8945_1051" result="effect2_dropShadow_8945_1051"/>
<feColorMatrix in="SourceAlpha" type="matrix" values="0 0 0 0 0 0 0 0 0 0 0 0 0 0 0 0 0 0 127 0" result="hardAlpha"/>
<feOffset dy="4"/>
<feGaussianBlur stdDeviation="2.5"/>
<feComposite in2="hardAlpha" operator="out"/>
<feColorMatrix type="matrix" values="0 0 0 0 0 0 0 0 0 0 0 0 0 0 0 0 0 0 0.04 0"/>
<feBlend mode="normal" in2="effect2_dropShadow_8945_1051" result="effect3_dropShadow_8945_1051"/>
<feColorMatrix in="SourceAlpha" type="matrix" values="0 0 0 0 0 0 0 0 0 0 0 0 0 0 0 0 0 0 127 0" result="hardAlpha"/>
<feOffset dy="2"/>
<feGaussianBlur stdDeviation="1.5"/>
<feComposite in2="hardAlpha" operator="out"/>
<feColorMatrix type="matrix" values="0 0 0 0 0 0 0 0 0 0 0 0 0 0 0 0 0 0 0.05 0"/>
<feBlend mode="normal" in2="effect3_dropShadow_8945_1051" result="effect4_dropShadow_8945_1051"/>
<feBlend mode="normal" in="SourceGraphic" in2="effect4_dropShadow_8945_1051" result="shape"/>
</filter>
<filter id="filter1_dddd_8945_1051" x="372" y="51" width="72" height="73" filterUnits="userSpaceOnUse" color-interpolation-filters="sRGB">
<feFlood flood-opacity="0" result="BackgroundImageFix"/>
<feColorMatrix in="SourceAlpha" type="matrix" values="0 0 0 0 0 0 0 0 0 0 0 0 0 0 0 0 0 0 127 0" result="hardAlpha"/>
<feOffset dy="4"/>
<feGaussianBlur stdDeviation="2"/>
<feComposite in2="hardAlpha" operator="out"/>
<feColorMatrix type="matrix" values="0 0 0 0 0 0 0 0 0 0 0 0 0 0 0 0 0 0 0.01 0"/>
<feBlend mode="normal" in2="BackgroundImageFix" result="effect1_dropShadow_8945_1051"/>
<feColorMatrix in="SourceAlpha" type="matrix" values="0 0 0 0 0 0 0 0 0 0 0 0 0 0 0 0 0 0 127 0" result="hardAlpha"/>
<feOffset dy="3"/>
<feGaussianBlur stdDeviation="1.5"/>
<feComposite in2="hardAlpha" operator="out"/>
<feColorMatrix type="matrix" values="0 0 0 0 0 0 0 0 0 0 0 0 0 0 0 0 0 0 0.02 0"/>
<feBlend mode="normal" in2="effect1_dropShadow_8945_1051" result="effect2_dropShadow_8945_1051"/>
<feColorMatrix in="SourceAlpha" type="matrix" values="0 0 0 0 0 0 0 0 0 0 0 0 0 0 0 0 0 0 127 0" result="hardAlpha"/>
<feOffset dy="1"/>
<feGaussianBlur stdDeviation="1"/>
<feComposite in2="hardAlpha" operator="out"/>
<feColorMatrix type="matrix" values="0 0 0 0 0 0 0 0 0 0 0 0 0 0 0 0 0 0 0.02 0"/>
<feBlend mode="normal" in2="effect2_dropShadow_8945_1051" result="effect3_dropShadow_8945_1051"/>
<feColorMatrix in="SourceAlpha" type="matrix" values="0 0 0 0 0 0 0 0 0 0 0 0 0 0 0 0 0 0 127 0" result="hardAlpha"/>
<feOffset dy="1"/>
<feGaussianBlur stdDeviation="0.5"/>
<feComposite in2="hardAlpha" operator="out"/>
<feColorMatrix type="matrix" values="0 0 0 0 0 0 0 0 0 0 0 0 0 0 0 0 0 0 0.03 0"/>
<feBlend mode="normal" in2="effect3_dropShadow_8945_1051" result="effect4_dropShadow_8945_1051"/>
<feBlend mode="normal" in="SourceGraphic" in2="effect4_dropShadow_8945_1051" result="shape"/>
</filter>
<clipPath id="clip0_8945_1051">
<rect width="488" height="260" fill="white"/>
</clipPath>
<clipPath id="clip1_8945_1051">
<rect x="80" y="38" width="328" height="184" rx="4" fill="white"/>
</clipPath>
</defs>
</svg>
