<svg width="488" height="260" viewBox="0 0 488 260" fill="none" xmlns="http://www.w3.org/2000/svg">
<g clip-path="url(#clip0_8800_4303)">
<rect width="488" height="260" fill="#CFECFE"/>
<circle cx="460.069" cy="394.489" r="391.125" stroke="#5AB7E8" stroke-width="1.61206"/>
<circle cx="90.4713" cy="253.4" r="55.7838" fill="#2CA7EE"/>
<circle cx="285.127" cy="173.2" r="55.7838" fill="#2CA7EE"/>
<circle cx="323.817" cy="21.2641" r="55.7838" fill="#2CA7EE"/>
<circle cx="78.7838" cy="-16.2162" r="55.7838" fill="#2CA7EE"/>
<g opacity="0.4" filter="url(#filter0_dddd_8800_4303)">
<rect x="112" y="86" width="264" height="72" rx="4" fill="white"/>
</g>
<g opacity="0.6" filter="url(#filter1_dddd_8800_4303)">
<rect x="96" y="94" width="296" height="72" rx="4" fill="white"/>
</g>
<g filter="url(#filter2_dddd_8800_4303)">
<rect x="80" y="102" width="328" height="72" rx="4" fill="white" shape-rendering="crispEdges"/>
<path d="M96.4785 143L100.04 133.136H101.694L105.256 143H103.643L102.754 140.334H98.9805L98.085 143H96.4785ZM100.806 134.865L99.3906 139.104H102.344L100.922 134.865H100.806ZM106.869 143V132.664H108.353V143H106.869ZM113.678 143.144C111.504 143.144 110.191 141.66 110.191 139.309V139.302C110.191 136.984 111.531 135.433 113.603 135.433C115.674 135.433 116.945 136.93 116.945 139.158V139.678H111.682C111.709 141.1 112.488 141.927 113.712 141.927C114.662 141.927 115.229 141.455 115.407 141.072L115.435 141.018L116.863 141.011L116.85 141.072C116.604 142.05 115.578 143.144 113.678 143.144ZM113.609 136.649C112.598 136.649 111.832 137.34 111.702 138.618H115.476C115.359 137.292 114.614 136.649 113.609 136.649ZM117.848 143L120.315 139.302L117.827 135.576H119.543L121.143 138.229H121.259L122.845 135.576H124.485L122.031 139.24L124.513 143H122.824L121.197 140.32H121.088L119.461 143H117.848ZM134.097 143.239C131.355 143.239 129.646 141.257 129.646 138.078V138.064C129.646 134.879 131.349 132.896 134.09 132.896C136.264 132.896 137.932 134.271 138.191 136.232L138.185 136.267H136.667V136.246C136.38 135.036 135.389 134.25 134.09 134.25C132.319 134.25 131.212 135.72 131.212 138.064V138.078C131.212 140.416 132.319 141.886 134.097 141.886C135.402 141.886 136.38 141.188 136.66 140.074L136.674 140.047H138.191V140.088C137.904 141.981 136.298 143.239 134.097 143.239ZM140.105 143V132.664H141.589V136.704H141.698C142.061 135.911 142.771 135.433 143.852 135.433C145.513 135.433 146.429 136.424 146.429 138.194V143H144.952V138.543C144.952 137.312 144.439 136.704 143.353 136.704C142.266 136.704 141.589 137.449 141.589 138.646V143H140.105ZM150.537 143.123C149.122 143.123 148.076 142.262 148.076 140.915V140.901C148.076 139.575 149.074 138.803 150.845 138.693L152.854 138.577V137.921C152.854 137.107 152.342 136.656 151.337 136.656C150.517 136.656 149.977 136.957 149.799 137.483L149.792 137.511H148.363L148.37 137.463C148.548 136.246 149.717 135.433 151.405 135.433C153.271 135.433 154.324 136.362 154.324 137.921V143H152.854V141.947H152.738C152.301 142.699 151.521 143.123 150.537 143.123ZM149.553 140.854C149.553 141.537 150.134 141.94 150.934 141.94C152.041 141.94 152.854 141.216 152.854 140.259V139.623L151.043 139.739C150.018 139.801 149.553 140.17 149.553 140.84V140.854ZM156.416 145.475V135.576H157.899V136.745H158.009C158.439 135.932 159.253 135.446 160.292 135.446C162.165 135.446 163.368 136.943 163.368 139.281V139.295C163.368 141.646 162.179 143.123 160.292 143.123C159.273 143.123 158.405 142.624 158.009 141.824H157.899V145.475H156.416ZM159.875 141.858C161.112 141.858 161.857 140.888 161.857 139.295V139.281C161.857 137.682 161.112 136.718 159.875 136.718C158.638 136.718 157.872 137.695 157.872 139.281V139.295C157.872 140.881 158.638 141.858 159.875 141.858ZM165.152 143V135.576H166.636V136.718H166.745C167.073 135.904 167.798 135.433 168.769 135.433C169.78 135.433 170.498 135.959 170.826 136.759H170.942C171.318 135.959 172.173 135.433 173.205 135.433C174.702 135.433 175.577 136.335 175.577 137.88V143H174.101V138.235C174.101 137.21 173.636 136.704 172.665 136.704C171.722 136.704 171.1 137.408 171.1 138.304V143H169.623V138.085C169.623 137.237 169.069 136.704 168.194 136.704C167.299 136.704 166.636 137.47 166.636 138.44V143H165.152ZM179.686 143.123C178.271 143.123 177.225 142.262 177.225 140.915V140.901C177.225 139.575 178.223 138.803 179.993 138.693L182.003 138.577V137.921C182.003 137.107 181.49 136.656 180.485 136.656C179.665 136.656 179.125 136.957 178.947 137.483L178.94 137.511H177.512L177.519 137.463C177.696 136.246 178.865 135.433 180.554 135.433C182.42 135.433 183.473 136.362 183.473 137.921V143H182.003V141.947H181.887C181.449 142.699 180.67 143.123 179.686 143.123ZM178.701 140.854C178.701 141.537 179.282 141.94 180.082 141.94C181.189 141.94 182.003 141.216 182.003 140.259V139.623L180.191 139.739C179.166 139.801 178.701 140.17 178.701 140.84V140.854ZM185.564 143V135.576H187.048V136.704H187.157C187.52 135.911 188.23 135.433 189.311 135.433C190.972 135.433 191.888 136.424 191.888 138.194V143H190.411V138.543C190.411 137.312 189.898 136.704 188.812 136.704C187.725 136.704 187.048 137.449 187.048 138.646V143H185.564Z" fill="black"/>
<rect x="289" y="126" width="103" height="24" rx="12" fill="#F5F1E1"/>
<path d="M298.168 143V133.84H299.311V143H298.168ZM301.507 143V136.157H302.611V137.186H302.713C303.056 136.462 303.697 136.037 304.706 136.037C306.242 136.037 307.099 136.944 307.099 138.569V143H305.995V138.836C305.995 137.604 305.487 137.014 304.395 137.014C303.303 137.014 302.611 137.75 302.611 138.95V143H301.507ZM310.781 143L308.248 136.157H309.416L311.289 141.794H311.39L313.263 136.157H314.431L311.898 143H310.781ZM316.475 134.837C316.056 134.837 315.713 134.494 315.713 134.075C315.713 133.656 316.056 133.313 316.475 133.313C316.894 133.313 317.236 133.656 317.236 134.075C317.236 134.494 316.894 134.837 316.475 134.837ZM315.916 143V136.157H317.021V143H315.916ZM321.534 143.051C320.125 143.051 319.534 142.53 319.534 141.223V137.071H318.455V136.157H319.534V134.386H320.677V136.157H322.175V137.071H320.677V140.943C320.677 141.75 320.956 142.073 321.667 142.073C321.864 142.073 321.972 142.067 322.175 142.048V142.987C321.959 143.025 321.75 143.051 321.534 143.051ZM326.517 143.121C324.562 143.121 323.381 141.75 323.381 139.604V139.598C323.381 137.484 324.587 136.037 326.447 136.037C328.307 136.037 329.437 137.42 329.437 139.464V139.896H324.511C324.542 141.312 325.323 142.137 326.542 142.137C327.469 142.137 328.04 141.699 328.224 141.286L328.25 141.229H329.354L329.341 141.28C329.106 142.207 328.129 143.121 326.517 143.121ZM326.44 137.021C325.425 137.021 324.65 137.712 324.53 139.014H328.313C328.199 137.662 327.45 137.021 326.44 137.021ZM334.807 145.285V136.157H335.911V137.249H336.013C336.432 136.487 337.193 136.037 338.146 136.037C339.878 136.037 341.015 137.439 341.015 139.572V139.585C341.015 141.73 339.885 143.121 338.146 143.121C337.206 143.121 336.387 142.651 336.013 141.921H335.911V145.285H334.807ZM337.892 142.143C339.142 142.143 339.885 141.178 339.885 139.585V139.572C339.885 137.979 339.142 137.014 337.892 137.014C336.647 137.014 335.886 137.992 335.886 139.572V139.585C335.886 141.166 336.647 142.143 337.892 142.143ZM345.534 143.121C343.579 143.121 342.398 141.75 342.398 139.604V139.598C342.398 137.484 343.604 136.037 345.464 136.037C347.324 136.037 348.454 137.42 348.454 139.464V139.896H343.528C343.56 141.312 344.341 142.137 345.56 142.137C346.486 142.137 347.058 141.699 347.242 141.286L347.267 141.229H348.372L348.359 141.28C348.124 142.207 347.146 143.121 345.534 143.121ZM345.458 137.021C344.442 137.021 343.668 137.712 343.547 139.014H347.331C347.216 137.662 346.467 137.021 345.458 137.021ZM350.168 143V136.157H351.272V137.186H351.374C351.717 136.462 352.358 136.037 353.367 136.037C354.903 136.037 355.76 136.944 355.76 138.569V143H354.656V138.836C354.656 137.604 354.148 137.014 353.056 137.014C351.964 137.014 351.272 137.75 351.272 138.95V143H350.168ZM360.286 143.121C358.553 143.121 357.417 141.718 357.417 139.585V139.572C357.417 137.427 358.547 136.037 360.286 136.037C361.226 136.037 362.044 136.506 362.419 137.236H362.521V133.44H363.625V143H362.521V141.908H362.419C362 142.67 361.238 143.121 360.286 143.121ZM360.54 142.143C361.784 142.143 362.546 141.166 362.546 139.585V139.572C362.546 137.992 361.784 137.014 360.54 137.014C359.29 137.014 358.547 137.979 358.547 139.572V139.585C358.547 141.178 359.29 142.143 360.54 142.143ZM366.329 134.837C365.91 134.837 365.567 134.494 365.567 134.075C365.567 133.656 365.91 133.313 366.329 133.313C366.748 133.313 367.091 133.656 367.091 134.075C367.091 134.494 366.748 134.837 366.329 134.837ZM365.771 143V136.157H366.875V143H365.771ZM368.957 143V136.157H370.062V137.186H370.163C370.506 136.462 371.147 136.037 372.156 136.037C373.692 136.037 374.549 136.944 374.549 138.569V143H373.445V138.836C373.445 137.604 372.937 137.014 371.845 137.014C370.753 137.014 370.062 137.75 370.062 138.95V143H368.957ZM379.367 145.412C377.717 145.412 376.663 144.669 376.492 143.546L376.504 143.54H377.647L377.653 143.546C377.774 144.066 378.383 144.435 379.367 144.435C380.592 144.435 381.322 143.857 381.322 142.848V141.464H381.221C380.789 142.219 380.015 142.645 379.075 142.645C377.304 142.645 376.206 141.273 376.206 139.356V139.344C376.206 137.427 377.311 136.037 379.101 136.037C380.065 136.037 380.814 136.513 381.233 137.287H381.31V136.157H382.414V142.905C382.414 144.435 381.233 145.412 379.367 145.412ZM379.316 141.667C380.586 141.667 381.348 140.715 381.348 139.356V139.344C381.348 137.985 380.58 137.014 379.316 137.014C378.047 137.014 377.336 137.985 377.336 139.344V139.356C377.336 140.715 378.047 141.667 379.316 141.667Z" fill="#9D6E00"/>
</g>
</g>
<defs>
<filter id="filter0_dddd_8800_4303" x="96" y="85" width="296" height="105" filterUnits="userSpaceOnUse" color-interpolation-filters="sRGB">
<feFlood flood-opacity="0" result="BackgroundImageFix"/>
<feColorMatrix in="SourceAlpha" type="matrix" values="0 0 0 0 0 0 0 0 0 0 0 0 0 0 0 0 0 0 127 0" result="hardAlpha"/>
<feOffset dy="16"/>
<feGaussianBlur stdDeviation="8"/>
<feComposite in2="hardAlpha" operator="out"/>
<feColorMatrix type="matrix" values="0 0 0 0 0 0 0 0 0 0 0 0 0 0 0 0 0 0 0.02 0"/>
<feBlend mode="normal" in2="BackgroundImageFix" result="effect1_dropShadow_8800_4303"/>
<feColorMatrix in="SourceAlpha" type="matrix" values="0 0 0 0 0 0 0 0 0 0 0 0 0 0 0 0 0 0 127 0" result="hardAlpha"/>
<feOffset dy="4"/>
<feGaussianBlur stdDeviation="2.5"/>
<feComposite in2="hardAlpha" operator="out"/>
<feColorMatrix type="matrix" values="0 0 0 0 0 0 0 0 0 0 0 0 0 0 0 0 0 0 0.03 0"/>
<feBlend mode="normal" in2="effect1_dropShadow_8800_4303" result="effect2_dropShadow_8800_4303"/>
<feColorMatrix in="SourceAlpha" type="matrix" values="0 0 0 0 0 0 0 0 0 0 0 0 0 0 0 0 0 0 127 0" result="hardAlpha"/>
<feOffset dy="4"/>
<feGaussianBlur stdDeviation="2.5"/>
<feComposite in2="hardAlpha" operator="out"/>
<feColorMatrix type="matrix" values="0 0 0 0 0 0 0 0 0 0 0 0 0 0 0 0 0 0 0.04 0"/>
<feBlend mode="normal" in2="effect2_dropShadow_8800_4303" result="effect3_dropShadow_8800_4303"/>
<feColorMatrix in="SourceAlpha" type="matrix" values="0 0 0 0 0 0 0 0 0 0 0 0 0 0 0 0 0 0 127 0" result="hardAlpha"/>
<feOffset dy="2"/>
<feGaussianBlur stdDeviation="1.5"/>
<feComposite in2="hardAlpha" operator="out"/>
<feColorMatrix type="matrix" values="0 0 0 0 0 0 0 0 0 0 0 0 0 0 0 0 0 0 0.05 0"/>
<feBlend mode="normal" in2="effect3_dropShadow_8800_4303" result="effect4_dropShadow_8800_4303"/>
<feBlend mode="normal" in="SourceGraphic" in2="effect4_dropShadow_8800_4303" result="shape"/>
</filter>
<filter id="filter1_dddd_8800_4303" x="80" y="93" width="328" height="105" filterUnits="userSpaceOnUse" color-interpolation-filters="sRGB">
<feFlood flood-opacity="0" result="BackgroundImageFix"/>
<feColorMatrix in="SourceAlpha" type="matrix" values="0 0 0 0 0 0 0 0 0 0 0 0 0 0 0 0 0 0 127 0" result="hardAlpha"/>
<feOffset dy="16"/>
<feGaussianBlur stdDeviation="8"/>
<feComposite in2="hardAlpha" operator="out"/>
<feColorMatrix type="matrix" values="0 0 0 0 0 0 0 0 0 0 0 0 0 0 0 0 0 0 0.02 0"/>
<feBlend mode="normal" in2="BackgroundImageFix" result="effect1_dropShadow_8800_4303"/>
<feColorMatrix in="SourceAlpha" type="matrix" values="0 0 0 0 0 0 0 0 0 0 0 0 0 0 0 0 0 0 127 0" result="hardAlpha"/>
<feOffset dy="4"/>
<feGaussianBlur stdDeviation="2.5"/>
<feComposite in2="hardAlpha" operator="out"/>
<feColorMatrix type="matrix" values="0 0 0 0 0 0 0 0 0 0 0 0 0 0 0 0 0 0 0.03 0"/>
<feBlend mode="normal" in2="effect1_dropShadow_8800_4303" result="effect2_dropShadow_8800_4303"/>
<feColorMatrix in="SourceAlpha" type="matrix" values="0 0 0 0 0 0 0 0 0 0 0 0 0 0 0 0 0 0 127 0" result="hardAlpha"/>
<feOffset dy="4"/>
<feGaussianBlur stdDeviation="2.5"/>
<feComposite in2="hardAlpha" operator="out"/>
<feColorMatrix type="matrix" values="0 0 0 0 0 0 0 0 0 0 0 0 0 0 0 0 0 0 0.04 0"/>
<feBlend mode="normal" in2="effect2_dropShadow_8800_4303" result="effect3_dropShadow_8800_4303"/>
<feColorMatrix in="SourceAlpha" type="matrix" values="0 0 0 0 0 0 0 0 0 0 0 0 0 0 0 0 0 0 127 0" result="hardAlpha"/>
<feOffset dy="2"/>
<feGaussianBlur stdDeviation="1.5"/>
<feComposite in2="hardAlpha" operator="out"/>
<feColorMatrix type="matrix" values="0 0 0 0 0 0 0 0 0 0 0 0 0 0 0 0 0 0 0.05 0"/>
<feBlend mode="normal" in2="effect3_dropShadow_8800_4303" result="effect4_dropShadow_8800_4303"/>
<feBlend mode="normal" in="SourceGraphic" in2="effect4_dropShadow_8800_4303" result="shape"/>
</filter>
<filter id="filter2_dddd_8800_4303" x="64" y="101" width="360" height="105" filterUnits="userSpaceOnUse" color-interpolation-filters="sRGB">
<feFlood flood-opacity="0" result="BackgroundImageFix"/>
<feColorMatrix in="SourceAlpha" type="matrix" values="0 0 0 0 0 0 0 0 0 0 0 0 0 0 0 0 0 0 127 0" result="hardAlpha"/>
<feOffset dy="16"/>
<feGaussianBlur stdDeviation="8"/>
<feComposite in2="hardAlpha" operator="out"/>
<feColorMatrix type="matrix" values="0 0 0 0 0 0 0 0 0 0 0 0 0 0 0 0 0 0 0.02 0"/>
<feBlend mode="normal" in2="BackgroundImageFix" result="effect1_dropShadow_8800_4303"/>
<feColorMatrix in="SourceAlpha" type="matrix" values="0 0 0 0 0 0 0 0 0 0 0 0 0 0 0 0 0 0 127 0" result="hardAlpha"/>
<feOffset dy="4"/>
<feGaussianBlur stdDeviation="2.5"/>
<feComposite in2="hardAlpha" operator="out"/>
<feColorMatrix type="matrix" values="0 0 0 0 0 0 0 0 0 0 0 0 0 0 0 0 0 0 0.03 0"/>
<feBlend mode="normal" in2="effect1_dropShadow_8800_4303" result="effect2_dropShadow_8800_4303"/>
<feColorMatrix in="SourceAlpha" type="matrix" values="0 0 0 0 0 0 0 0 0 0 0 0 0 0 0 0 0 0 127 0" result="hardAlpha"/>
<feOffset dy="4"/>
<feGaussianBlur stdDeviation="2.5"/>
<feComposite in2="hardAlpha" operator="out"/>
<feColorMatrix type="matrix" values="0 0 0 0 0 0 0 0 0 0 0 0 0 0 0 0 0 0 0.04 0"/>
<feBlend mode="normal" in2="effect2_dropShadow_8800_4303" result="effect3_dropShadow_8800_4303"/>
<feColorMatrix in="SourceAlpha" type="matrix" values="0 0 0 0 0 0 0 0 0 0 0 0 0 0 0 0 0 0 127 0" result="hardAlpha"/>
<feOffset dy="2"/>
<feGaussianBlur stdDeviation="1.5"/>
<feComposite in2="hardAlpha" operator="out"/>
<feColorMatrix type="matrix" values="0 0 0 0 0 0 0 0 0 0 0 0 0 0 0 0 0 0 0.05 0"/>
<feBlend mode="normal" in2="effect3_dropShadow_8800_4303" result="effect4_dropShadow_8800_4303"/>
<feBlend mode="normal" in="SourceGraphic" in2="effect4_dropShadow_8800_4303" result="shape"/>
</filter>
<clipPath id="clip0_8800_4303">
<rect width="488" height="260" fill="white"/>
</clipPath>
</defs>
</svg>
