<svg width="488" height="260" viewBox="0 0 488 260" fill="none" xmlns="http://www.w3.org/2000/svg">
<g clip-path="url(#clip0_8800_2497)">
<rect width="488" height="260" fill="#185683"/>
<path d="M182.241 -74C117.273 -27.8573 26.6909 83.275 103.26 108.164C221.09 146.466 338.928 -26.0173 398.375 12.199C490.549 71.4534 154.215 194.788 239.565 333.641" stroke="#2CA7EE" stroke-width="1.8" stroke-linecap="round"/>
<circle cx="287.014" cy="177.776" r="50.3138" fill="#2CA7EE" stroke="#185683" stroke-width="25.4776"/>
<g filter="url(#filter0_dddd_8800_2497)">
<rect x="92" y="78" width="144" height="104" rx="4" fill="white"/>
<path d="M111.275 106L111.275 98.4941L108.551 98.4941L108.551 97.5449L115.055 97.5449L115.055 98.4941L112.33 98.4941L112.33 106L111.275 106ZM117.979 106.111C117.381 106.111 116.863 105.98 116.426 105.719C115.992 105.453 115.656 105.076 115.418 104.588C115.184 104.1 115.066 103.52 115.066 102.848L115.066 102.836C115.066 102.16 115.184 101.578 115.418 101.09C115.656 100.602 115.992 100.227 116.426 99.9648C116.863 99.7031 117.381 99.5723 117.979 99.5723C118.58 99.5723 119.098 99.7031 119.531 99.9648C119.965 100.227 120.299 100.602 120.533 101.09C120.771 101.578 120.891 102.16 120.891 102.836L120.891 102.848C120.891 103.52 120.771 104.1 120.533 104.588C120.299 105.076 119.965 105.453 119.531 105.719C119.098 105.98 118.58 106.111 117.979 106.111ZM117.979 105.209C118.377 105.209 118.715 105.115 118.992 104.928C119.27 104.74 119.48 104.471 119.625 104.119C119.773 103.768 119.848 103.344 119.848 102.848L119.848 102.836C119.848 102.336 119.773 101.91 119.625 101.559C119.48 101.207 119.27 100.939 118.992 100.756C118.715 100.568 118.377 100.475 117.979 100.475C117.58 100.475 117.242 100.568 116.965 100.756C116.688 100.939 116.475 101.207 116.326 101.559C116.182 101.91 116.109 102.336 116.109 102.836L116.109 102.848C116.109 103.344 116.182 103.768 116.326 104.119C116.475 104.471 116.688 104.74 116.965 104.928C117.242 105.115 117.58 105.209 117.979 105.209ZM124.717 106.047C124.068 106.047 123.598 105.916 123.305 105.654C123.016 105.393 122.871 104.961 122.871 104.359L122.871 100.527L121.875 100.527L121.875 99.6836L122.871 99.6836L122.871 98.0488L123.926 98.0488L123.926 99.6836L125.309 99.6836L125.309 100.527L123.926 100.527L123.926 104.102C123.926 104.473 123.996 104.74 124.137 104.904C124.277 105.064 124.512 105.145 124.84 105.145C124.93 105.145 125.006 105.143 125.068 105.139C125.135 105.135 125.215 105.129 125.309 105.121L125.309 105.988C125.211 106.004 125.113 106.018 125.016 106.029C124.918 106.041 124.818 106.047 124.717 106.047ZM128.566 106.111C128.168 106.111 127.809 106.035 127.488 105.883C127.172 105.73 126.92 105.514 126.732 105.232C126.549 104.951 126.457 104.619 126.457 104.236L126.457 104.225C126.457 103.85 126.547 103.529 126.727 103.264C126.906 102.994 127.168 102.783 127.512 102.631C127.855 102.479 128.271 102.389 128.76 102.361L131.08 102.221L131.08 103.035L128.883 103.176C128.402 103.203 128.051 103.303 127.828 103.475C127.609 103.646 127.5 103.889 127.5 104.201L127.5 104.213C127.5 104.533 127.621 104.783 127.863 104.963C128.105 105.139 128.41 105.227 128.777 105.227C129.125 105.227 129.434 105.158 129.703 105.021C129.973 104.881 130.184 104.691 130.336 104.453C130.492 104.215 130.57 103.945 130.57 103.645L130.57 101.676C130.57 101.285 130.451 100.988 130.213 100.785C129.979 100.578 129.625 100.475 129.152 100.475C128.773 100.475 128.463 100.543 128.221 100.68C127.979 100.812 127.816 101.002 127.734 101.248L127.729 101.266L126.709 101.266L126.715 101.23C126.77 100.898 126.906 100.609 127.125 100.363C127.348 100.113 127.635 99.9199 127.986 99.7832C128.338 99.6426 128.738 99.5723 129.188 99.5723C129.703 99.5723 130.139 99.6562 130.494 99.8242C130.854 99.9922 131.125 100.234 131.309 100.551C131.496 100.863 131.59 101.238 131.59 101.676L131.59 106L130.57 106L130.57 105.068L130.477 105.068C130.344 105.291 130.182 105.48 129.99 105.637C129.803 105.793 129.59 105.912 129.352 105.994C129.113 106.072 128.852 106.111 128.566 106.111ZM133.512 106L133.512 97.1758L134.531 97.1758L134.531 106L133.512 106ZM139.922 106L139.922 97.1758L140.941 97.1758L140.941 106L139.922 106ZM142.922 106L142.922 99.6836L143.941 99.6836L143.941 106L142.922 106ZM143.438 98.4648C143.246 98.4648 143.08 98.3965 142.939 98.2598C142.803 98.1191 142.734 97.9531 142.734 97.7617C142.734 97.5664 142.803 97.4004 142.939 97.2637C143.08 97.127 143.246 97.0586 143.438 97.0586C143.633 97.0586 143.799 97.127 143.936 97.2637C144.072 97.4004 144.141 97.5664 144.141 97.7617C144.141 97.9531 144.072 98.1191 143.936 98.2598C143.799 98.3965 143.633 98.4648 143.438 98.4648ZM148.447 106.111C147.857 106.111 147.346 105.977 146.912 105.707C146.479 105.437 146.143 105.057 145.904 104.564C145.666 104.072 145.547 103.492 145.547 102.824L145.547 102.812C145.547 102.156 145.664 101.586 145.898 101.102C146.137 100.617 146.473 100.242 146.906 99.9766C147.34 99.707 147.852 99.5723 148.441 99.5723C148.953 99.5723 149.395 99.6621 149.766 99.8418C150.137 100.021 150.434 100.264 150.656 100.568C150.879 100.869 151.021 101.207 151.084 101.582L151.09 101.617L150.076 101.617L150.07 101.6C149.992 101.287 149.814 101.021 149.537 100.803C149.26 100.584 148.895 100.475 148.441 100.475C148.063 100.475 147.734 100.57 147.457 100.762C147.18 100.953 146.965 101.225 146.813 101.576C146.664 101.924 146.59 102.336 146.59 102.812L146.59 102.824C146.59 103.309 146.666 103.73 146.818 104.09C146.971 104.445 147.186 104.721 147.463 104.916C147.74 105.111 148.066 105.209 148.441 105.209C148.867 105.209 149.215 105.117 149.484 104.934C149.754 104.75 149.947 104.482 150.064 104.131L150.076 104.096L151.084 104.09L151.072 104.154C150.986 104.533 150.834 104.871 150.615 105.168C150.396 105.461 150.107 105.691 149.748 105.859C149.389 106.027 148.955 106.111 148.447 106.111ZM155.156 106.111C154.555 106.111 154.037 105.979 153.604 105.713C153.174 105.447 152.842 105.072 152.607 104.588C152.377 104.1 152.262 103.525 152.262 102.865L152.262 102.859C152.262 102.207 152.377 101.635 152.607 101.143C152.842 100.65 153.172 100.266 153.598 99.9883C154.023 99.7109 154.521 99.5723 155.092 99.5723C155.666 99.5723 156.158 99.7051 156.568 99.9707C156.982 100.236 157.299 100.607 157.518 101.084C157.74 101.557 157.852 102.107 157.852 102.736L157.852 103.135L152.789 103.135L152.789 102.32L157.33 102.32L156.826 103.064L156.826 102.66C156.826 102.164 156.752 101.756 156.604 101.436C156.455 101.115 156.25 100.877 155.988 100.721C155.727 100.561 155.426 100.48 155.086 100.48C154.746 100.48 154.441 100.564 154.172 100.732C153.906 100.896 153.695 101.141 153.539 101.465C153.383 101.789 153.305 102.187 153.305 102.66L153.305 103.064C153.305 103.514 153.381 103.898 153.533 104.219C153.686 104.535 153.902 104.779 154.184 104.951C154.465 105.119 154.797 105.203 155.18 105.203C155.465 105.203 155.713 105.164 155.924 105.086C156.135 105.008 156.309 104.908 156.445 104.787C156.582 104.666 156.678 104.543 156.732 104.418L156.756 104.365L157.775 104.365L157.764 104.412C157.709 104.627 157.611 104.836 157.471 105.039C157.334 105.238 157.156 105.42 156.938 105.584C156.719 105.744 156.459 105.873 156.158 105.971C155.861 106.064 155.527 106.111 155.156 106.111ZM159.434 106L159.434 99.6836L160.453 99.6836L160.453 100.633L160.547 100.633C160.707 100.297 160.938 100.037 161.238 99.8535C161.539 99.666 161.922 99.5723 162.387 99.5723C163.098 99.5723 163.643 99.7754 164.021 100.182C164.404 100.584 164.596 101.16 164.596 101.91L164.596 106L163.576 106L163.576 102.156C163.576 101.586 163.455 101.164 163.213 100.891C162.975 100.613 162.604 100.475 162.1 100.475C161.764 100.475 161.473 100.547 161.227 100.691C160.98 100.836 160.789 101.041 160.652 101.307C160.52 101.572 160.453 101.891 160.453 102.262L160.453 106L159.434 106ZM168.609 106.111C168.141 106.111 167.727 106.041 167.367 105.9C167.008 105.756 166.719 105.555 166.5 105.297C166.285 105.039 166.158 104.736 166.119 104.389L167.162 104.389C167.248 104.65 167.416 104.861 167.666 105.021C167.916 105.182 168.242 105.262 168.645 105.262C168.93 105.262 169.18 105.221 169.395 105.139C169.613 105.053 169.785 104.937 169.91 104.793C170.035 104.645 170.098 104.475 170.098 104.283L170.098 104.271C170.098 104.057 170.012 103.875 169.84 103.727C169.668 103.574 169.387 103.451 168.996 103.357L168.018 103.123C167.623 103.029 167.299 102.908 167.045 102.76C166.791 102.607 166.604 102.422 166.482 102.203C166.361 101.98 166.301 101.719 166.301 101.418L166.301 101.412C166.301 101.061 166.402 100.746 166.605 100.469C166.813 100.191 167.094 99.9727 167.449 99.8125C167.805 99.6523 168.205 99.5723 168.65 99.5723C169.092 99.5723 169.482 99.6426 169.822 99.7832C170.166 99.9199 170.441 100.115 170.648 100.369C170.859 100.623 170.988 100.922 171.035 101.266L170.033 101.266C169.967 101.016 169.814 100.812 169.576 100.656C169.338 100.5 169.027 100.422 168.645 100.422C168.395 100.422 168.172 100.463 167.977 100.545C167.781 100.623 167.627 100.732 167.514 100.873C167.4 101.014 167.344 101.178 167.344 101.365L167.344 101.377C167.344 101.518 167.381 101.643 167.455 101.752C167.529 101.861 167.645 101.957 167.801 102.039C167.957 102.121 168.158 102.193 168.404 102.256L169.377 102.49C169.971 102.635 170.412 102.842 170.701 103.111C170.994 103.381 171.141 103.742 171.141 104.195L171.141 104.207C171.141 104.582 171.029 104.914 170.807 105.203C170.584 105.488 170.281 105.711 169.898 105.871C169.52 106.031 169.09 106.111 168.609 106.111ZM175.301 106.111C174.699 106.111 174.182 105.979 173.748 105.713C173.318 105.447 172.986 105.072 172.752 104.588C172.521 104.1 172.406 103.525 172.406 102.865L172.406 102.859C172.406 102.207 172.521 101.635 172.752 101.143C172.986 100.65 173.316 100.266 173.742 99.9883C174.168 99.7109 174.666 99.5723 175.236 99.5723C175.811 99.5723 176.303 99.7051 176.713 99.9707C177.127 100.236 177.443 100.607 177.662 101.084C177.885 101.557 177.996 102.107 177.996 102.736L177.996 103.135L172.934 103.135L172.934 102.32L177.475 102.32L176.971 103.064L176.971 102.66C176.971 102.164 176.896 101.756 176.748 101.436C176.6 101.115 176.395 100.877 176.133 100.721C175.871 100.561 175.57 100.48 175.23 100.48C174.891 100.48 174.586 100.564 174.316 100.732C174.051 100.896 173.84 101.141 173.684 101.465C173.527 101.789 173.449 102.187 173.449 102.66L173.449 103.064C173.449 103.514 173.525 103.898 173.678 104.219C173.83 104.535 174.047 104.779 174.328 104.951C174.609 105.119 174.941 105.203 175.324 105.203C175.609 105.203 175.857 105.164 176.068 105.086C176.279 105.008 176.453 104.908 176.59 104.787C176.727 104.666 176.822 104.543 176.877 104.418L176.9 104.365L177.92 104.365L177.908 104.412C177.854 104.627 177.756 104.836 177.615 105.039C177.479 105.238 177.301 105.42 177.082 105.584C176.863 105.744 176.604 105.873 176.303 105.971C176.006 106.064 175.672 106.111 175.301 106.111ZM181.746 106.111C181.277 106.111 180.863 106.041 180.504 105.9C180.145 105.756 179.855 105.555 179.637 105.297C179.422 105.039 179.295 104.736 179.256 104.389L180.299 104.389C180.385 104.65 180.553 104.861 180.803 105.021C181.053 105.182 181.379 105.262 181.781 105.262C182.066 105.262 182.316 105.221 182.531 105.139C182.75 105.053 182.922 104.937 183.047 104.793C183.172 104.645 183.234 104.475 183.234 104.283L183.234 104.271C183.234 104.057 183.148 103.875 182.977 103.727C182.805 103.574 182.523 103.451 182.133 103.357L181.154 103.123C180.76 103.029 180.436 102.908 180.182 102.76C179.928 102.607 179.74 102.422 179.619 102.203C179.498 101.98 179.438 101.719 179.438 101.418L179.438 101.412C179.438 101.061 179.539 100.746 179.742 100.469C179.949 100.191 180.23 99.9727 180.586 99.8125C180.941 99.6523 181.342 99.5723 181.787 99.5723C182.229 99.5723 182.619 99.6426 182.959 99.7832C183.303 99.9199 183.578 100.115 183.785 100.369C183.996 100.623 184.125 100.922 184.172 101.266L183.17 101.266C183.104 101.016 182.951 100.812 182.713 100.656C182.475 100.5 182.164 100.422 181.781 100.422C181.531 100.422 181.309 100.463 181.113 100.545C180.918 100.623 180.764 100.732 180.65 100.873C180.537 101.014 180.48 101.178 180.48 101.365L180.48 101.377C180.48 101.518 180.518 101.643 180.592 101.752C180.666 101.861 180.781 101.957 180.938 102.039C181.094 102.121 181.295 102.193 181.541 102.256L182.514 102.49C183.107 102.635 183.549 102.842 183.838 103.111C184.131 103.381 184.277 103.742 184.277 104.195L184.277 104.207C184.277 104.582 184.166 104.914 183.943 105.203C183.721 105.488 183.418 105.711 183.035 105.871C182.656 106.031 182.227 106.111 181.746 106.111Z" fill="#50575E"/>
<path d="M117.609 161.375C116.005 161.375 114.604 161.109 113.406 160.578C112.208 160.036 111.26 159.292 110.563 158.344C109.875 157.396 109.479 156.307 109.375 155.078L109.359 154.891L112.656 154.891L112.688 155.047C112.76 155.724 113.005 156.323 113.422 156.844C113.849 157.354 114.417 157.755 115.125 158.047C115.844 158.339 116.672 158.484 117.609 158.484C118.536 158.484 119.344 158.328 120.031 158.016C120.729 157.693 121.271 157.25 121.656 156.687C122.052 156.125 122.25 155.479 122.25 154.75L122.25 154.719C122.25 153.437 121.813 152.453 120.938 151.766C120.073 151.078 118.885 150.734 117.375 150.734L114.625 150.734L114.625 148.016L117.266 148.016C118.13 148.016 118.885 147.859 119.531 147.547C120.188 147.234 120.698 146.807 121.063 146.266C121.427 145.724 121.609 145.099 121.609 144.391L121.609 144.359C121.609 143.63 121.453 143.01 121.141 142.5C120.828 141.979 120.37 141.583 119.766 141.312C119.161 141.042 118.432 140.906 117.578 140.906C116.745 140.906 116 141.047 115.344 141.328C114.698 141.599 114.177 141.995 113.781 142.516C113.396 143.026 113.167 143.63 113.094 144.328L113.078 144.484L109.828 144.484L109.844 144.312C109.958 143.062 110.349 141.969 111.016 141.031C111.693 140.094 112.589 139.37 113.703 138.859C114.818 138.339 116.109 138.078 117.578 138.078C119.078 138.078 120.38 138.328 121.484 138.828C122.599 139.318 123.458 140 124.063 140.875C124.677 141.75 124.984 142.766 124.984 143.922L124.984 143.953C124.984 144.88 124.776 145.703 124.359 146.422C123.953 147.141 123.391 147.74 122.672 148.219C121.964 148.687 121.151 149.016 120.234 149.203L120.234 149.281C121.891 149.417 123.224 149.964 124.234 150.922C125.245 151.88 125.75 153.151 125.75 154.734L125.75 154.766C125.75 156.047 125.401 157.187 124.703 158.187C124.016 159.187 123.057 159.969 121.828 160.531C120.609 161.094 119.203 161.375 117.609 161.375ZM129.094 161L129.094 158.625L137.047 150.625C138.047 149.615 138.807 148.781 139.328 148.125C139.859 147.458 140.219 146.865 140.406 146.344C140.604 145.812 140.703 145.25 140.703 144.656L140.703 144.625C140.703 143.906 140.536 143.271 140.203 142.719C139.87 142.156 139.406 141.719 138.813 141.406C138.219 141.094 137.536 140.937 136.766 140.937C135.891 140.937 135.109 141.12 134.422 141.484C133.734 141.849 133.193 142.339 132.797 142.953C132.401 143.568 132.198 144.255 132.188 145.016L132.188 145.125L128.906 145.125L128.906 145.016C128.906 143.672 129.25 142.479 129.938 141.437C130.635 140.385 131.578 139.562 132.766 138.969C133.953 138.375 135.276 138.078 136.734 138.078C138.172 138.078 139.443 138.354 140.547 138.906C141.661 139.458 142.536 140.219 143.172 141.187C143.807 142.146 144.125 143.229 144.125 144.437L144.125 144.469C144.125 145.323 143.964 146.135 143.641 146.906C143.328 147.677 142.792 148.531 142.031 149.469C141.281 150.396 140.229 151.531 138.875 152.875L132.563 159.094L133.719 156.875L133.719 159.094L132.578 158.078L144.469 158.078L144.469 161L129.094 161ZM153.297 161L153.297 141.891L153.234 141.891L147.328 145.953L147.328 142.672L153.281 138.453L156.672 138.453L156.672 161L153.297 161Z" fill="#101517"/>
</g>
<g filter="url(#filter1_dddd_8800_2497)">
<rect x="252" y="78" width="144" height="104" rx="4" fill="white"/>
<path d="M268.404 106L271.521 97.5449L272.33 97.5449L272.33 98.9102L271.996 98.9102L269.512 106L268.404 106ZM269.816 103.58L270.145 102.684L273.965 102.684L274.293 103.58L269.816 103.58ZM274.574 106L272.09 98.9102L272.09 97.5449L272.564 97.5449L275.682 106L274.574 106ZM279.086 106.111C278.617 106.111 278.203 106.041 277.844 105.9C277.484 105.756 277.195 105.555 276.977 105.297C276.762 105.039 276.635 104.736 276.596 104.389L277.639 104.389C277.725 104.65 277.893 104.861 278.143 105.021C278.393 105.182 278.719 105.262 279.121 105.262C279.406 105.262 279.656 105.221 279.871 105.139C280.09 105.053 280.262 104.937 280.387 104.793C280.512 104.645 280.574 104.475 280.574 104.283L280.574 104.271C280.574 104.057 280.488 103.875 280.316 103.727C280.145 103.574 279.863 103.451 279.473 103.357L278.494 103.123C278.1 103.029 277.775 102.908 277.521 102.76C277.268 102.607 277.08 102.422 276.959 102.203C276.838 101.98 276.777 101.719 276.777 101.418L276.777 101.412C276.777 101.061 276.879 100.746 277.082 100.469C277.289 100.191 277.57 99.9727 277.926 99.8125C278.281 99.6523 278.682 99.5723 279.127 99.5723C279.568 99.5723 279.959 99.6426 280.299 99.7832C280.643 99.9199 280.918 100.115 281.125 100.369C281.336 100.623 281.465 100.922 281.512 101.266L280.51 101.266C280.443 101.016 280.291 100.812 280.053 100.656C279.814 100.5 279.504 100.422 279.121 100.422C278.871 100.422 278.648 100.463 278.453 100.545C278.258 100.623 278.104 100.732 277.99 100.873C277.877 101.014 277.82 101.178 277.82 101.365L277.82 101.377C277.82 101.518 277.857 101.643 277.932 101.752C278.006 101.861 278.121 101.957 278.277 102.039C278.434 102.121 278.635 102.193 278.881 102.256L279.854 102.49C280.447 102.635 280.889 102.842 281.178 103.111C281.471 103.381 281.617 103.742 281.617 104.195L281.617 104.207C281.617 104.582 281.506 104.914 281.283 105.203C281.061 105.488 280.758 105.711 280.375 105.871C279.996 106.031 279.566 106.111 279.086 106.111ZM285.25 106.111C284.781 106.111 284.367 106.041 284.008 105.9C283.648 105.756 283.359 105.555 283.141 105.297C282.926 105.039 282.799 104.736 282.76 104.389L283.803 104.389C283.889 104.65 284.057 104.861 284.307 105.021C284.557 105.182 284.883 105.262 285.285 105.262C285.57 105.262 285.82 105.221 286.035 105.139C286.254 105.053 286.426 104.937 286.551 104.793C286.676 104.645 286.738 104.475 286.738 104.283L286.738 104.271C286.738 104.057 286.652 103.875 286.48 103.727C286.309 103.574 286.027 103.451 285.637 103.357L284.658 103.123C284.264 103.029 283.939 102.908 283.686 102.76C283.432 102.607 283.244 102.422 283.123 102.203C283.002 101.98 282.941 101.719 282.941 101.418L282.941 101.412C282.941 101.061 283.043 100.746 283.246 100.469C283.453 100.191 283.734 99.9727 284.09 99.8125C284.445 99.6523 284.846 99.5723 285.291 99.5723C285.732 99.5723 286.123 99.6426 286.463 99.7832C286.807 99.9199 287.082 100.115 287.289 100.369C287.5 100.623 287.629 100.922 287.676 101.266L286.674 101.266C286.607 101.016 286.455 100.812 286.217 100.656C285.979 100.5 285.668 100.422 285.285 100.422C285.035 100.422 284.813 100.463 284.617 100.545C284.422 100.623 284.268 100.732 284.154 100.873C284.041 101.014 283.984 101.178 283.984 101.365L283.984 101.377C283.984 101.518 284.021 101.643 284.096 101.752C284.17 101.861 284.285 101.957 284.441 102.039C284.598 102.121 284.799 102.193 285.045 102.256L286.018 102.49C286.611 102.635 287.053 102.842 287.342 103.111C287.635 103.381 287.781 103.742 287.781 104.195L287.781 104.207C287.781 104.582 287.67 104.914 287.447 105.203C287.225 105.488 286.922 105.711 286.539 105.871C286.16 106.031 285.73 106.111 285.25 106.111ZM289.387 106L289.387 99.6836L290.406 99.6836L290.406 106L289.387 106ZM289.902 98.4648C289.711 98.4648 289.545 98.3965 289.404 98.2598C289.268 98.1191 289.199 97.9531 289.199 97.7617C289.199 97.5664 289.268 97.4004 289.404 97.2637C289.545 97.127 289.711 97.0586 289.902 97.0586C290.098 97.0586 290.264 97.127 290.4 97.2637C290.537 97.4004 290.605 97.5664 290.605 97.7617C290.605 97.9531 290.537 98.1191 290.4 98.2598C290.264 98.3965 290.098 98.4648 289.902 98.4648ZM294.93 108.227C294.422 108.227 293.979 108.154 293.6 108.01C293.221 107.869 292.918 107.668 292.691 107.406C292.469 107.148 292.33 106.848 292.275 106.504L292.287 106.498L293.342 106.498L293.348 106.504C293.402 106.742 293.566 106.937 293.84 107.09C294.113 107.246 294.477 107.324 294.93 107.324C295.496 107.324 295.938 107.195 296.254 106.937C296.574 106.684 296.734 106.324 296.734 105.859L296.734 104.582L296.641 104.582C296.508 104.812 296.342 105.01 296.143 105.174C295.943 105.338 295.719 105.463 295.469 105.549C295.219 105.631 294.949 105.672 294.66 105.672C294.117 105.672 293.646 105.543 293.248 105.285C292.854 105.023 292.549 104.664 292.334 104.207C292.119 103.75 292.012 103.227 292.012 102.637L292.012 102.625C292.012 102.035 292.119 101.512 292.334 101.055C292.553 100.594 292.861 100.232 293.26 99.9707C293.658 99.7051 294.133 99.5723 294.684 99.5723C294.98 99.5723 295.254 99.6191 295.504 99.7129C295.754 99.8066 295.975 99.9395 296.166 100.111C296.361 100.283 296.523 100.488 296.652 100.727L296.723 100.727L296.723 99.6836L297.742 99.6836L297.742 105.912C297.742 106.381 297.627 106.789 297.396 107.137C297.17 107.484 296.846 107.752 296.424 107.939C296.002 108.131 295.504 108.227 294.93 108.227ZM294.883 104.77C295.273 104.77 295.607 104.68 295.885 104.5C296.166 104.316 296.381 104.064 296.529 103.744C296.682 103.424 296.758 103.055 296.758 102.637L296.758 102.625C296.758 102.207 296.682 101.836 296.529 101.512C296.381 101.187 296.166 100.934 295.885 100.75C295.607 100.566 295.273 100.475 294.883 100.475C294.492 100.475 294.16 100.566 293.887 100.75C293.617 100.934 293.41 101.187 293.266 101.512C293.125 101.836 293.055 102.207 293.055 102.625L293.055 102.637C293.055 103.055 293.125 103.424 293.266 103.744C293.41 104.064 293.617 104.316 293.887 104.5C294.16 104.68 294.492 104.77 294.883 104.77ZM299.641 106L299.641 99.6836L300.66 99.6836L300.66 100.633L300.754 100.633C300.914 100.297 301.145 100.037 301.445 99.8535C301.746 99.666 302.129 99.5723 302.594 99.5723C303.305 99.5723 303.85 99.7754 304.229 100.182C304.611 100.584 304.803 101.16 304.803 101.91L304.803 106L303.783 106L303.783 102.156C303.783 101.586 303.662 101.164 303.42 100.891C303.182 100.613 302.811 100.475 302.307 100.475C301.971 100.475 301.68 100.547 301.434 100.691C301.188 100.836 300.996 101.041 300.859 101.307C300.727 101.572 300.66 101.891 300.66 102.262L300.66 106L299.641 106ZM309.227 106.111C308.625 106.111 308.107 105.979 307.674 105.713C307.244 105.447 306.912 105.072 306.678 104.588C306.447 104.1 306.332 103.525 306.332 102.865L306.332 102.859C306.332 102.207 306.447 101.635 306.678 101.143C306.912 100.65 307.242 100.266 307.668 99.9883C308.094 99.7109 308.592 99.5723 309.162 99.5723C309.736 99.5723 310.229 99.7051 310.639 99.9707C311.053 100.236 311.369 100.607 311.588 101.084C311.811 101.557 311.922 102.107 311.922 102.736L311.922 103.135L306.859 103.135L306.859 102.32L311.4 102.32L310.896 103.064L310.896 102.66C310.896 102.164 310.822 101.756 310.674 101.436C310.525 101.115 310.32 100.877 310.059 100.721C309.797 100.561 309.496 100.48 309.156 100.48C308.816 100.48 308.512 100.564 308.242 100.732C307.977 100.896 307.766 101.141 307.609 101.465C307.453 101.789 307.375 102.187 307.375 102.66L307.375 103.064C307.375 103.514 307.451 103.898 307.604 104.219C307.756 104.535 307.973 104.779 308.254 104.951C308.535 105.119 308.867 105.203 309.25 105.203C309.535 105.203 309.783 105.164 309.994 105.086C310.205 105.008 310.379 104.908 310.516 104.787C310.652 104.666 310.748 104.543 310.803 104.418L310.826 104.365L311.846 104.365L311.834 104.412C311.779 104.627 311.682 104.836 311.541 105.039C311.404 105.238 311.227 105.42 311.008 105.584C310.789 105.744 310.529 105.873 310.229 105.971C309.932 106.064 309.598 106.111 309.227 106.111ZM315.836 106.111C315.305 106.111 314.84 105.977 314.441 105.707C314.043 105.437 313.734 105.059 313.516 104.57C313.297 104.078 313.188 103.504 313.188 102.848L313.188 102.836C313.188 102.176 313.297 101.602 313.516 101.113C313.734 100.625 314.041 100.246 314.436 99.9766C314.834 99.707 315.301 99.5723 315.836 99.5723C316.125 99.5723 316.396 99.6191 316.65 99.7129C316.908 99.8027 317.137 99.9297 317.336 100.094C317.535 100.258 317.691 100.453 317.805 100.68L317.898 100.68L317.898 97.1758L318.918 97.1758L318.918 106L317.898 106L317.898 104.992L317.805 104.992C317.676 105.227 317.514 105.428 317.318 105.596C317.123 105.76 316.9 105.887 316.65 105.977C316.4 106.066 316.129 106.111 315.836 106.111ZM316.07 105.209C316.453 105.209 316.783 105.113 317.061 104.922C317.338 104.73 317.551 104.459 317.699 104.107C317.848 103.752 317.922 103.332 317.922 102.848L317.922 102.836C317.922 102.348 317.848 101.928 317.699 101.576C317.551 101.225 317.338 100.953 317.061 100.762C316.783 100.57 316.453 100.475 316.07 100.475C315.688 100.475 315.357 100.57 315.08 100.762C314.807 100.949 314.596 101.219 314.447 101.57C314.303 101.922 314.23 102.344 314.23 102.836L314.23 102.848C314.23 103.336 314.303 103.758 314.447 104.113C314.596 104.465 314.807 104.736 315.08 104.928C315.357 105.115 315.688 105.209 316.07 105.209ZM324.309 106L324.309 97.1758L325.328 97.1758L325.328 106L324.309 106ZM327.309 106L327.309 99.6836L328.328 99.6836L328.328 106L327.309 106ZM327.824 98.4648C327.633 98.4648 327.467 98.3965 327.326 98.2598C327.189 98.1191 327.121 97.9531 327.121 97.7617C327.121 97.5664 327.189 97.4004 327.326 97.2637C327.467 97.127 327.633 97.0586 327.824 97.0586C328.02 97.0586 328.186 97.127 328.322 97.2637C328.459 97.4004 328.527 97.5664 328.527 97.7617C328.527 97.9531 328.459 98.1191 328.322 98.2598C328.186 98.3965 328.02 98.4648 327.824 98.4648ZM332.834 106.111C332.244 106.111 331.732 105.977 331.299 105.707C330.865 105.437 330.529 105.057 330.291 104.564C330.053 104.072 329.934 103.492 329.934 102.824L329.934 102.812C329.934 102.156 330.051 101.586 330.285 101.102C330.523 100.617 330.859 100.242 331.293 99.9766C331.727 99.707 332.238 99.5723 332.828 99.5723C333.34 99.5723 333.781 99.6621 334.152 99.8418C334.523 100.021 334.82 100.264 335.043 100.568C335.266 100.869 335.408 101.207 335.471 101.582L335.477 101.617L334.463 101.617L334.457 101.6C334.379 101.287 334.201 101.021 333.924 100.803C333.646 100.584 333.281 100.475 332.828 100.475C332.449 100.475 332.121 100.57 331.844 100.762C331.566 100.953 331.352 101.225 331.199 101.576C331.051 101.924 330.977 102.336 330.977 102.812L330.977 102.824C330.977 103.309 331.053 103.73 331.205 104.09C331.357 104.445 331.572 104.721 331.85 104.916C332.127 105.111 332.453 105.209 332.828 105.209C333.254 105.209 333.602 105.117 333.871 104.934C334.141 104.75 334.334 104.482 334.451 104.131L334.463 104.096L335.471 104.09L335.459 104.154C335.373 104.533 335.221 104.871 335.002 105.168C334.783 105.461 334.494 105.691 334.135 105.859C333.775 106.027 333.342 106.111 332.834 106.111ZM339.543 106.111C338.941 106.111 338.424 105.979 337.99 105.713C337.561 105.447 337.229 105.072 336.994 104.588C336.764 104.1 336.648 103.525 336.648 102.865L336.648 102.859C336.648 102.207 336.764 101.635 336.994 101.143C337.229 100.65 337.559 100.266 337.984 99.9883C338.41 99.7109 338.908 99.5723 339.479 99.5723C340.053 99.5723 340.545 99.7051 340.955 99.9707C341.369 100.236 341.686 100.607 341.904 101.084C342.127 101.557 342.238 102.107 342.238 102.736L342.238 103.135L337.176 103.135L337.176 102.32L341.717 102.32L341.213 103.064L341.213 102.66C341.213 102.164 341.139 101.756 340.99 101.436C340.842 101.115 340.637 100.877 340.375 100.721C340.113 100.561 339.813 100.48 339.473 100.48C339.133 100.48 338.828 100.564 338.559 100.732C338.293 100.896 338.082 101.141 337.926 101.465C337.77 101.789 337.691 102.187 337.691 102.66L337.691 103.064C337.691 103.514 337.768 103.898 337.92 104.219C338.072 104.535 338.289 104.779 338.57 104.951C338.852 105.119 339.184 105.203 339.566 105.203C339.852 105.203 340.1 105.164 340.311 105.086C340.521 105.008 340.695 104.908 340.832 104.787C340.969 104.666 341.064 104.543 341.119 104.418L341.143 104.365L342.162 104.365L342.15 104.412C342.096 104.627 341.998 104.836 341.857 105.039C341.721 105.238 341.543 105.42 341.324 105.584C341.105 105.744 340.846 105.873 340.545 105.971C340.248 106.064 339.914 106.111 339.543 106.111ZM343.82 106L343.82 99.6836L344.84 99.6836L344.84 100.633L344.934 100.633C345.094 100.297 345.324 100.037 345.625 99.8535C345.926 99.666 346.309 99.5723 346.773 99.5723C347.484 99.5723 348.029 99.7754 348.408 100.182C348.791 100.584 348.982 101.16 348.982 101.91L348.982 106L347.963 106L347.963 102.156C347.963 101.586 347.842 101.164 347.6 100.891C347.361 100.613 346.99 100.475 346.486 100.475C346.15 100.475 345.859 100.547 345.613 100.691C345.367 100.836 345.176 101.041 345.039 101.307C344.906 101.572 344.84 101.891 344.84 102.262L344.84 106L343.82 106ZM352.996 106.111C352.527 106.111 352.113 106.041 351.754 105.9C351.395 105.756 351.105 105.555 350.887 105.297C350.672 105.039 350.545 104.736 350.506 104.389L351.549 104.389C351.635 104.65 351.803 104.861 352.053 105.021C352.303 105.182 352.629 105.262 353.031 105.262C353.316 105.262 353.566 105.221 353.781 105.139C354 105.053 354.172 104.937 354.297 104.793C354.422 104.645 354.484 104.475 354.484 104.283L354.484 104.271C354.484 104.057 354.398 103.875 354.227 103.727C354.055 103.574 353.773 103.451 353.383 103.357L352.404 103.123C352.01 103.029 351.686 102.908 351.432 102.76C351.178 102.607 350.99 102.422 350.869 102.203C350.748 101.98 350.688 101.719 350.688 101.418L350.688 101.412C350.688 101.061 350.789 100.746 350.992 100.469C351.199 100.191 351.48 99.9727 351.836 99.8125C352.191 99.6523 352.592 99.5723 353.037 99.5723C353.479 99.5723 353.869 99.6426 354.209 99.7832C354.553 99.9199 354.828 100.115 355.035 100.369C355.246 100.623 355.375 100.922 355.422 101.266L354.42 101.266C354.354 101.016 354.201 100.812 353.963 100.656C353.725 100.5 353.414 100.422 353.031 100.422C352.781 100.422 352.559 100.463 352.363 100.545C352.168 100.623 352.014 100.732 351.9 100.873C351.787 101.014 351.73 101.178 351.73 101.365L351.73 101.377C351.73 101.518 351.768 101.643 351.842 101.752C351.916 101.861 352.031 101.957 352.188 102.039C352.344 102.121 352.545 102.193 352.791 102.256L353.764 102.49C354.357 102.635 354.799 102.842 355.088 103.111C355.381 103.381 355.527 103.742 355.527 104.195L355.527 104.207C355.527 104.582 355.416 104.914 355.193 105.203C354.971 105.488 354.668 105.711 354.285 105.871C353.906 106.031 353.477 106.111 352.996 106.111ZM359.688 106.111C359.086 106.111 358.568 105.979 358.135 105.713C357.705 105.447 357.373 105.072 357.139 104.588C356.908 104.1 356.793 103.525 356.793 102.865L356.793 102.859C356.793 102.207 356.908 101.635 357.139 101.143C357.373 100.65 357.703 100.266 358.129 99.9883C358.555 99.7109 359.053 99.5723 359.623 99.5723C360.197 99.5723 360.689 99.7051 361.1 99.9707C361.514 100.236 361.83 100.607 362.049 101.084C362.271 101.557 362.383 102.107 362.383 102.736L362.383 103.135L357.32 103.135L357.32 102.32L361.861 102.32L361.357 103.064L361.357 102.66C361.357 102.164 361.283 101.756 361.135 101.436C360.986 101.115 360.781 100.877 360.52 100.721C360.258 100.561 359.957 100.48 359.617 100.48C359.277 100.48 358.973 100.564 358.703 100.732C358.438 100.896 358.227 101.141 358.07 101.465C357.914 101.789 357.836 102.187 357.836 102.66L357.836 103.064C357.836 103.514 357.912 103.898 358.064 104.219C358.217 104.535 358.434 104.779 358.715 104.951C358.996 105.119 359.328 105.203 359.711 105.203C359.996 105.203 360.244 105.164 360.455 105.086C360.666 105.008 360.84 104.908 360.977 104.787C361.113 104.666 361.209 104.543 361.264 104.418L361.287 104.365L362.307 104.365L362.295 104.412C362.24 104.627 362.143 104.836 362.002 105.039C361.865 105.238 361.688 105.42 361.469 105.584C361.25 105.744 360.99 105.873 360.689 105.971C360.393 106.064 360.059 106.111 359.688 106.111ZM366.133 106.111C365.664 106.111 365.25 106.041 364.891 105.9C364.531 105.756 364.242 105.555 364.023 105.297C363.809 105.039 363.682 104.736 363.643 104.389L364.686 104.389C364.771 104.65 364.939 104.861 365.189 105.021C365.439 105.182 365.766 105.262 366.168 105.262C366.453 105.262 366.703 105.221 366.918 105.139C367.137 105.053 367.309 104.937 367.434 104.793C367.559 104.645 367.621 104.475 367.621 104.283L367.621 104.271C367.621 104.057 367.535 103.875 367.363 103.727C367.191 103.574 366.91 103.451 366.52 103.357L365.541 103.123C365.146 103.029 364.822 102.908 364.568 102.76C364.314 102.607 364.127 102.422 364.006 102.203C363.885 101.98 363.824 101.719 363.824 101.418L363.824 101.412C363.824 101.061 363.926 100.746 364.129 100.469C364.336 100.191 364.617 99.9727 364.973 99.8125C365.328 99.6523 365.729 99.5723 366.174 99.5723C366.615 99.5723 367.006 99.6426 367.346 99.7832C367.689 99.9199 367.965 100.115 368.172 100.369C368.383 100.623 368.512 100.922 368.559 101.266L367.557 101.266C367.49 101.016 367.338 100.812 367.1 100.656C366.861 100.5 366.551 100.422 366.168 100.422C365.918 100.422 365.695 100.463 365.5 100.545C365.305 100.623 365.15 100.732 365.037 100.873C364.924 101.014 364.867 101.178 364.867 101.365L364.867 101.377C364.867 101.518 364.904 101.643 364.979 101.752C365.053 101.861 365.168 101.957 365.324 102.039C365.48 102.121 365.682 102.193 365.928 102.256L366.9 102.49C367.494 102.635 367.936 102.842 368.225 103.111C368.518 103.381 368.664 103.742 368.664 104.195L368.664 104.207C368.664 104.582 368.553 104.914 368.33 105.203C368.107 105.488 367.805 105.711 367.422 105.871C367.043 106.031 366.613 106.111 366.133 106.111Z" fill="#50575E"/>
<path d="M277.609 161.375C276.005 161.375 274.604 161.109 273.406 160.578C272.208 160.036 271.26 159.292 270.563 158.344C269.875 157.396 269.479 156.307 269.375 155.078L269.359 154.891L272.656 154.891L272.688 155.047C272.76 155.724 273.005 156.323 273.422 156.844C273.849 157.354 274.417 157.755 275.125 158.047C275.844 158.339 276.672 158.484 277.609 158.484C278.536 158.484 279.344 158.328 280.031 158.016C280.729 157.693 281.271 157.25 281.656 156.687C282.052 156.125 282.25 155.479 282.25 154.75L282.25 154.719C282.25 153.437 281.813 152.453 280.938 151.766C280.073 151.078 278.885 150.734 277.375 150.734L274.625 150.734L274.625 148.016L277.266 148.016C278.13 148.016 278.885 147.859 279.531 147.547C280.188 147.234 280.698 146.807 281.063 146.266C281.427 145.724 281.609 145.099 281.609 144.391L281.609 144.359C281.609 143.63 281.453 143.01 281.141 142.5C280.828 141.979 280.37 141.583 279.766 141.312C279.161 141.042 278.432 140.906 277.578 140.906C276.745 140.906 276 141.047 275.344 141.328C274.698 141.599 274.177 141.995 273.781 142.516C273.396 143.026 273.167 143.63 273.094 144.328L273.078 144.484L269.828 144.484L269.844 144.312C269.958 143.062 270.349 141.969 271.016 141.031C271.693 140.094 272.589 139.37 273.703 138.859C274.818 138.339 276.109 138.078 277.578 138.078C279.078 138.078 280.38 138.328 281.484 138.828C282.599 139.318 283.458 140 284.063 140.875C284.677 141.75 284.984 142.766 284.984 143.922L284.984 143.953C284.984 144.88 284.776 145.703 284.359 146.422C283.953 147.141 283.391 147.74 282.672 148.219C281.964 148.687 281.151 149.016 280.234 149.203L280.234 149.281C281.891 149.417 283.224 149.964 284.234 150.922C285.245 151.88 285.75 153.151 285.75 154.734L285.75 154.766C285.75 156.047 285.401 157.187 284.703 158.187C284.016 159.187 283.057 159.969 281.828 160.531C280.609 161.094 279.203 161.375 277.609 161.375ZM294.797 161L294.797 141.891L294.734 141.891L288.828 145.953L288.828 142.672L294.781 138.453L298.172 138.453L298.172 161L294.797 161ZM311.813 138.078C312.958 138.078 314.057 138.286 315.109 138.703C316.172 139.12 317.12 139.781 317.953 140.687C318.786 141.583 319.443 142.75 319.922 144.187C320.411 145.615 320.656 147.349 320.656 149.391L320.656 149.422C320.656 151.922 320.297 154.068 319.578 155.859C318.87 157.651 317.844 159.021 316.5 159.969C315.167 160.906 313.557 161.375 311.672 161.375C310.339 161.375 309.13 161.135 308.047 160.656C306.974 160.177 306.078 159.516 305.359 158.672C304.651 157.828 304.177 156.849 303.938 155.734L303.891 155.547L307.359 155.547L307.422 155.703C307.63 156.266 307.932 156.755 308.328 157.172C308.724 157.589 309.203 157.911 309.766 158.141C310.339 158.359 310.984 158.469 311.703 158.469C313.005 158.469 314.057 158.094 314.859 157.344C315.672 156.594 316.271 155.594 316.656 154.344C317.052 153.094 317.276 151.724 317.328 150.234C317.339 150.109 317.344 149.99 317.344 149.875C317.344 149.75 317.344 149.63 317.344 149.516L316.656 145.797C316.656 144.891 316.443 144.078 316.016 143.359C315.599 142.641 315.026 142.068 314.297 141.641C313.568 141.203 312.755 140.984 311.859 140.984C310.964 140.984 310.151 141.198 309.422 141.625C308.693 142.042 308.109 142.609 307.672 143.328C307.245 144.036 307.031 144.828 307.031 145.703L307.031 145.734C307.031 146.651 307.234 147.464 307.641 148.172C308.057 148.88 308.625 149.437 309.344 149.844C310.063 150.24 310.885 150.437 311.813 150.437C312.729 150.437 313.552 150.24 314.281 149.844C315.01 149.448 315.589 148.901 316.016 148.203C316.443 147.505 316.656 146.708 316.656 145.812L316.656 145.797L317.594 145.797L317.594 149.625L317.266 149.625C316.964 150.302 316.516 150.911 315.922 151.453C315.339 151.995 314.63 152.432 313.797 152.766C312.974 153.089 312.052 153.25 311.031 153.25C309.594 153.25 308.313 152.932 307.188 152.297C306.073 151.651 305.193 150.771 304.547 149.656C303.911 148.531 303.594 147.26 303.594 145.844L303.594 145.812C303.594 144.312 303.948 142.984 304.656 141.828C305.375 140.661 306.349 139.745 307.578 139.078C308.818 138.411 310.229 138.078 311.813 138.078Z" fill="#101517"/>
</g>
</g>
<defs>
<filter id="filter0_dddd_8800_2497" x="76" y="77" width="176" height="137" filterUnits="userSpaceOnUse" color-interpolation-filters="sRGB">
<feFlood flood-opacity="0" result="BackgroundImageFix"/>
<feColorMatrix in="SourceAlpha" type="matrix" values="0 0 0 0 0 0 0 0 0 0 0 0 0 0 0 0 0 0 127 0" result="hardAlpha"/>
<feOffset dy="16"/>
<feGaussianBlur stdDeviation="8"/>
<feComposite in2="hardAlpha" operator="out"/>
<feColorMatrix type="matrix" values="0 0 0 0 0 0 0 0 0 0 0 0 0 0 0 0 0 0 0.02 0"/>
<feBlend mode="normal" in2="BackgroundImageFix" result="effect1_dropShadow_8800_2497"/>
<feColorMatrix in="SourceAlpha" type="matrix" values="0 0 0 0 0 0 0 0 0 0 0 0 0 0 0 0 0 0 127 0" result="hardAlpha"/>
<feOffset dy="4"/>
<feGaussianBlur stdDeviation="2.5"/>
<feComposite in2="hardAlpha" operator="out"/>
<feColorMatrix type="matrix" values="0 0 0 0 0 0 0 0 0 0 0 0 0 0 0 0 0 0 0.03 0"/>
<feBlend mode="normal" in2="effect1_dropShadow_8800_2497" result="effect2_dropShadow_8800_2497"/>
<feColorMatrix in="SourceAlpha" type="matrix" values="0 0 0 0 0 0 0 0 0 0 0 0 0 0 0 0 0 0 127 0" result="hardAlpha"/>
<feOffset dy="4"/>
<feGaussianBlur stdDeviation="2.5"/>
<feComposite in2="hardAlpha" operator="out"/>
<feColorMatrix type="matrix" values="0 0 0 0 0 0 0 0 0 0 0 0 0 0 0 0 0 0 0.04 0"/>
<feBlend mode="normal" in2="effect2_dropShadow_8800_2497" result="effect3_dropShadow_8800_2497"/>
<feColorMatrix in="SourceAlpha" type="matrix" values="0 0 0 0 0 0 0 0 0 0 0 0 0 0 0 0 0 0 127 0" result="hardAlpha"/>
<feOffset dy="2"/>
<feGaussianBlur stdDeviation="1.5"/>
<feComposite in2="hardAlpha" operator="out"/>
<feColorMatrix type="matrix" values="0 0 0 0 0 0 0 0 0 0 0 0 0 0 0 0 0 0 0.05 0"/>
<feBlend mode="normal" in2="effect3_dropShadow_8800_2497" result="effect4_dropShadow_8800_2497"/>
<feBlend mode="normal" in="SourceGraphic" in2="effect4_dropShadow_8800_2497" result="shape"/>
</filter>
<filter id="filter1_dddd_8800_2497" x="236" y="77" width="176" height="137" filterUnits="userSpaceOnUse" color-interpolation-filters="sRGB">
<feFlood flood-opacity="0" result="BackgroundImageFix"/>
<feColorMatrix in="SourceAlpha" type="matrix" values="0 0 0 0 0 0 0 0 0 0 0 0 0 0 0 0 0 0 127 0" result="hardAlpha"/>
<feOffset dy="16"/>
<feGaussianBlur stdDeviation="8"/>
<feComposite in2="hardAlpha" operator="out"/>
<feColorMatrix type="matrix" values="0 0 0 0 0 0 0 0 0 0 0 0 0 0 0 0 0 0 0.02 0"/>
<feBlend mode="normal" in2="BackgroundImageFix" result="effect1_dropShadow_8800_2497"/>
<feColorMatrix in="SourceAlpha" type="matrix" values="0 0 0 0 0 0 0 0 0 0 0 0 0 0 0 0 0 0 127 0" result="hardAlpha"/>
<feOffset dy="4"/>
<feGaussianBlur stdDeviation="2.5"/>
<feComposite in2="hardAlpha" operator="out"/>
<feColorMatrix type="matrix" values="0 0 0 0 0 0 0 0 0 0 0 0 0 0 0 0 0 0 0.03 0"/>
<feBlend mode="normal" in2="effect1_dropShadow_8800_2497" result="effect2_dropShadow_8800_2497"/>
<feColorMatrix in="SourceAlpha" type="matrix" values="0 0 0 0 0 0 0 0 0 0 0 0 0 0 0 0 0 0 127 0" result="hardAlpha"/>
<feOffset dy="4"/>
<feGaussianBlur stdDeviation="2.5"/>
<feComposite in2="hardAlpha" operator="out"/>
<feColorMatrix type="matrix" values="0 0 0 0 0 0 0 0 0 0 0 0 0 0 0 0 0 0 0.04 0"/>
<feBlend mode="normal" in2="effect2_dropShadow_8800_2497" result="effect3_dropShadow_8800_2497"/>
<feColorMatrix in="SourceAlpha" type="matrix" values="0 0 0 0 0 0 0 0 0 0 0 0 0 0 0 0 0 0 127 0" result="hardAlpha"/>
<feOffset dy="2"/>
<feGaussianBlur stdDeviation="1.5"/>
<feComposite in2="hardAlpha" operator="out"/>
<feColorMatrix type="matrix" values="0 0 0 0 0 0 0 0 0 0 0 0 0 0 0 0 0 0 0.05 0"/>
<feBlend mode="normal" in2="effect3_dropShadow_8800_2497" result="effect4_dropShadow_8800_2497"/>
<feBlend mode="normal" in="SourceGraphic" in2="effect4_dropShadow_8800_2497" result="shape"/>
</filter>
<clipPath id="clip0_8800_2497">
<rect width="488" height="260" fill="white"/>
</clipPath>
</defs>
</svg>
