<svg width="488" height="260" viewBox="0 0 488 260" fill="none" xmlns="http://www.w3.org/2000/svg">
<g clip-path="url(#clip0_8888_17191)">
<rect width="488" height="260" fill="#2CA7EE"/>
<circle cx="459.005" cy="242.475" r="193.519" transform="rotate(162.236 459.005 242.475)" fill="#197ABA"/>
<circle cx="328.337" cy="-40.1931" r="193.519" transform="rotate(162.236 328.337 -40.1931)" fill="#197ABA"/>
<g filter="url(#filter0_dddd_8888_17191)">
<rect x="80" y="29.5" width="328" height="201" rx="4" fill="white" shape-rendering="crispEdges"/>
<rect x="157.5" y="53.5" width="173" height="24" rx="12" fill="#E6F2E8"/>
<path fill-rule="evenodd" clip-rule="evenodd" d="M177.429 61.4782L170.231 71.1591L165.714 67.8009L166.61 66.5972L169.922 69.0603L176.225 60.5832L177.429 61.4782Z" fill="#005C12"/>
<path d="M187.938 70.5L191.315 61.3403H192.445L195.822 70.5H194.622L193.702 67.8784H190.058L189.138 70.5H187.938ZM191.829 62.8193L190.395 66.9072H193.365L191.931 62.8193H191.829ZM199.707 70.6206C197.79 70.6206 196.564 69.2305 196.564 67.0596V67.0469C196.564 64.9204 197.783 63.5366 199.7 63.5366C201.363 63.5366 202.36 64.4951 202.563 65.7139L202.569 65.752H201.471L201.465 65.7329C201.293 65.0601 200.684 64.5142 199.7 64.5142C198.469 64.5142 197.694 65.5044 197.694 67.0469V67.0596C197.694 68.6338 198.481 69.6431 199.7 69.6431C200.621 69.6431 201.205 69.2368 201.458 68.4751L201.471 68.437L202.563 68.4307L202.55 68.5005C202.271 69.7383 201.351 70.6206 199.707 70.6206ZM206.981 70.6206C205.064 70.6206 203.839 69.2305 203.839 67.0596V67.0469C203.839 64.9204 205.058 63.5366 206.975 63.5366C208.638 63.5366 209.634 64.4951 209.837 65.7139L209.844 65.752H208.746L208.739 65.7329C208.568 65.0601 207.958 64.5142 206.975 64.5142C205.743 64.5142 204.969 65.5044 204.969 67.0469V67.0596C204.969 68.6338 205.756 69.6431 206.975 69.6431C207.895 69.6431 208.479 69.2368 208.733 68.4751L208.746 68.437L209.837 68.4307L209.825 68.5005C209.545 69.7383 208.625 70.6206 206.981 70.6206ZM214.249 70.6206C212.294 70.6206 211.113 69.2495 211.113 67.104V67.0977C211.113 64.9839 212.319 63.5366 214.179 63.5366C216.039 63.5366 217.169 64.9204 217.169 66.9644V67.396H212.243C212.275 68.8115 213.056 69.6367 214.274 69.6367C215.201 69.6367 215.772 69.1987 215.957 68.7861L215.982 68.729H217.086L217.074 68.7798C216.839 69.7065 215.861 70.6206 214.249 70.6206ZM214.173 64.5205C213.157 64.5205 212.383 65.2124 212.262 66.5137H216.045C215.931 65.1616 215.182 64.5205 214.173 64.5205ZM218.883 72.7852V63.6572H219.987V64.749H220.089C220.508 63.9873 221.27 63.5366 222.222 63.5366C223.955 63.5366 225.091 64.9395 225.091 67.0723V67.085C225.091 69.2305 223.961 70.6206 222.222 70.6206C221.282 70.6206 220.463 70.1509 220.089 69.4209H219.987V72.7852H218.883ZM221.968 69.6431C223.218 69.6431 223.961 68.6782 223.961 67.085V67.0723C223.961 65.479 223.218 64.5142 221.968 64.5142C220.724 64.5142 219.962 65.4917 219.962 67.0723V67.085C219.962 68.6655 220.724 69.6431 221.968 69.6431ZM229.249 70.5508C227.839 70.5508 227.249 70.0303 227.249 68.7227V64.5713H226.17V63.6572H227.249V61.8862H228.392V63.6572H229.89V64.5713H228.392V68.4434C228.392 69.2495 228.671 69.5732 229.382 69.5732C229.579 69.5732 229.687 69.5669 229.89 69.5479V70.4873C229.674 70.5254 229.464 70.5508 229.249 70.5508ZM232.124 62.3369C231.705 62.3369 231.362 61.9941 231.362 61.5752C231.362 61.1562 231.705 60.8135 232.124 60.8135C232.543 60.8135 232.886 61.1562 232.886 61.5752C232.886 61.9941 232.543 62.3369 232.124 62.3369ZM231.565 70.5V63.6572H232.67V70.5H231.565ZM234.752 70.5V63.6572H235.856V64.6855H235.958C236.301 63.9619 236.942 63.5366 237.951 63.5366C239.487 63.5366 240.344 64.4443 240.344 66.0693V70.5H239.24V66.3359C239.24 65.1045 238.732 64.5142 237.64 64.5142C236.548 64.5142 235.856 65.2505 235.856 66.4502V70.5H234.752ZM245.162 72.9121C243.512 72.9121 242.458 72.1694 242.287 71.0459L242.299 71.0396H243.442L243.448 71.0459C243.569 71.5664 244.178 71.9346 245.162 71.9346C246.387 71.9346 247.117 71.3569 247.117 70.3477V68.9639H247.016C246.584 69.7192 245.81 70.1445 244.87 70.1445C243.099 70.1445 242.001 68.7734 242.001 66.8564V66.8438C242.001 64.9268 243.105 63.5366 244.896 63.5366C245.86 63.5366 246.609 64.0127 247.028 64.7871H247.104V63.6572H248.209V70.4048C248.209 71.9346 247.028 72.9121 245.162 72.9121ZM245.111 69.167C246.381 69.167 247.143 68.2148 247.143 66.8564V66.8438C247.143 65.4854 246.375 64.5142 245.111 64.5142C243.842 64.5142 243.131 65.4854 243.131 66.8438V66.8564C243.131 68.2148 243.842 69.167 245.111 69.167ZM253.922 70.5V63.6572H255.026V64.6855H255.128C255.471 63.9619 256.112 63.5366 257.121 63.5366C258.657 63.5366 259.514 64.4443 259.514 66.0693V70.5H258.41V66.3359C258.41 65.1045 257.902 64.5142 256.81 64.5142C255.718 64.5142 255.026 65.2505 255.026 66.4502V70.5H253.922ZM264.307 70.6206C262.352 70.6206 261.171 69.2495 261.171 67.104V67.0977C261.171 64.9839 262.377 63.5366 264.237 63.5366C266.097 63.5366 267.227 64.9204 267.227 66.9644V67.396H262.301C262.333 68.8115 263.113 69.6367 264.332 69.6367C265.259 69.6367 265.83 69.1987 266.014 68.7861L266.04 68.729H267.144L267.131 68.7798C266.896 69.7065 265.919 70.6206 264.307 70.6206ZM264.23 64.5205C263.215 64.5205 262.44 65.2124 262.32 66.5137H266.103C265.989 65.1616 265.24 64.5205 264.23 64.5205ZM270.261 70.5L268.344 63.6572H269.448L270.794 69.1289H270.896L272.425 63.6572H273.473L275.002 69.1289H275.104L276.45 63.6572H277.548L275.631 70.5H274.52L272.99 65.2061H272.889L271.365 70.5H270.261ZM285.463 70.6206C283.546 70.6206 282.321 69.2305 282.321 67.0596V67.0469C282.321 64.9204 283.54 63.5366 285.457 63.5366C287.12 63.5366 288.117 64.4951 288.32 65.7139L288.326 65.752H287.228L287.222 65.7329C287.05 65.0601 286.441 64.5142 285.457 64.5142C284.226 64.5142 283.451 65.5044 283.451 67.0469V67.0596C283.451 68.6338 284.238 69.6431 285.457 69.6431C286.377 69.6431 286.961 69.2368 287.215 68.4751L287.228 68.437L288.32 68.4307L288.307 68.5005C288.028 69.7383 287.107 70.6206 285.463 70.6206ZM290.002 70.5V60.9404H291.106V70.5H290.002ZM293.811 62.3369C293.392 62.3369 293.049 61.9941 293.049 61.5752C293.049 61.1562 293.392 60.8135 293.811 60.8135C294.229 60.8135 294.572 61.1562 294.572 61.5752C294.572 61.9941 294.229 62.3369 293.811 62.3369ZM293.252 70.5V63.6572H294.356V70.5H293.252ZM299.231 70.6206C297.276 70.6206 296.096 69.2495 296.096 67.104V67.0977C296.096 64.9839 297.302 63.5366 299.162 63.5366C301.021 63.5366 302.151 64.9204 302.151 66.9644V67.396H297.226C297.257 68.8115 298.038 69.6367 299.257 69.6367C300.184 69.6367 300.755 69.1987 300.939 68.7861L300.964 68.729H302.069L302.056 68.7798C301.821 69.7065 300.844 70.6206 299.231 70.6206ZM299.155 64.5205C298.14 64.5205 297.365 65.2124 297.245 66.5137H301.028C300.914 65.1616 300.165 64.5205 299.155 64.5205ZM303.865 70.5V63.6572H304.97V64.6855H305.071C305.414 63.9619 306.055 63.5366 307.064 63.5366C308.601 63.5366 309.458 64.4443 309.458 66.0693V70.5H308.353V66.3359C308.353 65.1045 307.845 64.5142 306.753 64.5142C305.662 64.5142 304.97 65.2505 304.97 66.4502V70.5H303.865ZM313.888 70.5508C312.479 70.5508 311.889 70.0303 311.889 68.7227V64.5713H310.81V63.6572H311.889V61.8862H313.031V63.6572H314.529V64.5713H313.031V68.4434C313.031 69.2495 313.311 69.5732 314.021 69.5732C314.218 69.5732 314.326 69.5669 314.529 69.5479V70.4873C314.313 70.5254 314.104 70.5508 313.888 70.5508ZM318.401 70.6206C316.878 70.6206 315.831 69.8843 315.704 68.7544H316.833C317.018 69.3257 317.563 69.7002 318.439 69.7002C319.36 69.7002 320.014 69.2622 320.014 68.6401V68.6274C320.014 68.1641 319.665 67.8403 318.82 67.6372L317.76 67.3833C316.478 67.0786 315.9 66.52 315.9 65.5361V65.5298C315.9 64.3936 316.992 63.5366 318.446 63.5366C319.88 63.5366 320.877 64.2539 321.029 65.3711H319.944C319.798 64.8315 319.265 64.457 318.439 64.457C317.627 64.457 317.03 64.876 317.03 65.479V65.4917C317.03 65.9551 317.373 66.2471 318.179 66.4438L319.233 66.6978C320.521 67.0088 321.144 67.5674 321.144 68.5449V68.5576C321.144 69.7764 319.957 70.6206 318.401 70.6206Z" fill="#005C12"/>
<path d="M182.62 114.5V112.355H187.589C188.761 112.355 189.656 112.121 190.273 111.652C190.89 111.176 191.199 110.488 191.199 109.59V109.566C191.199 108.965 191.054 108.461 190.765 108.055C190.484 107.641 190.062 107.332 189.499 107.129C188.937 106.926 188.242 106.824 187.413 106.824H182.62V104.797H186.886C188.042 104.797 188.921 104.574 189.523 104.129C190.132 103.676 190.437 103.027 190.437 102.184V102.16C190.437 101.379 190.175 100.781 189.652 100.367C189.128 99.9453 188.39 99.7344 187.437 99.7344H182.62V97.5898H188.07C189.085 97.5898 189.964 97.7656 190.706 98.1172C191.456 98.4609 192.035 98.9492 192.441 99.582C192.855 100.215 193.062 100.957 193.062 101.809V101.832C193.062 102.434 192.925 103 192.652 103.531C192.386 104.055 192.019 104.496 191.55 104.855C191.081 105.207 190.55 105.426 189.956 105.512V105.594C190.753 105.672 191.445 105.898 192.031 106.273C192.624 106.641 193.081 107.121 193.402 107.715C193.73 108.301 193.894 108.965 193.894 109.707V109.73C193.894 110.723 193.663 111.574 193.202 112.285C192.742 112.996 192.081 113.543 191.222 113.926C190.363 114.309 189.331 114.5 188.128 114.5H182.62ZM181.296 114.5V97.5898H183.933V114.5H181.296ZM195.664 114.5V97.4375H198.207V114.5H195.664ZM205.871 114.746C204.684 114.746 203.649 114.488 202.766 113.973C201.883 113.449 201.196 112.707 200.703 111.746C200.219 110.777 199.977 109.629 199.977 108.301V108.277C199.977 106.957 200.219 105.816 200.703 104.855C201.196 103.895 201.883 103.156 202.766 102.641C203.649 102.117 204.68 101.855 205.86 101.855C207.047 101.855 208.082 102.117 208.965 102.641C209.848 103.156 210.532 103.895 211.016 104.855C211.508 105.809 211.754 106.949 211.754 108.277V108.301C211.754 109.637 211.508 110.785 211.016 111.746C210.532 112.707 209.848 113.449 208.965 113.973C208.09 114.488 207.059 114.746 205.871 114.746ZM205.883 112.613C206.555 112.613 207.133 112.445 207.618 112.109C208.11 111.766 208.489 111.273 208.754 110.633C209.02 109.992 209.153 109.215 209.153 108.301V108.277C209.153 107.371 209.016 106.598 208.743 105.957C208.477 105.316 208.098 104.828 207.606 104.492C207.114 104.156 206.532 103.988 205.86 103.988C205.203 103.988 204.625 104.16 204.125 104.504C203.633 104.84 203.25 105.328 202.977 105.969C202.711 106.602 202.578 107.371 202.578 108.277V108.301C202.578 109.215 202.711 109.992 202.977 110.633C203.25 111.273 203.633 111.766 204.125 112.109C204.618 112.445 205.203 112.613 205.883 112.613ZM218.739 114.746C217.536 114.746 216.493 114.484 215.61 113.961C214.727 113.43 214.048 112.684 213.571 111.723C213.095 110.754 212.856 109.609 212.856 108.289V108.277C212.856 106.965 213.098 105.828 213.583 104.867C214.067 103.906 214.747 103.164 215.622 102.641C216.497 102.117 217.528 101.855 218.716 101.855C219.778 101.855 220.692 102.059 221.458 102.465C222.223 102.863 222.825 103.391 223.263 104.047C223.708 104.703 223.97 105.422 224.048 106.203L224.059 106.297H221.634L221.61 106.203C221.477 105.594 221.169 105.074 220.684 104.645C220.208 104.207 219.555 103.988 218.727 103.988C218.071 103.988 217.497 104.164 217.005 104.516C216.513 104.859 216.13 105.355 215.856 106.004C215.591 106.645 215.458 107.406 215.458 108.289V108.301C215.458 109.207 215.595 109.984 215.868 110.633C216.141 111.273 216.524 111.766 217.016 112.109C217.509 112.445 218.083 112.613 218.739 112.613C219.528 112.613 220.165 112.414 220.649 112.016C221.134 111.617 221.454 111.082 221.61 110.41L221.634 110.328L224.071 110.316L224.059 110.41C223.958 111.23 223.677 111.969 223.216 112.625C222.755 113.281 222.145 113.801 221.388 114.184C220.63 114.559 219.747 114.746 218.739 114.746ZM225.712 114.5V97.4375H228.267V114.5H225.712ZM233.54 114.5L229.134 108.734L230.833 106.953L236.505 114.5H233.54ZM227.857 110.445L227.833 107.375H228.349L233.306 102.102H236.294L230.517 108.125L230.025 108.266L227.857 110.445ZM254.377 114.5L246.045 105.383C245.467 104.75 244.998 104.195 244.639 103.719C244.287 103.242 244.033 102.801 243.877 102.395C243.721 101.988 243.639 101.574 243.631 101.152V101.141C243.631 100.406 243.826 99.75 244.217 99.1719C244.608 98.5938 245.139 98.1406 245.811 97.8125C246.483 97.4844 247.248 97.3203 248.108 97.3203C248.967 97.3203 249.729 97.4805 250.393 97.8008C251.057 98.1211 251.58 98.5664 251.963 99.1367C252.346 99.707 252.537 100.367 252.537 101.117V101.129C252.537 101.73 252.397 102.293 252.115 102.816C251.842 103.34 251.393 103.848 250.768 104.34C250.143 104.824 249.315 105.328 248.283 105.852L246.971 104.516C247.783 104.125 248.428 103.758 248.905 103.414C249.381 103.07 249.725 102.727 249.936 102.383C250.147 102.031 250.252 101.656 250.252 101.258V101.234C250.252 100.836 250.158 100.484 249.971 100.18C249.791 99.8672 249.541 99.625 249.221 99.4531C248.901 99.2812 248.53 99.1953 248.108 99.1953C247.701 99.1953 247.334 99.2852 247.006 99.4648C246.686 99.6367 246.432 99.8789 246.244 100.191C246.065 100.496 245.975 100.852 245.975 101.258V101.27C245.975 101.574 246.045 101.879 246.186 102.184C246.334 102.48 246.561 102.816 246.865 103.191C247.178 103.559 247.58 104.004 248.073 104.527L257.401 114.441V114.5H254.377ZM247.557 114.793C246.416 114.793 245.412 114.594 244.545 114.195C243.678 113.797 243.002 113.238 242.518 112.52C242.033 111.801 241.791 110.973 241.791 110.035V110.023C241.791 109.031 242.061 108.156 242.6 107.398C243.147 106.641 243.975 105.965 245.084 105.371L246.479 104.633L247.838 106.051L246.549 106.766C245.752 107.211 245.174 107.684 244.815 108.184C244.463 108.676 244.287 109.223 244.287 109.824V109.836C244.287 110.422 244.436 110.934 244.733 111.371C245.03 111.809 245.44 112.152 245.963 112.402C246.494 112.645 247.108 112.766 247.803 112.766C248.459 112.766 249.057 112.68 249.596 112.508C250.143 112.336 250.635 112.09 251.073 111.77C251.51 111.441 251.885 111.051 252.198 110.598C252.651 109.973 252.99 109.23 253.217 108.371C253.444 107.504 253.557 106.539 253.557 105.477V104.984H255.842V105.535C255.842 106.934 255.658 108.191 255.291 109.309C254.924 110.426 254.393 111.391 253.698 112.203C252.994 113.023 252.123 113.66 251.084 114.113C250.053 114.566 248.877 114.793 247.557 114.793ZM270.398 114.805C268.812 114.805 267.433 114.449 266.261 113.738C265.089 113.027 264.183 112.016 263.542 110.703C262.909 109.391 262.593 107.836 262.593 106.039V106.027C262.593 104.23 262.909 102.68 263.542 101.375C264.183 100.07 265.085 99.0625 266.249 98.3516C267.421 97.6406 268.804 97.2852 270.398 97.2852C271.64 97.2852 272.761 97.5234 273.761 98C274.769 98.4766 275.593 99.1406 276.234 99.9922C276.882 100.836 277.288 101.816 277.452 102.934L277.476 103.039H274.863L274.804 102.84C274.616 102.168 274.32 101.594 273.913 101.117C273.515 100.641 273.019 100.273 272.425 100.016C271.831 99.75 271.155 99.6172 270.398 99.6172C269.359 99.6172 268.456 99.8789 267.691 100.402C266.925 100.926 266.331 101.668 265.909 102.629C265.495 103.582 265.288 104.715 265.288 106.027V106.039C265.288 107.344 265.495 108.48 265.909 109.449C266.331 110.41 266.925 111.156 267.691 111.688C268.464 112.211 269.366 112.473 270.398 112.473C271.148 112.473 271.82 112.348 272.413 112.098C273.007 111.84 273.507 111.469 273.913 110.984C274.327 110.492 274.632 109.898 274.827 109.203L274.863 109.098H277.476L277.464 109.215C277.292 110.332 276.882 111.312 276.234 112.156C275.593 112.992 274.773 113.645 273.773 114.113C272.773 114.574 271.648 114.805 270.398 114.805ZM279.258 114.5V102.102H281.812V104.176H281.894C282.09 103.457 282.441 102.895 282.949 102.488C283.465 102.074 284.09 101.867 284.824 101.867C285.011 101.867 285.187 101.879 285.351 101.902C285.515 101.918 285.648 101.938 285.75 101.961V104.328C285.625 104.281 285.457 104.246 285.246 104.223C285.035 104.191 284.804 104.176 284.554 104.176C284 104.176 283.515 104.293 283.101 104.527C282.687 104.762 282.367 105.098 282.14 105.535C281.922 105.973 281.812 106.496 281.812 107.105V114.5H279.258ZM290.356 114.723C289.543 114.723 288.824 114.566 288.199 114.254C287.574 113.941 287.086 113.504 286.735 112.941C286.391 112.379 286.219 111.727 286.219 110.984V110.961C286.219 110.234 286.399 109.609 286.758 109.086C287.125 108.562 287.652 108.148 288.34 107.844C289.027 107.539 289.86 107.355 290.836 107.293L295.5 107.023V108.805L291.176 109.074C290.395 109.121 289.797 109.305 289.383 109.625C288.977 109.938 288.774 110.359 288.774 110.891V110.914C288.774 111.461 288.981 111.895 289.395 112.215C289.817 112.527 290.367 112.684 291.047 112.684C291.649 112.684 292.188 112.562 292.664 112.32C293.141 112.07 293.516 111.734 293.789 111.312C294.063 110.883 294.199 110.402 294.199 109.871V106.133C294.199 105.453 293.985 104.922 293.555 104.539C293.133 104.156 292.524 103.965 291.727 103.965C291 103.965 290.414 104.117 289.969 104.422C289.531 104.719 289.254 105.109 289.137 105.594L289.113 105.688H286.711L286.723 105.559C286.793 104.855 287.039 104.227 287.461 103.672C287.883 103.109 288.461 102.668 289.195 102.348C289.938 102.02 290.809 101.855 291.809 101.855C292.824 101.855 293.699 102.023 294.434 102.359C295.176 102.695 295.746 103.172 296.145 103.789C296.543 104.406 296.742 105.133 296.742 105.969V114.5H294.199V112.59H294.129C293.887 113.02 293.574 113.395 293.192 113.715C292.817 114.035 292.387 114.285 291.902 114.465C291.418 114.637 290.902 114.723 290.356 114.723ZM299.708 114.5V104.117H297.926V102.102H299.708V100.777C299.708 99.9727 299.837 99.3086 300.094 98.7852C300.36 98.2539 300.762 97.8633 301.301 97.6133C301.848 97.3555 302.544 97.2266 303.387 97.2266C303.653 97.2266 303.915 97.2383 304.173 97.2617C304.43 97.2773 304.649 97.3008 304.829 97.332V99.207C304.704 99.1836 304.563 99.168 304.407 99.1602C304.251 99.1523 304.094 99.1484 303.938 99.1484C303.344 99.1484 302.907 99.293 302.626 99.582C302.344 99.8633 302.204 100.285 302.204 100.848V102.102H304.77V104.117H302.251V114.5H299.708ZM310.864 114.711C309.614 114.711 308.689 114.438 308.087 113.891C307.485 113.344 307.185 112.457 307.185 111.23V104.117H305.38V102.102H307.185V98.8906H309.786V102.102H312.177V104.117H309.786V110.996C309.786 111.637 309.923 112.078 310.196 112.32C310.47 112.562 310.884 112.684 311.439 112.684C311.587 112.684 311.72 112.68 311.837 112.672C311.954 112.656 312.068 112.645 312.177 112.637V114.605C312.013 114.629 311.818 114.652 311.591 114.676C311.364 114.699 311.122 114.711 310.864 114.711Z" fill="black"/>
<path d="M176.5 135.5C175.7 135.5 175 136.2 175 137C175 137.8 175.7 138.5 176.5 138.5C177.3 138.5 178 137.8 178 137C178 136.2 177.3 135.5 176.5 135.5ZM176.5 130.5C172.9 130.5 170 133.3 170 136.7C170 137.5 170.3 138.5 170.9 139.8C171.4 140.9 172.1 142.1 172.9 143.4C173.6 144.4 175.9 147.2 176.1 147.3L176.5 147.8L176.9 147.3C177.1 147.1 179.5 144.4 180.1 143.4C180.9 142.2 181.6 140.9 182.1 139.8C182.7 138.5 183 137.5 183 136.7C183 133.3 180.1 130.5 176.5 130.5ZM180.8 139.2C180.3 140.2 179.7 141.4 178.9 142.6C178.4 143.3 177.2 144.8 176.5 145.6C175.8 144.8 174.6 143.3 174.1 142.6C173.3 141.4 172.7 140.3 172.2 139.3C171.6 137.9 171.5 137.1 171.5 136.8C171.5 134.2 173.7 132.1 176.5 132.1C179.3 132.1 181.5 134.2 181.5 136.8C181.5 137 181.4 137.8 180.8 139.2Z" fill="#646970"/>
<path d="M190.938 143.5L194.315 134.34H195.191V135.819H194.829L192.138 143.5H190.938ZM192.468 140.878L192.823 139.907H196.962L197.317 140.878H192.468ZM197.622 143.5L194.931 135.819V134.34H195.445L198.822 143.5H197.622ZM202.338 143.551C201.636 143.551 201.126 143.409 200.809 143.125C200.495 142.842 200.339 142.374 200.339 141.723V137.571H199.26V136.657H200.339V134.886H201.481V136.657H202.979V137.571H201.481V141.443C201.481 141.845 201.558 142.135 201.71 142.313C201.862 142.486 202.116 142.573 202.472 142.573C202.569 142.573 202.652 142.571 202.719 142.567C202.791 142.563 202.878 142.556 202.979 142.548V143.487C202.874 143.504 202.768 143.519 202.662 143.532C202.556 143.544 202.448 143.551 202.338 143.551ZM204.693 143.5V133.94H205.798V143.5H204.693ZM209.797 143.621C209.365 143.621 208.976 143.538 208.629 143.373C208.286 143.208 208.013 142.973 207.81 142.668C207.611 142.364 207.512 142.004 207.512 141.589V141.577C207.512 141.17 207.609 140.823 207.804 140.536C207.998 140.244 208.282 140.015 208.654 139.85C209.027 139.685 209.477 139.588 210.006 139.558L212.52 139.406V140.288L210.14 140.44C209.619 140.47 209.238 140.578 208.997 140.764C208.76 140.95 208.642 141.213 208.642 141.551V141.564C208.642 141.911 208.773 142.182 209.035 142.376C209.298 142.567 209.628 142.662 210.025 142.662C210.402 142.662 210.736 142.588 211.028 142.44C211.32 142.288 211.549 142.082 211.714 141.824C211.883 141.566 211.968 141.274 211.968 140.948V138.815C211.968 138.392 211.839 138.071 211.581 137.851C211.327 137.626 210.944 137.514 210.432 137.514C210.021 137.514 209.685 137.588 209.422 137.736C209.16 137.88 208.984 138.085 208.896 138.352L208.889 138.371H207.785L207.791 138.333C207.85 137.973 207.998 137.66 208.235 137.394C208.477 137.123 208.788 136.913 209.168 136.765C209.549 136.613 209.983 136.537 210.47 136.537C211.028 136.537 211.5 136.628 211.885 136.81C212.275 136.992 212.569 137.254 212.768 137.597C212.971 137.935 213.072 138.341 213.072 138.815V143.5H211.968V142.491H211.866C211.722 142.732 211.547 142.937 211.339 143.106C211.136 143.276 210.906 143.405 210.647 143.494C210.389 143.578 210.106 143.621 209.797 143.621ZM215.091 143.5V136.657H216.195V137.686H216.297C216.47 137.322 216.72 137.04 217.046 136.841C217.372 136.638 217.786 136.537 218.29 136.537C219.06 136.537 219.651 136.757 220.061 137.197C220.476 137.633 220.683 138.257 220.683 139.069V143.5H219.579V139.336C219.579 138.718 219.447 138.261 219.185 137.965C218.927 137.664 218.525 137.514 217.979 137.514C217.615 137.514 217.3 137.592 217.033 137.749C216.767 137.906 216.559 138.128 216.411 138.416C216.267 138.703 216.195 139.048 216.195 139.45V143.5H215.091ZM225.114 143.551C224.411 143.551 223.901 143.409 223.584 143.125C223.271 142.842 223.114 142.374 223.114 141.723V137.571H222.035V136.657H223.114V134.886H224.257V136.657H225.755V137.571H224.257V141.443C224.257 141.845 224.333 142.135 224.485 142.313C224.638 142.486 224.892 142.573 225.247 142.573C225.344 142.573 225.427 142.571 225.495 142.567C225.567 142.563 225.653 142.556 225.755 142.548V143.487C225.649 143.504 225.543 143.519 225.438 143.532C225.332 143.544 225.224 143.551 225.114 143.551ZM229.284 143.621C228.853 143.621 228.463 143.538 228.116 143.373C227.773 143.208 227.5 142.973 227.297 142.668C227.098 142.364 226.999 142.004 226.999 141.589V141.577C226.999 141.17 227.096 140.823 227.291 140.536C227.486 140.244 227.769 140.015 228.142 139.85C228.514 139.685 228.965 139.588 229.494 139.558L232.007 139.406V140.288L229.627 140.44C229.106 140.47 228.726 140.578 228.484 140.764C228.247 140.95 228.129 141.213 228.129 141.551V141.564C228.129 141.911 228.26 142.182 228.522 142.376C228.785 142.567 229.115 142.662 229.513 142.662C229.889 142.662 230.224 142.588 230.516 142.44C230.808 142.288 231.036 142.082 231.201 141.824C231.37 141.566 231.455 141.274 231.455 140.948V138.815C231.455 138.392 231.326 138.071 231.068 137.851C230.814 137.626 230.431 137.514 229.919 137.514C229.508 137.514 229.172 137.588 228.91 137.736C228.647 137.88 228.472 138.085 228.383 138.352L228.376 138.371H227.272L227.278 138.333C227.338 137.973 227.486 137.66 227.723 137.394C227.964 137.123 228.275 136.913 228.656 136.765C229.037 136.613 229.47 136.537 229.957 136.537C230.516 136.537 230.987 136.628 231.373 136.81C231.762 136.992 232.056 137.254 232.255 137.597C232.458 137.935 232.56 138.341 232.56 138.815V143.5H231.455V142.491H231.354C231.21 142.732 231.034 142.937 230.827 143.106C230.624 143.276 230.393 143.405 230.135 143.494C229.877 143.578 229.593 143.621 229.284 143.621ZM234.299 145.83L234.851 142.218H236.114L235.118 145.83H234.299ZM246.029 143.716C245.395 143.716 244.821 143.604 244.309 143.379C243.801 143.155 243.365 142.833 243.001 142.415C242.642 141.996 242.365 141.492 242.17 140.904C241.975 140.316 241.878 139.655 241.878 138.923V138.911C241.878 137.946 242.049 137.106 242.392 136.391C242.735 135.671 243.217 135.115 243.839 134.721C244.466 134.323 245.196 134.125 246.029 134.125C246.706 134.125 247.309 134.245 247.838 134.486C248.372 134.723 248.81 135.058 249.152 135.489C249.499 135.921 249.732 136.427 249.851 137.006L249.863 137.07H248.708L248.689 137.006C248.503 136.414 248.183 135.961 247.73 135.648C247.278 135.335 246.711 135.178 246.029 135.178C245.424 135.178 244.897 135.333 244.449 135.642C244.004 135.946 243.66 136.378 243.414 136.937C243.169 137.495 243.046 138.153 243.046 138.911V138.923C243.046 139.499 243.114 140.017 243.249 140.479C243.389 140.94 243.588 141.333 243.846 141.659C244.108 141.981 244.423 142.228 244.792 142.402C245.16 142.575 245.574 142.662 246.036 142.662C246.582 142.662 247.06 142.554 247.47 142.338C247.885 142.118 248.207 141.814 248.435 141.424C248.664 141.035 248.778 140.582 248.778 140.066V139.844H246.207V138.841H249.92V139.958C249.92 140.521 249.827 141.033 249.641 141.494C249.459 141.955 249.197 142.353 248.854 142.688C248.511 143.018 248.101 143.271 247.623 143.449C247.144 143.627 246.613 143.716 246.029 143.716ZM254.599 143.621C253.947 143.621 253.386 143.477 252.917 143.189C252.451 142.901 252.091 142.495 251.837 141.97C251.588 141.441 251.463 140.819 251.463 140.104V140.098C251.463 139.391 251.588 138.771 251.837 138.238C252.091 137.705 252.449 137.288 252.91 136.987C253.371 136.687 253.911 136.537 254.529 136.537C255.151 136.537 255.684 136.681 256.128 136.968C256.577 137.256 256.92 137.658 257.157 138.174C257.398 138.686 257.519 139.283 257.519 139.964V140.396H252.034V139.514H256.954L256.408 140.32V139.882C256.408 139.344 256.327 138.902 256.167 138.555C256.006 138.208 255.784 137.95 255.5 137.781C255.216 137.607 254.891 137.521 254.522 137.521C254.154 137.521 253.824 137.611 253.532 137.793C253.244 137.971 253.016 138.236 252.847 138.587C252.677 138.938 252.593 139.37 252.593 139.882V140.32C252.593 140.806 252.675 141.223 252.84 141.57C253.005 141.913 253.24 142.178 253.545 142.364C253.85 142.546 254.209 142.637 254.624 142.637C254.933 142.637 255.202 142.594 255.43 142.51C255.659 142.425 255.847 142.317 255.995 142.186C256.143 142.055 256.247 141.922 256.306 141.786L256.332 141.729H257.436L257.423 141.78C257.364 142.013 257.258 142.239 257.106 142.459C256.958 142.675 256.765 142.872 256.528 143.049C256.291 143.223 256.01 143.362 255.684 143.468C255.362 143.57 255.001 143.621 254.599 143.621ZM262.044 143.621C261.397 143.621 260.836 143.479 260.362 143.195C259.893 142.908 259.529 142.499 259.271 141.97C259.017 141.441 258.89 140.813 258.89 140.085V140.072C258.89 139.34 259.017 138.71 259.271 138.181C259.529 137.652 259.893 137.245 260.362 136.962C260.836 136.678 261.397 136.537 262.044 136.537C262.696 136.537 263.257 136.678 263.727 136.962C264.196 137.245 264.558 137.652 264.812 138.181C265.07 138.71 265.199 139.34 265.199 140.072V140.085C265.199 140.813 265.07 141.441 264.812 141.97C264.558 142.499 264.196 142.908 263.727 143.195C263.257 143.479 262.696 143.621 262.044 143.621ZM262.044 142.643C262.476 142.643 262.842 142.542 263.143 142.338C263.443 142.135 263.672 141.843 263.828 141.462C263.989 141.082 264.069 140.622 264.069 140.085V140.072C264.069 139.531 263.989 139.069 263.828 138.688C263.672 138.308 263.443 138.018 263.143 137.819C262.842 137.616 262.476 137.514 262.044 137.514C261.613 137.514 261.247 137.616 260.946 137.819C260.646 138.018 260.415 138.308 260.254 138.688C260.098 139.069 260.02 139.531 260.02 140.072V140.085C260.02 140.622 260.098 141.082 260.254 141.462C260.415 141.843 260.646 142.135 260.946 142.338C261.247 142.542 261.613 142.643 262.044 142.643ZM266.913 143.5V136.657H268.018V137.673H268.119C268.25 137.313 268.472 137.034 268.786 136.835C269.099 136.636 269.486 136.537 269.947 136.537C270.053 136.537 270.157 136.543 270.258 136.556C270.364 136.564 270.444 136.573 270.5 136.581V137.654C270.385 137.633 270.273 137.618 270.163 137.609C270.057 137.597 269.943 137.59 269.82 137.59C269.469 137.59 269.158 137.66 268.887 137.8C268.616 137.939 268.403 138.134 268.246 138.384C268.094 138.633 268.018 138.925 268.018 139.26V143.5H266.913ZM274.492 145.912C273.942 145.912 273.462 145.834 273.051 145.677C272.641 145.525 272.313 145.307 272.067 145.023C271.826 144.744 271.676 144.418 271.617 144.046L271.629 144.04H272.772L272.778 144.046C272.838 144.304 273.015 144.516 273.312 144.681C273.608 144.85 274.001 144.935 274.492 144.935C275.106 144.935 275.584 144.795 275.927 144.516C276.274 144.241 276.447 143.851 276.447 143.348V141.964H276.346C276.202 142.214 276.022 142.427 275.806 142.605C275.59 142.783 275.347 142.918 275.076 143.011C274.805 143.1 274.513 143.145 274.2 143.145C273.612 143.145 273.102 143.005 272.67 142.726C272.243 142.442 271.913 142.053 271.68 141.558C271.447 141.062 271.331 140.495 271.331 139.856V139.844C271.331 139.205 271.447 138.638 271.68 138.143C271.917 137.643 272.251 137.252 272.683 136.968C273.115 136.681 273.629 136.537 274.226 136.537C274.547 136.537 274.843 136.587 275.114 136.689C275.385 136.791 275.624 136.934 275.832 137.121C276.043 137.307 276.219 137.529 276.358 137.787H276.435V136.657H277.539V143.405C277.539 143.913 277.414 144.355 277.165 144.731C276.919 145.108 276.568 145.398 276.111 145.601C275.654 145.808 275.114 145.912 274.492 145.912ZM274.441 142.167C274.865 142.167 275.226 142.07 275.527 141.875C275.832 141.676 276.064 141.403 276.225 141.056C276.39 140.709 276.473 140.309 276.473 139.856V139.844C276.473 139.391 276.39 138.989 276.225 138.638C276.064 138.286 275.832 138.011 275.527 137.812C275.226 137.614 274.865 137.514 274.441 137.514C274.018 137.514 273.659 137.614 273.362 137.812C273.07 138.011 272.846 138.286 272.689 138.638C272.537 138.989 272.461 139.391 272.461 139.844V139.856C272.461 140.309 272.537 140.709 272.689 141.056C272.846 141.403 273.07 141.676 273.362 141.875C273.659 142.07 274.018 142.167 274.441 142.167ZM279.621 143.5V136.657H280.726V143.5H279.621ZM280.18 135.337C279.972 135.337 279.792 135.263 279.64 135.115C279.492 134.962 279.418 134.783 279.418 134.575C279.418 134.364 279.492 134.184 279.64 134.036C279.792 133.888 279.972 133.813 280.18 133.813C280.391 133.813 280.571 133.888 280.719 134.036C280.867 134.184 280.941 134.364 280.941 134.575C280.941 134.783 280.867 134.962 280.719 135.115C280.571 135.263 280.391 135.337 280.18 135.337ZM284.687 143.621C284.255 143.621 283.866 143.538 283.519 143.373C283.176 143.208 282.903 142.973 282.7 142.668C282.501 142.364 282.401 142.004 282.401 141.589V141.577C282.401 141.17 282.499 140.823 282.693 140.536C282.888 140.244 283.172 140.015 283.544 139.85C283.916 139.685 284.367 139.588 284.896 139.558L287.41 139.406V140.288L285.029 140.44C284.509 140.47 284.128 140.578 283.887 140.764C283.65 140.95 283.531 141.213 283.531 141.551V141.564C283.531 141.911 283.662 142.182 283.925 142.376C284.187 142.567 284.517 142.662 284.915 142.662C285.292 142.662 285.626 142.588 285.918 142.44C286.21 142.288 286.438 142.082 286.604 141.824C286.773 141.566 286.857 141.274 286.857 140.948V138.815C286.857 138.392 286.728 138.071 286.47 137.851C286.216 137.626 285.833 137.514 285.321 137.514C284.911 137.514 284.574 137.588 284.312 137.736C284.05 137.88 283.874 138.085 283.785 138.352L283.779 138.371H282.674L282.681 138.333C282.74 137.973 282.888 137.66 283.125 137.394C283.366 137.123 283.677 136.913 284.058 136.765C284.439 136.613 284.873 136.537 285.359 136.537C285.918 136.537 286.39 136.628 286.775 136.81C287.164 136.992 287.458 137.254 287.657 137.597C287.86 137.935 287.962 138.341 287.962 138.815V143.5H286.857V142.491H286.756C286.612 142.732 286.436 142.937 286.229 143.106C286.026 143.276 285.795 143.405 285.537 143.494C285.279 143.578 284.995 143.621 284.687 143.621ZM289.701 145.83L290.253 142.218H291.517L290.52 145.83H289.701ZM301.267 143.716C300.509 143.716 299.857 143.574 299.312 143.291C298.77 143.007 298.353 142.613 298.061 142.11C297.769 141.602 297.623 141.016 297.623 140.352V134.34H298.766V140.275C298.766 140.745 298.863 141.16 299.058 141.52C299.257 141.875 299.542 142.154 299.915 142.357C300.287 142.561 300.738 142.662 301.267 142.662C301.796 142.662 302.244 142.561 302.612 142.357C302.985 142.154 303.268 141.875 303.463 141.52C303.658 141.16 303.755 140.745 303.755 140.275V134.34H304.897V140.352C304.897 141.016 304.751 141.602 304.459 142.11C304.172 142.613 303.757 143.007 303.215 143.291C302.674 143.574 302.024 143.716 301.267 143.716ZM310.223 143.716C309.555 143.716 308.971 143.608 308.471 143.392C307.976 143.172 307.583 142.872 307.291 142.491C307.003 142.106 306.836 141.666 306.789 141.17L306.783 141.101H307.925L307.932 141.17C307.961 141.475 308.078 141.74 308.281 141.964C308.488 142.184 308.763 142.355 309.106 142.478C309.453 142.601 309.847 142.662 310.287 142.662C310.701 142.662 311.069 142.597 311.391 142.465C311.717 142.33 311.973 142.144 312.159 141.907C312.345 141.67 312.438 141.397 312.438 141.088V141.082C312.438 140.701 312.299 140.381 312.02 140.123C311.74 139.861 311.285 139.66 310.655 139.52L309.639 139.298C308.721 139.095 308.052 138.782 307.633 138.358C307.219 137.931 307.011 137.385 307.011 136.721V136.714C307.015 136.207 307.153 135.758 307.424 135.369C307.699 134.979 308.078 134.675 308.56 134.455C309.047 134.235 309.605 134.125 310.236 134.125C310.845 134.125 311.385 134.235 311.854 134.455C312.324 134.67 312.697 134.962 312.972 135.331C313.251 135.699 313.405 136.111 313.435 136.568L313.441 136.657H312.299L312.286 136.575C312.244 136.304 312.134 136.065 311.956 135.857C311.778 135.646 311.541 135.479 311.245 135.356C310.949 135.233 310.602 135.174 310.204 135.178C309.823 135.178 309.48 135.237 309.176 135.356C308.871 135.474 308.628 135.646 308.446 135.87C308.268 136.09 308.179 136.361 308.179 136.683V136.689C308.179 137.053 308.315 137.36 308.585 137.609C308.856 137.859 309.303 138.052 309.925 138.187L310.94 138.416C311.579 138.555 312.094 138.737 312.483 138.961C312.872 139.186 313.156 139.461 313.333 139.787C313.515 140.108 313.606 140.489 313.606 140.929V140.936C313.606 141.507 313.467 142 313.188 142.415C312.908 142.829 312.515 143.151 312.007 143.379C311.499 143.604 310.904 143.716 310.223 143.716ZM314.781 143.5L318.158 134.34H319.034V135.819H318.672L315.98 143.5H314.781ZM316.311 140.878L316.666 139.907H320.805L321.16 140.878H316.311ZM321.465 143.5L318.773 135.819V134.34H319.288L322.665 143.5H321.465Z" fill="#646970"/>
<rect x="104" y="166.5" width="280" height="40" rx="4" fill="#2CA7EE"/>
<path d="M223.284 191.739C222.373 191.739 221.582 191.53 220.912 191.11C220.247 190.691 219.734 190.096 219.374 189.326C219.014 188.556 218.834 187.64 218.834 186.578V186.564C218.834 185.498 219.014 184.58 219.374 183.81C219.734 183.039 220.247 182.445 220.912 182.025C221.577 181.606 222.368 181.396 223.284 181.396C224.009 181.396 224.663 181.54 225.246 181.827C225.834 182.11 226.315 182.502 226.688 183.003C227.067 183.504 227.297 184.081 227.379 184.732V184.773H225.854L225.848 184.746C225.757 184.34 225.59 183.99 225.349 183.693C225.107 183.397 224.811 183.167 224.46 183.003C224.109 182.839 223.717 182.757 223.284 182.757C222.696 182.757 222.186 182.912 221.753 183.222C221.325 183.532 220.992 183.971 220.755 184.541C220.522 185.106 220.406 185.781 220.406 186.564V186.578C220.406 187.353 220.522 188.025 220.755 188.595C220.992 189.164 221.325 189.604 221.753 189.914C222.186 190.224 222.699 190.379 223.291 190.379C223.724 190.379 224.116 190.306 224.467 190.16C224.822 190.014 225.118 189.807 225.355 189.538C225.592 189.265 225.754 188.943 225.841 188.574L225.854 188.547H227.386L227.379 188.581C227.283 189.215 227.051 189.768 226.682 190.242C226.312 190.716 225.839 191.085 225.26 191.35C224.681 191.609 224.022 191.739 223.284 191.739ZM232.089 191.644C231.365 191.644 230.738 191.489 230.209 191.179C229.685 190.869 229.282 190.427 228.999 189.853C228.717 189.274 228.575 188.588 228.575 187.795V187.781C228.575 186.984 228.717 186.298 228.999 185.724C229.286 185.149 229.692 184.707 230.216 184.397C230.745 184.088 231.369 183.933 232.089 183.933C232.814 183.933 233.438 184.088 233.962 184.397C234.486 184.703 234.89 185.145 235.172 185.724C235.459 186.298 235.603 186.984 235.603 187.781V187.795C235.603 188.588 235.459 189.274 235.172 189.853C234.89 190.427 234.486 190.869 233.962 191.179C233.443 191.489 232.818 191.644 232.089 191.644ZM232.089 190.399C232.513 190.399 232.873 190.297 233.169 190.092C233.465 189.882 233.691 189.584 233.846 189.196C234.001 188.809 234.078 188.342 234.078 187.795V187.781C234.078 187.23 234.001 186.76 233.846 186.373C233.691 185.986 233.465 185.689 233.169 185.484C232.873 185.275 232.513 185.17 232.089 185.17C231.665 185.17 231.305 185.275 231.009 185.484C230.713 185.689 230.485 185.986 230.325 186.373C230.171 186.76 230.093 187.23 230.093 187.781V187.795C230.093 188.342 230.171 188.809 230.325 189.196C230.485 189.584 230.713 189.882 231.009 190.092C231.305 190.297 231.665 190.399 232.089 190.399ZM237.086 191.5V184.076H238.57V185.197H238.686C238.868 184.801 239.137 184.491 239.493 184.268C239.848 184.044 240.297 183.933 240.839 183.933C241.673 183.933 242.311 184.172 242.753 184.65C243.196 185.129 243.417 185.81 243.417 186.694V191.5H241.926V187.043C241.926 186.423 241.796 185.963 241.537 185.662C241.281 185.357 240.88 185.204 240.334 185.204C239.974 185.204 239.661 185.284 239.397 185.443C239.133 185.598 238.928 185.822 238.782 186.113C238.641 186.4 238.57 186.744 238.57 187.146V191.5H237.086ZM248.004 191.548C247.193 191.548 246.605 191.393 246.24 191.083C245.88 190.769 245.7 190.256 245.7 189.545V185.245H244.538V184.076H245.7V182.203H247.218V184.076H248.81V185.245H247.218V189.183C247.218 189.584 247.297 189.873 247.457 190.051C247.616 190.224 247.881 190.311 248.25 190.311C248.359 190.311 248.453 190.308 248.53 190.304C248.612 190.299 248.706 190.292 248.81 190.283V191.473C248.692 191.491 248.564 191.507 248.428 191.521C248.291 191.539 248.15 191.548 248.004 191.548ZM252.304 191.623C251.834 191.623 251.413 191.534 251.039 191.356C250.67 191.174 250.378 190.917 250.164 190.584C249.95 190.251 249.843 189.862 249.843 189.415V189.401C249.843 188.955 249.95 188.574 250.164 188.26C250.383 187.945 250.697 187.699 251.108 187.521C251.522 187.339 252.024 187.23 252.611 187.193L255.353 187.029V188.075L252.817 188.239C252.306 188.271 251.93 188.381 251.689 188.567C251.447 188.75 251.326 189.007 251.326 189.34V189.354C251.326 189.691 251.456 189.957 251.716 190.153C251.976 190.345 252.304 190.44 252.7 190.44C253.069 190.44 253.398 190.368 253.685 190.222C253.976 190.071 254.204 189.871 254.368 189.62C254.532 189.365 254.614 189.078 254.614 188.759V186.421C254.614 186.011 254.487 185.699 254.232 185.484C253.981 185.266 253.607 185.156 253.11 185.156C252.696 185.156 252.356 185.229 252.092 185.375C251.832 185.521 251.659 185.726 251.572 185.99L251.559 186.011H250.13L250.137 185.963C250.196 185.553 250.358 185.197 250.622 184.896C250.891 184.591 251.242 184.354 251.675 184.186C252.112 184.017 252.611 183.933 253.172 183.933C253.796 183.933 254.325 184.033 254.758 184.233C255.195 184.429 255.526 184.714 255.749 185.088C255.977 185.457 256.091 185.901 256.091 186.421V191.5H254.614V190.447H254.505C254.359 190.698 254.177 190.912 253.958 191.09C253.739 191.263 253.491 191.395 253.213 191.486C252.935 191.577 252.632 191.623 252.304 191.623ZM261.027 191.644C260.307 191.644 259.685 191.489 259.161 191.179C258.641 190.864 258.24 190.418 257.957 189.839C257.675 189.26 257.534 188.57 257.534 187.768V187.754C257.534 186.965 257.673 186.286 257.951 185.717C258.233 185.147 258.634 184.707 259.154 184.397C259.678 184.088 260.3 183.933 261.02 183.933C261.644 183.933 262.18 184.042 262.626 184.261C263.078 184.475 263.435 184.771 263.7 185.149C263.968 185.523 264.137 185.949 264.205 186.428L264.212 186.462H262.784L262.777 186.448C262.695 186.084 262.506 185.781 262.209 185.539C261.913 185.293 261.519 185.17 261.027 185.17C260.617 185.17 260.263 185.275 259.967 185.484C259.671 185.689 259.443 185.986 259.284 186.373C259.129 186.76 259.051 187.221 259.051 187.754V187.768C259.051 188.314 259.131 188.784 259.29 189.176C259.45 189.568 259.678 189.871 259.974 190.085C260.27 190.295 260.621 190.399 261.027 190.399C261.492 190.399 261.868 190.297 262.155 190.092C262.446 189.887 262.651 189.584 262.77 189.183L262.784 189.148L264.205 189.142L264.192 189.203C264.105 189.686 263.93 190.11 263.665 190.475C263.401 190.839 263.048 191.126 262.606 191.336C262.168 191.541 261.642 191.644 261.027 191.644ZM268.519 191.548C267.708 191.548 267.12 191.393 266.756 191.083C266.396 190.769 266.216 190.256 266.216 189.545V185.245H265.053V184.076H266.216V182.203H267.733V184.076H269.326V185.245H267.733V189.183C267.733 189.584 267.813 189.873 267.972 190.051C268.132 190.224 268.396 190.311 268.765 190.311C268.875 190.311 268.968 190.308 269.046 190.304C269.128 190.299 269.221 190.292 269.326 190.283V191.473C269.207 191.491 269.08 191.507 268.943 191.521C268.806 191.539 268.665 191.548 268.519 191.548Z" fill="white"/>
</g>
</g>
<defs>
<filter id="filter0_dddd_8888_17191" x="64" y="28.5" width="360" height="234" filterUnits="userSpaceOnUse" color-interpolation-filters="sRGB">
<feFlood flood-opacity="0" result="BackgroundImageFix"/>
<feColorMatrix in="SourceAlpha" type="matrix" values="0 0 0 0 0 0 0 0 0 0 0 0 0 0 0 0 0 0 127 0" result="hardAlpha"/>
<feOffset dy="16"/>
<feGaussianBlur stdDeviation="8"/>
<feComposite in2="hardAlpha" operator="out"/>
<feColorMatrix type="matrix" values="0 0 0 0 0 0 0 0 0 0 0 0 0 0 0 0 0 0 0.02 0"/>
<feBlend mode="normal" in2="BackgroundImageFix" result="effect1_dropShadow_8888_17191"/>
<feColorMatrix in="SourceAlpha" type="matrix" values="0 0 0 0 0 0 0 0 0 0 0 0 0 0 0 0 0 0 127 0" result="hardAlpha"/>
<feOffset dy="4"/>
<feGaussianBlur stdDeviation="2.5"/>
<feComposite in2="hardAlpha" operator="out"/>
<feColorMatrix type="matrix" values="0 0 0 0 0 0 0 0 0 0 0 0 0 0 0 0 0 0 0.03 0"/>
<feBlend mode="normal" in2="effect1_dropShadow_8888_17191" result="effect2_dropShadow_8888_17191"/>
<feColorMatrix in="SourceAlpha" type="matrix" values="0 0 0 0 0 0 0 0 0 0 0 0 0 0 0 0 0 0 127 0" result="hardAlpha"/>
<feOffset dy="4"/>
<feGaussianBlur stdDeviation="2.5"/>
<feComposite in2="hardAlpha" operator="out"/>
<feColorMatrix type="matrix" values="0 0 0 0 0 0 0 0 0 0 0 0 0 0 0 0 0 0 0.04 0"/>
<feBlend mode="normal" in2="effect2_dropShadow_8888_17191" result="effect3_dropShadow_8888_17191"/>
<feColorMatrix in="SourceAlpha" type="matrix" values="0 0 0 0 0 0 0 0 0 0 0 0 0 0 0 0 0 0 127 0" result="hardAlpha"/>
<feOffset dy="2"/>
<feGaussianBlur stdDeviation="1.5"/>
<feComposite in2="hardAlpha" operator="out"/>
<feColorMatrix type="matrix" values="0 0 0 0 0 0 0 0 0 0 0 0 0 0 0 0 0 0 0.05 0"/>
<feBlend mode="normal" in2="effect3_dropShadow_8888_17191" result="effect4_dropShadow_8888_17191"/>
<feBlend mode="normal" in="SourceGraphic" in2="effect4_dropShadow_8888_17191" result="shape"/>
</filter>
<clipPath id="clip0_8888_17191">
<rect width="488" height="260" fill="white"/>
</clipPath>
</defs>
</svg>
