<svg width="155" height="303" viewBox="0 0 155 303" fill="none" xmlns="http://www.w3.org/2000/svg">
<style>
.spiral-dark { stroke: #050C29; stroke-miterlimit: 10; fill: none; }
.spiral-light { stroke: #0B1A56; stroke-miterlimit: 10; fill: none; }
</style>
<g clip-path="url(#clip0_8569_32248)">
<rect x="114.216" y="312.045" width="228.433" height="228.433" rx="114.216" transform="rotate(-120 114.216 312.045)" fill="#0B1A56"/>
<path d="M298.908 300.134C311.742 237.946 314.656 221.61 311.916 202.176C309.175 182.742 305.229 191.745 289.656 234.501C274.081 277.255 269.45 291.804 256.616 353.991C243.781 416.179 243.57 425.097 246.311 444.53C249.051 463.964 252.786 451.546 266.141 423.499C279.744 394.918 286.074 362.321 298.908 300.134Z" class="spiral-dark"/>
<path d="M299.857 300.216C313.965 235.384 317.202 218.308 314.709 197.419C312.216 176.53 308.039 185.722 291.438 229.664C274.837 273.606 269.871 288.623 255.763 353.454C241.655 418.285 241.299 427.735 243.792 448.624C246.285 469.514 250.3 456.675 264.398 428.144C278.761 399.069 285.747 365.048 299.857 300.216Z" class="spiral-dark"/>
<path d="M300.834 300.401C316.287 232.878 319.865 215.052 317.65 192.638C315.433 170.225 311.017 179.594 293.35 224.702C275.683 269.81 270.366 285.29 254.915 352.809C239.463 420.327 238.95 430.33 241.165 452.744C243.382 475.157 247.69 461.9 262.553 432.921C277.699 403.394 285.382 367.923 300.834 300.401Z" class="spiral-dark"/>
<path d="M301.828 300.694C318.695 230.443 322.639 211.849 320.729 187.845C318.82 163.841 314.155 173.375 295.378 219.622C276.601 265.868 270.92 281.808 254.051 352.057C237.182 422.305 236.499 432.876 238.408 456.88C240.318 480.884 244.936 467.212 260.59 437.829C276.541 407.892 284.961 370.944 301.828 300.694Z" class="spiral-dark"/>
<path d="M302.838 301.089C321.197 228.072 325.523 208.698 323.952 183.033C322.38 157.367 317.46 167.056 297.528 214.406C277.596 261.755 271.538 278.149 253.178 351.164C234.817 424.18 233.951 435.338 235.523 461.004C237.094 486.669 242.03 472.583 258.503 442.846C275.286 412.549 284.48 374.107 302.838 301.089Z" class="spiral-dark"/>
<path d="M303.858 301.609C323.786 225.795 328.517 205.626 327.316 178.228C326.117 150.829 320.933 160.657 299.806 209.072C278.679 257.487 272.224 274.328 252.295 350.142C232.367 425.956 231.305 437.722 232.503 465.121C233.702 492.52 238.972 478.023 256.283 447.987C273.924 417.382 283.932 377.422 303.858 301.609Z" class="spiral-dark"/>
<path d="M304.907 302.256C326.483 223.617 331.638 202.645 330.848 173.44C330.057 144.235 324.602 154.189 302.235 203.624C279.868 253.059 273.001 270.338 251.424 348.975C229.846 427.613 228.575 440.007 229.366 469.212C230.156 498.417 235.774 483.516 253.949 453.24C272.466 422.387 283.332 380.893 304.907 302.256Z" class="spiral-dark"/>
<path d="M305.964 303.041C329.27 221.558 334.874 199.771 334.526 168.688C334.182 137.605 328.446 147.664 304.795 198.064C281.145 248.464 273.852 266.17 250.546 347.653C227.24 429.136 225.742 442.177 226.086 473.259C226.431 504.342 232.412 489.044 251.47 458.595C270.892 427.567 282.658 384.523 305.964 303.041Z" class="spiral-dark"/>
<path d="M307.028 303.972C332.147 219.629 338.222 197.02 338.361 163.984C338.499 130.948 332.478 141.094 307.501 192.401C282.523 243.706 274.784 261.827 249.667 346.168C224.551 430.509 222.809 444.217 222.669 477.251C222.529 510.285 228.884 494.602 248.851 464.05C269.197 432.919 281.909 388.315 307.028 303.972Z" class="spiral-dark"/>
<path d="M308.103 305.06C335.12 217.852 341.691 194.413 342.357 159.348C343.025 124.285 336.709 134.493 310.357 186.641C284.008 238.786 275.809 257.302 248.792 344.51C221.775 431.719 219.778 446.109 219.11 481.172C218.442 516.235 225.188 500.175 246.088 469.598C267.381 438.443 281.086 392.269 308.103 305.06Z" class="spiral-dark"/>
<path d="M309.185 306.315C338.19 216.24 345.277 191.966 346.516 154.799C347.755 117.633 341.133 127.883 313.37 180.79C285.607 233.697 276.93 252.592 247.925 342.667C218.921 432.741 216.651 447.835 215.412 485.002C214.173 522.168 221.326 505.747 243.174 475.234C265.44 444.138 280.182 396.391 309.185 306.315Z" class="spiral-dark"/>
<path d="M310.275 307.751C341.357 214.818 348.988 189.707 350.845 150.358C352.702 111.01 345.77 121.276 316.545 174.86C287.32 228.445 278.154 247.697 247.071 340.628C215.987 433.559 213.429 449.373 211.572 488.722C209.715 528.07 217.287 511.3 240.11 480.94C263.365 450.005 279.193 400.685 310.275 307.751Z" class="spiral-dark"/>
<path d="M311.358 309.372C344.608 213.598 352.807 187.646 355.331 146.04C357.855 104.435 350.605 114.688 319.878 168.854C289.151 223.02 279.474 242.607 246.223 338.378C212.972 434.15 210.107 450.704 207.582 492.31C205.058 533.915 213.067 516.816 236.879 486.711C261.142 456.036 278.107 405.144 311.358 309.372Z" class="spiral-dark"/>
<path d="M312.45 311.207C347.961 212.621 356.757 185.829 359.995 141.888C363.233 97.9464 355.661 108.158 323.389 162.801C291.118 217.444 280.912 237.338 245.401 335.924C209.89 434.51 206.695 451.819 203.456 495.758C200.217 539.697 208.674 522.294 233.496 492.549C258.788 462.245 276.938 409.792 312.45 311.207Z" class="spiral-dark"/>
<path d="M313.528 313.241C351.397 211.878 360.813 184.254 364.822 137.901C368.831 91.5473 360.929 101.682 327.067 156.69C293.207 211.7 282.458 231.868 244.591 333.231C206.725 434.593 203.182 452.672 199.173 499.026C195.164 545.379 204.087 527.685 229.933 498.422C256.272 468.605 275.659 414.605 313.528 313.241Z" class="spiral-dark"/>
<path d="M314.598 315.508C354.919 211.419 364.985 182.966 369.819 134.12C374.654 85.2732 366.413 95.2993 330.924 150.546C295.436 205.792 284.128 226.204 243.807 330.295C203.487 434.386 199.58 453.251 194.744 502.095C189.908 550.939 199.311 532.986 226.2 504.325C253.599 475.125 274.277 419.599 314.598 315.508Z" class="spiral-dark"/>
<path d="M315.655 318.013C358.53 211.255 369.27 181.985 374.987 130.573C380.704 79.1615 372.119 89.0352 334.963 144.384C297.807 199.733 285.921 220.349 243.047 327.107C200.172 433.865 195.879 453.53 190.162 504.942C184.446 556.354 194.346 538.166 222.29 510.246C250.763 481.8 272.783 424.77 315.655 318.013Z" class="spiral-dark"/>
<path d="M316.707 320.776C362.232 211.424 373.678 181.347 380.338 127.295C386.998 73.242 378.066 82.9232 339.203 138.222C300.339 193.521 287.862 214.303 242.338 323.654C196.815 433.005 192.114 453.487 185.451 507.541C178.789 561.595 189.196 543.209 218.207 516.173C247.765 488.621 271.181 430.129 316.707 320.776Z" class="spiral-dark"/>
<path d="M317.73 323.802C366.007 211.943 378.186 181.077 385.851 124.305C393.517 67.5325 384.234 76.9796 343.626 132.066C303.017 187.152 289.932 208.054 241.656 319.914C193.379 431.774 188.248 453.081 180.581 509.851C172.914 566.62 183.843 548.073 213.929 522.075C244.585 495.583 269.453 435.662 317.73 323.802Z" class="spiral-dark"/>
<path d="M318.731 327.112C369.861 212.849 382.799 181.21 391.539 121.647C400.28 62.0844 390.637 71.2478 348.247 125.948C305.858 180.649 292.149 201.62 241.021 315.882C189.893 430.144 184.31 452.29 175.569 511.853C166.828 571.415 178.297 552.74 209.468 527.945C241.229 502.68 267.602 441.377 318.731 327.112Z" class="spiral-dark"/>
<path d="M319.695 330.719C373.777 214.168 387.508 181.785 397.388 119.358C407.269 56.9304 397.266 65.7577 353.062 119.883C308.859 174.008 294.513 194.993 240.428 311.543C186.343 428.093 180.286 451.085 170.405 513.512C160.525 575.94 172.546 557.182 204.806 533.762C237.676 509.898 265.613 447.268 319.695 330.719Z" class="spiral-dark"/>
<path d="M320.631 334.648C377.77 215.944 392.321 182.842 403.411 117.479C414.501 52.1157 404.136 60.5557 358.089 113.898C312.04 167.238 297.04 188.183 239.902 306.886C182.763 425.59 176.204 449.437 165.113 514.798C154.022 580.158 166.608 561.363 199.96 539.51C233.94 517.243 263.493 453.351 320.631 334.648Z" class="spiral-dark"/>
<path d="M321.521 338.902C381.82 218.198 397.218 184.407 409.596 116.042C421.974 47.6762 411.241 55.6709 363.319 108.009C315.398 160.346 299.729 181.185 239.432 301.887C179.136 422.589 172.051 447.299 159.673 515.664C147.296 584.03 160.464 565.246 194.904 545.156C229.997 524.683 261.222 459.605 321.521 338.902Z" class="spiral-dark"/>
<path d="M322.366 343.493C385.924 220.96 402.205 186.521 415.943 115.087C429.681 43.6527 418.583 51.1386 368.761 102.238C318.938 153.338 302.592 173.999 239.032 296.533C175.472 419.067 167.839 444.637 154.101 516.071C140.364 587.506 154.122 568.793 189.65 550.675C225.85 532.212 258.806 466.027 322.366 343.493Z" class="spiral-dark"/>
<path d="M323.156 348.464C390.077 224.294 407.27 189.246 422.445 114.68C437.62 40.1135 426.158 47.0262 374.413 96.6325C322.668 146.239 305.627 166.65 238.706 290.82C171.785 414.99 163.572 441.43 148.397 515.996C133.222 590.562 147.58 571.977 184.191 556.055C221.492 539.833 256.235 472.634 323.156 348.464Z" class="spiral-dark"/>
<path d="M323.887 353.801C394.273 228.206 412.403 192.598 429.103 114.84C445.804 37.0815 433.974 43.3521 380.288 91.1931C326.601 139.032 308.858 159.117 238.471 284.71C168.084 410.303 159.272 437.611 142.572 515.37C125.871 593.128 140.849 574.732 178.527 561.245C216.919 547.504 253.504 479.395 323.887 353.801Z" class="spiral-dark"/>
<path d="M324.541 359.536C398.491 232.752 417.59 196.635 435.896 115.632C454.203 34.6293 442.009 40.1847 386.367 85.9681C330.724 131.752 312.265 151.42 238.315 278.204C164.365 404.988 154.921 433.161 136.616 514.16C118.311 595.159 133.912 577.03 172.645 566.227C212.112 555.221 250.591 486.32 324.541 359.536Z" class="spiral-dark"/>
<path d="M325.127 365.695C402.738 237.981 422.838 201.415 442.838 117.117C462.837 32.8191 450.285 37.5769 392.675 80.9956C335.065 124.414 315.881 143.573 238.267 271.289C160.654 399.004 150.554 428.037 130.553 512.332C110.551 596.628 126.793 578.835 166.562 570.981C207.083 562.977 247.515 493.413 325.127 365.695Z" class="spiral-dark"/>
<path d="M325.625 372.285C406.997 243.924 428.124 206.976 449.908 119.337C471.691 31.6985 458.783 35.5797 399.198 76.3004C339.613 117.023 319.695 135.577 238.326 263.936C156.957 392.296 146.169 422.18 124.384 509.817C102.599 597.453 119.483 580.076 160.263 575.449C201.817 570.734 244.253 500.646 325.625 372.285Z" class="spiral-dark"/>
<path d="M326.032 379.332C411.254 250.635 433.44 213.377 457.101 122.356C480.761 31.3348 467.504 34.2495 405.943 71.9276C344.383 109.606 323.727 127.445 238.504 256.142C153.282 384.838 141.779 415.56 118.117 506.579C94.4556 597.598 111.994 580.72 153.757 579.615C196.312 578.487 240.809 508.029 326.032 379.332Z" class="spiral-dark"/>
<path d="M326.335 386.85C415.502 258.156 438.774 220.668 464.409 126.232C490.044 31.7962 476.443 33.6524 412.909 67.912C349.377 102.17 327.977 119.185 238.811 247.875C149.645 376.565 137.398 408.113 111.763 502.548C86.128 596.984 104.323 580.701 147.038 583.427C190.561 586.202 237.168 515.544 326.335 386.85Z" class="spiral-dark"/>
<path d="M326.531 394.859C419.728 266.54 444.116 228.905 471.821 131.028C499.526 33.1502 485.594 33.8517 420.099 64.2951C354.604 94.7385 332.459 110.807 239.261 239.126C146.064 367.445 133.043 399.796 105.338 497.674C77.6325 595.551 96.4894 579.962 140.111 586.842C184.562 593.852 233.331 523.18 326.531 394.859Z" class="spiral-dark"/>
<path d="M326.594 403.383C423.909 275.834 449.438 238.152 479.313 136.815C509.188 35.4775 494.935 34.92 427.497 61.1311C360.06 87.3421 337.164 102.334 239.849 229.884C142.534 357.433 128.711 390.567 98.8336 491.905C68.9561 593.244 88.4831 578.447 132.969 589.826C178.298 601.418 229.278 530.93 326.594 403.383Z" class="spiral-dark"/>
<path d="M326.531 412.443C428.041 286.098 454.736 248.471 486.886 143.66C519.037 38.8484 504.474 36.9297 435.114 58.4636C365.754 79.9975 342.11 93.7802 240.602 220.124C139.094 346.468 124.432 380.359 92.2815 485.17C60.1309 589.982 80.3278 576.096 125.626 592.331C171.784 608.873 225.02 538.788 326.531 412.443Z" class="spiral-dark"/>
<path d="M326.321 422.062C432.1 297.386 459.99 259.924 494.522 151.641C529.054 43.3587 514.195 39.9577 442.947 56.3485C371.699 72.7393 347.309 85.1645 241.528 209.841C135.747 334.518 120.225 369.134 85.6922 477.42C51.159 585.706 72.0294 572.848 118.08 594.314C165.004 616.181 220.54 546.738 326.321 422.062Z" class="spiral-dark"/>
<path d="M325.945 432.233C436.064 309.729 465.169 272.557 502.19 160.803C539.212 49.0494 524.075 44.0564 450.98 54.808C377.881 65.561 352.75 76.4781 242.631 198.981C132.513 321.485 116.092 356.795 79.0692 468.546C42.0467 580.298 63.5874 568.596 110.325 595.686C157.949 623.29 215.825 554.737 325.945 432.233Z" class="spiral-dark"/>
<path d="M325.411 443.014C439.931 323.222 470.275 286.469 509.898 171.268C549.52 56.0666 534.123 49.3494 459.226 53.9427C384.326 58.5351 358.461 67.7826 243.941 187.575C129.421 307.367 112.076 343.324 72.4534 458.525C32.8308 573.727 55.0379 563.312 102.389 596.437C150.635 630.192 210.892 562.809 325.411 443.014Z" class="spiral-dark"/>
<path d="M324.685 454.403C443.661 337.899 475.266 301.709 517.598 183.087C559.93 64.4655 544.3 55.8973 467.657 53.7817C391.014 51.6661 364.425 59.0693 245.449 175.573C126.473 292.077 108.168 328.634 65.8366 447.256C23.5049 565.878 46.3701 556.89 94.2501 596.484C143.039 636.831 205.709 570.907 324.685 454.403Z" class="spiral-dark"/>
<path d="M323.768 466.441C447.246 353.844 480.131 318.369 525.293 196.371C570.454 74.3727 554.611 63.8163 476.29 54.414C397.97 45.0117 370.67 50.3911 247.192 162.988C123.714 275.585 104.42 312.691 59.2589 434.689C14.0974 556.688 37.6167 549.28 85.9368 595.79C135.176 643.183 200.29 579.038 323.768 466.441Z" class="spiral-dark"/>
<path d="M322.638 479.13C450.66 371.101 484.842 336.504 532.945 211.184C581.048 85.865 565.018 73.1757 485.101 55.8832C405.185 38.5908 377.19 41.7534 249.169 149.778C121.148 257.803 100.836 295.405 52.7312 420.722C4.62684 546.039 28.7884 540.372 77.4481 594.268C127.034 649.187 194.617 587.158 322.638 479.13Z" class="spiral-dark"/>
<path d="M321.282 492.498C453.875 389.748 489.366 356.204 540.533 227.632C591.7 99.059 575.513 84.0909 494.089 58.2674C412.665 32.4438 383.994 33.1905 251.403 135.94C118.81 238.69 97.4479 276.717 46.2834 405.288C-4.88113 533.86 19.9062 530.097 68.7988 591.864C118.613 654.802 188.691 595.248 321.282 492.498Z" class="spiral-dark"/>
<path d="M319.685 506.564C456.867 409.844 493.684 377.539 548.032 245.799C602.38 114.059 586.07 96.6533 503.238 61.6357C420.406 26.618 391.084 24.7315 253.904 121.454C116.723 218.174 94.2822 256.557 39.932 388.298C-14.4181 520.039 10.9854 518.355 59.9875 588.505C109.917 659.979 182.503 603.288 319.685 506.564Z" class="spiral-dark"/>
<path d="M317.824 521.35C459.6 431.459 497.753 400.594 555.405 265.788C613.057 130.982 596.661 110.978 512.535 66.0638C428.411 21.1487 398.466 16.4101 256.688 106.303C114.91 196.195 91.359 234.853 33.7072 369.659C-23.9445 504.465 2.05073 505.052 51.0318 584.108C100.943 664.659 176.049 611.241 317.824 521.35Z" class="spiral-dark"/>
<path d="M315.692 536.877C462.058 454.665 501.551 425.456 562.628 287.703C623.706 149.951 607.261 127.181 521.974 71.6367C436.686 16.0927 406.148 8.26661 259.781 90.476C113.415 172.688 88.7243 211.533 27.646 349.289C-33.4324 487.045 -6.86494 490.091 41.9539 578.603C91.6977 668.797 169.326 619.088 315.692 536.877Z" class="spiral-dark"/>
<path d="M313.265 553.158C464.201 479.532 505.039 452.205 569.666 311.641C634.292 171.078 617.841 145.367 531.532 78.4296C445.223 11.4919 414.127 0.330658 263.192 73.9566C112.256 147.582 86.3964 186.528 21.7684 327.089C-42.8597 467.651 -15.7492 473.368 32.7558 571.908C82.1802 672.318 162.329 626.788 313.265 553.158Z" class="spiral-dark"/>
<path d="M310.524 570.233C465.996 506.146 508.177 480.944 576.476 337.729C644.775 194.513 628.366 165.677 541.193 86.548C454.02 7.4191 422.411 -7.33644 266.939 56.7501C111.466 120.837 84.4115 159.772 16.1125 302.987C-52.1865 446.203 -24.5642 454.802 23.4594 563.959C72.3906 675.184 155.051 634.319 310.524 570.233Z" class="spiral-dark"/>
<path d="M307.451 588.093C467.409 534.562 510.931 511.739 583.029 366.048C655.126 220.357 638.807 188.211 550.945 96.055C463.083 3.89921 431.002 -14.7178 271.044 38.814C111.085 92.3458 82.809 131.162 10.7125 276.85C-61.3839 422.537 -33.2804 434.249 14.0815 554.631C62.3413 677.298 147.492 641.625 307.451 588.093Z" class="spiral-dark"/>
<path d="M304.019 606.775C468.395 564.867 513.252 544.697 589.268 396.738C665.284 248.778 649.113 213.12 560.754 107.067C472.395 1.01395 439.891 -21.7478 275.517 20.1589C111.143 62.0657 81.6181 100.641 5.60239 248.601C-70.4133 396.56 -41.8693 411.617 4.63651 543.862C52.0247 678.609 139.642 648.683 304.019 606.775Z" class="spiral-dark"/>
<path d="M300.227 626.293C468.935 597.141 515.111 579.913 595.173 429.906C675.235 279.9 659.268 240.527 570.62 119.674C481.971 -1.17866 449.106 -28.3822 280.399 0.770076C111.691 29.9223 80.8963 68.1243 0.834654 218.131C-79.227 368.138 -50.2824 386.789 -4.83713 531.544C41.4692 679.04 131.518 655.443 300.227 626.293Z" class="spiral-dark"/>
<path d="M296.031 646.659C468.965 631.454 516.447 617.471 600.676 465.67C684.905 313.869 669.206 270.574 580.501 133.978C491.794 -2.61698 458.627 -34.5698 285.691 -19.3637C112.755 -4.15762 80.6702 33.5292 -3.5601 185.328C-87.7904 337.127 -58.4975 359.634 -14.3355 517.577C30.6632 678.512 123.097 661.863 296.031 646.659Z" class="spiral-dark"/>
<path d="M291.422 667.888C468.457 667.889 517.218 657.474 605.735 504.156C694.251 350.839 678.89 303.402 590.373 150.086C501.856 -3.23045 468.455 -40.2516 291.42 -40.2527C114.385 -40.2538 80.9854 -3.23094 -7.53269 150.084C-96.0507 303.4 -66.4575 330.036 -23.8187 501.859C19.6309 676.939 114.388 667.89 291.422 667.888Z" class="spiral-dark"/>
</g>
<g clip-path="url(#clip1_8569_32248)">
<rect x="219.2" y="337.199" width="157.2" height="157.2" rx="78.5998" transform="rotate(180 219.2 337.199)" fill="#050C29"/>
<path d="M119.851 408.916C176.513 408.916 169.611 387.674 215.451 354.369C261.292 321.064 279.361 334.193 296.87 280.304C314.379 226.414 292.045 226.414 274.534 172.528C257.023 118.641 275.094 105.51 229.253 72.2049C183.412 38.8999 176.51 60.1422 119.849 60.1422C63.1878 60.1422 56.2858 38.8999 10.4451 72.205C-35.3956 105.51 -17.3265 118.638 -34.8355 172.528C-52.3445 226.417 -74.6808 226.417 -57.1718 280.304C-39.6628 334.191 -16.6357 313.65 23.4537 353.691C63.8548 394.04 63.19 408.916 119.851 408.916Z" class="spiral-light"/>
<path d="M117.372 404.422C173.478 404.422 166.683 383.507 212.072 350.529C257.462 317.551 275.254 330.477 292.593 277.117C309.932 223.757 287.938 223.757 270.601 170.398C253.264 117.038 271.055 104.11 225.665 71.1323C180.273 38.1542 173.478 59.0696 117.372 59.0696C61.2668 59.0696 54.4694 38.1542 9.07979 71.1324C-36.312 104.11 -18.5197 117.036 -35.8565 170.398C-53.1933 223.757 -75.1852 223.758 -57.8484 277.117C-40.5116 330.477 -17.8266 310.213 21.8792 349.853C61.8749 389.779 61.2647 404.422 117.372 404.422Z" class="spiral-light"/>
<path d="M114.903 399.922C170.452 399.922 163.764 379.334 208.705 346.68C253.645 314.027 271.161 326.755 288.326 273.922C305.49 221.09 283.843 221.09 266.678 168.258C249.513 115.426 267.027 102.701 222.084 70.0496C177.141 37.3984 170.452 57.9869 114.903 57.9869C59.3529 57.9869 52.6622 37.3984 7.7216 70.0497C-37.219 102.701 -19.7057 115.426 -36.8725 168.258C-54.0394 221.09 -75.687 221.09 -58.5201 273.922C-41.3533 326.755 -19.0126 306.77 20.3118 346.007C59.9043 385.515 59.3529 399.922 114.903 399.922Z" class="spiral-light"/>
<path d="M112.426 395.429C167.42 395.429 160.839 375.168 205.33 342.841C249.822 310.515 267.056 323.039 284.051 270.737C301.046 218.434 279.74 218.434 262.746 166.13C245.751 113.825 262.987 101.302 218.496 68.978C174.004 36.6536 167.42 56.9152 112.424 56.9152C57.4277 56.9152 50.8461 36.6537 6.35222 68.978C-38.1395 101.302 -20.9029 113.827 -37.8976 166.13C-54.8922 218.432 -76.1977 218.432 -59.203 270.737C-42.2083 323.042 -20.2099 303.336 18.731 342.17C57.9268 381.255 57.43 395.429 112.426 395.429Z" class="spiral-light"/>
<path d="M109.949 390.932C164.389 390.932 157.91 370.995 201.953 338.998C245.996 307 262.953 319.32 279.776 267.545C296.598 215.77 275.637 215.77 258.815 163.995C241.992 112.22 258.95 99.8978 214.907 67.9004C170.864 35.9008 164.387 55.8376 109.947 55.8376C55.5063 55.8376 49.0292 35.9008 4.98645 67.9004C-39.0563 99.9 -22.0965 112.22 -38.9212 163.995C-55.7437 215.77 -76.7069 215.77 -59.8823 267.545C-43.0598 319.32 -21.4056 299.896 17.1539 338.327C55.9509 376.991 55.5107 390.932 109.949 390.932Z" class="spiral-light"/>
<path d="M107.476 386.438C161.361 386.438 154.988 366.828 198.582 335.155C242.176 303.483 258.857 315.602 275.507 264.357C292.158 213.111 271.539 213.109 254.888 161.863C238.238 110.618 254.919 98.4961 211.325 66.8257C167.731 35.153 161.361 54.7629 107.476 54.7629C53.5914 54.7629 47.2211 35.153 3.62734 66.8257C-39.9665 98.4984 -23.2856 110.618 -39.9359 161.863C-56.5863 213.109 -77.2052 213.111 -60.5549 264.357C-43.9046 315.602 -22.5926 296.459 15.5833 334.486C53.9772 372.73 53.5914 386.438 107.476 386.438Z" class="spiral-light"/>
<path d="M105.006 381.943C158.335 381.943 152.069 362.66 195.212 331.315C238.355 299.969 254.759 311.886 271.239 261.167C287.719 210.449 267.443 210.449 250.964 159.731C234.486 109.013 250.888 97.0941 207.745 65.7505C164.603 34.4069 158.337 53.6877 105.008 53.6877C51.6792 53.6877 45.4135 34.4047 2.27085 65.7505C-40.8718 97.0963 -24.47 109.013 -40.9481 159.731C-57.4284 210.449 -77.703 210.449 -61.2227 261.167C-44.7424 311.886 -23.7747 293.021 14.0176 330.645C52.0083 368.468 51.677 381.943 105.006 381.943Z" class="spiral-light"/>
<path d="M102.526 377.449C155.3 377.449 149.141 358.493 191.835 327.474C234.528 296.455 250.653 308.171 266.962 257.98C283.27 207.79 263.337 207.79 247.029 157.601C230.721 107.413 246.846 95.6941 204.152 64.6753C161.459 33.6564 155.3 52.6125 102.526 52.6125C49.7531 52.6125 43.5942 33.6564 0.900485 64.6753C-41.7932 95.6942 -25.6681 107.41 -41.9763 157.601C-58.2844 207.792 -78.2169 207.792 -61.9087 257.98C-45.6005 308.171 -24.9751 289.586 12.4359 326.807C50.0277 364.209 49.7531 377.449 102.526 377.449Z" class="spiral-light"/>
<path d="M100.055 372.949C152.272 372.949 146.218 354.32 188.465 323.626C230.712 292.932 246.558 304.447 262.694 254.786C278.83 205.125 259.242 205.125 243.106 155.462C226.97 105.799 242.818 94.2871 200.573 63.593C158.329 32.901 152.274 51.5302 100.057 51.5302C47.8393 51.5303 41.7851 32.901 -0.459703 63.593C-42.7045 94.285 -26.8562 105.801 -42.9922 155.462C-59.1282 205.123 -78.7163 205.123 -62.5803 254.786C-46.4443 304.447 -26.1609 286.143 10.8665 322.961C48.0573 359.943 47.8372 372.949 100.055 372.949Z" class="spiral-light"/>
<path d="M97.5785 368.455C149.24 368.455 143.293 350.15 185.089 319.785C226.884 289.42 242.454 300.731 258.418 251.597C274.381 202.463 255.138 202.463 239.172 153.33C223.206 104.196 238.777 92.885 196.981 62.5178C155.186 32.1505 149.238 50.455 97.5763 50.455C45.9145 50.455 39.967 32.1505 -1.82883 62.5178C-43.6246 92.885 -28.0553 104.196 -44.0191 153.33C-59.983 202.463 -79.2289 202.463 -63.2651 251.597C-47.3012 300.731 -27.3622 282.703 9.28377 319.12C46.0801 355.683 45.9167 368.455 97.5785 368.455Z" class="spiral-light"/>
<path d="M95.1073 363.957C146.213 363.957 140.373 345.98 181.72 315.942C223.066 285.904 238.357 297.012 254.151 248.408C269.945 199.804 251.041 199.804 235.249 151.197C219.457 102.591 234.748 91.4826 193.403 61.4423C152.056 31.402 146.216 49.3796 95.1094 49.3796C44.0034 49.3796 38.1627 31.402 -3.18418 61.4423C-44.5311 91.4827 -29.2385 102.593 -45.0301 151.197C-60.824 199.801 -79.7256 199.801 -63.9317 248.408C-48.1379 297.014 -28.5432 279.265 7.71921 315.279C44.1102 351.42 44.0012 363.957 95.1073 363.957Z" class="spiral-light"/>
<path d="M92.6287 359.463C143.179 359.463 137.445 341.812 178.341 312.099C219.237 282.385 234.252 293.295 249.872 245.216C265.491 197.137 246.934 197.14 231.312 149.063C215.691 100.986 230.707 90.0783 189.809 60.3649C148.911 30.6515 143.177 48.3021 92.6265 48.3021C42.0762 48.3021 36.3401 30.6515 -4.55562 60.3649C-45.4514 90.0784 -30.4378 100.986 -46.0594 149.063C-61.6811 197.14 -80.2384 197.14 -64.6189 245.216C-48.9972 293.293 -29.7447 275.825 6.13637 311.436C42.1307 347.16 42.0784 359.463 92.6287 359.463Z" class="spiral-light"/>
<path d="M90.152 354.968C140.147 354.968 134.519 337.644 174.966 308.258C215.413 278.871 230.15 289.579 245.599 242.029C261.049 194.48 242.834 194.48 227.384 146.933C211.935 99.3856 226.672 88.6784 186.225 59.2919C145.778 29.9053 140.149 47.2291 90.1541 47.2291C40.1595 47.2291 34.5303 29.9054 -5.91652 59.2919C-46.3633 88.6784 -31.6265 99.3856 -47.076 146.933C-62.5255 194.482 -80.7406 194.482 -65.2911 242.029C-49.8416 289.579 -30.9312 272.39 4.56623 307.598C40.1552 342.897 40.1574 354.968 90.152 354.968Z" class="spiral-light"/>
<path d="M87.6816 350.474C137.123 350.474 131.598 333.477 171.596 304.418C211.594 275.358 226.054 285.86 241.331 238.841C256.608 191.821 238.738 191.821 223.458 144.801C208.179 97.7813 222.639 87.2768 182.641 58.215C142.643 29.1532 137.12 46.1522 87.6794 46.1522C38.2384 46.1522 32.7159 29.1554 -7.28196 58.215C-47.2798 87.2746 -32.8219 97.7792 -48.0992 144.801C-63.3766 191.821 -81.2495 191.821 -65.9722 238.841C-50.6949 285.86 -32.1267 268.953 2.98723 303.757C38.1839 338.638 38.2406 350.474 87.6816 350.474Z" class="spiral-light"/>
<path d="M85.2063 345.973C134.092 345.973 128.674 329.303 168.223 300.568C207.771 271.833 221.953 282.137 237.06 235.645C252.167 189.153 234.636 189.153 219.531 142.66C204.426 96.168 218.607 85.8661 179.058 57.1312C139.509 28.3963 134.094 45.0685 85.2084 45.0685C36.3231 45.0685 30.9074 28.3985 -8.64148 57.1313C-48.1904 85.864 -34.0093 96.168 -49.1144 142.66C-64.2196 189.153 -81.7504 189.153 -66.643 235.645C-51.5378 282.137 -33.3118 265.509 1.42067 299.91C36.2098 334.37 36.3232 345.973 85.2063 345.973Z" class="spiral-light"/>
<path d="M82.7306 341.478C131.06 341.478 125.749 325.133 164.849 296.727C203.949 268.322 217.851 278.421 232.786 232.458C247.721 186.495 230.535 186.495 215.6 140.53C200.665 94.5654 214.569 84.4662 175.469 56.0582C136.369 27.6502 131.06 43.9954 82.7306 43.9955C34.4011 43.9955 29.09 27.6502 -10.0078 56.0582C-49.1056 84.4662 -35.2034 94.5676 -50.1386 140.53C-65.0738 186.493 -82.258 186.493 -67.325 232.458C-52.392 278.423 -34.5082 262.076 -0.159254 296.071C34.2333 330.111 34.4011 341.478 82.7306 341.478Z" class="spiral-light"/>
<path d="M80.2564 336.985C128.03 336.985 122.826 320.966 161.475 292.885C200.124 264.804 213.749 274.705 228.512 229.27C243.275 183.834 226.433 183.834 211.67 138.399C196.907 92.9637 210.532 83.0651 171.883 54.984C133.234 26.9029 128.03 42.9212 80.2564 42.9212C32.4825 42.9212 27.2782 26.9029 -11.3706 54.984C-50.0194 83.0651 -36.394 92.9638 -51.157 138.399C-65.92 183.834 -82.7622 183.834 -67.9992 229.27C-53.2362 274.705 -35.6966 258.639 -1.73125 292.232C32.2581 325.85 32.4826 336.985 80.2564 336.985Z" class="spiral-light"/>
<path d="M77.7829 332.49C125.001 332.49 119.903 316.798 158.103 289.044C196.303 261.29 209.652 270.988 224.243 226.082C238.833 181.177 222.336 181.174 207.745 136.269C193.154 91.3628 206.503 81.6646 168.301 53.9104C130.101 26.1562 125.001 41.8477 77.7851 41.8477C30.5692 41.8477 25.4695 26.1563 -12.7304 53.9104C-50.9302 81.6646 -37.5816 91.3628 -52.1746 136.269C-66.7677 181.174 -83.2654 181.177 -68.6724 226.082C-54.0794 270.988 -36.8842 255.203 -3.30025 288.395C30.2859 321.591 30.5649 332.49 77.7829 332.49Z" class="spiral-light"/>
<path d="M75.3072 327.994C121.97 327.994 116.977 312.63 154.728 285.202C192.478 257.775 205.548 267.27 219.967 222.892C234.385 178.514 218.23 178.514 203.811 134.135C189.392 89.757 202.462 80.2615 164.711 52.8342C126.96 25.407 121.967 40.7715 75.305 40.7715C28.6426 40.7715 23.6497 25.407 -14.1012 52.8343C-51.8521 80.2615 -38.7825 89.757 -53.2011 134.135C-67.6198 178.514 -83.7754 178.514 -69.3567 222.892C-54.9381 267.271 -38.0829 251.764 -4.88245 284.553C28.3092 317.328 28.6449 327.994 75.3072 327.994Z" class="spiral-light"/>
<path d="M72.8318 323.499C118.938 323.499 114.052 308.462 151.354 281.359C188.656 254.256 201.447 263.551 215.696 219.703C229.944 175.854 214.131 175.852 199.884 132.003C185.638 88.1542 198.428 78.8592 161.126 51.7567C123.825 24.6563 118.938 39.6939 72.8318 39.6939C26.7252 39.6939 21.839 24.6563 -15.4629 51.7567C-52.7649 78.8571 -39.972 88.152 -54.2207 132.003C-68.4694 175.854 -84.2807 175.854 -70.032 219.703C-55.7833 263.551 -39.2724 248.326 -6.45557 280.712C26.3351 313.067 26.7252 323.499 72.8318 323.499Z" class="spiral-light"/>
<path d="M70.3598 319.001C115.911 319.001 111.131 304.291 147.982 277.515C184.833 250.739 197.349 259.834 211.426 216.51C225.502 173.187 210.033 173.189 195.956 129.865C181.88 86.5419 194.394 77.4517 157.543 50.6761C120.692 23.9004 115.911 38.6133 70.3598 38.6133C24.809 38.6133 20.0274 23.9026 -16.8234 50.6761C-53.6743 77.4496 -41.1603 86.5419 -55.2368 129.865C-69.3133 173.189 -84.7825 173.187 -70.706 216.51C-56.6295 259.834 -40.4608 244.886 -8.02531 276.868C24.3622 308.804 24.8068 319.001 70.3598 319.001Z" class="spiral-light"/>
<path d="M67.8841 314.506C112.879 314.506 108.207 300.12 144.609 273.673C181.01 247.226 193.248 256.116 207.152 213.322C221.056 170.528 205.931 170.528 192.027 127.734C178.123 84.9402 190.36 76.0506 153.958 49.6018C117.556 23.1531 112.881 37.5391 67.8863 37.5391C22.8912 37.5391 18.2164 23.1531 -18.1855 49.6018C-54.5874 76.0506 -42.3502 84.9402 -56.2567 127.734C-70.1633 170.528 -85.2859 170.528 -71.3815 213.322C-57.4772 256.116 -41.6507 241.449 -9.59876 273.028C22.3899 304.544 22.889 314.506 67.8841 314.506Z" class="spiral-light"/>
<path d="M65.4054 310.011C109.845 310.011 105.277 295.952 141.232 269.831C177.187 243.709 189.143 252.398 202.877 210.133C216.612 167.869 201.827 167.869 188.095 125.602C174.363 83.3359 186.321 74.6489 150.368 48.5271C114.415 22.4053 109.847 36.4643 65.4053 36.4643C20.9638 36.4643 16.398 22.4053 -19.5571 48.5271C-55.5101 74.649 -43.5519 83.3381 -57.284 125.602C-71.0162 167.867 -85.7988 167.867 -72.0666 210.133C-58.3345 252.4 -42.8501 238.014 -11.1796 269.19C20.4103 300.283 20.9638 310.011 65.4054 310.011Z" class="spiral-light"/>
<path d="M62.9354 305.517C106.821 305.517 102.358 291.784 137.862 265.989C173.366 240.194 185.047 248.683 198.609 206.944C212.172 165.205 197.731 165.207 184.171 123.47C170.611 81.733 182.29 73.2466 146.789 47.4516C111.285 21.6567 106.823 35.3889 62.9376 35.3889C19.0517 35.3889 14.5906 21.6567 -20.9134 47.4517C-56.4174 73.2466 -44.736 81.733 -58.296 123.47C-71.856 165.207 -86.2965 165.207 -72.7343 206.944C-59.1721 248.681 -44.0321 234.576 -12.7452 265.349C18.4415 296.023 19.0518 305.517 62.9354 305.517Z" class="spiral-light"/>
<path d="M60.4617 301.016C103.792 301.016 99.4353 287.611 134.49 262.143C169.545 236.675 180.948 244.959 194.338 203.751C207.728 162.544 193.632 162.542 180.242 121.334C166.852 80.127 178.256 71.8411 143.201 46.373C108.146 20.905 103.792 34.3103 60.4617 34.3103C17.1316 34.3103 12.7773 20.905 -22.2778 46.3731C-57.3328 71.8411 -45.9282 80.127 -59.3182 121.334C-72.7082 162.542 -86.8044 162.544 -73.4144 203.751C-60.0243 244.959 -45.2265 231.135 -14.3209 261.504C16.4669 291.758 17.1316 301.016 60.4617 301.016Z" class="spiral-light"/>
<path d="M57.9838 296.527C100.758 296.527 96.5084 283.449 131.112 258.305C165.716 233.162 176.842 241.248 190.062 200.568C203.282 159.888 189.528 159.888 176.31 119.208C163.092 78.5276 174.218 70.4443 139.614 45.301C105.01 20.1577 100.76 33.2382 57.986 33.2382C15.2116 33.2382 10.9619 20.1599 -23.6421 45.301C-58.246 70.4422 -47.1203 78.5254 -60.3381 119.208C-73.556 159.89 -87.3078 159.888 -74.0899 200.568C-60.8721 241.248 -46.4164 227.705 -15.8944 257.671C14.4924 287.502 15.2116 296.527 57.9838 296.527Z" class="spiral-light"/>
<path d="M55.5109 292.028C97.7295 292.028 93.5865 279.274 127.741 254.46C161.896 229.646 172.745 237.527 185.791 197.374C198.837 157.221 185.429 157.221 172.381 117.069C159.334 76.9162 170.182 69.0356 136.027 44.2192C101.872 19.4028 97.7294 32.1564 55.5108 32.1564C13.2922 32.1565 9.14925 19.4028 -25.0057 44.2192C-59.1607 69.0356 -48.314 76.9162 -61.3597 117.069C-74.4053 157.221 -87.8149 157.221 -74.7693 197.374C-61.7236 237.527 -47.61 224.263 -17.4694 253.826C12.5186 283.239 13.2922 292.028 55.5109 292.028Z" class="spiral-light"/>
<path d="M53.0326 287.532C94.6954 287.532 90.6571 275.105 124.363 250.618C158.069 226.131 168.639 233.809 181.515 194.186C194.39 154.563 181.323 154.563 168.449 114.938C155.576 75.3123 166.146 67.6344 132.44 43.1449C98.7338 18.6554 94.6954 31.0822 53.0325 31.0822C11.3697 31.0822 7.33128 18.6554 -26.3747 43.145C-60.0808 67.6345 -49.5108 75.3145 -62.3843 114.938C-75.2578 154.561 -88.3253 154.561 -75.4496 194.186C-62.574 233.811 -48.8047 220.828 -19.0455 249.986C10.5415 278.978 11.3697 287.532 53.0326 287.532Z" class="spiral-light"/>
<path d="M50.5598 283.039C91.667 283.039 87.7354 270.939 120.992 246.776C154.25 222.614 164.543 230.091 177.244 190.996C189.945 151.9 177.224 151.9 164.521 112.804C151.817 73.7087 162.111 66.2313 128.853 42.0687C95.5963 17.9062 91.6648 30.006 50.5576 30.006C9.45051 30.006 5.51895 17.9062 -27.7381 42.0688C-60.9952 66.2314 -50.7021 73.7088 -63.4056 112.804C-76.1091 151.9 -88.83 151.9 -76.1287 190.996C-63.4252 230.091 -49.9981 217.39 -20.6225 246.147C8.57009 274.72 9.45271 283.039 50.5598 283.039Z" class="spiral-light"/>
<path d="M48.083 278.544C88.6344 278.544 84.8097 266.771 117.618 242.935C150.426 219.099 160.44 226.376 172.971 187.808C185.503 149.24 173.124 149.24 160.593 110.674C148.061 72.1057 158.075 64.831 125.27 40.9953C92.4636 17.1596 88.6366 28.9325 48.0852 28.9325C7.53378 28.9325 3.709 17.1596 -29.0991 40.9953C-61.9073 64.831 -51.8909 72.1079 -64.4222 110.674C-76.9536 149.24 -89.3324 149.242 -76.801 187.808C-64.2697 226.374 -51.1826 213.954 -22.1905 242.307C6.5945 270.46 7.53162 278.544 48.083 278.544Z" class="spiral-light"/>
<path d="M45.6097 274.043C85.6054 274.043 81.8874 262.597 114.244 239.088C146.601 215.579 156.339 222.654 168.698 184.615C181.057 146.576 169.023 146.576 156.661 108.538C144.3 70.4991 154.04 63.4249 121.68 39.9161C89.3212 16.4073 85.6032 27.8534 45.6075 27.8534C5.61184 27.8534 1.89167 16.4073 -30.4653 39.9161C-62.8223 63.4249 -53.0871 70.4991 -65.4463 108.538C-77.8054 146.576 -89.8421 146.576 -77.4829 184.615C-65.1237 222.654 -52.3788 210.514 -23.7681 238.465C4.62243 266.195 5.61404 274.043 45.6097 274.043Z" class="spiral-light"/>
<path d="M43.1383 269.554C82.5782 269.554 78.967 258.435 110.875 235.25C142.783 212.066 152.244 218.94 164.431 181.429C176.618 143.918 164.925 143.918 152.738 106.409C140.551 68.8975 150.01 62.026 118.102 38.8419C86.1937 15.66 82.5803 26.7792 43.1404 26.7792C3.70049 26.7792 0.0871166 15.6601 -31.8209 38.8419C-63.729 62.0238 -54.2705 68.8976 -66.4575 106.409C-78.6445 143.92 -90.3368 143.92 -78.1498 181.429C-65.9628 218.938 -53.5601 207.082 -25.333 234.627C2.65223 261.939 3.69834 269.554 43.1383 269.554Z" class="spiral-light"/>
<path d="M40.6651 265.052C79.5515 265.052 76.0427 254.258 107.502 231.403C138.961 208.548 148.143 215.217 160.16 178.235C172.177 141.254 160.826 141.254 148.812 104.27C136.795 67.2883 145.976 60.6173 114.517 37.7601C83.0581 14.903 79.5515 25.6973 40.6651 25.6973C1.77873 25.6973 -1.72789 14.903 -33.187 37.7601C-64.6461 60.6173 -55.4644 67.2862 -67.4814 104.27C-79.4984 141.252 -90.8464 141.252 -78.8294 178.235C-66.8123 215.217 -54.7517 203.64 -26.9082 230.784C0.680361 257.673 1.77875 265.052 40.6651 265.052Z" class="spiral-light"/>
<path d="M38.1867 260.557C76.5173 260.557 73.1153 250.09 104.125 227.559C135.136 205.029 144.038 211.5 155.883 175.045C167.728 138.591 156.722 138.591 144.877 102.137C133.033 65.6828 141.937 59.2144 110.927 36.6842C79.9171 14.1539 76.5173 24.6214 38.1866 24.6214C-0.144003 24.6214 -3.54383 14.1539 -34.554 36.6842C-65.5641 59.2144 -56.6592 65.6828 -68.5041 102.137C-80.3489 138.591 -91.3547 138.591 -79.5098 175.045C-67.665 211.5 -55.9466 200.204 -28.4844 226.943C-1.29905 253.413 -0.143979 260.557 38.1867 260.557Z" class="spiral-light"/>
<path d="M35.7149 256.064C73.4898 256.064 70.1946 245.924 100.754 223.72C131.313 201.517 139.941 207.785 151.613 171.858C163.286 135.933 152.625 135.933 140.952 100.007C129.279 64.0797 137.905 57.8141 107.344 35.6107C76.7828 13.4074 73.4897 23.548 35.7148 23.548C-2.06007 23.548 -5.35525 13.4074 -35.9143 35.6108C-66.4733 57.8141 -57.8474 64.0819 -69.5222 100.007C-81.1949 135.931 -91.8585 135.931 -80.1837 171.858C-68.5088 207.785 -57.1347 196.77 -30.054 223.106C-3.26741 249.156 -2.06005 256.064 35.7149 256.064Z" class="spiral-light"/>
<path d="M33.2357 251.568C70.4548 251.568 67.2664 241.754 97.3765 219.877C127.487 198.001 135.836 204.066 147.336 168.669C158.837 133.272 148.517 133.272 137.017 97.8745C125.516 62.4773 133.863 56.4121 103.753 34.5357C73.6432 12.6592 70.4548 22.4729 33.2356 22.4729C-3.98352 22.473 -7.17194 12.6593 -37.282 34.5357C-67.3921 56.4122 -59.0451 62.4773 -70.5456 97.8745C-82.0461 133.272 -92.3654 133.272 -80.8649 168.669C-69.3644 204.066 -58.3281 193.333 -31.6309 219.265C-5.24535 244.897 -3.9835 251.568 33.2357 251.568Z" class="spiral-light"/>
<path d="M30.7649 247.069C67.4283 247.069 64.3445 237.582 94.0078 216.03C123.671 194.479 131.739 200.343 143.07 165.476C154.4 130.608 144.423 130.606 133.095 95.7382C121.766 60.8706 129.837 55.0059 100.175 33.4564C70.5142 11.9069 67.4304 21.3936 30.767 21.3936C-5.8964 21.3936 -8.97804 11.9069 -38.6414 33.4564C-68.3025 55.0059 -60.2323 60.8706 -71.5606 95.7382C-82.8911 130.608 -92.8661 130.608 -81.5355 165.476C-70.205 200.345 -59.5131 189.893 -33.1973 215.422C-7.21491 240.633 -5.89855 247.069 30.7649 247.069Z" class="spiral-light"/>
<path d="M28.2915 242.573C64.3992 242.573 61.4222 233.413 90.6343 212.188C119.847 190.963 127.64 196.625 138.796 162.285C149.952 127.945 140.322 127.945 129.163 93.6048C118.005 59.2646 125.798 53.6026 96.5861 32.3777C67.374 11.1551 64.397 20.315 28.2893 20.315C-7.81841 20.315 -10.7954 11.1529 -40.0076 32.3778C-69.2198 53.6004 -61.4264 59.2624 -72.5847 93.6048C-83.743 127.945 -93.3758 127.945 -82.2175 162.285C-71.0591 196.625 -60.7072 186.457 -34.7749 211.582C-9.18703 236.375 -7.8162 242.573 28.2915 242.573Z" class="spiral-light"/>
<path d="M25.8173 238.078C61.3693 238.078 58.499 229.243 87.2623 208.347C116.026 187.451 123.54 192.911 134.526 159.098C145.512 125.285 136.224 125.285 125.238 91.4721C114.251 57.6593 121.766 52.2 93.0049 31.3021C64.2438 10.4042 61.3714 19.2393 25.8195 19.2393C-9.73246 19.2393 -12.6027 10.4042 -41.3659 31.3021C-70.1291 52.2 -62.6125 57.6593 -73.5987 91.4721C-84.5849 125.285 -93.8733 125.285 -82.8871 159.098C-71.901 192.911 -61.8911 183.023 -36.3403 207.745C-11.1577 232.113 -9.73462 238.078 25.8173 238.078Z" class="spiral-light"/>
<path d="M23.3412 233.584C58.3374 233.584 55.574 225.076 83.8861 204.505C112.198 183.934 119.436 189.193 130.252 155.91C141.066 122.626 132.122 122.626 121.306 89.3409C110.492 56.0576 117.729 50.7988 89.4151 30.2278C61.103 9.65682 58.3374 18.1651 23.3412 18.1651C-11.655 18.1651 -14.4206 9.65683 -42.7327 30.2278C-71.0448 50.7988 -63.8093 56.0577 -74.6233 89.3409C-85.4373 122.624 -94.3836 122.624 -83.5696 155.91C-72.7556 189.193 -63.0858 179.588 -37.9185 203.906C-13.1326 227.855 -11.6572 233.584 23.3412 233.584Z" class="spiral-light"/>
<path d="M20.8647 229.088C55.3052 229.088 52.6485 220.907 80.5117 200.663C108.375 180.419 115.336 185.475 125.978 152.719C136.619 119.963 128.017 119.963 117.376 87.2074C106.732 54.4516 113.692 49.3955 85.8293 29.1514C57.9662 8.9073 55.3073 17.0886 20.8669 17.0886C-13.5736 17.0886 -16.2324 8.90731 -44.0956 29.1514C-71.9588 49.3955 -65 54.4516 -75.6419 87.2075C-86.2859 119.963 -94.8878 119.963 -84.2438 152.719C-73.5998 185.475 -64.2743 176.152 -39.4884 200.066C-15.1057 223.596 -13.5758 229.088 20.8647 229.088Z" class="spiral-light"/>
<path d="M18.3904 224.594C52.2773 224.594 49.7231 216.74 77.1373 196.823C104.551 176.905 111.233 181.759 121.705 149.533C132.177 117.304 123.917 117.304 113.445 85.0779C102.974 52.8495 109.656 47.996 82.2413 28.0788C54.8271 8.16163 52.2751 16.016 18.3882 16.0161C-15.4988 16.0161 -18.0508 8.16164 -45.465 28.0788C-72.8792 47.996 -66.1973 52.8517 -76.6691 85.0779C-87.141 117.306 -95.3986 117.306 -84.9289 149.533C-74.4592 181.759 -65.4715 172.719 -41.0692 196.23C-17.0788 219.34 -15.4965 224.594 18.3904 224.594Z" class="spiral-light"/>
<path d="M15.9199 220.095C49.251 220.095 46.8036 212.567 73.7689 192.975C100.734 173.382 107.137 178.038 117.437 146.337C127.736 114.638 119.821 114.638 109.521 82.9389C99.2216 51.2401 105.625 46.5871 78.6615 26.9968C51.6984 7.40655 49.251 14.9341 15.9199 14.9341C-17.4113 14.9341 -19.8566 7.40656 -46.8218 26.9969C-73.7871 46.5871 -67.3819 51.2401 -77.6816 82.9389C-87.9813 114.638 -95.8967 114.638 -85.5971 146.337C-75.2974 178.035 -66.6518 169.277 -42.6331 192.384C-19.0437 215.078 -17.4091 220.095 15.9199 220.095Z" class="spiral-light"/>
<path d="M13.4409 215.601C46.2163 215.601 43.8757 208.398 70.392 189.135C96.9083 169.871 103.034 174.321 113.162 143.15C123.289 111.979 115.718 111.979 105.589 80.8093C95.4612 49.6379 101.587 45.1877 75.0711 25.9221C48.5547 6.65654 46.2163 13.8593 13.4408 13.8593C-19.3346 13.8593 -21.673 6.65655 -48.1893 25.9221C-74.7056 45.1877 -68.5795 49.6379 -78.707 80.8094C-88.8345 111.981 -96.4077 111.981 -86.2802 143.15C-76.1527 174.319 -67.8472 165.846 -44.2098 188.548C-21.0214 210.821 -19.3346 215.601 13.4409 215.601Z" class="spiral-light"/>
<path d="M10.969 211.105C43.1887 211.105 40.9548 204.229 67.02 185.292C93.0852 166.356 98.9346 170.603 108.89 139.962C118.845 109.32 111.616 109.32 101.661 78.6757C91.7056 48.0339 97.5529 43.7841 71.4877 24.8454C45.4225 5.90679 43.1886 12.7827 10.9689 12.7827C-21.2508 12.7827 -23.4846 5.9068 -49.5498 24.8455C-75.615 43.7841 -69.7677 48.0317 -79.7231 78.6757C-89.6784 109.32 -96.9095 109.318 -86.952 139.962C-76.9945 170.606 -69.0333 162.411 -45.7773 184.71C-22.9899 206.559 -21.2486 211.105 10.969 211.105Z" class="spiral-light"/>
<path d="M8.48822 206.611C40.1522 206.611 38.0251 200.062 63.6414 181.45C89.2576 162.839 94.8281 166.886 104.613 136.771C114.399 106.657 107.512 106.657 97.7266 76.5423C87.9412 46.4279 93.5117 42.3808 67.8955 23.769C42.2792 5.15728 40.15 11.7063 8.4882 11.7063C-23.1736 11.7063 -25.3028 5.15729 -50.919 23.7691C-76.5353 42.3808 -70.9648 46.4279 -80.7502 76.5423C-90.5355 106.657 -97.4201 106.657 -87.6369 136.771C-77.8516 166.886 -70.2304 158.977 -47.3558 180.871C-24.9693 202.302 -23.1757 206.611 8.48822 206.611Z" class="spiral-light"/>
<path d="M6.01613 202.116C37.1244 202.116 35.1019 195.894 60.2692 177.609C85.4365 159.324 90.7301 163.169 100.343 133.584C109.956 103.999 103.414 103.999 93.8008 74.412C84.1877 44.8272 89.4813 40.9806 64.3141 22.6957C39.1468 4.4109 37.1243 10.633 6.01611 10.633C-25.0921 10.633 -27.1146 4.4109 -52.2818 22.6958C-77.4491 40.9806 -72.1555 44.8272 -81.7686 74.4121C-91.3818 103.997 -97.9242 103.997 -88.3111 133.584C-78.6979 163.171 -71.4166 155.543 -48.9256 177.036C-26.9358 198.045 -25.0921 202.116 6.01613 202.116Z" class="spiral-light"/>
<path d="M3.54267 197.621C34.0952 197.621 32.1795 191.726 56.8978 173.766C81.6162 155.806 86.6309 159.452 96.0719 130.394C105.513 101.337 99.3148 101.337 89.8738 72.2793C80.4328 43.2219 85.4475 39.578 60.7291 21.6201C36.0108 3.66212 34.0951 9.55729 3.54265 9.55729C-27.0098 9.5573 -28.9255 3.66213 -53.6438 21.6201C-78.3622 39.578 -73.3453 43.2219 -82.7884 72.2794C-92.2316 101.337 -98.4297 101.337 -88.9865 130.394C-79.5455 159.452 -72.6043 152.109 -50.4946 173.197C-28.908 193.79 -27.0098 197.621 3.54267 197.621Z" class="spiral-light"/>
<path d="M1.07029 193.12C31.067 193.12 29.2582 187.552 53.5254 169.919C77.7926 152.286 82.5305 155.729 91.8015 127.199C101.07 98.6689 95.2144 98.6689 85.9456 70.141C76.6767 41.611 81.4125 38.1698 57.1453 20.5388C32.8781 2.90771 31.067 8.47598 1.07027 8.47598C-28.9265 8.47598 -30.7375 2.90772 -55.0047 20.5388C-79.2719 38.1698 -74.5362 41.6132 -83.805 70.1411C-93.0738 98.6711 -98.9298 98.6711 -89.6609 127.199C-80.3921 155.729 -73.7886 148.668 -52.0647 169.352C-30.877 189.527 -28.9286 193.12 1.07029 193.12Z" class="spiral-light"/>
<path d="M-1.40622 188.627C28.0348 188.627 26.3327 183.383 50.151 166.079C73.9692 148.775 78.4304 152.014 87.527 124.013C96.6237 96.0127 91.1121 96.0127 82.0154 68.0122C72.9166 40.0118 77.3777 36.7711 53.5573 19.4647C29.7391 2.15841 28.0348 7.40195 -1.40624 7.40196C-30.8472 7.40196 -32.5515 2.15842 -56.3697 19.4647C-80.188 36.7711 -75.729 40.0096 -84.8279 68.0122C-93.9267 96.0127 -99.4383 96.0127 -90.3394 124.013C-81.2406 152.014 -74.9793 145.238 -53.6368 165.519C-32.85 185.271 -30.8472 188.627 -1.40622 188.627Z" class="spiral-light"/>
<path d="M-3.87774 184.132C25.0075 184.132 23.4122 179.216 46.7815 162.236C70.1509 145.257 74.333 148.295 83.2597 120.824C92.1864 93.3531 87.0169 93.3509 78.0903 65.88C69.1636 38.4092 73.3458 35.369 49.9765 18.3895C26.6072 1.41013 25.0097 6.32676 -3.87776 6.32677C-32.763 6.32677 -34.3605 1.41014 -57.732 18.3896C-81.1013 35.369 -76.9191 38.407 -85.8458 65.8801C-94.7724 93.3531 -99.9419 93.3531 -91.0152 120.824C-82.0885 148.295 -76.1672 141.805 -55.2061 161.68C-34.8182 181.014 -32.7652 184.132 -3.87774 184.132Z" class="spiral-light"/>
<path d="M-6.35764 179.636C21.9741 179.636 20.4812 175.046 43.4016 158.394C66.3219 141.741 70.2252 144.579 78.9797 117.633C87.7342 90.6898 82.909 90.6898 74.1545 63.7442C65.4 36.8007 69.3033 33.9632 46.3829 17.3107C23.4626 0.658167 21.9719 5.24793 -6.35982 5.24793C-34.6915 5.24794 -36.1822 0.658173 -59.1026 17.3107C-82.023 33.9632 -78.1175 36.8007 -86.8742 63.7442C-95.6287 90.6877 -100.454 90.6877 -91.6993 117.633C-82.9448 144.579 -77.3635 138.37 -56.7837 157.843C-36.7925 176.755 -34.6872 179.636 -6.35764 179.636Z" class="spiral-light"/>
</g>
<defs>
<clipPath id="clip0_8569_32248">
<rect x="114.216" y="312.045" width="228.433" height="228.433" rx="114.216" transform="rotate(-120 114.216 312.045)" fill="white"/>
</clipPath>
<clipPath id="clip1_8569_32248">
<rect x="219.2" y="337.199" width="157.2" height="157.2" rx="78.5998" transform="rotate(180 219.2 337.199)" fill="white"/>
</clipPath>
</defs>
</svg>
