<svg width="185" height="29" viewBox="0 0 185 29" fill="none" xmlns="http://www.w3.org/2000/svg">
<path d="M9.98656 11.497C9.68748 11.2627 9.22638 11.1481 8.60578 11.1481H7.56396V14.1639H8.60578C9.19149 14.1639 9.64261 14.0492 9.96164 13.8224C10.2782 13.5956 10.4377 13.2118 10.4377 12.6734C10.4377 12.1351 10.2881 11.7313 9.98906 11.497H9.98656Z" fill="white"/>
<path d="M17.1202 5.49506H0.877319C0.393797 5.49506 0 5.88886 0 6.37238V22.6177C0 23.1013 0.393797 23.4951 0.877319 23.4951H10.321L18 15.816V6.37238C18 5.88886 17.6062 5.49506 17.1227 5.49506H17.1202ZM12.2202 15.6241C11.4376 16.3245 10.2437 16.6734 8.6411 16.6734H7.56439V20.1179C7.56439 20.2575 7.45223 20.3696 7.31266 20.3696H4.85516C4.71559 20.3696 4.60343 20.2575 4.60343 20.1179V8.86726C4.60343 8.72768 4.71559 8.61553 4.85516 8.61553H8.62365C10.311 8.61553 11.5273 8.96197 12.275 9.65734C13.0227 10.3527 13.3966 11.3571 13.3966 12.6731C13.3966 13.9891 13.0053 14.9262 12.2202 15.6241Z" fill="white"/>
<path d="M24.0468 20.3724C23.8923 20.3724 23.8125 20.2951 23.8125 20.1381V8.85007C23.8125 8.69554 23.8898 8.61579 24.0468 8.61579H27.6009C29.2285 8.61579 30.4123 8.94977 31.1551 9.62022C31.8978 10.2907 32.2667 11.2702 32.2667 12.5637C32.2667 13.8573 31.8803 14.772 31.1102 15.4524C30.3376 16.1353 29.1761 16.4743 27.6209 16.4743H26.3821V20.1356C26.3821 20.2901 26.3049 20.3699 26.1479 20.3699H24.0493L24.0468 20.3724ZM26.3797 14.3059H27.581C28.2863 14.3059 28.8172 14.1713 29.1686 13.9021C29.5226 13.633 29.697 13.1943 29.697 12.5837C29.697 11.973 29.5226 11.4945 29.1761 11.2203C28.8297 10.9462 28.2963 10.8066 27.5785 10.8066H26.3772V14.3059H26.3797Z" fill="white"/>
<path d="M33.5412 20.3722C33.3867 20.3722 33.3069 20.295 33.3069 20.1379V13.75C33.3069 13.3786 33.297 13.0297 33.2795 12.7007C33.2621 12.3717 33.2347 12.0527 33.1998 11.7411C33.1748 11.5741 33.2546 11.4894 33.4341 11.4894H35.2111C35.3432 11.4894 35.4255 11.5542 35.4629 11.6863C35.5102 11.8906 35.5451 12.1224 35.57 12.3866C35.595 12.6508 35.6124 12.8951 35.6249 13.1219L35.8043 14.216V20.1379C35.8043 20.2925 35.7271 20.3722 35.57 20.3722H33.5412ZM35.6224 15.1856L35.4778 13.1044C35.7171 12.758 35.9912 12.4464 36.3028 12.1723C36.6143 11.8981 36.9284 11.6788 37.2449 11.5168C37.5614 11.3548 37.858 11.275 38.1322 11.275C38.3241 11.275 38.4786 11.3 38.5983 11.3473C38.7179 11.3822 38.7827 11.4669 38.7952 11.599C38.7952 11.9106 38.7927 12.252 38.7852 12.6209C38.7777 12.9923 38.7578 13.3387 38.7229 13.6627C38.698 13.8422 38.6082 13.9145 38.4537 13.8771C38.3814 13.8546 38.2917 13.8347 38.1845 13.8222C38.0774 13.8098 37.9752 13.8048 37.8805 13.8048C37.6287 13.8048 37.372 13.8596 37.1078 13.9668C36.8436 14.074 36.5844 14.226 36.3277 14.4254C36.071 14.6223 35.8342 14.8765 35.6199 15.1881L35.6224 15.1856Z" fill="white"/>
<path d="M43.4618 20.5863C42.0735 20.5863 41.0491 20.2897 40.3837 19.699C39.7182 19.1083 39.3867 18.231 39.3867 17.0696V15.0059C39.3867 13.7846 39.7182 12.8574 40.3837 12.2244C41.0466 11.5913 42.061 11.2723 43.4244 11.2723C44.7877 11.2723 45.7548 11.5764 46.4302 12.187C47.1056 12.7976 47.4446 13.6949 47.4446 14.8788V16.2795C47.4446 16.434 47.3673 16.5138 47.2103 16.5138H41.8617V17.0521C41.8617 17.6029 41.9838 18.0117 42.2305 18.2809C42.4748 18.55 42.8786 18.6846 43.4418 18.6846C43.873 18.6846 44.2145 18.6148 44.4637 18.4778C44.7129 18.3407 44.8401 18.1338 44.8401 17.8597C44.8401 17.7051 44.9173 17.6254 45.0743 17.6254H47.0309C47.1754 17.6254 47.2527 17.7026 47.2651 17.8597C47.2901 18.7694 46.9835 19.4498 46.3504 19.9059C45.7174 20.362 44.7528 20.5888 43.4618 20.5888V20.5863ZM41.8666 15.0059H45.007V14.9161C45.007 14.318 44.8824 13.8818 44.6307 13.6052C44.379 13.331 43.9902 13.1914 43.4643 13.1914C42.901 13.1914 42.4947 13.331 42.243 13.6126C41.9913 13.8943 41.8666 14.3329 41.8666 14.9311V15.0034V15.0059Z" fill="white"/>
<path d="M51.7539 20.5866C50.4978 20.5866 49.5856 20.3523 49.0173 19.8862C48.449 19.4201 48.1948 18.6899 48.2546 17.6979C48.2671 17.5533 48.3444 17.4836 48.4889 17.4836H50.3906C50.5352 17.4836 50.605 17.5558 50.605 17.6979C50.605 18.0693 50.6972 18.3434 50.8841 18.5229C51.0685 18.7023 51.3601 18.7921 51.7539 18.7921C52.1727 18.7921 52.4842 18.7273 52.6861 18.5952C52.8905 18.4631 52.9902 18.2612 52.9902 17.9845C52.9902 17.7702 52.9179 17.5932 52.7758 17.4561C52.6313 17.3191 52.392 17.177 52.058 17.0349L49.9943 16.1551C49.3962 15.9034 48.965 15.5968 48.7033 15.2304C48.4391 14.8666 48.3095 14.3905 48.3095 13.8048C48.3095 12.9549 48.5886 12.3218 49.1444 11.9031C49.7002 11.4844 50.5651 11.275 51.7365 11.275C52.9079 11.275 53.8401 11.4944 54.4183 11.9305C54.999 12.3667 55.2881 13.0172 55.2881 13.8771C55.2881 14.0316 55.2109 14.1114 55.0539 14.1114H53.1696C53.0151 14.1114 52.9353 14.0167 52.9353 13.8247C52.9353 13.573 52.8431 13.3861 52.6562 13.259C52.4693 13.1343 52.1976 13.0695 51.8387 13.0695C51.4798 13.0695 51.2156 13.1294 51.0486 13.249C50.8816 13.3686 50.7969 13.5531 50.7969 13.8048C50.7969 13.9842 50.8567 14.1288 50.9763 14.236C51.096 14.3432 51.3228 14.4703 51.6592 14.6123L53.7055 15.4747C54.3286 15.7264 54.7797 16.038 55.0613 16.4068C55.343 16.7782 55.4826 17.2692 55.4826 17.8774C55.4826 18.7746 55.166 19.45 54.5305 19.9062C53.8974 20.3623 52.9702 20.5891 51.749 20.5891L51.7539 20.5866Z" fill="white"/>
<path d="M59.7754 20.5866C58.5193 20.5866 57.6071 20.3523 57.0388 19.8862C56.4705 19.4201 56.2163 18.6899 56.2761 17.6979C56.2886 17.5533 56.3658 17.4836 56.5104 17.4836H58.4121C58.5567 17.4836 58.6264 17.5558 58.6264 17.6979C58.6264 18.0693 58.7187 18.3434 58.9056 18.5229C59.09 18.7023 59.3816 18.7921 59.7754 18.7921C60.1942 18.7921 60.5057 18.7273 60.7076 18.5952C60.912 18.4631 61.0117 18.2612 61.0117 17.9845C61.0117 17.7702 60.9394 17.5932 60.7973 17.4561C60.6527 17.3191 60.4135 17.177 60.0795 17.0349L58.0158 16.1551C57.4176 15.9034 56.9865 15.5968 56.7248 15.2304C56.4606 14.8666 56.331 14.3905 56.331 13.8048C56.331 12.9549 56.6101 12.3218 57.1659 11.9031C57.7217 11.4844 58.5866 11.275 59.758 11.275C60.9294 11.275 61.8616 11.4944 62.4398 11.9305C63.0205 12.3667 63.3096 13.0172 63.3096 13.8771C63.3096 14.0316 63.2324 14.1114 63.0754 14.1114H61.1911C61.0366 14.1114 60.9568 14.0167 60.9568 13.8247C60.9568 13.573 60.8646 13.3861 60.6777 13.259C60.4907 13.1343 60.2191 13.0695 59.8602 13.0695C59.5013 13.0695 59.2371 13.1294 59.0701 13.249C58.9031 13.3686 58.8184 13.5531 58.8184 13.8048C58.8184 13.9842 58.8782 14.1288 58.9978 14.236C59.1174 14.3432 59.3442 14.4703 59.6807 14.6123L61.727 15.4747C62.3501 15.7264 62.8012 16.038 63.0828 16.4068C63.3645 16.7782 63.504 17.2692 63.504 17.8774C63.504 18.7746 63.1875 19.45 62.5519 19.9062C61.9189 20.3623 60.9917 20.5891 59.7704 20.5891L59.7754 20.5866Z" fill="white"/>
<path d="M66.7018 20.5865C65.984 20.5865 65.4282 20.3672 65.0319 19.931C64.6356 19.4949 64.4387 18.8743 64.4387 18.0742C64.4387 17.4511 64.5559 16.9477 64.7877 16.5588C65.0219 16.17 65.4107 15.866 65.9541 15.6441C66.4974 15.4223 67.2252 15.2753 68.1349 15.2055L69.8048 15.0435L69.7874 16.4068L68.4589 16.5314C67.8483 16.5912 67.4271 16.7134 67.1928 16.9003C66.9585 17.0847 66.8439 17.3813 66.8439 17.7876C66.8439 18.1116 66.9087 18.3434 67.0408 18.4879C67.1729 18.6325 67.3698 18.7023 67.634 18.7023C67.9679 18.7023 68.3044 18.6001 68.6384 18.3982C68.9724 18.1938 69.3811 17.8349 69.8597 17.3215L69.9668 18.812C69.6328 19.1584 69.2989 19.4675 68.9699 19.7366C68.6409 20.0058 68.2944 20.2152 67.9281 20.3647C67.5642 20.5143 67.1529 20.589 66.6993 20.589L66.7018 20.5865ZM70.1488 20.3722C70.0765 20.3722 70.0241 20.3523 69.9868 20.3099C69.9519 20.2675 69.922 20.2102 69.897 20.1404C69.8721 20.0083 69.8422 19.8089 69.8073 19.5397C69.7724 19.2706 69.7425 19.0039 69.7176 18.7422L69.5381 17.9895V14.383C69.5381 13.9294 69.4509 13.6079 69.2789 13.4234C69.1045 13.239 68.7979 13.1443 68.3543 13.1443C67.5417 13.1443 67.1529 13.4483 67.1878 14.059C67.2003 14.2135 67.123 14.2933 66.9535 14.2933H65.0693C64.9247 14.2933 64.8425 14.1986 64.8176 14.0066C64.7453 13.1343 65.0244 12.4614 65.6525 11.9878C66.2806 11.5143 67.2102 11.28 68.444 11.28C69.6777 11.28 70.6124 11.5342 71.1806 12.0426C71.7489 12.5511 72.033 13.3561 72.033 14.4553V18.0991C72.033 18.483 72.043 18.8369 72.0604 19.1659C72.0779 19.4949 72.1053 19.8139 72.1402 20.1254C72.1651 20.2924 72.0854 20.3772 71.9059 20.3772H70.1463L70.1488 20.3722Z" fill="white"/>
<path d="M77.3241 20.5867C76.8331 20.5867 76.3794 20.5593 75.9607 20.5069C75.542 20.4521 75.1208 20.3923 74.6946 20.3275C74.2709 20.2627 73.8123 20.2104 73.3213 20.1755V8.34909C73.3213 8.19457 73.3986 8.11481 73.5556 8.11481H75.5844C75.7389 8.11481 75.8187 8.19207 75.8187 8.34909V18.3984C76.033 18.4333 76.2523 18.4682 76.4742 18.4981C76.696 18.528 76.9078 18.5429 77.1122 18.5429C77.663 18.5429 78.0693 18.3909 78.3335 18.0843C78.5952 17.7803 78.7273 17.3267 78.7273 16.7285V14.8791C78.7273 14.3657 78.6375 13.9943 78.4581 13.7675C78.2786 13.5407 78.002 13.4261 77.6331 13.4261C77.334 13.4261 77.02 13.5133 76.691 13.6853C76.362 13.8598 75.9707 14.1364 75.5146 14.5202L75.5694 12.6534C76.0729 12.1874 76.5739 11.8409 77.0773 11.6116C77.5808 11.3848 78.0942 11.2702 78.6201 11.2702C79.4924 11.2702 80.1454 11.5244 80.5766 12.0328C81.0078 12.5413 81.2222 13.3214 81.2222 14.3757V16.9428C81.2222 18.1741 80.9056 19.0913 80.2701 19.6894C79.637 20.2876 78.655 20.5867 77.3266 20.5867H77.3241Z" fill="white"/>
<path d="M82.5658 20.3724C82.4113 20.3724 82.3315 20.2951 82.3315 20.1381V8.34909C82.3315 8.19457 82.4088 8.11481 82.5658 8.11481H84.5946C84.7492 8.11481 84.8289 8.19207 84.8289 8.34909V20.1381C84.8289 20.2926 84.7517 20.3724 84.5946 20.3724H82.5658Z" fill="white"/>
<path d="M89.975 20.5863C88.5867 20.5863 87.5623 20.2897 86.8969 19.699C86.2314 19.1083 85.8999 18.231 85.8999 17.0696V15.0059C85.8999 13.7846 86.2314 12.8574 86.8969 12.2244C87.5598 11.5913 88.5742 11.2723 89.9376 11.2723C91.3009 11.2723 92.2679 11.5764 92.9434 12.187C93.6188 12.7976 93.9578 13.6949 93.9578 14.8788V16.2795C93.9578 16.434 93.8805 16.5138 93.7235 16.5138H88.3748V17.0521C88.3748 17.6029 88.497 18.0117 88.7437 18.2809C88.988 18.55 89.3917 18.6846 89.955 18.6846C90.3862 18.6846 90.7276 18.6148 90.9769 18.4778C91.2261 18.3407 91.3532 18.1338 91.3532 17.8597C91.3532 17.7051 91.4305 17.6254 91.5875 17.6254H93.544C93.6886 17.6254 93.7659 17.7026 93.7783 17.8597C93.8033 18.7694 93.4967 19.4498 92.8636 19.9059C92.2306 20.362 91.266 20.5888 89.975 20.5888V20.5863ZM88.3773 15.0059H91.5177V14.9161C91.5177 14.318 91.3931 13.8818 91.1414 13.6052C90.8897 13.331 90.5008 13.1914 89.975 13.1914C89.4117 13.1914 89.0054 13.331 88.7537 13.6126C88.502 13.8943 88.3773 14.3329 88.3773 14.9311V15.0034V15.0059Z" fill="white"/>
<line x1="109.018" y1="2.46857e-08" x2="109.018" y2="28.9901" stroke="white" stroke-width="1.12949"/>
<g clip-path="url(#clip0_8569_32561)">
<path d="M176.063 6.49517C171.509 6.49517 168.023 9.90085 168.023 14.4952C168.023 19.0895 171.509 22.4952 176.063 22.4952C180.617 22.4952 184.09 19.0895 184.09 14.4952C184.09 9.90085 180.591 6.49517 176.063 6.49517ZM176.063 17.5803C174.354 17.5803 173.178 16.2715 173.178 14.4952C173.178 12.7189 174.34 11.41 176.063 11.41C177.786 11.41 178.948 12.7189 178.948 14.4952C178.948 16.2715 177.773 17.5803 176.063 17.5803Z" fill="white"/>
<path d="M159.048 6.49517C154.494 6.49517 151.008 9.90085 151.008 14.4952C151.008 19.0895 154.507 22.4952 159.048 22.4952C163.589 22.4952 167.075 19.0895 167.075 14.4952C167.075 9.90085 163.576 6.49517 159.048 6.49517ZM159.048 17.5803C157.339 17.5803 156.163 16.2715 156.163 14.4952C156.163 12.7189 157.325 11.41 159.048 11.41C160.771 11.41 161.933 12.7189 161.933 14.4952C161.933 16.2715 160.771 17.5803 159.048 17.5803Z" fill="white"/>
<path d="M130.801 22.4951C132.604 22.4951 134.046 21.6002 135.142 19.5435L137.559 15.0159V18.8623C137.559 21.1194 139.028 22.4951 141.312 22.4951C143.075 22.4951 144.37 21.6937 145.653 19.5435L151.248 10.1278C152.477 8.07102 151.609 6.49506 148.911 6.49506C147.469 6.49506 146.534 6.97586 145.693 8.55182L141.833 15.7772V9.35316C141.833 7.42995 140.925 6.49506 139.228 6.49506C137.906 6.49506 136.851 7.06935 136.023 8.67202L132.39 15.7638V9.41993C132.39 7.36317 131.549 6.49506 129.492 6.49506H125.325C123.749 6.49506 122.948 7.22962 122.948 8.59189C122.948 9.95416 123.776 10.7154 125.325 10.7154H127.035V18.849C127.048 21.1194 128.557 22.4951 130.801 22.4951Z" fill="white"/>
</g>
<defs>
<clipPath id="clip0_8569_32561">
<rect width="61.1419" height="16" fill="white" transform="translate(122.948 6.49506)"/>
</clipPath>
</defs>
</svg>
