<svg width="587" height="319" viewBox="0 0 587 319" fill="none" xmlns="http://www.w3.org/2000/svg">
<rect x="345.124" y="302.875" width="335.25" height="15.75" fill="white"/>
<rect x="26.749" y="0.250488" width="316.125" height="15.75" fill="white"/>
<rect x="329.349" y="248.636" width="13.2952" height="53.1809" fill="white"/>
<rect x="329.349" y="13.7503" width="13.2952" height="53.1809" fill="white"/>
<rect x="439.624" y="68.875" width="13.2952" height="53.1809" fill="white"/>
<rect x="213.5" y="189.25" width="13.2952" height="53.1809" fill="white"/>
<path d="M575.749 311.025C529.499 311.025 399.862 311.025 353.347 311.025C344.012 311.025 336.467 303.457 336.467 294.123L336.467 275.057L336.467 255.625" stroke="#A7AAAD" stroke-width="1.58453" stroke-miterlimit="16" stroke-linecap="round"/>
<path d="M2.65918 8.90634C59.655 8.90634 260.05 8.90642 319.635 8.90644C328.97 8.90645 336.468 16.4736 336.468 25.8081L336.468 41.5435L336.468 60.6678" stroke="#A7AAAD" stroke-width="1.58453" stroke-miterlimit="16" stroke-linecap="square"/>
<circle cx="289.988" cy="8.90678" r="5.28178" fill="white" stroke="#3858E9" stroke-width="1.58453"/>
<circle cx="225.55" cy="8.90678" r="5.28178" fill="white" stroke="#3858E9" stroke-width="1.58453"/>
<rect width="5.28178" height="48.5924" transform="matrix(1 0 0 -1 333.299 303.419)" fill="url(#paint0_linear_1_31369)"/>
<rect width="5.625" height="99" transform="matrix(-4.37114e-08 1 1 4.37114e-08 482.375 308.5)" fill="url(#paint1_linear_1_31369)"/>
<rect width="5.625" height="144" transform="matrix(1.19249e-08 -1 -1 -1.19249e-08 144.875 11.5)" fill="url(#paint2_linear_1_31369)"/>
<rect width="5.28178" height="48.5924" transform="matrix(-1 8.74228e-08 8.74228e-08 1 339.156 15.9996)" fill="url(#paint3_linear_1_31369)"/>
<rect x="202.659" y="70.5673" width="239.768" height="155.849" rx="3.99613" fill="#F6F7F7" stroke="#A7AAAD" stroke-width="1.49855" stroke-miterlimit="16" stroke-linecap="round"/>
<circle cx="217.223" cy="84.6985" r="2.85325" stroke="#8C8F94" stroke-width="1.49855"/>
<circle cx="228.635" cy="84.6983" r="2.85325" stroke="#8C8F94" stroke-width="1.49855"/>
<circle cx="240.046" cy="84.6983" r="2.85325" stroke="#8C8F94" stroke-width="1.49855"/>
<rect x="228.373" y="96.1465" width="236.938" height="156.122" rx="3.99613" fill="#F6F7F7" stroke="#A7AAAD" stroke-width="1.49855" stroke-miterlimit="16" stroke-linecap="round"/>
<path d="M348.721 144.289C332.331 144.289 319 157.62 319 174.01C319 190.401 332.331 203.731 348.721 203.731C365.112 203.731 378.442 190.401 378.442 174.01C378.442 157.62 365.112 144.289 348.721 144.289ZM322.001 174.01C322.001 170.138 322.836 166.455 324.315 163.132L337.06 198.058C328.143 193.724 322.001 184.588 322.001 174.01ZM348.721 200.73C346.1 200.73 343.568 200.342 341.174 199.639L349.19 176.345L357.403 198.849C357.455 198.98 357.52 199.105 357.594 199.215C354.819 200.196 351.832 200.73 348.721 200.73ZM352.403 161.477C354.014 161.39 355.463 161.221 355.463 161.221C356.906 161.053 356.73 158.937 355.295 159.018C355.295 159.018 350.969 159.354 348.172 159.354C345.544 159.354 341.137 159.018 341.137 159.018C339.695 158.93 339.527 161.133 340.969 161.221C340.969 161.221 342.33 161.39 343.773 161.477L347.938 172.883L342.089 190.423L332.353 161.477C333.963 161.39 335.413 161.221 335.413 161.221C336.855 161.053 336.679 158.937 335.244 159.018C335.244 159.018 330.918 159.354 328.121 159.354C327.624 159.354 327.031 159.34 326.401 159.325C331.174 152.078 339.388 147.29 348.721 147.29C355.676 147.29 362.015 149.948 366.766 154.303C366.649 154.296 366.539 154.281 366.422 154.281C363.794 154.281 361.935 156.565 361.935 159.025C361.935 161.229 363.209 163.088 364.563 165.291C365.58 167.07 366.766 169.354 366.766 172.663C366.766 174.947 365.888 177.604 364.731 181.301L362.067 190.203L352.403 161.477ZM372.169 161.192C374.255 164.999 375.441 169.369 375.441 174.01C375.441 183.871 370.097 192.472 362.154 197.106L370.317 173.505C371.839 169.691 372.352 166.646 372.352 163.937C372.352 162.956 372.286 162.041 372.169 161.192Z" fill="#DCDCDE"/>
<circle cx="242.933" cy="110.412" r="2.85325" stroke="#8C8F94" stroke-width="1.49855"/>
<circle cx="254.351" cy="110.412" r="2.85325" stroke="#8C8F94" stroke-width="1.49855"/>
<circle cx="265.762" cy="110.412" r="2.85325" stroke="#8C8F94" stroke-width="1.49855"/>
<g clip-path="url(#clip0_1_31369)">
<rect x="394.927" y="235.201" width="33.53" height="33.53" rx="2.07927" fill="#3858E9"/>
<path d="M411.98 241.573C406.265 241.573 401.502 246.217 401.502 252.051C401.502 257.767 406.146 262.53 411.98 262.53C417.695 262.53 422.458 257.886 422.458 252.051C422.458 246.217 417.695 241.573 411.98 241.573ZM419.72 248.122H416.624C416.028 246.336 415.314 244.788 414.361 243.597C416.743 244.312 418.648 245.979 419.72 248.122ZM420.553 251.932C420.553 252.647 420.434 253.361 420.315 254.076H416.862C416.981 253.361 416.981 252.647 416.981 251.932C416.981 251.218 416.862 250.504 416.862 249.789H420.315C420.553 250.504 420.553 251.218 420.553 251.932ZM411.98 259.91C410.789 259.077 409.837 257.648 409.241 255.743H414.719C414.123 257.648 413.171 259.196 411.98 259.91ZM408.884 254.076C408.765 253.361 408.765 252.766 408.765 251.932C408.765 251.218 408.884 250.504 408.884 249.789H415.076C415.195 250.504 415.195 251.099 415.195 251.932C415.195 252.766 415.076 253.361 415.076 254.076H408.884ZM403.407 251.932C403.407 251.218 403.526 250.504 403.645 249.789H407.098C406.979 250.504 406.979 251.218 406.979 251.932C406.979 252.647 407.098 253.361 407.098 254.076H403.645C403.407 253.361 403.407 252.647 403.407 251.932ZM411.98 243.955C413.171 244.788 414.123 246.217 414.719 248.122H409.241C409.837 246.217 410.789 244.669 411.98 243.955ZM409.599 243.597C408.646 244.788 407.932 246.336 407.455 248.122H404.241C405.312 245.979 407.217 244.312 409.599 243.597ZM404.241 255.862H407.336C407.813 257.648 408.527 259.196 409.48 260.267C407.336 259.553 405.312 257.886 404.241 255.862ZM414.361 260.267C415.314 259.077 416.028 257.648 416.505 255.862H419.601C418.648 257.886 416.743 259.553 414.361 260.267Z" fill="white"/>
</g>
<path d="M344.209 72.9379H349.614L350.351 77.8648C349.532 78.7772 347.698 80.7662 346.912 81.4231C346.125 82.08 343.309 82.4267 341.999 82.5179L340.771 81.4231L341.999 76.2225L344.209 72.9379Z" fill="#F6F7F7"/>
<path d="M335.982 88.9052H351.779V85.9379H335.982V88.9052ZM365.404 56.2653C364.219 55.0784 362.442 55.0784 361.257 56.2653L347.04 70.5081C346.25 70.3103 345.658 70.5081 344.868 70.706C343.881 71.1016 341.906 72.0907 341.116 75.0579C340.327 78.4208 339.537 79.4099 338.944 80.399C338.747 80.5968 338.549 80.9925 338.352 81.1903L337.167 83.3663H339.932C343.881 83.3663 346.645 82.575 349.212 80.5968C350.792 79.4099 351.582 77.8274 351.779 76.047C351.779 75.4536 351.779 75.0579 351.582 74.6623L365.602 60.6173C366.589 59.4304 366.589 57.4522 365.404 56.2653ZM347.238 78.4208C345.855 79.4099 344.276 80.0034 342.499 80.399C342.894 79.4099 343.486 78.0252 344.078 75.8492C344.473 74.6623 344.868 73.871 345.658 73.6732C346.645 73.4754 347.633 73.871 348.225 74.2667C348.62 74.6623 348.817 75.2558 348.62 75.8492C348.62 76.4427 348.422 77.6296 347.238 78.4208Z" fill="#3858E9"/>
<circle cx="404.075" cy="309.969" r="5.28178" fill="white" stroke="#3858E9" stroke-width="1.58453"/>
<defs>
<linearGradient id="paint0_linear_1_31369" x1="2.64089" y1="-1.19724e-09" x2="2.82568" y2="37.6688" gradientUnits="userSpaceOnUse">
<stop stop-color="white" stop-opacity="0"/>
<stop offset="1" stop-color="white"/>
</linearGradient>
<linearGradient id="paint1_linear_1_31369" x1="2.8125" y1="-2.4392e-09" x2="3.5327" y2="76.7399" gradientUnits="userSpaceOnUse">
<stop stop-color="white" stop-opacity="0"/>
<stop offset="1" stop-color="white"/>
</linearGradient>
<linearGradient id="paint2_linear_1_31369" x1="2.8125" y1="-3.54792e-09" x2="4.33607" y2="111.611" gradientUnits="userSpaceOnUse">
<stop stop-color="white" stop-opacity="0"/>
<stop offset="1" stop-color="white"/>
</linearGradient>
<linearGradient id="paint3_linear_1_31369" x1="2.64089" y1="-1.19724e-09" x2="2.82568" y2="37.6688" gradientUnits="userSpaceOnUse">
<stop stop-color="white" stop-opacity="0"/>
<stop offset="1" stop-color="white"/>
</linearGradient>
<clipPath id="clip0_1_31369">
<rect x="394.927" y="235.201" width="33.53" height="33.53" rx="2.07927" fill="white"/>
</clipPath>
</defs>
</svg>
