<svg width="73" height="72" viewBox="0 0 73 72" fill="none" xmlns="http://www.w3.org/2000/svg">
	<g clip-path="url(#clip0_349_1283)">
	<path d="M12.5362 9C5.62366 9 0 14.6037 0 21.4901C0 28.3765 5.62366 33.9798 12.5362 33.9798C19.4486 33.9798 25.0723 28.376 25.0723 21.4901C25.0723 14.6042 19.4491 9 12.5362 9ZM1.26402 21.4875C1.26402 19.8586 1.61555 18.3139 2.23982 16.9171L7.61599 31.5929C3.85493 29.7733 1.26358 25.9334 1.26358 21.4875H1.26402ZM12.5362 32.7175C11.4302 32.7175 10.3627 32.5546 9.3511 32.2597L12.7322 22.4699L16.1976 31.9264C16.2206 31.9826 16.2485 32.0335 16.279 32.0818C15.1071 32.4917 13.8484 32.7179 12.5362 32.7179V32.7175ZM14.0906 16.2273L14.0884 16.222C14.7662 16.1865 15.3777 16.1153 15.3777 16.1153C15.9842 16.044 15.9125 15.1532 15.3063 15.189C15.3063 15.189 13.4819 15.3316 12.3024 15.3316C11.1938 15.3316 9.33379 15.189 9.33379 15.189C8.72505 15.1536 8.65598 16.0798 9.26255 16.1153C9.26255 16.1153 9.83855 16.1865 10.4451 16.222L12.2005 21.0164L9.73407 28.3862L5.62853 16.222C6.30903 16.1865 6.91779 16.1153 6.91779 16.1153C7.52434 16.044 7.45306 15.1532 6.84651 15.189C6.84651 15.189 5.02199 15.3316 3.84253 15.3316C3.6309 15.3316 3.38119 15.3267 3.11644 15.3188C5.13444 12.2727 8.5971 10.2596 12.5362 10.2596C15.4715 10.2596 18.1417 11.3766 20.1473 13.2091C20.099 13.2065 20.0503 13.1989 20.002 13.1989C18.8934 13.1989 18.1089 14.161 18.1089 15.1917C18.1089 16.1179 18.6437 16.8993 19.2175 17.8255C19.6456 18.5738 20.1473 19.5332 20.1473 20.9225C20.1473 21.8846 19.8617 23.0932 19.2888 24.5538L18.1651 28.2972L14.0906 16.2273ZM22.4252 16.0998C23.3044 17.698 23.806 19.535 23.806 21.487C23.806 25.6301 21.5534 29.246 18.2032 31.1927L21.6455 21.2758C22.2875 19.6726 22.5013 18.3927 22.5013 17.2549C22.5013 16.8427 22.4734 16.4584 22.4247 16.0993L22.4252 16.0998Z" fill="black"/>
	<path d="M36.5507 9.6416H33.4382C31.7257 13.9667 27.9438 12.8231 27.9434 12.8227V16.1755C27.9434 16.1755 29.9043 16.2707 30.9474 16.1348C31.333 16.0848 31.6916 16.0135 32.0259 15.9249V33.0173H36.5502V10.0317C36.5591 9.78638 36.5502 9.64204 36.5502 9.64204H36.5507V9.6416Z" fill="black"/>
	<path d="M70.9275 16.2365C70.9147 16.2108 70.9019 16.1852 70.8895 16.1599C70.9019 16.1626 70.9147 16.1652 70.9275 16.1679C70.2537 14.7772 69.3208 13.5548 68.1343 12.5087C66.2482 10.8462 64.0483 9.87435 61.5367 9.60827C59.2397 9.36521 57.053 9.7433 54.9921 10.766C53.1113 11.6993 51.5821 13.0501 50.412 14.8056C49.043 16.8594 48.3891 19.1218 48.4148 21.5808C48.4325 23.2779 48.8084 24.8819 49.5256 26.3889C49.7377 26.8605 50.1525 27.4519 50.1525 27.4519C50.4088 27.4059 50.5837 27.3736 50.8215 27.3223C51.0455 27.277 51.2647 27.2217 51.4794 27.1553C51.9682 27.0084 52.4459 26.8029 52.9581 26.4717C53.1339 26.3597 53.3048 26.2376 53.4721 26.1056C53.601 26.0055 53.6997 25.9249 53.8348 25.8072C53.8348 25.8072 53.3978 25.3375 52.913 24.0641C52.035 21.6578 52.2812 19.3139 53.7356 17.0808C54.5338 15.8553 55.569 14.922 56.7882 14.3186C58.0811 13.6792 59.5381 13.4632 60.9708 13.6305C62.9508 13.8621 65.295 14.7068 67.2957 17.9782C68.3796 20.1127 68.4226 22.5212 67.526 24.5883C67.2945 25.0829 67.0346 25.5243 66.7544 25.9201C65.8609 27.1814 64.7602 27.9678 63.7011 28.457C62.6488 28.9427 61.6381 29.1357 60.9146 29.2083C60.5582 29.2442 60.2722 29.2512 60.0845 29.2499C59.9269 29.249 59.8383 29.2424 59.8383 29.2424C59.7984 29.3021 59.7555 29.3624 59.7112 29.4226C58.89 30.5422 57.3572 31.7775 56.1724 32.4673C56.148 32.4814 56.1237 32.4956 56.0998 32.5094C56.125 32.5173 56.1507 32.5258 56.1769 32.5342C56.2273 32.5506 56.2791 32.567 56.3331 32.5837C56.5372 32.6479 56.7665 32.7161 57.0185 32.7839C58.843 33.274 61.8731 33.7256 65.3881 32.1986C65.3881 32.1986 65.3889 32.1986 65.3893 32.1981C69.5848 30.3749 71.1414 26.284 71.1414 26.284C71.7121 25.0142 72.0459 23.6604 72.1367 22.2227C72.2691 20.1278 71.8635 18.1274 70.9284 16.2365H70.9275Z" fill="black"/>
	<path d="M53.366 9.67769C53.2562 9.64715 53.0574 9.59136 52.9034 9.54709C52.5154 9.43552 52.1281 9.32439 51.734 9.24425H51.7332C51.1098 9.11719 50.486 9.03838 49.8639 9.00916C49.8214 9.00739 49.7794 9.00517 49.7369 9.00429C48.638 8.97507 47.5577 9.09549 46.5199 9.35538C46.4119 9.38372 46.3039 9.41338 46.1963 9.44526C45.4777 9.65689 44.7972 9.91722 44.1561 10.2271C44.1504 10.2298 44.1447 10.2324 44.1394 10.2355C44.1256 10.2422 44.1123 10.2493 44.0986 10.2559C43.0723 10.7726 42.116 11.4429 41.2589 12.2558C40.4876 12.9872 39.8284 13.8045 39.2883 14.6873C39.1307 14.9503 38.9806 15.2217 38.838 15.5024C38.6918 15.7906 38.5586 16.0797 38.4369 16.3697C37.9012 17.6806 37.6014 19.0916 37.5629 20.55C37.4787 23.7178 38.6339 26.7289 40.8144 29.0284C42.9948 31.3276 45.9399 32.6403 49.1073 32.7245C49.109 32.7245 49.1104 32.7245 49.1122 32.7245C49.1653 32.7258 49.2184 32.7262 49.2716 32.7267C49.987 32.7306 50.7144 32.6722 51.4529 32.5531C51.6503 32.5212 51.8452 32.4832 52.0386 32.4415C52.8679 32.2556 53.6715 31.9811 54.4387 31.6225C55.1241 31.297 55.7798 30.9017 56.4045 30.4395C58.7054 28.7367 60.2302 26.4965 60.9094 23.7196C61.5828 20.9671 61.3154 18.3293 60.123 15.8313C59.9796 15.5307 59.8238 15.2323 59.6534 14.9357C59.6462 14.9237 59.6378 14.9104 59.629 14.8963C57.3573 15.1672 56.289 16.2307 55.9835 16.5065C56.1778 16.7978 56.3532 17.1029 56.5077 17.4199C57.0456 18.5218 57.3342 19.7651 57.2992 21.0733C57.1841 25.4166 53.5572 28.8563 49.214 28.7412C47.9916 28.7088 46.8409 28.398 45.8209 27.8716C45.1187 27.5196 44.4855 27.0622 43.9232 26.5013C43.0892 25.6867 42.4352 24.6905 42.0257 23.5788C41.6179 22.5185 41.4616 21.4169 41.5648 20.2839C41.8698 16.1213 45.4068 12.8818 49.6209 12.9876C49.6209 12.9876 52.368 10.2262 53.366 9.67769Z" fill="black"/>
	</g>
	<defs>
	<clipPath id="clip0_349_1283">
	<rect width="72.1612" height="25" fill="white" transform="translate(0 9)"/>
	</clipPath>
	</defs>
	</svg>
