<svg fill="none" height="64" viewBox="0 0 64 64" width="64" xmlns="http://www.w3.org/2000/svg"><rect fill="#363739" height="64" rx="8.7" width="64"/><path d="m25.8827 22.7294c-.1685-.0842-.295-.1685-.4636-.2106.3372-3.201 1.138-6.2335 2.2759-9.0134 2.8238-.6739 5.8161-.6739 8.682 0 1.1379 2.7377 1.8965 5.7703 2.2759 8.9713-.8008.3369-1.5173.9266-1.9809 1.7269-1.2644-.1264-2.5287-.1685-3.8352-.1685-1.8123 0-3.5824.1685-5.3525.379-.3372-.6739-.8851-1.3056-1.6016-1.6847zm2.8238 15.3312c-.8008-1.0951-1.5172-2.2323-2.1916-3.4538-.8007-1.432-1.5594-2.9061-2.1915-4.4224-.8008.0842-1.6859-.0842-2.4445-.5054-.1264-.0843-.2529-.1685-.3793-.2527-3.1609 2.3586-5.7318 5.0963-7.6705 8.0446.6322 2.1059 1.6437 4.1276 2.9924 5.9387 3.6666-.1684 7.4597-1.0108 11.1685-2.5692-.1264-.8424.0422-1.7269.5058-2.5271.0843-.0842.1264-.1685.2107-.2527zm21.5785-.7582c-1.9387-2.9483-4.4674-5.6439-7.544-8.0025-.8429.6739-1.8966 1.0108-2.9502.8845-.6322 1.5163-1.3487 2.9904-2.1916 4.4224-.6743 1.1794-1.4329 2.3587-2.2337 3.4538.5057.7581.7165 1.6426.6743 2.5271 3.751 1.6005 7.5862 2.4429 11.295 2.6113.4215-.5475.8008-1.1372 1.138-1.7268.8007-1.3478 1.3908-2.7377 1.8122-4.1698zm-15.0459 5.4755c-1.2223 1.6005-3.456 2.0638-5.2261 1.0529-.4214-.2527-.7586-.5475-1.0536-.8845-3.3717 1.4321-6.8276 2.3166-10.1993 2.6535 1.0958 1.0951 2.3602 2.0217 3.751 2.8641 7.6284 4.3803 17.0268 2.9062 22.9693-3.0326-3.4138-.3369-6.8697-1.2214-10.2413-2.6534zm-15.1724-15.2049c-.3794-1.0529-.2951-2.3165.295-3.3694.6322-1.053 1.6437-1.7269 2.7394-1.9375.2951-2.7377.9272-5.3912 1.7702-7.8762-3.7931 1.5163-7.1226 4.2961-9.3142 8.0868-2.1916 3.7485-2.9081 7.9604-2.4023 11.9617 1.9387-2.5271 4.2145-4.8015 6.9119-6.8654zm19.134-13.1831c.843 2.485 1.4751 5.0964 1.7702 7.8341.4214.0842.8429.2527 1.2222.4633 1.6858.9687 2.4023 2.9483 1.8122 4.6751 2.6974 2.0217 4.9732 4.2961 6.8698 6.7811.8429-7.2865-2.6131-14.7836-9.3563-18.6585-.7587-.3791-1.5173-.7581-2.3181-1.0951zm-5.6053 22.2386c.7165-1.0108 1.3908-2.0638 1.9808-3.1167.7587-1.3478 1.433-2.7377 2.023-4.1698-.885-.716-1.4329-1.769-1.4751-2.864-1.0958-.0843-2.1915-.1264-3.2873-.1264-1.6859 0-3.3295.1264-5.0154.3791-.0842.5054-.2528 1.0529-.5057 1.5162-.2529.4212-.5479.8003-.9272 1.0951.59 1.4321 1.2644 2.822 2.0651 4.1698.6322 1.0529 1.2644 2.1059 1.9809 3.1167 1.0115-.4211 2.1494-.4633 3.1609 0z" fill="#ffe602"/></svg>