<svg width="60" height="60" viewBox="0 0 60 60" fill="none" xmlns="http://www.w3.org/2000/svg">
<rect width="60" height="60" fill="#2C3338"/>
<path d="M24.2047 21.2173C24.045 21.1375 23.9252 21.0577 23.7655 21.0178C24.0849 17.9853 24.8435 15.1123 25.9216 12.4788C28.5967 11.8404 31.4316 11.8404 34.1466 12.4788C35.2247 15.0724 35.9434 17.9454 36.3027 20.9779C35.5441 21.2971 34.8653 21.8558 34.4261 22.6139C33.2283 22.4942 32.0305 22.4543 30.7927 22.4543C29.0758 22.4543 27.3989 22.6139 25.722 22.8134C25.4025 22.175 24.8835 21.5764 24.2047 21.2173ZM26.8798 35.7416C26.1212 34.7042 25.4425 33.6268 24.8036 32.4696C24.045 31.113 23.3263 29.7164 22.7274 28.28C21.9688 28.3598 21.1303 28.2001 20.4116 27.8011C20.2918 27.7213 20.172 27.6415 20.0523 27.5617C17.0577 29.7962 14.6221 32.3898 12.7855 35.183C13.3844 37.1781 14.3426 39.0934 15.6203 40.8091C19.094 40.6495 22.6875 39.8515 26.2011 38.3751C26.0813 37.5771 26.241 36.7391 26.6802 35.981C26.7601 35.9012 26.8 35.8214 26.8798 35.7416ZM47.3227 35.0234C45.486 32.2302 43.0904 29.6765 40.1757 27.442C39.3771 28.0804 38.3789 28.3997 37.3807 28.28C36.7818 29.7164 36.1031 31.113 35.3045 32.4696C34.6657 33.5869 33.947 34.7042 33.1884 35.7416C33.6675 36.4598 33.8671 37.2978 33.8272 38.1357C37.3807 39.652 41.0141 40.45 44.5277 40.6096C44.927 40.0909 45.2864 39.5323 45.6058 38.9736C46.3644 37.6968 46.9234 36.38 47.3227 35.0234ZM33.0686 40.2106C31.9107 41.7269 29.7945 42.1658 28.1176 41.2081C27.7183 40.9687 27.3989 40.6894 27.1194 40.3702C23.9252 41.7269 20.6512 42.5648 17.457 42.884C18.4951 43.9215 19.6929 44.7993 21.0105 45.5974C28.2374 49.7471 37.1412 48.3506 42.7709 42.7244C39.5368 42.4052 36.2628 41.5673 33.0686 40.2106ZM18.6947 25.806C18.3354 24.8085 18.4152 23.6114 18.9742 22.6139C19.5731 21.6163 20.5314 20.9779 21.5695 20.7784C21.849 18.1848 22.4479 15.671 23.2465 13.3168C19.653 14.7532 16.4987 17.3868 14.4225 20.9779C12.3463 24.5292 11.6675 28.5194 12.1466 32.31C13.9833 29.9159 16.1394 27.7612 18.6947 25.806ZM36.8218 13.3168C37.6203 15.671 38.2192 18.1449 38.4987 20.7385C38.898 20.8183 39.2973 20.9779 39.6566 21.1774C41.2537 22.0952 41.9325 23.9706 41.3735 25.6065C43.9288 27.5218 46.0849 29.6765 47.8816 32.0307C48.6802 25.1277 45.4061 18.0252 39.0178 14.3542C38.2991 13.9951 37.5804 13.636 36.8218 13.3168ZM31.5114 34.3849C32.1902 33.4273 32.829 32.4297 33.388 31.4322C34.1067 30.1553 34.7455 28.8386 35.3045 27.4819C34.466 26.8036 33.947 25.806 33.9071 24.7686C32.869 24.6888 31.8308 24.6489 30.7927 24.6489C29.1956 24.6489 27.6385 24.7686 26.0414 25.008C25.9615 25.4868 25.8018 26.0055 25.5622 26.4445C25.3227 26.8435 25.0432 27.2026 24.6838 27.4819C25.2428 28.8386 25.8817 30.1553 26.6403 31.4322C27.2392 32.4297 27.8381 33.4273 28.5169 34.3849C29.4751 33.9859 30.5532 33.946 31.5114 34.3849Z" fill="white"/>
</svg>
