<svg id="apple-logo" xmlns="http://www.w3.org/2000/svg" viewBox="0 0 24 24" fill="none">
<path d="M16.8516 12.479C16.8516 10.3324 18.5761 9.44767 18.5761 9.44767C18.5761 9.44767 17.6944 7.84749 15.453 7.84749C14.1508 7.84749 13.1506 8.5908 12.6115 8.5908C11.9835 8.5908 11.0462 7.89191 9.83857 7.89191C7.98072 7.89191 6 9.56122 6 12.7429C6 15.9246 8.34013 20 10.1925 20C10.839 20 11.8319 19.3466 12.832 19.3466C13.8322 19.3466 14.538 19.9766 15.4698 19.9766C17.4982 19.9766 19 15.7354 19 15.7354C19 15.7354 16.8516 14.9009 16.8516 12.4793V12.479ZM14.8528 6.55746C15.8939 5.30265 15.6772 4 15.6772 4C15.6772 4 14.2207 4.00683 13.1729 5.39228C12.241 6.62448 12.4784 7.67822 12.4784 7.67822C12.4784 7.67822 13.7416 7.89743 14.8531 6.55746H14.8528Z" fill="currentColor"/>
</svg>