<svg width="266" height="211" viewBox="0 0 266 211" fill="none" xmlns="http://www.w3.org/2000/svg">
<rect x="1.66016" y="27.5673" width="239.768" height="155.849" rx="3.99613" fill="#F7EBEC" stroke="#FF8085" stroke-width="1.49855" stroke-miterlimit="16" stroke-linecap="round" stroke-dasharray="7 7"/>
<circle cx="16.2243" cy="41.6985" r="2.85325" stroke="#D63638" stroke-width="1.49855"/>
<circle cx="27.6345" cy="41.6983" r="2.85325" stroke="#D63638" stroke-width="1.49855"/>
<circle cx="39.0466" cy="41.6983" r="2.85325" stroke="#D63638" stroke-width="1.49855"/>
<rect x="27.373" y="53.1465" width="236.938" height="156.122" rx="3.99613" fill="#F6F7F7" stroke="#A7AAAD" stroke-width="1.49855" stroke-miterlimit="16" stroke-linecap="round"/>
<path d="M147.721 101.289C131.331 101.289 118 114.62 118 131.01C118 147.401 131.331 160.731 147.721 160.731C164.112 160.731 177.442 147.401 177.442 131.01C177.442 114.62 164.112 101.289 147.721 101.289ZM121.001 131.01C121.001 127.138 121.836 123.455 123.315 120.132L136.06 155.058C127.143 150.724 121.001 141.588 121.001 131.01ZM147.721 157.73C145.1 157.73 142.568 157.342 140.174 156.639L148.19 133.345L156.403 155.849C156.455 155.98 156.52 156.105 156.594 156.215C153.819 157.196 150.832 157.73 147.721 157.73ZM151.403 118.477C153.014 118.39 154.463 118.221 154.463 118.221C155.906 118.053 155.73 115.937 154.295 116.018C154.295 116.018 149.969 116.354 147.172 116.354C144.544 116.354 140.137 116.018 140.137 116.018C138.695 115.93 138.527 118.133 139.969 118.221C139.969 118.221 141.33 118.39 142.773 118.477L146.938 129.883L141.089 147.423L131.353 118.477C132.963 118.39 134.413 118.221 134.413 118.221C135.855 118.053 135.679 115.937 134.244 116.018C134.244 116.018 129.918 116.354 127.121 116.354C126.624 116.354 126.031 116.34 125.401 116.325C130.174 109.078 138.388 104.29 147.721 104.29C154.676 104.29 161.015 106.948 165.766 111.303C165.649 111.296 165.539 111.281 165.422 111.281C162.794 111.281 160.935 113.565 160.935 116.025C160.935 118.229 162.209 120.088 163.563 122.291C164.58 124.07 165.766 126.354 165.766 129.663C165.766 131.947 164.888 134.604 163.731 138.301L161.067 147.203L151.403 118.477ZM171.169 118.192C173.255 121.999 174.441 126.369 174.441 131.01C174.441 140.871 169.097 149.472 161.154 154.106L169.317 130.505C170.839 126.691 171.352 123.646 171.352 120.937C171.352 119.956 171.286 119.041 171.169 118.192Z" fill="#DCDCDE"/>
<circle cx="41.9353" cy="67.4117" r="2.85325" stroke="#8C8F94" stroke-width="1.49855"/>
<circle cx="53.3533" cy="67.4117" r="2.85325" stroke="#8C8F94" stroke-width="1.49855"/>
<circle cx="64.7634" cy="67.4117" r="2.85325" stroke="#8C8F94" stroke-width="1.49855"/>
<rect x="188" y="-0.000183105" width="38" height="38" rx="19" fill="#D63638"/>
<path fill-rule="evenodd" clip-rule="evenodd" d="M207.001 11.4165C206.458 11.4163 205.928 11.5846 205.485 11.898C205.041 12.2114 204.706 12.6546 204.525 13.1665H209.476C209.295 12.6547 208.96 12.2116 208.517 11.8982C208.073 11.5848 207.544 11.4165 207.001 11.4165ZM207.001 9.6665C205.992 9.66652 205.015 10.0149 204.233 10.6526C203.452 11.2904 202.915 12.1784 202.713 13.1665H198.834V14.9165H200.316L201.27 25.413C201.342 26.2104 201.711 26.9518 202.302 27.4917C202.893 28.0316 203.665 28.3309 204.465 28.3308H209.537C210.337 28.3307 211.109 28.0314 211.7 27.4918C212.291 26.9522 212.659 26.2111 212.731 25.4142L213.686 14.9165H215.167V13.1665H211.288C211.086 12.1784 210.549 11.2904 209.768 10.6526C208.987 10.0149 208.009 9.66652 207.001 9.6665ZM211.929 14.9165H202.073L203.013 25.2543C203.046 25.6168 203.213 25.9539 203.482 26.1994C203.751 26.4448 204.102 26.5809 204.465 26.5808H209.537C209.901 26.5809 210.252 26.4448 210.521 26.1994C210.789 25.9539 210.957 25.6168 210.989 25.2543L211.929 14.9165Z" fill="white"/>
</svg>
