<svg width="170" height="170" viewBox="0 0 170 170" fill="none" xmlns="http://www.w3.org/2000/svg">
	<g clip-path="url(#clip0_4725_42852)">
		<rect width="170" height="170" fill="white"/>
		<rect width="170" height="112" fill="#F6F7F7"/>
		<rect y="-27" width="107" height="107" fill="#BBE0FA"/>
		<path fill-rule="evenodd" clip-rule="evenodd" d="M140.485 64C139.897 64 139.335 63.0219 138.92 62.6063L130.02 53.7068C129.63 53.3163 128.997 53.3163 128.606 53.7068L119.707 62.6063C119.291 63.0219 118.729 64 118.142 64H19C18.4477 64 18 64.4477 18 65V202C18 202.552 18.4477 203 19 203H151C151.552 203 152 202.552 152 202V65C152 64.4477 151.552 64 151 64H140.485Z" fill="white"/>
		<path d="M130.02 53.7068L130.374 53.3533V53.3533L130.02 53.7068ZM128.606 53.7068L128.253 53.3533V53.3533L128.606 53.7068ZM129.667 54.0604L138.566 62.9599L139.273 62.2528L130.374 53.3533L129.667 54.0604ZM128.96 54.0604C129.155 53.8651 129.472 53.8651 129.667 54.0604L130.374 53.3533C129.788 52.7675 128.838 52.7675 128.253 53.3533L128.96 54.0604ZM120.06 62.9599L128.96 54.0604L128.253 53.3533L119.353 62.2528L120.06 62.9599ZM19 64.5H118.142V63.5H19V64.5ZM18.5 65C18.5 64.7238 18.7239 64.5 19 64.5V63.5C18.1716 63.5 17.5 64.1715 17.5 65H18.5ZM18.5 202V65H17.5V202H18.5ZM19 202.5C18.7239 202.5 18.5 202.276 18.5 202H17.5C17.5 202.828 18.1716 203.5 19 203.5V202.5ZM151 202.5H19V203.5H151V202.5ZM151.5 202C151.5 202.276 151.276 202.5 151 202.5V203.5C151.828 203.5 152.5 202.828 152.5 202H151.5ZM151.5 65V202H152.5V65H151.5ZM151 64.5C151.276 64.5 151.5 64.7238 151.5 65H152.5C152.5 64.1715 151.828 63.5 151 63.5V64.5ZM140.485 64.5H151V63.5H140.485V64.5ZM119.353 62.2528C119.226 62.3795 119.096 62.5408 118.979 62.6868C118.855 62.8414 118.738 62.9897 118.616 63.1252C118.494 63.2615 118.386 63.3638 118.291 63.4296C118.195 63.4964 118.149 63.5 118.142 63.5V64.5C118.429 64.5 118.673 64.3813 118.86 64.2517C119.049 64.1211 119.217 63.9529 119.361 63.7928C119.505 63.6317 119.643 63.4577 119.76 63.312C119.883 63.1577 119.979 63.0409 120.06 62.9599L119.353 62.2528ZM138.566 62.9599C138.647 63.0409 138.743 63.1577 138.867 63.312C138.983 63.4577 139.121 63.6317 139.265 63.7928C139.409 63.9529 139.577 64.1211 139.766 64.2517C139.953 64.3813 140.198 64.5 140.485 64.5V63.5C140.478 63.5 140.432 63.4964 140.335 63.4296C140.24 63.3638 140.132 63.2615 140.01 63.1252C139.889 62.9897 139.771 62.8414 139.647 62.6868C139.53 62.5408 139.4 62.3795 139.273 62.2528L138.566 62.9599Z" fill="url(#paint0_linear_4725_42852)"/>
		<rect x="18" y="102" width="134" height="32" fill="#3B52E5" fill-opacity="0.1"/>
		<g clip-path="url(#clip1_4725_42852)">
			<path d="M49 114V120C50.7 120 52 118.7 52 117C52 115.3 50.7 114 49 114ZM41 113H34C32.9 113 32 113.9 32 115V119C32 120.1 32.9 121 34 121H35V124C35 125.1 35.9 126 37 126H39V121H41L45 125H47V109H45L41 113Z" fill="#0675C4"/>
		</g>
		<path d="M69 86L137 86" stroke="#DCDCDE" stroke-width="8"/>
		<path d="M69 150L137 150" stroke="#DCDCDE" stroke-width="8"/>
		<g clip-path="url(#clip2_4725_42852)">
			<path d="M43 79.9999L48 84.9999L38.493 94.5069C38.164 94.1779 37.9782 93.7322 37.976 93.2669C37.9737 92.8016 38.1552 92.3542 38.481 92.0219L38.478 92.0189C38.1509 92.3532 37.7043 92.5439 37.2366 92.549C36.7689 92.554 36.3183 92.3731 35.984 92.0459C35.6497 91.7188 35.459 91.2722 35.454 90.8045C35.4489 90.3368 35.6299 89.8862 35.957 89.5519L35.949 89.5439C35.6152 89.8578 35.1724 90.0295 34.7142 90.0228C34.2561 90.016 33.8185 89.8314 33.494 89.5079L43 79.9999ZM50.586 79.5859L48.414 77.4139C48.0389 77.039 47.5303 76.8284 47 76.8284C46.4697 76.8284 45.9611 77.039 45.586 77.4139L44 78.9999L49 83.9999L50.586 82.4139C50.9609 82.0389 51.1716 81.5303 51.1716 80.9999C51.1716 80.4696 50.9609 79.961 50.586 79.5859ZM33 91.9999V94.9999H36C36 94.2043 35.6839 93.4412 35.1213 92.8786C34.5587 92.316 33.7956 91.9999 33 91.9999Z" fill="#DCDCDE"/>
		</g>
		<path d="M71.5469 118.445H75.0156C75.8073 118.445 76.5 118.286 77.0938 117.969C77.6875 117.651 78.1484 117.203 78.4766 116.625C78.8099 116.047 78.9766 115.37 78.9766 114.594V114.578C78.9766 113.807 78.8099 113.133 78.4766 112.555C78.1484 111.977 77.6875 111.529 77.0938 111.211C76.5 110.888 75.8073 110.727 75.0156 110.727H71.5469V112.594H74.4375C75.1146 112.594 75.6406 112.766 76.0156 113.109C76.3958 113.453 76.5859 113.945 76.5859 114.586V114.602C76.5859 115.242 76.3958 115.737 76.0156 116.086C75.6406 116.43 75.1146 116.602 74.4375 116.602H71.5469V118.445ZM70.3672 122H72.7266V110.727H70.3672V122ZM81.3019 122H83.5831V117.188C83.5831 116.781 83.6691 116.432 83.8409 116.141C84.0128 115.849 84.2576 115.625 84.5753 115.469C84.893 115.307 85.268 115.227 85.7003 115.227C85.8774 115.227 86.0519 115.24 86.2238 115.266C86.4008 115.286 86.5753 115.318 86.7472 115.359V113.367C86.6326 113.336 86.4998 113.31 86.3488 113.289C86.2029 113.268 86.0519 113.258 85.8956 113.258C85.3383 113.258 84.8722 113.388 84.4972 113.648C84.1222 113.904 83.8644 114.266 83.7238 114.734H83.5831V113.398H81.3019V122ZM92.2834 122.18C93.1689 122.18 93.9267 122.003 94.5569 121.648C95.1923 121.289 95.6793 120.776 96.0178 120.109C96.3564 119.438 96.5256 118.635 96.5256 117.703V117.688C96.5256 116.76 96.3538 115.964 96.01 115.297C95.6663 114.625 95.1767 114.109 94.5413 113.75C93.911 113.391 93.1584 113.211 92.2834 113.211C91.4084 113.211 90.6532 113.393 90.0178 113.758C89.3876 114.117 88.9006 114.63 88.5569 115.297C88.2131 115.964 88.0413 116.76 88.0413 117.688V117.703C88.0413 118.635 88.2105 119.438 88.5491 120.109C88.8876 120.776 89.3746 121.289 90.01 121.648C90.6454 122.003 91.4032 122.18 92.2834 122.18ZM92.2834 120.391C91.8772 120.391 91.5308 120.286 91.2444 120.078C90.9631 119.865 90.747 119.557 90.5959 119.156C90.4501 118.755 90.3772 118.271 90.3772 117.703V117.688C90.3772 117.125 90.4527 116.646 90.6038 116.25C90.7548 115.849 90.9709 115.542 91.2522 115.328C91.5386 115.109 91.8824 115 92.2834 115C92.6845 115 93.0256 115.109 93.3069 115.328C93.5933 115.542 93.8121 115.849 93.9631 116.25C94.1142 116.646 94.1897 117.125 94.1897 117.688V117.703C94.1897 118.266 94.1142 118.747 93.9631 119.148C93.8121 119.549 93.5959 119.857 93.3147 120.07C93.0334 120.284 92.6897 120.391 92.2834 120.391ZM98.765 122H101.046V116.812C101.046 116.484 101.111 116.193 101.242 115.938C101.372 115.677 101.549 115.474 101.773 115.328C102.002 115.177 102.265 115.102 102.562 115.102C103.005 115.102 103.351 115.232 103.601 115.492C103.851 115.747 103.976 116.104 103.976 116.562V122H106.257V116.711C106.257 116.398 106.32 116.122 106.445 115.883C106.57 115.643 106.744 115.453 106.968 115.312C107.197 115.172 107.466 115.102 107.773 115.102C108.252 115.102 108.609 115.232 108.843 115.492C109.077 115.753 109.195 116.143 109.195 116.664V122H111.476V116.094C111.476 115.5 111.361 114.99 111.132 114.562C110.908 114.13 110.588 113.797 110.171 113.562C109.76 113.328 109.268 113.211 108.695 113.211C108.294 113.211 107.921 113.279 107.577 113.414C107.234 113.544 106.934 113.729 106.679 113.969C106.424 114.203 106.231 114.479 106.101 114.797H105.96C105.841 114.464 105.669 114.18 105.445 113.945C105.221 113.711 104.95 113.531 104.632 113.406C104.314 113.276 103.96 113.211 103.57 113.211C103.007 113.211 102.515 113.346 102.093 113.617C101.671 113.883 101.369 114.258 101.187 114.742H101.046V113.398H98.765V122ZM117.887 122.18C118.773 122.18 119.53 122.003 120.161 121.648C120.796 121.289 121.283 120.776 121.622 120.109C121.96 119.438 122.129 118.635 122.129 117.703V117.688C122.129 116.76 121.958 115.964 121.614 115.297C121.27 114.625 120.78 114.109 120.145 113.75C119.515 113.391 118.762 113.211 117.887 113.211C117.012 113.211 116.257 113.393 115.622 113.758C114.991 114.117 114.504 114.63 114.161 115.297C113.817 115.964 113.645 116.76 113.645 117.688V117.703C113.645 118.635 113.814 119.438 114.153 120.109C114.491 120.776 114.978 121.289 115.614 121.648C116.249 122.003 117.007 122.18 117.887 122.18ZM117.887 120.391C117.481 120.391 117.135 120.286 116.848 120.078C116.567 119.865 116.351 119.557 116.2 119.156C116.054 118.755 115.981 118.271 115.981 117.703V117.688C115.981 117.125 116.056 116.646 116.208 116.25C116.359 115.849 116.575 115.542 116.856 115.328C117.142 115.109 117.486 115 117.887 115C118.288 115 118.629 115.109 118.911 115.328C119.197 115.542 119.416 115.849 119.567 116.25C119.718 116.646 119.793 117.125 119.793 117.688V117.703C119.793 118.266 119.718 118.747 119.567 119.148C119.416 119.549 119.2 119.857 118.918 120.07C118.637 120.284 118.293 120.391 117.887 120.391ZM127.939 122.031C128.163 122.031 128.374 122.021 128.572 122C128.77 121.979 128.939 121.956 129.08 121.93V120.234C128.97 120.245 128.866 120.255 128.767 120.266C128.673 120.271 128.554 120.273 128.408 120.273C128.022 120.273 127.741 120.185 127.564 120.008C127.392 119.826 127.306 119.542 127.306 119.156V115.117H129.08V113.398H127.306V111.344H125.002V113.398H123.673V115.117H125.002V119.68C125.002 120.513 125.231 121.115 125.689 121.484C126.147 121.849 126.897 122.031 127.939 122.031ZM135.077 122.18C135.707 122.18 136.251 122.102 136.71 121.945C137.173 121.784 137.559 121.576 137.866 121.32C138.178 121.065 138.423 120.792 138.6 120.5C138.777 120.203 138.9 119.919 138.967 119.648L138.983 119.57H136.858L136.835 119.617C136.783 119.727 136.684 119.849 136.538 119.984C136.397 120.115 136.21 120.229 135.975 120.328C135.741 120.427 135.457 120.477 135.124 120.477C134.712 120.477 134.358 120.385 134.061 120.203C133.764 120.021 133.535 119.758 133.374 119.414C133.212 119.07 133.132 118.656 133.132 118.172V117.25C133.132 116.75 133.212 116.328 133.374 115.984C133.54 115.635 133.764 115.372 134.046 115.195C134.332 115.013 134.658 114.922 135.022 114.922C135.392 114.922 135.715 115.01 135.991 115.188C136.272 115.359 136.491 115.617 136.647 115.961C136.809 116.305 136.889 116.734 136.889 117.25V118.164L137.96 116.812H132.014V118.242H139.053V117.531C139.053 116.661 138.889 115.904 138.561 115.258C138.233 114.612 137.764 114.109 137.155 113.75C136.546 113.391 135.822 113.211 134.983 113.211C134.15 113.211 133.423 113.396 132.803 113.766C132.189 114.135 131.712 114.656 131.374 115.328C131.04 116 130.874 116.792 130.874 117.703V117.711C130.874 118.633 131.043 119.427 131.382 120.094C131.72 120.76 132.202 121.276 132.827 121.641C133.457 122 134.207 122.18 135.077 122.18Z" fill="black"/>
		<circle cx="129.5" cy="20.5" r="2.5" fill="#646970"/>
		<circle cx="129.5" cy="29.5" r="2.5" fill="#646970"/>
		<circle cx="129.5" cy="38.5" r="2.5" fill="#646970"/>
		<g clip-path="url(#clip3_4725_42852)">
			<path d="M49 141H35C34.4696 141 33.9609 141.211 33.5858 141.586C33.2107 141.961 33 142.47 33 143V157C33 157.53 33.2107 158.039 33.5858 158.414C33.9609 158.789 34.4696 159 35 159H49C49.5304 159 50.0391 158.789 50.4142 158.414C50.7893 158.039 51 157.53 51 157V143C51 142.47 50.7893 141.961 50.4142 141.586C50.0391 141.211 49.5304 141 49 141ZM49 157H35V143H49V157ZM39 155H37V150H39V155ZM43 155H41V145H43V155ZM47 155H45V148H47V155Z" fill="#DCDCDE"/>
		</g>
	</g>
	<defs>
		<linearGradient id="paint0_linear_4725_42852" x1="85" y1="53.4139" x2="85" y2="170.5" gradientUnits="userSpaceOnUse">
			<stop stop-color="#CCCDCF"/>
			<stop offset="1" stop-color="#CCCDCF" stop-opacity="0"/>
		</linearGradient>
		<clipPath id="clip0_4725_42852">
			<rect width="170" height="170" fill="white"/>
		</clipPath>
		<clipPath id="clip1_4725_42852">
			<rect width="24" height="24" fill="white" transform="translate(30 106)"/>
		</clipPath>
		<clipPath id="clip2_4725_42852">
			<rect width="24" height="24" fill="white" transform="translate(30 74)"/>
		</clipPath>
		<clipPath id="clip3_4725_42852">
			<rect width="24" height="24" fill="white" transform="translate(30 138)"/>
		</clipPath>
	</defs>
</svg>
