<svg width="161" height="408" viewBox="0 0 161 408" fill="none" xmlns="http://www.w3.org/2000/svg">
<path d="M0.238586 75.2684L221.746 -45M0.238586 130.724L221.746 10.4553M0.238586 186.179L221.746 65.9105M0.238586 241.634L221.746 121.366M0.238586 297.089L221.746 176.821M0.238586 352.545L221.746 232.276M0.238586 408L221.746 287.732M221.831 75.2684L0.324492 -45M221.831 130.724L0.324492 10.4553M221.831 186.179L0.324492 65.9105M221.831 241.634L0.324492 121.366M221.831 297.089L0.324492 176.821M221.831 352.545L0.324492 232.276M221.831 408L0.324492 287.732" stroke="url(#paint0_linear_15_34)"/>
<defs>
<linearGradient id="paint0_linear_15_34" x1="111.239" y1="48.5" x2="375.501" y2="186.382" gradientUnits="userSpaceOnUse">
<stop stop-color="#BFBFBF" stop-opacity="0"/>
<stop offset="1" stop-color="#C3C4C7"/>
</linearGradient>
</defs>
</svg>
