<svg width="648" height="464" viewBox="0 0 648 464" fill="none" xmlns="http://www.w3.org/2000/svg">
<g clip-path="url(#clip0_10_202)">
<path d="M80.9128 -71.9398L611.454 -360M80.9128 60.8835L611.454 -227.177M80.9128 193.707L611.454 -94.3534M0 371L659 7M73.5 467.5C280.689 355.006 446.311 258.494 653.5 146M80.9128 592.177L668.5 267M80.9128 725L659 402.5M611.659 -71.9398L81.1186 -360M653.5 83.5L81.1186 -227.177M653.5 222L81.1186 -94.3534M653.5 352.5C446.311 240.006 81.1186 38.47 81.1186 38.47M621.5 467.5C414.311 355.006 81.1186 171.293 81.1186 171.293M611.659 592.177L19.5 267M611.659 725L12.5 397" stroke="url(#paint0_linear_10_202)"/>
<g filter="url(#filter0_f_10_202)">
<circle cx="483" cy="24.5" r="270.5" fill="#F6F7F7"/>
</g>
<g filter="url(#filter1_f_10_202)">
<circle cx="483" cy="24.5" r="270.5" fill="#F6F7F7"/>
</g>
<g filter="url(#filter2_f_10_202)">
<circle cx="695" cy="592.5" r="270.5" fill="#F6F7F7"/>
</g>
<path d="M407.016 197.383V171.773" stroke="url(#paint1_linear_10_202)" stroke-width="0.862427"/>
<path d="M527.995 197.383V171.773" stroke="#3858E9" stroke-width="0.862427"/>
<path d="M467.505 232.245V206.635" stroke="url(#paint2_linear_10_202)" stroke-width="0.862427"/>
<path d="M525.629 175.979L470.364 205.91C468.579 206.876 466.429 206.876 464.644 205.91L409.379 175.979C406.225 174.272 406.225 169.741 409.379 168.034L464.644 138.103C466.429 137.137 468.579 137.137 470.364 138.103L525.629 168.034C528.783 169.741 528.783 174.272 525.629 175.979Z" stroke="#3858E9" stroke-width="0.862427"/>
<path d="M527.995 197.383C527.995 198.943 527.207 200.502 525.632 201.354L470.367 231.285C468.581 232.251 466.432 232.251 464.646 231.285L409.378 201.357C407.803 200.502 407.016 198.946 407.016 197.386" stroke="#3858E9" stroke-width="0.862427"/>
<path d="M165.502 195.005V169.395" stroke="url(#paint3_linear_10_202)" stroke-width="0.862427"/>
<path d="M286.482 195.005V169.395" stroke="#3858E9" stroke-width="0.862427"/>
<path d="M225.992 229.867V204.257" stroke="url(#paint4_linear_10_202)" stroke-width="0.862427"/>
<path d="M284.116 173.601L228.851 203.531C227.065 204.498 224.916 204.498 223.13 203.531L167.865 173.601C164.712 171.894 164.712 167.362 167.865 165.655L223.13 135.725C224.916 134.758 227.065 134.758 228.851 135.725L284.116 165.655C287.269 167.362 287.269 171.894 284.116 173.601Z" stroke="#3858E9" stroke-width="0.862427"/>
<path d="M286.481 195.005C286.481 196.564 285.694 198.124 284.119 198.976L228.854 228.906C227.068 229.873 224.919 229.873 223.133 228.906L167.865 198.979C166.29 198.124 165.502 196.567 165.502 195.008" stroke="#3858E9" stroke-width="0.862427"/>
<path d="M164.673 327.609V302" stroke="url(#paint5_linear_10_202)" stroke-width="0.862427"/>
<path d="M285.653 327.609V302" stroke="#3858E9" stroke-width="0.862427"/>
<path d="M225.163 362.472V336.862" stroke="url(#paint6_linear_10_202)" stroke-width="0.862427"/>
<path d="M283.287 306.206L228.022 336.136C226.236 337.103 224.087 337.103 222.301 336.136L167.036 306.206C163.883 304.499 163.883 299.967 167.036 298.26L222.301 268.33C224.087 267.363 226.236 267.363 228.022 268.33L283.287 298.26C286.441 299.967 286.441 304.499 283.287 306.206Z" stroke="#3858E9" stroke-width="0.862427"/>
<path d="M285.653 327.61C285.653 329.169 284.865 330.729 283.29 331.581L228.025 361.511C226.239 362.478 224.09 362.478 222.304 361.511L167.036 331.584C165.461 330.729 164.673 329.172 164.673 327.613" stroke="#3858E9" stroke-width="0.862427"/>
<path d="M118.449 355.81L108.554 359.016C104.644 360.287 100.058 360.279 96.1528 358.995L86.2685 355.755C84.9113 355.307 83.462 356.273 84.1266 357.183L88.9321 363.809C90.8364 366.427 90.8311 369.496 88.9178 372.107L84.0896 378.716C83.4219 379.624 84.8678 380.595 86.2265 380.152L96.122 376.945C100.031 375.675 104.618 375.683 108.523 376.967L118.407 380.207C119.764 380.655 121.214 379.689 120.549 378.779L115.743 372.153C113.839 369.535 113.844 366.466 115.758 363.855L120.586 357.245C121.254 356.338 119.808 355.367 118.449 355.81ZM111.468 362.622L109.054 365.927C108.091 367.236 108.101 368.771 109.047 370.075L111.45 373.389C111.782 373.852 111.064 374.331 110.372 374.107L105.43 372.487C103.471 371.84 101.178 371.845 99.2299 372.476L94.2821 374.079C93.59 374.301 92.8734 373.82 93.2073 373.357L95.6214 370.052C96.5844 368.743 96.5743 367.208 95.6285 365.903L93.2258 362.59C92.8935 362.127 93.6117 361.648 94.3031 361.872L99.2453 363.492C101.204 364.139 103.497 364.134 105.446 363.503L110.393 361.9C111.086 361.678 111.802 362.159 111.468 362.622Z" fill="#3050E4"/>
<path d="M407.016 327.61V302" stroke="url(#paint7_linear_10_202)" stroke-width="0.862427"/>
<path d="M527.995 327.61V302" stroke="#3858E9" stroke-width="0.862427"/>
<path d="M467.505 362.472V336.862" stroke="url(#paint8_linear_10_202)" stroke-width="0.862427"/>
<path d="M525.629 306.206L470.364 336.136C468.579 337.102 466.429 337.102 464.644 336.136L409.379 306.206C406.225 304.499 406.225 299.967 409.379 298.26L464.644 268.33C466.429 267.363 468.579 267.363 470.364 268.33L525.629 298.26C528.783 299.967 528.783 304.499 525.629 306.206Z" stroke="#3858E9" stroke-width="0.862427"/>
<path d="M527.995 327.609C527.995 329.169 527.207 330.729 525.632 331.581L470.367 361.511C468.581 362.478 466.432 362.478 464.646 361.511L409.378 331.584C407.803 330.729 407.016 329.172 407.016 327.613" stroke="#3858E9" stroke-width="0.862427"/>
<path d="M285.413 394.448V368.838" stroke="url(#paint9_linear_10_202)" stroke-width="0.862427"/>
<path d="M406.392 394.448V368.838" stroke="#3858E9" stroke-width="0.862427"/>
<path d="M345.902 429.31V403.7" stroke="url(#paint10_linear_10_202)" stroke-width="0.862427"/>
<path d="M404.026 373.044L348.762 402.974C346.976 403.941 344.827 403.941 343.041 402.974L287.776 373.044C284.623 371.337 284.623 366.805 287.776 365.098L343.041 335.168C344.827 334.201 346.976 334.201 348.762 335.168L404.026 365.098C407.18 366.805 407.18 371.337 404.026 373.044Z" stroke="#3858E9" stroke-width="0.862427"/>
<path d="M406.392 394.448C406.392 396.007 405.604 397.567 404.029 398.419L348.764 428.349C346.979 429.316 344.829 429.316 343.044 428.349L287.776 398.422C286.2 397.567 285.413 396.01 285.413 394.451" stroke="#3858E9" stroke-width="0.862427"/>
<path d="M213.472 314.355C214.828 313.572 215.247 312.556 214.527 311.193L212.936 308.166L215.833 309.839C217.542 310.825 219.669 310.777 221.377 309.79C222.717 309.017 223.119 308.108 222.449 306.619L219.552 300.091C218.915 298.66 217.09 298.36 215.063 299.53C213.974 300.159 213.622 300.768 214.175 301.822L216.721 306.638L211.881 303.843C210.44 303.012 209.05 303.002 207.777 303.737C206.772 304.317 206.404 305.033 206.99 306.087L209.603 310.748L204.812 307.982C203.271 307.092 201.982 307.083 200.441 307.972L197.292 309.79C196.103 310.477 196.052 311.144 197.074 311.734C198.096 312.324 199.319 312.295 200.474 311.628L201.764 310.883L207.877 314.413C209.603 315.409 211.78 315.332 213.472 314.355Z" fill="#A77EFF"/>
<path fill-rule="evenodd" clip-rule="evenodd" d="M222.969 294.966C219.536 296.948 219.469 299.946 222.936 301.947C226.403 303.949 231.595 303.891 235.012 301.918C238.429 299.946 238.479 296.958 235.046 294.956C231.579 292.954 226.386 292.993 222.969 294.966ZM231.311 299.781C230.021 300.526 228.162 300.478 226.822 299.704C225.482 298.93 225.381 297.847 226.671 297.103C227.961 296.358 229.837 296.416 231.177 297.19C232.517 297.963 232.617 299.027 231.311 299.781Z" fill="#A77EFF"/>
<path fill-rule="evenodd" clip-rule="evenodd" d="M235.899 294.463C232.432 292.462 232.499 289.464 235.915 287.491C239.332 285.518 244.541 285.489 247.992 287.482C251.442 289.474 251.375 292.471 247.958 294.444C244.541 296.417 239.366 296.465 235.899 294.463ZM239.785 292.22C241.124 292.994 242.95 293.061 244.257 292.307C245.546 291.562 245.463 290.489 244.123 289.715C242.783 288.942 240.907 288.884 239.617 289.628C238.327 290.373 238.445 291.446 239.785 292.22Z" fill="#A77EFF"/>
<path d="M43.5023 394.879V369.269" stroke="#3858E9" stroke-width="0.862427"/>
<path d="M164.482 394.879V369.269" stroke="url(#paint11_linear_10_202)" stroke-width="0.862427"/>
<path d="M103.992 429.741V404.131" stroke="url(#paint12_linear_10_202)" stroke-width="0.862427"/>
<path d="M162.116 373.475L106.851 403.405C105.065 404.372 102.916 404.372 101.13 403.405L45.865 373.475C42.7116 371.768 42.7116 367.236 45.865 365.529L101.13 335.599C102.916 334.632 105.065 334.632 106.851 335.599L162.116 365.529C165.269 367.236 165.269 371.768 162.116 373.475Z" stroke="#3858E9" stroke-width="0.862427"/>
<path d="M164.482 394.879C164.482 396.438 163.694 397.998 162.119 398.85L106.854 428.78C105.068 429.747 102.919 429.747 101.133 428.78L45.8651 398.853C44.2899 397.998 43.5023 396.441 43.5023 394.882" stroke="#3858E9" stroke-width="0.862427"/>
<path d="M353.942 356.434L367.326 380.637L339.674 364.672L353.942 356.434ZM346.312 371.838L332.098 380.045L318.714 355.905L346.312 371.838Z" fill="#00BA37"/>
<path fill-rule="evenodd" clip-rule="evenodd" d="M445.938 182.132C434.098 175.296 434.098 164.213 445.938 157.377C457.778 150.541 476.974 150.541 488.814 157.377L483.454 160.472C474.574 155.345 460.177 155.345 451.297 160.471C442.417 165.598 442.417 173.911 451.297 179.037C460.177 184.164 474.574 184.164 483.454 179.037L488.814 182.132C476.974 188.967 457.778 188.967 445.938 182.132ZM480.239 177.181C473.135 181.282 461.617 181.282 454.513 177.181C447.409 173.079 447.409 166.429 454.513 162.328C461.617 158.227 473.135 158.227 480.239 162.328L475.561 165.029C471.041 162.418 463.711 162.418 459.19 165.029C454.67 167.639 454.67 171.87 459.19 174.48C463.711 177.09 471.041 177.09 475.561 174.48L480.239 177.181Z" fill="#D63638"/>
<path d="M450.598 288.374L488.079 298.084C491.293 298.91 493.504 298.606 496.041 297.368C496.131 297.321 496.236 297.285 496.35 297.262C496.465 297.239 496.586 297.231 496.707 297.236C496.827 297.241 496.945 297.261 497.052 297.294C497.159 297.326 497.253 297.371 497.329 297.426C497.42 297.474 497.494 297.533 497.545 297.598C497.597 297.664 497.626 297.734 497.63 297.806C497.634 297.878 497.614 297.949 497.57 298.016C497.526 298.083 497.459 298.145 497.374 298.197L486.057 304.731C485.968 304.785 485.861 304.828 485.742 304.857C485.623 304.887 485.495 304.902 485.366 304.902C485.236 304.902 485.108 304.888 484.989 304.858C484.87 304.829 484.762 304.787 484.673 304.733C484.577 304.685 484.5 304.627 484.445 304.562C484.391 304.496 484.36 304.425 484.356 304.352C484.351 304.28 484.373 304.207 484.419 304.14C484.465 304.072 484.535 304.011 484.625 303.959C485.761 303.303 486.753 302.388 485.369 301.589C484.781 301.262 484.093 301.001 483.339 300.82L474.281 298.454C473.884 298.34 473.736 298.31 473.439 298.482L463.995 303.934C462.51 304.791 460.679 305.848 461.717 307.421L464.552 311.667C464.784 312.066 465.153 312.435 465.635 312.751C467.416 313.779 469.844 312.493 471.068 311.787C471.157 311.735 471.263 311.695 471.38 311.668C471.497 311.641 471.622 311.629 471.748 311.631C471.874 311.634 471.997 311.651 472.111 311.683C472.224 311.714 472.325 311.759 472.407 311.814C472.501 311.866 472.575 311.928 472.625 311.997C472.675 312.066 472.701 312.14 472.7 312.215C472.699 312.29 472.671 312.364 472.619 312.432C472.567 312.501 472.492 312.562 472.397 312.614L462.356 318.411C462.267 318.465 462.16 318.508 462.041 318.537C461.922 318.567 461.794 318.582 461.665 318.582C461.536 318.582 461.408 318.567 461.29 318.537C461.171 318.508 461.064 318.465 460.975 318.411C460.879 318.364 460.802 318.305 460.747 318.24C460.693 318.174 460.662 318.103 460.658 318.031C460.653 317.958 460.675 317.886 460.721 317.818C460.767 317.75 460.837 317.689 460.927 317.638C463.203 316.152 462.865 315.029 461.72 313.298L447.537 291.337C446.944 290.365 447.144 289.109 448.232 288.481C449.017 288.032 449.711 288.145 450.598 288.374ZM459.261 303.814C459.289 303.899 459.357 303.978 459.457 304.043C459.557 304.101 459.706 304.071 459.903 303.957L469.702 298.3C470.392 297.901 470.541 297.644 470.096 297.387C469.871 297.258 469.6 297.16 469.302 297.1L459.26 294.445C456.933 293.847 453.774 293.104 451.645 292.218C451.548 292.162 451.445 292.162 451.396 292.19C451.348 292.218 451.351 292.276 451.448 292.332C452.336 293.274 453.081 294.259 453.673 295.275L459.261 303.814Z" fill="#787C82"/>
<path d="M485.746 287.178C487.017 287.912 487.016 288.743 485.715 289.494C484.414 290.245 483.236 290.162 482.226 289.579C480.955 288.845 480.988 287.995 482.257 287.262C483.526 286.53 484.765 286.612 485.746 287.178Z" fill="#787C82"/>
<path d="M447.015 309.587C448.283 310.319 448.283 311.154 446.985 311.903C445.687 312.653 444.496 312.573 443.486 311.99C442.218 311.258 442.248 310.406 443.517 309.674C444.786 308.941 446.035 309.021 447.015 309.587Z" fill="#787C82"/>
<path fill-rule="evenodd" clip-rule="evenodd" d="M211.657 164.898L222.014 170.395C223.648 171.262 226.225 171.269 227.771 170.411C229.317 169.553 229.245 168.154 227.611 167.287L220.721 163.63C225.566 162.368 231.47 163.025 235.202 165.241C238.934 167.457 239.594 170.697 236.82 173.188C234.047 175.679 228.509 176.82 223.238 175.987C217.968 175.153 214.235 172.546 214.083 169.593C214.021 168.372 212.146 167.376 209.896 167.37C207.645 167.364 205.871 168.349 205.934 169.57C206.203 174.841 213.296 179.397 222.875 180.452C232.454 181.506 241.851 178.766 245.32 173.906C248.788 169.047 245.361 163.421 237.136 160.471C228.91 157.52 218.176 158.066 211.498 161.774C209.952 162.632 210.023 164.031 211.657 164.898Z" fill="#3858E9"/>
</g>
<defs>
<filter id="filter0_f_10_202" x="-287.5" y="-746" width="1541" height="1541" filterUnits="userSpaceOnUse" color-interpolation-filters="sRGB">
<feFlood flood-opacity="0" result="BackgroundImageFix"/>
<feBlend mode="normal" in="SourceGraphic" in2="BackgroundImageFix" result="shape"/>
<feGaussianBlur stdDeviation="250" result="effect1_foregroundBlur_10_202"/>
</filter>
<filter id="filter1_f_10_202" x="-287.5" y="-746" width="1541" height="1541" filterUnits="userSpaceOnUse" color-interpolation-filters="sRGB">
<feFlood flood-opacity="0" result="BackgroundImageFix"/>
<feBlend mode="normal" in="SourceGraphic" in2="BackgroundImageFix" result="shape"/>
<feGaussianBlur stdDeviation="250" result="effect1_foregroundBlur_10_202"/>
</filter>
<filter id="filter2_f_10_202" x="-75.5" y="-178" width="1541" height="1541" filterUnits="userSpaceOnUse" color-interpolation-filters="sRGB">
<feFlood flood-opacity="0" result="BackgroundImageFix"/>
<feBlend mode="normal" in="SourceGraphic" in2="BackgroundImageFix" result="shape"/>
<feGaussianBlur stdDeviation="250" result="effect1_foregroundBlur_10_202"/>
</filter>
<linearGradient id="paint0_linear_10_202" x1="134.5" y1="-3.49999" x2="568.833" y2="119.795" gradientUnits="userSpaceOnUse">
<stop stop-color="#BFBFBF" stop-opacity="0"/>
<stop offset="1" stop-color="#C3C4C7"/>
</linearGradient>
<linearGradient id="paint1_linear_10_202" x1="407.033" y1="200.12" x2="407.033" y2="171.875" gradientUnits="userSpaceOnUse">
<stop stop-color="#4458E4"/>
<stop offset="1" stop-color="#4458E4"/>
</linearGradient>
<linearGradient id="paint2_linear_10_202" x1="467.522" y1="234.982" x2="467.522" y2="206.738" gradientUnits="userSpaceOnUse">
<stop stop-color="#4458E4"/>
<stop offset="1" stop-color="#4458E4"/>
</linearGradient>
<linearGradient id="paint3_linear_10_202" x1="165.519" y1="197.741" x2="165.519" y2="169.497" gradientUnits="userSpaceOnUse">
<stop stop-color="#4458E4"/>
<stop offset="1" stop-color="#4458E4"/>
</linearGradient>
<linearGradient id="paint4_linear_10_202" x1="226.009" y1="232.604" x2="226.009" y2="204.359" gradientUnits="userSpaceOnUse">
<stop stop-color="#4458E4"/>
<stop offset="1" stop-color="#4458E4"/>
</linearGradient>
<linearGradient id="paint5_linear_10_202" x1="164.691" y1="330.346" x2="164.691" y2="302.102" gradientUnits="userSpaceOnUse">
<stop stop-color="#4458E4"/>
<stop offset="1" stop-color="#4458E4"/>
</linearGradient>
<linearGradient id="paint6_linear_10_202" x1="225.18" y1="365.208" x2="225.18" y2="336.964" gradientUnits="userSpaceOnUse">
<stop stop-color="#4458E4"/>
<stop offset="1" stop-color="#4458E4"/>
</linearGradient>
<linearGradient id="paint7_linear_10_202" x1="407.033" y1="330.346" x2="407.033" y2="302.102" gradientUnits="userSpaceOnUse">
<stop stop-color="#4458E4"/>
<stop offset="1" stop-color="#4458E4"/>
</linearGradient>
<linearGradient id="paint8_linear_10_202" x1="467.523" y1="365.208" x2="467.523" y2="336.964" gradientUnits="userSpaceOnUse">
<stop stop-color="#4458E4"/>
<stop offset="1" stop-color="#4458E4"/>
</linearGradient>
<linearGradient id="paint9_linear_10_202" x1="285.43" y1="397.184" x2="285.43" y2="368.94" gradientUnits="userSpaceOnUse">
<stop stop-color="#4458E4"/>
<stop offset="1" stop-color="#4458E4"/>
</linearGradient>
<linearGradient id="paint10_linear_10_202" x1="345.92" y1="432.047" x2="345.92" y2="403.802" gradientUnits="userSpaceOnUse">
<stop stop-color="#4458E4"/>
<stop offset="1" stop-color="#4458E4"/>
</linearGradient>
<linearGradient id="paint11_linear_10_202" x1="164.499" y1="397.615" x2="164.499" y2="369.371" gradientUnits="userSpaceOnUse">
<stop stop-color="#4458E4"/>
<stop offset="1" stop-color="#4458E4"/>
</linearGradient>
<linearGradient id="paint12_linear_10_202" x1="104.009" y1="432.478" x2="104.009" y2="404.233" gradientUnits="userSpaceOnUse">
<stop stop-color="#4458E4"/>
<stop offset="1" stop-color="#4458E4"/>
</linearGradient>
<clipPath id="clip0_10_202">
<rect width="965.5" height="1223" fill="white" transform="translate(0 -360)"/>
</clipPath>
</defs>
</svg>
