<svg xmlns="http://www.w3.org/2000/svg" width="20" height="20" viewBox="0 0 20 20" fill="none">
  <path d="M17.6903 15.3218C17.4021 15.9877 17.0609 16.6006 16.6656 17.1642C16.1268 17.9324 15.6856 18.4642 15.3456 18.7595C14.8185 19.2442 14.2538 19.4924 13.6491 19.5065C13.215 19.5065 12.6915 19.383 12.0821 19.1324C11.4707 18.883 10.9088 18.7595 10.395 18.7595C9.85619 18.7595 9.2783 18.883 8.66019 19.1324C8.04113 19.383 7.54242 19.5136 7.16113 19.5265C6.58124 19.5512 6.00324 19.2959 5.4263 18.7595C5.05807 18.4383 4.59748 17.8877 4.04571 17.1077C3.45371 16.2748 2.96701 15.3089 2.58572 14.2077C2.17736 13.0183 1.97266 11.8665 1.97266 10.7515C1.97266 9.47416 2.24866 8.37252 2.80148 7.44934C3.23595 6.70781 3.81395 6.12287 4.53736 5.69346C5.26077 5.26404 6.04242 5.04522 6.88419 5.03122C7.34477 5.03122 7.94877 5.17369 8.69936 5.45369C9.44783 5.73463 9.92842 5.8771 10.1391 5.8771C10.2967 5.8771 10.8305 5.71052 11.7356 5.3784C12.5915 5.0704 13.3138 4.94287 13.9056 4.9931C15.5091 5.12252 16.7138 5.75463 17.515 6.89346C16.0809 7.7624 15.3715 8.97946 15.3856 10.5408C15.3985 11.7569 15.8397 12.7689 16.7068 13.5724C17.0997 13.9453 17.5385 14.2336 18.0268 14.4383C17.9209 14.7453 17.8091 15.0395 17.6903 15.3218ZM14.0127 0.850044C14.0127 1.80323 13.6644 2.69322 12.9703 3.51699C12.1327 4.49628 11.1195 5.06216 10.0208 4.97287C10.0068 4.85851 9.99866 4.73816 9.99866 4.61169C9.99866 3.69663 10.397 2.71734 11.1044 1.91663C11.4576 1.51122 11.9068 1.17413 12.4515 0.905221C12.995 0.640326 13.5091 0.493832 13.9927 0.46875C14.0068 0.596174 14.0127 0.723621 14.0127 0.850044Z" fill="black"/>
</svg>
