<svg xmlns="http://www.w3.org/2000/svg" width="20" height="20" viewBox="0 0 20 20" fill="none">
  <g transform="translate(2, 2) scale(0.8)">
    <path fill-rule="evenodd" clip-rule="evenodd" d="M19.6 10.2286C19.6 9.51959 19.536 8.83859 19.418 8.18359H10V12.0516H15.382C15.2706 12.6634 15.0363 13.2464 14.6932 13.7651C14.3501 14.2838 13.9054 14.7276 13.386 15.0696V17.5796H16.618C18.509 15.8376 19.6 13.2736 19.6 10.2286Z" fill="#4285F4"/>
    <path fill-rule="evenodd" clip-rule="evenodd" d="M10.0005 19.9984C12.7005 19.9984 14.9645 19.1034 16.6185 17.5754L13.3865 15.0664C12.4915 15.6664 11.3465 16.0214 10.0005 16.0214C7.39545 16.0214 5.19045 14.2614 4.40545 11.8984H1.06445V14.4884C1.89646 16.1452 3.17283 17.5379 4.75088 18.511C6.32894 19.484 8.14652 19.999 10.0005 19.9984Z" fill="#34A853"/>
    <path fill-rule="evenodd" clip-rule="evenodd" d="M4.405 11.9017C4.205 11.3017 4.091 10.6617 4.091 10.0017C4.091 9.34172 4.205 8.70172 4.405 8.10172V5.51172H1.064C0.364015 6.90492 -0.000359433 8.44255 2.66054e-07 10.0017C2.66054e-07 11.6157 0.386 13.1417 1.064 14.4917L4.404 11.9017H4.405Z" fill="#FBBC05"/>
    <path fill-rule="evenodd" clip-rule="evenodd" d="M10.0005 3.977C11.4685 3.977 12.7865 4.482 13.8235 5.473L16.6915 2.605C14.9595 0.99 12.6955 0 10.0005 0C6.09045 0 2.71045 2.24 1.06445 5.51L4.40445 8.1C5.19245 5.736 7.39645 3.977 10.0005 3.977Z" fill="#EA4335"/>
  </g>
</svg>
