<svg xmlns="http://www.w3.org/2000/svg" width="20" height="20" viewBox="0 0 64 78" fill="none">
  <g
    clip-path="url(#paypal-social-icon-svg)"
    transform="matrix(2.07674825 0 0 -2.07674825 -11.15320125 92.76968175)"
    >
    <path
      d="m0 0c-1.674 1.908-4.7 2.726-8.571 2.726h-11.235c-.792 0-1.465-.576-1.589-1.357l-4.678-29.669c-.093-.585.36-1.115.953-1.115h6.936l1.742 11.049-.054-.346c.124.781.792 1.357 1.583 1.357h3.296c6.475 0 11.545 2.63 13.026 10.238.044.225.082.444.115.658.441 2.812-.003 4.726-1.524 6.459"
      fill="#003087"
      transform="translate(32.4187 40.9816)"
    />
    <path
      d="m0 0c.074.47.376.855.782 1.05.185.088.391.137.607.137h8.808c1.043 0 2.016-.068 2.905-.211.255-.041.502-.088.742-.142.24-.053.473-.113.699-.179.113-.033.224-.067.333-.103.437-.146.844-.316 1.218-.515.441 2.813-.003 4.726-1.524 6.459-1.675 1.908-4.7 2.726-8.571 2.726h-11.236c-.791 0-1.464-.576-1.588-1.357l-4.678-29.668c-.093-.586.36-1.115.952-1.115h6.937l1.742 11.049 1.872 11.869z"
      fill="#003087"
      transform="translate(17.8489 34.4853)"
    />
    <path
      d="m0 0c-.034-.215-.071-.433-.115-.658-1.481-7.607-6.551-10.238-13.026-10.238h-3.297c-.791 0-1.459-.576-1.582-1.357l-1.688-10.702-.479-3.036c-.081-.512.315-.976.833-.976h5.847c.692 0 1.281.504 1.389 1.187l.057.298 1.102 6.984.071.386c.108.683.697 1.187 1.389 1.187h.875c5.664 0 10.099 2.301 11.395 8.956.541 2.781.261 5.103-1.17 6.734-.434.494-.973.902-1.601 1.235"
      fill="#009cde"
      transform="translate(33.9429 34.5226)"
    />
    <path
      d="m0 0c-.226.066-.459.126-.699.179s-.488.1-.742.141c-.89.144-1.862.212-2.906.212h-8.807c-.217 0-.423-.049-.607-.138-.407-.195-.708-.579-.782-1.05l-1.872-11.869-.054-.346c.123.781.791 1.357 1.582 1.357h3.297c6.475 0 11.545 2.63 13.026 10.238.044.225.081.443.115.658-.375.198-.781.369-1.218.514-.109.036-.22.071-.333.104"
      fill="#012169"
      transform="translate(32.3922 35.1407)"
    />
  </g>
  <defs>
    <clipPath id="paypal-social-icon-svg">
      <path d="m0 51h157v-51h-157z"/>
    </clipPath>
  </defs>
</svg>
