<svg width="59" height="16" viewBox="0 0 59 16" fill="none" xmlns="http://www.w3.org/2000/svg">
<g clip-path="url(#clip0_12708_28663)">
<mask id="mask0_12708_28663" style="mask-type:luminance" maskUnits="userSpaceOnUse" x="0" y="0" width="59" height="16">
<path d="M58.8966 0H0V16H58.8966V0Z" fill="white"/>
</mask>
<g mask="url(#mask0_12708_28663)">
<path d="M7.9953 16C12.411 16 15.9906 12.4183 15.9906 8C15.9906 3.58172 12.411 0 7.9953 0C3.57962 0 0 3.58172 0 8C0 12.4183 3.57962 16 7.9953 16Z" fill="#069E08"/>
<path d="M8.40088 6.66162V14.4151L12.3892 6.66162H8.40088Z" fill="white"/>
<path d="M7.58985 9.33909V1.58557L3.60156 9.33909H7.58985Z" fill="white"/>
<path d="M20.6445 13.2893C20.4183 12.9434 20.2029 12.5852 19.9883 12.2507C21.122 11.5704 21.4923 11.0089 21.4923 9.97038V3.97615H20.1684V2.8302H22.9962V9.672C22.9955 11.4147 22.5064 12.3819 20.6445 13.2893Z" fill="#069E08"/>
<path d="M32.4854 9.19422C32.4854 9.77079 32.9032 9.83854 33.1776 9.83854C33.4521 9.83854 33.8518 9.74341 34.15 9.6598V10.7344C33.6718 10.8977 33.1694 10.9784 32.6641 10.973C31.9243 10.973 31.0794 10.6984 31.0794 9.42125V6.27025H30.3V5.18197H31.0758V3.57043H32.4854V5.17043H34.2574V6.27025H32.4854V9.19422Z" fill="#069E08"/>
<path d="M35.4185 13.8263V5.16252H36.7669V5.6836C37.3035 5.26558 37.8999 5.01477 38.6281 5.01477C39.8929 5.01477 40.8956 5.89837 40.8956 7.809C40.8956 9.70738 39.7979 10.9614 37.9834 10.9614C37.5941 10.957 37.2063 10.9131 36.8259 10.8303V13.8263H35.4185ZM38.2478 6.17297C37.83 6.17297 37.3172 6.36396 36.8274 6.79423V9.74341C37.1728 9.81498 37.5247 9.85094 37.8776 9.8508C38.8687 9.8508 39.4413 9.21801 39.4413 7.91638C39.4399 6.69837 39.0336 6.17297 38.2478 6.17297Z" fill="#069E08"/>
<path d="M46.4203 10.8303H45.1079V10.209H45.0719C44.6065 10.5694 44.0462 10.9376 43.2106 10.9376C42.4709 10.9376 41.6829 10.4 41.6829 9.32539C41.6829 7.87674 42.9239 7.60431 43.7832 7.48467L45.0128 7.31747V7.15243C45.0128 6.38846 44.7023 6.13765 43.9864 6.13765C43.3534 6.16323 42.7287 6.29226 42.1374 6.51964L42.0178 5.38522C42.71 5.15021 43.4348 5.02521 44.1657 5.01477C45.5386 5.01477 46.421 5.56396 46.421 7.2L46.4203 10.8303ZM45.0128 8.18954L43.8553 8.36828C43.5088 8.41584 43.1393 8.62485 43.1393 9.15026C43.1393 9.61296 43.4015 9.87098 43.7832 9.87098C44.1888 9.87098 44.6426 9.62017 45.0128 9.35783V8.18954Z" fill="#069E08"/>
<path d="M52.2145 10.6508C51.6382 10.8418 51.1225 10.973 50.454 10.973C48.3421 10.973 47.5066 9.7672 47.5066 8.01224C47.5066 6.16144 48.6641 5.01477 50.5376 5.01477C51.2421 5.01477 51.6656 5.13441 52.1424 5.28936V6.48648C51.7369 6.33153 51.134 6.16432 50.5614 6.16432C49.7028 6.16432 48.9767 6.61765 48.9767 7.94305C48.9767 9.39963 49.7049 9.8299 50.6334 9.8299C51.0749 9.8299 51.5698 9.73404 52.2145 9.48323V10.6508Z" fill="#069E08"/>
<path d="M54.875 7.60571C54.9946 7.47454 55.0911 7.33111 56.8558 5.17039H58.6818L56.3905 7.8558L58.8964 10.8295H57.0589L54.875 8.14409V10.8309H53.4668V2.83093H54.875V7.60571Z" fill="#069E08"/>
<path d="M29.244 10.6508C28.5689 10.8671 27.864 10.9758 27.1551 10.973C25.3544 10.973 24.2458 10.0778 24.2458 7.96395C24.2458 6.42378 25.1887 5.01477 27.0024 5.01477C28.8032 5.01477 29.437 6.26882 29.437 7.46521C29.4383 7.74442 29.4223 8.02334 29.3888 8.30053H25.7606C25.7967 9.54233 26.4989 9.82918 27.5484 9.82918C28.1247 9.82918 28.6541 9.69873 29.2454 9.48179L29.244 10.6508ZM27.9669 7.3672C27.9669 6.67459 27.74 6.07783 26.988 6.07783C26.2843 6.07783 25.855 6.58234 25.7714 7.3672H27.9669Z" fill="#069E08"/>
</g>
</g>
<defs>
<clipPath id="clip0_12708_28663">
<rect width="58.8966" height="16" fill="white"/>
</clipPath>
</defs>
</svg>
