<svg width="84" height="16" viewBox="0 0 84 16" fill="none" xmlns="http://www.w3.org/2000/svg">
<path d="M11.9121 2.17847H2.81201V13.2661H11.9121V2.17847Z" fill="white"/>
<path d="M15.2201 0H0.779947C0.35009 0 0 0.35009 0 0.779947V15.2223C0 15.6521 0.35009 16.0022 0.779947 16.0022H9.17546L16.0022 9.17546V0.779947C16.0022 0.35009 15.6521 0 15.2223 0H15.2201ZM10.8639 9.00485C10.1681 9.62747 9.10677 9.93768 7.68204 9.93768H6.72483V12.9999C6.72483 13.1239 6.62512 13.2237 6.50104 13.2237H4.3163C4.19222 13.2237 4.09251 13.1239 4.09251 12.9999V2.99792C4.09251 2.87384 4.19222 2.77413 4.3163 2.77413H7.66653C9.1666 2.77413 10.2479 3.08212 10.9126 3.70032C11.5773 4.31851 11.9097 5.21147 11.9097 6.38139C11.9097 7.55131 11.5618 8.38443 10.8639 9.00485Z" fill="#DD3A03"/>
<path d="M8.87857 5.3356C8.61268 5.12732 8.20276 5.02539 7.65104 5.02539H6.72485V7.70646H7.65104C8.17174 7.70646 8.5728 7.60454 8.85641 7.4029C9.13782 7.20127 9.27962 6.86004 9.27962 6.38144C9.27962 5.90283 9.14668 5.54388 8.88079 5.3356H8.87857Z" fill="#DD3A03"/>
<path d="M21.2105 13.3514C21.0731 13.3514 21.0022 13.2827 21.0022 13.1431V3.11014C21.0022 2.97276 21.0709 2.90186 21.2105 2.90186H24.3702C25.817 2.90186 26.8695 3.19877 27.5298 3.79481C28.1901 4.39085 28.5181 5.26164 28.5181 6.41162C28.5181 7.5616 28.1746 8.37478 27.4899 8.97968C26.8031 9.5868 25.7705 9.88815 24.3879 9.88815H23.2866V13.1431C23.2866 13.2805 23.218 13.3514 23.0784 13.3514H21.2127H21.2105ZM23.2844 7.96043H24.3524C24.9795 7.96043 25.4514 7.84078 25.7639 7.60148C26.0785 7.36218 26.2336 6.97221 26.2336 6.42934C26.2336 5.88648 26.0785 5.46106 25.7705 5.21732C25.4625 4.97359 24.9883 4.84951 24.3502 4.84951H23.2822V7.96043H23.2844Z" fill="black"/>
<path d="M29.6503 13.3509C29.5129 13.3509 29.442 13.2822 29.442 13.1427V7.46366C29.442 7.13351 29.4332 6.8233 29.4176 6.53082C29.4021 6.23834 29.3778 5.95473 29.3467 5.67776C29.3246 5.5293 29.3955 5.45396 29.555 5.45396H31.1349C31.2523 5.45396 31.3254 5.51157 31.3586 5.62901C31.4007 5.8107 31.4318 6.01677 31.4539 6.25164C31.4761 6.48651 31.4916 6.70365 31.5027 6.90529L31.6622 7.87801V13.1427C31.6622 13.28 31.5935 13.3509 31.4539 13.3509H29.6503ZM31.5005 8.74215L31.3719 6.89199C31.5847 6.584 31.8284 6.30703 32.1054 6.0633C32.3823 5.81956 32.6615 5.62458 32.9429 5.48055C33.2243 5.33653 33.488 5.26562 33.7317 5.26562C33.9023 5.26562 34.0397 5.28778 34.1461 5.32988C34.2524 5.3609 34.31 5.43624 34.3211 5.55367C34.3211 5.83064 34.3189 6.1342 34.3123 6.46435C34.3056 6.7945 34.2879 7.10249 34.2569 7.39054C34.2347 7.55007 34.1549 7.61433 34.0176 7.58109C33.9533 7.55894 33.8735 7.54343 33.7783 7.53235C33.683 7.52127 33.5921 7.51684 33.5079 7.51684C33.2841 7.51684 33.0559 7.56337 32.8211 7.66086C32.5862 7.75614 32.3557 7.8913 32.1275 8.06856C31.8993 8.24361 31.6888 8.46961 31.4982 8.74658L31.5005 8.74215Z" fill="black"/>
<path d="M38.4714 13.5437C37.2372 13.5437 36.3265 13.28 35.7349 12.7549C35.1455 12.2275 34.8486 11.4498 34.8486 10.4173V8.58262C34.8486 7.49911 35.1433 6.67263 35.7349 6.10983C36.3243 5.54703 37.2261 5.26562 38.4382 5.26562C39.6502 5.26562 40.5099 5.53595 41.1104 6.07881C41.7108 6.62167 42.0122 7.41934 42.0122 8.47183V9.71709C42.0122 9.85446 41.9435 9.92537 41.8039 9.92537H37.0489V10.404C37.0489 10.8937 37.1575 11.257 37.3768 11.4963C37.594 11.7356 37.9529 11.8553 38.4537 11.8553C38.837 11.8553 39.1406 11.7933 39.3621 11.6714C39.5859 11.5495 39.6967 11.3656 39.6967 11.1219C39.6967 10.9845 39.7654 10.9136 39.905 10.9136H41.6444C41.7729 10.9136 41.8416 10.9823 41.8526 11.1219C41.8748 11.9306 41.6023 12.5355 41.0395 12.941C40.4767 13.3465 39.6192 13.5481 38.4714 13.5481V13.5437ZM37.0533 8.5804H39.8452V8.50063C39.8452 7.96885 39.7344 7.58109 39.5106 7.33514C39.2868 7.09141 38.9411 6.96733 38.4736 6.96733C37.9729 6.96733 37.6117 7.09141 37.3879 7.34179C37.1641 7.59217 37.0533 7.98215 37.0533 8.51393V8.57819V8.5804Z" fill="black"/>
<path d="M45.8426 13.5437C44.7259 13.5437 43.9149 13.3354 43.4097 12.9211C42.9045 12.5067 42.6785 11.8575 42.7317 10.9756C42.7428 10.8471 42.8115 10.7851 42.94 10.7851H44.6306C44.7591 10.7851 44.8212 10.8493 44.8212 10.9756C44.8212 11.3058 44.9032 11.5495 45.0693 11.7091C45.2333 11.8686 45.4926 11.9484 45.8426 11.9484C46.2149 11.9484 46.4919 11.8907 46.6713 11.7733C46.853 11.6559 46.9417 11.4764 46.9417 11.2304C46.9417 11.0377 46.8774 10.8826 46.7511 10.7607C46.6226 10.6388 46.4099 10.5125 46.113 10.3862L44.2783 9.60408C43.7465 9.38029 43.3632 9.10775 43.1306 8.78204C42.8957 8.45853 42.7805 8.03532 42.7805 7.51462C42.7805 6.75905 43.0286 6.19624 43.5227 5.824C44.0169 5.45175 44.7857 5.26562 45.8271 5.26562C46.8685 5.26562 47.6972 5.46061 48.2113 5.84837C48.7276 6.23613 48.9846 6.81444 48.9846 7.57888C48.9846 7.71626 48.9159 7.78716 48.7763 7.78716H47.1012C46.9638 7.78716 46.8929 7.70296 46.8929 7.53235C46.8929 7.30856 46.8109 7.14237 46.6448 7.02937C46.4786 6.91858 46.2371 6.86097 45.918 6.86097C45.5989 6.86097 45.364 6.91415 45.2156 7.02051C45.0671 7.12686 44.9918 7.29083 44.9918 7.51462C44.9918 7.67416 45.045 7.80045 45.1513 7.89795C45.2577 7.99322 45.4593 8.10623 45.7584 8.23253L47.5776 8.99918C48.1315 9.22297 48.5326 9.49994 48.783 9.82787C49.0333 10.158 49.1574 10.5945 49.1574 11.1352C49.1574 11.9328 48.876 12.5333 48.311 12.9366C47.7482 13.3421 46.9239 13.5437 45.8382 13.5437H45.8426Z" fill="black"/>
<path d="M52.9735 13.5437C51.8568 13.5437 51.0458 13.3354 50.5406 12.9211C50.0354 12.5067 49.8094 11.8575 49.8626 10.9756C49.8737 10.8471 49.9423 10.7851 50.0709 10.7851H51.7615C51.89 10.7851 51.952 10.8493 51.952 10.9756C51.952 11.3058 52.034 11.5495 52.2002 11.7091C52.3642 11.8686 52.6234 11.9484 52.9735 11.9484C53.3458 11.9484 53.6227 11.8907 53.8022 11.7733C53.9839 11.6559 54.0725 11.4764 54.0725 11.2304C54.0725 11.0377 54.0083 10.8826 53.882 10.7607C53.7535 10.6388 53.5407 10.5125 53.2438 10.3862L51.4092 9.60408C50.8774 9.38029 50.4941 9.10775 50.2614 8.78204C50.0265 8.45853 49.9113 8.03532 49.9113 7.51462C49.9113 6.75905 50.1595 6.19624 50.6536 5.824C51.1477 5.45175 51.9166 5.26562 52.958 5.26562C53.9994 5.26562 54.8281 5.46061 55.3422 5.84837C55.8584 6.23613 56.1155 6.81444 56.1155 7.57888C56.1155 7.71626 56.0468 7.78716 55.9072 7.78716H54.2321C54.0947 7.78716 54.0238 7.70296 54.0238 7.53235C54.0238 7.30856 53.9418 7.14237 53.7756 7.02937C53.6094 6.91858 53.3679 6.86097 53.0488 6.86097C52.7298 6.86097 52.4949 6.91415 52.3464 7.02051C52.198 7.12686 52.1227 7.29083 52.1227 7.51462C52.1227 7.67416 52.1758 7.80045 52.2822 7.89795C52.3885 7.99322 52.5902 8.10623 52.8893 8.23253L54.7084 8.99918C55.2624 9.22297 55.6634 9.49994 55.9138 9.82787C56.1642 10.158 56.2883 10.5945 56.2883 11.1352C56.2883 11.9328 56.0069 12.5333 55.4419 12.9366C54.8791 13.3421 54.0548 13.5437 52.9691 13.5437H52.9735Z" fill="black"/>
<path d="M59.1313 13.5437C58.4932 13.5437 57.999 13.3487 57.6467 12.961C57.2944 12.5732 57.1194 12.0215 57.1194 11.3102C57.1194 10.7585 57.2235 10.3087 57.4296 9.96304C57.6379 9.61738 57.9835 9.34705 58.4666 9.14985C58.9496 8.95265 59.5966 8.82192 60.4054 8.75988L61.8899 8.61585L61.8744 9.82787L60.6934 9.93866C60.1505 9.99184 59.7761 10.1004 59.5678 10.2666C59.3595 10.4306 59.2576 10.6942 59.2576 11.0554C59.2576 11.3435 59.3152 11.5495 59.4326 11.678C59.5501 11.8065 59.7251 11.8686 59.96 11.8686C60.2569 11.8686 60.556 11.7777 60.8529 11.5983C61.1499 11.4166 61.5132 11.0975 61.9387 10.6411L62.0339 11.9661C61.737 12.2741 61.4401 12.5488 61.1476 12.7881C60.8552 13.0274 60.5472 13.2136 60.2214 13.3465C59.8979 13.4794 59.5323 13.5459 59.1291 13.5459L59.1313 13.5437ZM62.1957 13.3509C62.1314 13.3509 62.0849 13.3332 62.0517 13.2955C62.0206 13.2579 61.9941 13.2069 61.9719 13.1449C61.9497 13.0274 61.9231 12.8502 61.8921 12.6109C61.8611 12.3716 61.8345 12.1345 61.8124 11.8996L61.6528 11.2305V8.02425C61.6528 7.62098 61.5753 7.33514 61.4224 7.17118C61.2673 7.00721 60.9947 6.92301 60.6003 6.92301C59.878 6.92301 59.5323 7.19334 59.5634 7.7362C59.5744 7.87357 59.5058 7.94448 59.3551 7.94448H57.68C57.5515 7.94448 57.4783 7.86028 57.4562 7.68967C57.3919 6.91415 57.6401 6.3159 58.1985 5.8949C58.7568 5.47391 59.5833 5.26562 60.6801 5.26562C61.7769 5.26562 62.6078 5.49163 63.113 5.94365C63.6182 6.39566 63.8708 7.11135 63.8708 8.09072V11.3302C63.8708 11.6714 63.8797 11.986 63.8952 12.2785C63.9107 12.571 63.9351 12.8568 63.9661 13.1316C63.9882 13.28 63.9173 13.3554 63.7578 13.3554H62.1935L62.1957 13.3509Z" fill="black"/>
<path d="M68.5744 13.5437C68.1379 13.5437 67.7346 13.5194 67.3624 13.4728C66.9901 13.4263 66.6157 13.3709 66.2368 13.3133C65.8601 13.2557 65.4524 13.2092 65.0159 13.1781V2.66214C65.0159 2.52476 65.0846 2.45386 65.2242 2.45386H67.0278C67.1652 2.45386 67.2361 2.52255 67.2361 2.66214V11.5961C67.4266 11.6271 67.6216 11.6581 67.8188 11.6825C68.016 11.7091 68.2044 11.7224 68.386 11.7224C68.8757 11.7224 69.2369 11.5872 69.4718 11.3147C69.7044 11.0444 69.8219 10.6411 69.8219 10.1093V8.46521C69.8219 8.00877 69.7421 7.67862 69.5826 7.47699C69.423 7.27535 69.1771 7.17343 68.8491 7.17343C68.5832 7.17343 68.3041 7.25098 68.0116 7.40386C67.7191 7.55897 67.3712 7.80492 66.9657 8.14614L67.0145 6.48654C67.4621 6.07219 67.9074 5.7642 68.355 5.56035C68.8026 5.35872 69.2591 5.25679 69.7266 5.25679C70.5021 5.25679 71.0826 5.4828 71.466 5.93482C71.8493 6.38683 72.0398 7.08036 72.0398 8.01763V10.2999C72.0398 11.3944 71.7584 12.2098 71.1934 12.7416C70.6306 13.2734 69.7576 13.5393 68.5766 13.5393L68.5744 13.5437Z" fill="black"/>
<path d="M73.2346 13.351C73.0973 13.351 73.0264 13.2823 73.0264 13.1427V2.66214C73.0264 2.52476 73.0951 2.45386 73.2346 2.45386H75.0383C75.1757 2.45386 75.2466 2.52255 75.2466 2.66214V13.1427C75.2466 13.2801 75.1779 13.351 75.0383 13.351H73.2346Z" fill="black"/>
<path d="M79.8215 13.5437C78.5873 13.5437 77.6766 13.28 77.085 12.7549C76.4956 12.2275 76.1987 11.4498 76.1987 10.4173V8.58262C76.1987 7.49911 76.4934 6.67263 77.085 6.10983C77.6744 5.54703 78.5762 5.26562 79.7883 5.26562C81.0003 5.26562 81.86 5.53595 82.4605 6.07881C83.0609 6.62167 83.3623 7.41934 83.3623 8.47183V9.71709C83.3623 9.85446 83.2936 9.92537 83.154 9.92537H78.399V10.404C78.399 10.8937 78.5076 11.257 78.7269 11.4963C78.9441 11.7356 79.303 11.8553 79.8038 11.8553C80.1871 11.8553 80.4907 11.7933 80.7122 11.6714C80.936 11.5495 81.0468 11.3656 81.0468 11.1219C81.0468 10.9845 81.1155 10.9136 81.2551 10.9136H82.9945C83.123 10.9136 83.1917 10.9823 83.2027 11.1219C83.2249 11.9306 82.9524 12.5355 82.3896 12.941C81.8268 13.3465 80.9693 13.5481 79.8215 13.5481V13.5437ZM78.4012 8.5804H81.1931V8.50063C81.1931 7.96885 81.0823 7.58109 80.8585 7.33514C80.6347 7.09141 80.289 6.96733 79.8215 6.96733C79.3207 6.96733 78.9596 7.09141 78.7358 7.34179C78.512 7.59217 78.4012 7.98215 78.4012 8.51393V8.57819V8.5804Z" fill="black"/>
</svg>
