<svg width="60" height="16" viewBox="0 0 60 16" fill="none" xmlns="http://www.w3.org/2000/svg">
<path d="M7.63105 15.7602C9.37714 15.7602 10.7783 14.8967 11.8346 12.9108L14.1843 8.5073V12.2417C14.1843 14.4434 15.607 15.7602 17.8058 15.7602C19.5303 15.7602 20.8022 15.0047 22.0309 12.9108L27.4416 3.75838C28.6272 1.75089 27.7865 0.239868 25.1782 0.239868C23.777 0.239868 22.8716 0.693174 22.0524 2.22578L18.3231 9.24122V3.00287C18.3231 1.14648 17.4393 0.239868 15.801 0.239868C14.5076 0.239868 13.4729 0.801103 12.6753 2.35529L9.16157 9.24122V3.06763C9.16157 1.08172 8.34242 0.239868 6.35921 0.239868H2.30656C0.776039 0.239868 0 0.952205 0 2.26895C0 3.58569 0.819152 4.3412 2.30656 4.3412H3.96642V12.2201C3.96642 14.4434 5.45383 15.7602 7.63105 15.7602Z" fill="#873EFF"/>
<path fill-rule="evenodd" clip-rule="evenodd" d="M35.354 0.239868C30.9349 0.239868 27.5505 3.54252 27.5505 8.01082C27.5505 12.4791 30.9565 15.7602 35.354 15.7602C39.7516 15.7602 43.1144 12.4575 43.136 8.01082C43.136 3.54252 39.7516 0.239868 35.354 0.239868ZM35.354 10.9897C33.6942 10.9897 32.5517 9.7377 32.5517 8.01082C32.5517 6.28394 33.6942 5.01037 35.354 5.01037C37.0139 5.01037 38.1564 6.28394 38.1564 8.01082C38.1564 9.7377 37.0354 10.9897 35.354 10.9897Z" fill="#873EFF"/>
<path fill-rule="evenodd" clip-rule="evenodd" d="M44.2338 8.01082C44.2338 3.54252 47.6182 0.239868 52.0158 0.239868C56.4133 0.239868 59.7977 3.56411 59.7977 8.01082C59.7977 12.4575 56.4133 15.7602 52.0158 15.7602C47.6182 15.7602 44.2338 12.4791 44.2338 8.01082ZM49.235 8.01082C49.235 9.7377 50.3344 10.9897 52.0158 10.9897C53.6756 10.9897 54.8181 9.7377 54.8181 8.01082C54.8181 6.28394 53.6756 5.01037 52.0158 5.01037C50.3559 5.01037 49.235 6.28394 49.235 8.01082Z" fill="#873EFF"/>
</svg>
