<svg width="105" height="16" viewBox="0 0 105 16" fill="none" xmlns="http://www.w3.org/2000/svg">
<g clip-path="url(#clip0_12708_28728)">
<path fill-rule="evenodd" clip-rule="evenodd" d="M42.1716 2.94983V13.0306H43.8646V9.23711H46.54C47.2152 9.23711 47.7997 9.09605 48.2935 8.81393C48.7872 8.53181 49.1651 8.15397 49.4271 7.68041C49.6891 7.19677 49.8201 6.66779 49.8201 6.09347C49.8201 5.51915 49.6891 4.99521 49.4271 4.52165C49.1651 4.03801 48.7872 3.65513 48.2935 3.37301C47.8098 3.09089 47.2253 2.94983 46.54 2.94983H42.1716ZM43.8646 7.74086H46.3133C46.6559 7.74086 46.9582 7.67537 47.2203 7.54438C47.4923 7.40332 47.704 7.20684 47.8551 6.95495C48.0063 6.70306 48.0818 6.4159 48.0818 6.09347C48.0818 5.77105 48.0063 5.48389 47.8551 5.23199C47.704 4.9801 47.4923 4.78866 47.2203 4.65767C46.9582 4.51661 46.6559 4.44608 46.3133 4.44608H43.8646V7.74086Z" fill="#873EFF"/>
<path d="M95.7672 12.7435C96.0796 13.0559 96.5381 13.2121 97.1427 13.2121C97.4853 13.2121 97.7776 13.1667 98.0194 13.076C98.2613 12.9954 98.4578 12.8846 98.6089 12.7435L98.2462 11.5949C98.1756 11.6755 98.0698 11.741 97.9287 11.7914C97.7977 11.8417 97.6617 11.8669 97.5206 11.8669C97.3191 11.8669 97.1578 11.7964 97.0369 11.6553C96.916 11.5143 96.8454 11.3228 96.8253 11.081V7.06079H98.3066V5.73079H96.8253V3.73579H95.2986V5.73079H94.0894V7.06079H95.2986V11.3682C95.2986 11.9627 95.4548 12.4211 95.7672 12.7435Z" fill="#873EFF"/>
<path d="M100.625 11.7006C100.162 11.4991 99.7991 11.2573 99.5371 10.9752L98.8267 12.0785C99.1996 12.4412 99.653 12.7233 100.187 12.9248C100.731 13.1163 101.316 13.212 101.941 13.212C102.575 13.212 103.115 13.1163 103.558 12.9248C104.011 12.7233 104.354 12.4513 104.586 12.1087C104.828 11.756 104.949 11.353 104.949 10.8996C104.949 10.3958 104.818 9.99781 104.556 9.70562C104.294 9.40334 103.981 9.18671 103.618 9.05573C103.256 8.91467 102.787 8.77361 102.213 8.63255C101.82 8.54186 101.512 8.46126 101.291 8.39073C101.069 8.3202 100.882 8.22448 100.731 8.10357C100.59 7.97258 100.52 7.80633 100.52 7.60482C100.52 7.34285 100.646 7.14133 100.898 7.00027C101.149 6.84913 101.487 6.77356 101.91 6.77356C102.354 6.77356 102.767 6.85417 103.15 7.01538C103.533 7.1766 103.84 7.38819 104.072 7.65016L104.722 6.57709C104.369 6.26474 103.956 6.01788 103.482 5.83652C103.009 5.64508 102.48 5.54936 101.895 5.54936C101.311 5.54936 100.802 5.65012 100.368 5.85163C99.9352 6.05315 99.6077 6.32519 99.386 6.66777C99.1643 7.01035 99.0534 7.39826 99.0534 7.83152C99.0534 8.29501 99.1744 8.66781 99.4162 8.94993C99.6681 9.22198 99.9654 9.42349 100.308 9.55448C100.661 9.68546 101.119 9.81645 101.684 9.94743C102.087 10.0381 102.404 10.1238 102.636 10.2044C102.878 10.285 103.079 10.3958 103.24 10.5369C103.402 10.6679 103.482 10.8442 103.482 11.0658C103.482 11.2573 103.422 11.4235 103.301 11.5646C103.19 11.7057 103.029 11.8165 102.817 11.8971C102.606 11.9676 102.354 12.0029 102.061 12.0029C101.578 12.0029 101.099 11.9021 100.625 11.7006Z" fill="#873EFF"/>
<path d="M86.7661 13.0306V5.73072H88.2927V6.72671C88.5792 6.42552 88.9017 6.17413 89.2601 5.97254C89.7539 5.69042 90.3182 5.54936 90.9531 5.54936C91.6383 5.54936 92.1472 5.70553 92.4798 6.01788C92.8123 6.32016 93.0189 6.65266 93.0995 7.01538C93.1801 7.36804 93.2204 7.74588 93.2204 8.14891V13.0306H91.6938V8.66277C91.6938 8.34035 91.6686 8.05823 91.6182 7.81641C91.5779 7.57459 91.4519 7.363 91.2403 7.18163C91.0287 6.99019 90.7062 6.89447 90.2729 6.89447C89.8093 6.89447 89.3962 7.00531 89.0334 7.22697C88.7356 7.40896 88.4887 7.63168 88.2927 7.89516V13.0306H86.7661Z" fill="#873EFF"/>
<path fill-rule="evenodd" clip-rule="evenodd" d="M80.0454 12.7435C80.6299 13.0558 81.2849 13.212 82.0104 13.212C82.5848 13.212 83.129 13.1213 83.6429 12.9399C84.1568 12.7586 84.5952 12.4916 84.958 12.1389L84.2627 11.1414C84.0007 11.4034 83.6782 11.6099 83.2953 11.7611C82.9224 11.9021 82.5445 11.9727 82.1616 11.9727C81.6376 11.9727 81.1942 11.8568 80.8314 11.6251C80.4686 11.3933 80.1966 11.086 80.0152 10.7031C79.8938 10.4469 79.813 10.1748 79.7728 9.88698H85.4568V9.50914C85.4568 8.75345 85.3107 8.07838 85.0184 7.48391C84.7262 6.87936 84.308 6.4058 83.7638 6.06322C83.2197 5.72065 82.5949 5.54936 81.8895 5.54936C81.1841 5.54936 80.5493 5.72065 79.9849 6.06322C79.4206 6.4058 78.9772 6.86928 78.6548 7.45368C78.3424 8.028 78.1862 8.66781 78.1862 9.37311C78.1862 10.1288 78.3524 10.7988 78.685 11.3832C79.0175 11.9676 79.471 12.421 80.0454 12.7435ZM83.9926 8.7988H79.7715C79.8043 8.54486 79.8654 8.30304 79.9547 8.07334C80.0958 7.70054 80.3276 7.39322 80.65 7.15141C80.9725 6.90959 81.3806 6.78868 81.8744 6.78868C82.3984 6.78868 82.8166 6.90959 83.129 7.15141C83.4515 7.39322 83.6782 7.68542 83.8092 8.028C83.9064 8.28216 83.9675 8.53909 83.9926 8.7988Z" fill="#873EFF"/>
<path d="M75.3431 8.23959C75.3431 7.82648 75.2424 7.49902 75.0408 7.2572C74.8494 7.01538 74.5571 6.89447 74.1641 6.89447C73.8014 6.89447 73.4638 6.99019 73.1514 7.18163C72.839 7.37307 72.5871 7.60482 72.3956 7.87686V13.0306H70.8689V8.23959C70.8689 7.82648 70.7682 7.49902 70.5666 7.2572C70.3751 7.01538 70.0829 6.89447 69.6899 6.89447C69.3372 6.89447 69.0097 6.99019 68.7074 7.18163C68.4051 7.37307 68.1531 7.60482 67.9516 7.87686L67.9365 7.89953V13.0306H66.4098V5.73072H67.9365V6.73028C68.0252 6.5961 68.1613 6.44932 68.3446 6.28993C68.5865 6.08841 68.8787 5.91712 69.2213 5.77606C69.574 5.62493 69.9519 5.54936 70.355 5.54936C70.7883 5.54936 71.1561 5.64004 71.4584 5.8214C71.7607 5.99269 71.9875 6.23955 72.1386 6.56197C72.1958 6.67277 72.2435 6.78991 72.2817 6.91339C72.4956 6.56314 72.8107 6.2596 73.227 6.00277C73.7107 5.70049 74.2548 5.54936 74.8594 5.54936C75.2928 5.54936 75.6555 5.64004 75.9478 5.8214C76.2501 5.99269 76.4768 6.24459 76.628 6.57709C76.7791 6.90959 76.8547 7.30254 76.8547 7.75595V13.0306H75.3431V8.23959Z" fill="#873EFF"/>
<path d="M59.3363 14.6176C59.2153 14.5974 59.1196 14.5672 59.0491 14.5269L58.8072 15.8871C58.9281 15.9174 59.0743 15.9426 59.2456 15.9627C59.4169 15.9829 59.5832 15.9929 59.7444 15.9929C60.1172 15.9929 60.4498 15.9426 60.742 15.8418C61.0343 15.741 61.2963 15.5748 61.528 15.343C61.7598 15.1113 61.9563 14.809 62.1175 14.4362V14.406C62.1276 14.406 62.1327 14.401 62.1327 14.3909L65.6848 5.73076H64.0523L61.8757 11.2775L59.699 5.73076H58.0817L61.0792 13.1127L60.6967 13.9979C60.5959 14.2297 60.4649 14.3959 60.3037 14.4967C60.1424 14.5974 59.9409 14.6478 59.699 14.6478C59.5781 14.6478 59.4572 14.6377 59.3363 14.6176Z" fill="#873EFF"/>
<path fill-rule="evenodd" clip-rule="evenodd" d="M53.4705 13.212C52.8457 13.212 52.2864 13.0608 51.7927 12.7586C51.2989 12.4462 50.9109 12.0029 50.6287 11.4286C50.3567 10.8543 50.2206 10.1741 50.2206 9.38823C50.2206 8.61239 50.3567 7.93732 50.6287 7.363C50.9109 6.7786 51.2989 6.33023 51.7927 6.01788C52.2864 5.70553 52.8457 5.54936 53.4705 5.54936C53.9743 5.54936 54.448 5.67531 54.8914 5.9272C55.2665 6.13179 55.5839 6.40851 55.8436 6.75735V5.73072H57.3552V13.0306H55.8436V12.0067C55.5824 12.3512 55.265 12.6321 54.8914 12.8493C54.458 13.0911 53.9844 13.212 53.4705 13.212ZM55.8436 10.8583V7.9381C55.684 7.68534 55.4422 7.46341 55.1181 7.27232C54.7251 7.0305 54.322 6.90959 53.9088 6.90959C53.4856 6.90959 53.1128 7.01538 52.7903 7.22697C52.4678 7.43857 52.2209 7.73076 52.0496 8.10357C51.8884 8.47637 51.8078 8.90459 51.8078 9.38823C51.8078 10.1238 51.9942 10.7233 52.367 11.1868C52.75 11.6402 53.2639 11.8669 53.9088 11.8669C54.322 11.8669 54.7251 11.756 55.1181 11.5344C55.4422 11.3433 55.684 11.1179 55.8436 10.8583Z" fill="#873EFF"/>
<path d="M5.12985 13.2088C6.30363 13.2088 7.24555 12.6292 7.95562 11.2962L9.53515 8.34038V10.847C9.53515 12.3249 10.4916 13.2088 11.9697 13.2088C13.1289 13.2088 13.9839 12.7016 14.8099 11.2962L18.4472 5.15276C19.2442 3.80526 18.679 2.79102 16.9256 2.79102C15.9837 2.79102 15.3751 3.09529 14.8244 4.12402L12.3174 8.83302V4.64564C12.3174 3.39956 11.7233 2.79102 10.622 2.79102C9.75251 2.79102 9.05694 3.16774 8.52077 4.21096L6.15872 8.83302V4.6891C6.15872 3.35609 5.60806 2.79102 4.27488 2.79102H1.55055C0.52168 2.79102 0 3.26916 0 4.153C0 5.03684 0.550662 5.54397 1.55055 5.54397H2.66636V10.8325C2.66636 12.3249 3.66625 13.2088 5.12985 13.2088Z" fill="#873EFF"/>
<path fill-rule="evenodd" clip-rule="evenodd" d="M23.7662 2.79102C20.7955 2.79102 18.5204 5.00787 18.5204 8.00713C18.5204 11.0064 20.81 13.2088 23.7662 13.2088C26.7224 13.2088 28.983 10.9919 28.9975 8.00713C28.9975 5.00787 26.7224 2.79102 23.7662 2.79102ZM23.7662 10.0066C22.6504 10.0066 21.8823 9.16627 21.8823 8.00713C21.8823 6.848 22.6504 5.99313 23.7662 5.99313C24.882 5.99313 25.65 6.848 25.65 8.00713C25.65 9.16627 24.8965 10.0066 23.7662 10.0066Z" fill="#873EFF"/>
<path fill-rule="evenodd" clip-rule="evenodd" d="M29.7355 8.00713C29.7355 5.00787 32.0106 2.79102 34.9668 2.79102C37.9229 2.79102 40.198 5.02235 40.198 8.00713C40.198 10.9919 37.9229 13.2088 34.9668 13.2088C32.0106 13.2088 29.7355 11.0064 29.7355 8.00713ZM33.0974 8.00713C33.0974 9.16627 33.8365 10.0066 34.9668 10.0066C36.0826 10.0066 36.8506 9.16627 36.8506 8.00713C36.8506 6.848 36.0826 5.99313 34.9668 5.99313C33.8509 5.99313 33.0974 6.848 33.0974 8.00713Z" fill="#873EFF"/>
</g>
<defs>
<clipPath id="clip0_12708_28728">
<rect width="105" height="16" fill="white"/>
</clipPath>
</defs>
</svg>
