<svg width="36" height="16" viewBox="0 0 36 16" fill="none" xmlns="http://www.w3.org/2000/svg">
<path d="M8.0053 0.0341797C3.609 0.0341797 0.0341797 3.609 0.0341797 8.0053C0.0341797 12.4016 3.609 15.9764 8.0053 15.9764C12.4016 15.9764 15.9764 12.4106 15.9764 8.0053C15.9764 3.59997 12.4106 0.0341797 8.0053 0.0341797ZM0.828584 8.0053C0.828584 6.96716 1.05427 5.97415 1.44244 5.08045L4.85477 14.4508C2.50766 13.2773 0.828584 10.8489 0.828584 8.0053ZM8.0053 15.182C7.3102 15.182 6.62412 15.0827 5.97415 14.8931L8.11363 8.64624L10.3163 14.6855C10.3343 14.7216 10.3524 14.7487 10.3614 14.7848C9.63022 15.0376 8.85387 15.182 8.0053 15.182ZM8.99831 4.63811C9.43162 4.602 9.81076 4.57492 9.81076 4.57492C10.1809 4.52978 10.1538 3.96106 9.76563 3.98814C9.76563 3.98814 8.59208 4.06939 7.85184 4.06939C7.15673 4.06939 5.96513 3.98814 5.96513 3.98814C5.59501 3.95204 5.53182 4.55687 5.91999 4.57492C5.91999 4.57492 6.29011 4.62006 6.66926 4.63811L7.77059 7.7074L6.21789 12.4016L3.63608 4.63811C4.06939 4.602 4.44854 4.57492 4.44854 4.57492C4.81866 4.52978 4.79158 3.96106 4.4034 3.98814C4.4034 3.98814 3.22985 4.06939 2.48961 4.06939C2.34517 4.06939 2.20074 4.06939 2.02019 4.05134C3.29304 2.11046 5.49571 0.828584 7.99627 0.828584C9.86493 0.828584 11.5621 1.54174 12.8349 2.71529H12.7356C12.0405 2.71529 11.535 3.32915 11.535 3.99717C11.535 4.58395 11.878 5.0985 12.2301 5.68528C12.4919 6.1547 12.8169 6.78661 12.8169 7.66226C12.8169 8.27612 12.6363 9.0615 12.2662 9.98228L11.553 12.3565L8.99831 4.63811ZM11.6343 14.2071L13.8279 7.87892C14.2341 6.85883 14.3786 6.04637 14.3786 5.31516C14.3786 5.05337 14.3605 4.81866 14.3334 4.58395C14.9022 5.60403 15.2091 6.77759 15.2091 8.02336C15.182 10.6503 13.7376 12.9703 11.6343 14.2071Z" fill="#D8A45F"/>
<path d="M29.2556 3.573H32.2707C32.9207 3.573 33.4533 3.65424 33.8776 3.79868C34.3019 3.94312 34.6449 4.14172 34.8796 4.38546C35.1414 4.62919 35.3039 4.90904 35.4032 5.225C35.5025 5.53193 35.5657 5.87496 35.5657 6.218C35.5657 6.58812 35.5206 6.94922 35.4032 7.29225C35.3039 7.63529 35.1234 7.92417 34.8796 8.20401C34.6359 8.46581 34.2929 8.66441 33.8866 8.79982C33.4804 8.94425 32.9478 9.0255 32.3068 9.0255H30.9798V12.0406H29.2466V3.573H29.2556ZM32.2617 7.55405C32.5686 7.55405 32.8304 7.51794 33.029 7.45475C33.2457 7.39155 33.3991 7.31031 33.5165 7.19295C33.6339 7.0756 33.7061 6.94922 33.7602 6.78672C33.8054 6.62423 33.8234 6.44369 33.8234 6.25411C33.8234 6.06454 33.8054 5.88399 33.7602 5.73053C33.7151 5.58609 33.6339 5.45068 33.5165 5.36041C33.3991 5.26111 33.2367 5.17986 33.029 5.11667C32.8395 5.07153 32.5686 5.03542 32.2617 5.03542H30.9979V7.54502H32.2617V7.55405Z" fill="#D8A45F"/>
<path d="M17.8633 3.573H19.8403L21.8985 9.55811L24.0109 3.573H25.9066L22.72 12.0497H21.0499L17.8633 3.573Z" fill="#D8A45F"/>
<path fill-rule="evenodd" clip-rule="evenodd" d="M28.1092 3.573H26.9086L26.3398 5.09861V12.0406H28.1092V3.573Z" fill="#D8A45F"/>
</svg>
