<svg width="119" height="17" viewBox="0 0 119 17" fill="none" xmlns="http://www.w3.org/2000/svg">
<path fill-rule="evenodd" clip-rule="evenodd" d="M11.6195 14.2252L13.8168 7.87309C14.2267 6.8462 14.3633 6.02631 14.3633 5.2977C14.3633 5.03364 14.3454 4.78752 14.3145 4.55769C14.8757 5.58132 15.1961 6.75818 15.1961 8.00838C15.1961 10.662 13.7583 12.9782 11.6195 14.2252ZM8.99273 4.63593C9.42537 4.61311 9.81572 4.56747 9.81572 4.56747C10.2028 4.52183 10.1573 3.95133 9.77018 3.97415C9.77018 3.97415 8.60563 4.06543 7.85258 4.06543C7.14507 4.06543 5.95775 3.97415 5.95775 3.97415C5.56902 3.95133 5.52511 4.54465 5.91221 4.56747C5.91221 4.56747 6.27979 4.61311 6.66689 4.63593L7.78752 7.70683L6.2131 12.4273L3.59286 4.63593C4.02713 4.61311 4.41586 4.56747 4.41586 4.56747C4.80296 4.52183 4.75741 3.95133 4.37032 3.97415C4.37032 3.97415 3.20577 4.06543 2.45271 4.06543C2.31771 4.06543 2.15832 4.06217 1.98917 4.05728C3.27733 2.10618 5.4877 0.816856 8.00221 0.816856C9.8759 0.816856 11.5804 1.53242 12.8605 2.70602C12.8296 2.70439 12.7987 2.6995 12.7678 2.6995C12.0602 2.6995 11.5593 3.31563 11.5593 3.97578C11.5593 4.5691 11.9009 5.0695 12.2668 5.66282C12.5401 6.14204 12.8605 6.75655 12.8605 7.64652C12.8605 8.26266 12.6783 9.0369 12.3124 9.97252L11.5951 12.3702L8.99436 4.63919L8.99273 4.63593ZM8.00221 15.2015C7.29633 15.2015 6.61484 15.0972 5.96913 14.9081L8.12745 8.63756L10.3394 14.6946C10.3541 14.7305 10.372 14.7631 10.3915 14.794C9.64332 15.0565 8.83984 15.2015 8.00221 15.2015ZM0.806727 8.00838C0.806727 6.96518 1.03118 5.97578 1.42966 5.08091L4.86151 14.4811C2.46084 13.3156 0.806727 10.856 0.806727 8.00838ZM8.00221 0.0100098C3.58961 0.0100098 0 3.59925 0 8.01001C0 12.4208 3.58961 16.01 8.00221 16.01C12.4148 16.01 16.0044 12.4208 16.0044 8.01001C16.0044 3.59925 12.4148 0.0100098 8.00221 0.0100098Z" fill="#3858E9"/>
<path d="M31.5213 2.85327L29.6775 10.3752H29.5882L27.616 2.85327H25.802L23.8336 10.3696H23.7387L21.8949 2.85327H19.9022L22.7898 13.0816H24.6187L26.6709 5.90372H26.7509L28.7993 13.0816H30.6283L33.514 2.85327H31.5213Z" fill="#3858E9"/>
<path d="M38.8258 5.80556C38.277 5.47633 37.6276 5.31079 36.8778 5.31079C36.1281 5.31079 35.4787 5.47633 34.9299 5.80556C34.381 6.13478 33.9549 6.59793 33.6535 7.19314C33.3521 7.78835 33.2014 8.484 33.2014 9.27637C33.2014 10.0687 33.3521 10.7607 33.6535 11.354C33.9549 11.9474 34.381 12.4087 34.9299 12.7379C35.4787 13.0671 36.1281 13.2327 36.8778 13.2327C37.6276 13.2327 38.277 13.0671 38.8258 12.7379C39.3747 12.4087 39.8008 11.9474 40.1022 11.354C40.4036 10.7607 40.5543 10.0687 40.5543 9.27637C40.5543 8.484 40.4036 7.79021 40.1022 7.19314C39.8008 6.59793 39.3747 6.13478 38.8258 5.80556ZM38.5188 10.5393C38.3849 10.9188 38.1802 11.2201 37.9067 11.4452C37.6332 11.6702 37.2946 11.7818 36.8872 11.7818C36.4797 11.7818 36.1262 11.6702 35.8508 11.4452C35.5755 11.2201 35.3708 10.9188 35.2369 10.5393C35.101 10.1599 35.0341 9.73766 35.0341 9.27079C35.0341 8.80393 35.101 8.37612 35.2369 7.99481C35.3708 7.61351 35.5773 7.31032 35.8508 7.0834C36.1262 6.85648 36.4704 6.74301 36.8872 6.74301C37.3039 6.74301 37.6332 6.85648 37.9067 7.0834C38.1802 7.31032 38.383 7.61351 38.5188 7.99481C38.6547 8.37612 38.7216 8.80207 38.7216 9.27079C38.7216 9.73952 38.6547 10.1599 38.5188 10.5393Z" fill="#3858E9"/>
<path d="M45.1612 5.302C44.7222 5.302 44.3314 5.4229 43.9891 5.66471C43.6486 5.90651 43.4067 6.24876 43.2672 6.69144H43.1872V5.4136H41.4346V13.0844H43.243V8.57565C43.243 8.25015 43.3174 7.96184 43.4681 7.71074C43.6188 7.4615 43.8235 7.26619 44.0858 7.12483C44.3482 6.98347 44.6421 6.91279 44.9733 6.91279C45.1259 6.91279 45.2859 6.92395 45.4496 6.94441C45.6152 6.96673 45.7343 6.99091 45.8124 7.01695V5.35408C45.7287 5.33734 45.6245 5.32432 45.4999 5.31688C45.3752 5.30944 45.2617 5.30386 45.1631 5.30386L45.1612 5.302Z" fill="#3858E9"/>
<path d="M51.4071 6.67935H51.3326C51.2396 6.49335 51.1075 6.29433 50.9382 6.08228C50.7689 5.87024 50.5382 5.68982 50.2479 5.53729C49.9577 5.38663 49.5893 5.31037 49.1391 5.31037C48.5493 5.31037 48.0153 5.46103 47.5353 5.76236C47.0553 6.06368 46.6757 6.50823 46.3948 7.096C46.1138 7.68377 45.9724 8.4036 45.9724 9.25549C45.9724 10.1074 46.1101 10.8142 46.3873 11.402C46.6645 11.9916 47.0404 12.4399 47.5167 12.7505C47.993 13.0611 48.5325 13.2155 49.1353 13.2155C49.5744 13.2155 49.9391 13.143 50.2293 12.996C50.5196 12.8491 50.7521 12.6724 50.9289 12.464C51.1057 12.2557 51.2396 12.0586 51.3326 11.8726H51.4424V13.0816H53.2211V2.85327H51.4071V6.67935ZM51.2322 10.5501C51.0926 10.9221 50.888 11.2141 50.6182 11.4224C50.3484 11.6307 50.0228 11.7349 49.6395 11.7349C49.2563 11.7349 48.9102 11.627 48.6386 11.4131C48.3669 11.1992 48.1623 10.9035 48.0246 10.5296C47.8869 10.1557 47.8181 9.72794 47.8181 9.24805C47.8181 8.76816 47.8869 8.34966 48.0227 7.97951C48.1586 7.60937 48.3632 7.32106 48.633 7.11088C48.9028 6.90069 49.2395 6.79653 49.6414 6.79653C50.0433 6.79653 50.3596 6.89884 50.6275 7.10158C50.8954 7.30432 51.0982 7.58891 51.2378 7.95533C51.3754 8.32176 51.4443 8.75328 51.4443 9.24805C51.4443 9.74282 51.3736 10.1781 51.234 10.5519L51.2322 10.5501Z" fill="#3858E9"/>
<path d="M60.4695 3.29224C59.9356 3.00021 59.2751 2.85327 58.4881 2.85327H54.6516V13.0816H56.5047V9.62564H58.462C59.2509 9.62564 59.9151 9.48056 60.4546 9.18853C60.9942 8.89651 61.4017 8.4966 61.6789 7.98695C61.9561 7.4773 62.0938 6.89512 62.0938 6.23852C62.0938 5.58193 61.9561 5.00905 61.6826 4.49754C61.4072 3.98603 61.0035 3.58426 60.4695 3.29224ZM59.9951 7.20202C59.8537 7.48102 59.636 7.70237 59.3439 7.86047C59.0499 8.02043 58.6741 8.10041 58.2146 8.10041H56.5066V4.40082H58.2052C58.6685 4.40082 59.0462 4.47894 59.342 4.63332C59.636 4.7877 59.8556 5.00347 59.997 5.28061C60.1384 5.55775 60.2091 5.87582 60.2091 6.24038C60.2091 6.60495 60.1384 6.92488 59.997 7.20388L59.9951 7.20202Z" fill="#3858E9"/>
<path d="M66.546 5.302C66.1069 5.302 65.7162 5.4229 65.3739 5.66471C65.0334 5.90651 64.7915 6.24876 64.652 6.69144H64.572V5.4136H62.8193V13.0844H64.6278V8.57565C64.6278 8.25015 64.7022 7.96184 64.8529 7.71074C65.0036 7.4615 65.2083 7.26619 65.4706 7.12483C65.7329 6.98347 66.0269 6.91279 66.3581 6.91279C66.5107 6.91279 66.6707 6.92395 66.8344 6.94441C67 6.96673 67.1191 6.99091 67.1972 7.01695V5.35408C67.1135 5.33734 67.0093 5.32432 66.8846 5.31688C66.76 5.30944 66.6465 5.30386 66.5479 5.30386L66.546 5.302Z" fill="#3858E9"/>
<path d="M73.3946 6.23895C73.069 5.92274 72.6969 5.68838 72.2765 5.53771C71.856 5.38705 71.4076 5.31079 70.935 5.31079C70.202 5.31079 69.5638 5.47819 69.0224 5.813C68.4791 6.1478 68.0567 6.61467 67.7553 7.21174C67.4539 7.80881 67.3032 8.5026 67.3032 9.29125C67.3032 10.0799 67.4539 10.7904 67.7535 11.3819C68.053 11.9734 68.4828 12.4291 69.0391 12.7509C69.5973 13.0727 70.2596 13.2327 71.0299 13.2327C71.6253 13.2327 72.1555 13.1415 72.6188 12.9611C73.0821 12.7788 73.4616 12.524 73.7593 12.1929C74.057 11.8618 74.2598 11.4731 74.3658 11.0267L72.6783 10.8369C72.5983 11.0527 72.4793 11.235 72.323 11.3819C72.1667 11.5289 71.9825 11.6386 71.7685 11.7149C71.5546 11.7911 71.3164 11.8265 71.0541 11.8265C70.6615 11.8265 70.3173 11.7428 70.0252 11.5735C69.7312 11.4061 69.5042 11.1624 69.3405 10.8444C69.1824 10.5375 69.1042 10.1692 69.0986 9.74324H74.4421V9.18895C74.4421 8.51562 74.3491 7.93715 74.163 7.44796C73.977 6.96064 73.7202 6.55887 73.3965 6.24267L73.3946 6.23895ZM69.1042 8.5212C69.121 8.22174 69.1954 7.94087 69.3349 7.68419C69.4894 7.39588 69.707 7.16338 69.9861 6.98482C70.2652 6.80625 70.5908 6.71697 70.961 6.71697C71.3071 6.71697 71.6104 6.79509 71.8727 6.95134C72.1351 7.10758 72.3379 7.32148 72.4848 7.59305C72.6318 7.86461 72.7062 8.17338 72.71 8.51934H69.1061L69.1042 8.5212Z" fill="#3858E9"/>
<path d="M79.3279 8.7072L78.0199 8.4282C77.631 8.33892 77.352 8.2236 77.1826 8.0841C77.0152 7.94459 76.9315 7.76231 76.9352 7.53911C76.9315 7.2787 77.058 7.06852 77.3129 6.90484C77.5678 6.74115 77.8822 6.65931 78.2599 6.65931C78.539 6.65931 78.7753 6.70395 78.9688 6.79509C79.1623 6.88624 79.3167 7.00342 79.4302 7.15036C79.5455 7.2973 79.6255 7.45355 79.6721 7.61909L81.3205 7.43866C81.1977 6.78579 80.8758 6.26871 80.3586 5.88554C79.8414 5.50237 79.1325 5.31079 78.2339 5.31079C77.6217 5.31079 77.0803 5.40565 76.6133 5.59724C76.1445 5.78882 75.7798 6.05852 75.5193 6.40635C75.2588 6.75417 75.1286 7.16524 75.1323 7.63769C75.1286 8.19756 75.3035 8.65884 75.657 9.02341C76.0105 9.38798 76.5538 9.64652 77.2906 9.79904L78.5985 10.0743C78.952 10.1506 79.2125 10.2603 79.3799 10.4036C79.5474 10.5468 79.633 10.7291 79.633 10.9485C79.633 11.2089 79.5027 11.4266 79.2404 11.6033C78.9781 11.78 78.6339 11.8674 78.2041 11.8674C77.7743 11.8674 77.4506 11.78 77.1901 11.6033C76.9296 11.4266 76.7603 11.1662 76.6803 10.8183L74.9165 10.9876C75.0263 11.6926 75.3686 12.2431 75.9398 12.6374C76.5129 13.0318 77.2682 13.2289 78.2078 13.2289C78.8478 13.2289 79.4134 13.1248 79.9065 12.9183C80.3995 12.7118 80.7847 12.4254 81.0637 12.0571C81.341 11.6888 81.4824 11.2647 81.4861 10.7811C81.4824 10.2324 81.3037 9.78788 80.9484 9.4475C80.593 9.10711 80.0535 8.85973 79.3279 8.70349V8.7072Z" fill="#3858E9"/>
<path d="M86.3925 8.7072L85.0846 8.4282C84.6957 8.33892 84.4167 8.2236 84.2473 8.0841C84.0799 7.94459 83.9962 7.76231 83.9999 7.53911C83.9962 7.2787 84.1227 7.06852 84.3776 6.90484C84.6325 6.74115 84.9469 6.65931 85.3246 6.65931C85.6037 6.65931 85.84 6.70395 86.0335 6.79509C86.227 6.88624 86.3814 7.00342 86.4949 7.15036C86.6102 7.2973 86.6902 7.45355 86.7368 7.61909L88.3852 7.43866C88.2624 6.78579 87.9405 6.26871 87.4233 5.88554C86.9061 5.50237 86.1972 5.31079 85.2985 5.31079C84.6864 5.31079 84.145 5.40565 83.678 5.59724C83.2092 5.78882 82.8445 6.05852 82.584 6.40635C82.3235 6.75417 82.1933 7.16524 82.197 7.63769C82.1933 8.19756 82.3682 8.65884 82.7217 9.02341C83.0752 9.38798 83.6185 9.64652 84.3553 9.79904L85.6632 10.0743C86.0167 10.1506 86.2772 10.2603 86.4446 10.4036C86.6121 10.5468 86.6977 10.7291 86.6977 10.9485C86.6977 11.2089 86.5674 11.4266 86.3051 11.6033C86.0428 11.78 85.6986 11.8674 85.2688 11.8674C84.839 11.8674 84.5153 11.78 84.2548 11.6033C83.9943 11.4266 83.825 11.1662 83.745 10.8183L81.9812 10.9876C82.091 11.6926 82.4333 12.2431 83.0045 12.6374C83.5775 13.0318 84.3329 13.2289 85.2725 13.2289C85.9125 13.2289 86.4781 13.1248 86.9712 12.9183C87.4642 12.7118 87.8494 12.4254 88.1284 12.0571C88.4057 11.6888 88.5471 11.2647 88.5508 10.7811C88.5471 10.2324 88.3684 9.78788 88.0131 9.4475C87.6577 9.10711 87.1182 8.85973 86.3925 8.70349V8.7072Z" fill="#3858E9"/>
<path d="M90.4764 11.0046C90.1731 11.0046 89.9126 11.1107 89.6968 11.3246C89.481 11.5385 89.3731 11.7933 89.3768 12.0928C89.3731 12.3997 89.4791 12.6582 89.6968 12.8721C89.9126 13.086 90.1731 13.192 90.4764 13.192C90.6736 13.192 90.8541 13.1437 91.0178 13.0451C91.1834 12.9465 91.3155 12.8144 91.4178 12.6489C91.5202 12.4815 91.5722 12.2974 91.576 12.0946C91.5722 11.7952 91.4625 11.5385 91.2429 11.3264C91.0234 11.1144 90.7685 11.0065 90.4764 11.0065V11.0046Z" fill="#3858E9"/>
<path d="M94.9119 7.06666C95.1909 6.8695 95.5165 6.76905 95.8868 6.76905C96.3222 6.76905 96.6719 6.89368 96.9324 7.14106C97.1929 7.38844 97.3603 7.69721 97.4292 8.06735H99.1576C99.1186 7.51493 98.9548 7.03132 98.6683 6.61653C98.3818 6.20174 97.9985 5.87996 97.5166 5.65304C97.0347 5.42611 96.484 5.31079 95.8607 5.31079C95.1109 5.31079 94.4635 5.47819 93.9146 5.813C93.3676 6.1478 92.9434 6.61467 92.6439 7.21174C92.3443 7.80881 92.1936 8.49702 92.1936 9.27637C92.1936 10.0557 92.3406 10.7365 92.6364 11.3317C92.9322 11.9269 93.3527 12.3919 93.8997 12.7267C94.4467 13.0634 95.1035 13.2308 95.87 13.2308C96.5119 13.2308 97.0719 13.1136 97.5482 12.8793C98.0245 12.6449 98.4004 12.3175 98.6776 11.9009C98.9548 11.4824 99.113 11.0025 99.1576 10.4594H97.4292C97.3752 10.7365 97.2785 10.9709 97.1352 11.1643C96.9919 11.3577 96.8152 11.5047 96.6031 11.607C96.391 11.7093 96.1528 11.7595 95.8868 11.7595C95.511 11.7595 95.1835 11.6591 94.9044 11.4582C94.6272 11.2573 94.4114 10.969 94.257 10.5933C94.1025 10.2175 94.0281 9.76928 94.0281 9.24661C94.0281 8.72394 94.1062 8.28684 94.2607 7.91855C94.4151 7.54841 94.6328 7.26568 94.9119 7.06666Z" fill="#3858E9"/>
<path d="M105.24 5.80556C104.691 5.47633 104.041 5.31079 103.292 5.31079C102.542 5.31079 101.893 5.47633 101.344 5.80556C100.795 6.13478 100.369 6.59793 100.067 7.19314C99.7659 7.78835 99.6152 8.484 99.6152 9.27637C99.6152 10.0687 99.7659 10.7607 100.067 11.354C100.369 11.9474 100.795 12.4087 101.344 12.7379C101.893 13.0671 102.542 13.2327 103.292 13.2327C104.041 13.2327 104.691 13.0671 105.24 12.7379C105.789 12.4087 106.215 11.9474 106.516 11.354C106.817 10.7607 106.968 10.0687 106.968 9.27637C106.968 8.484 106.817 7.79021 106.516 7.19314C106.215 6.59793 105.789 6.13478 105.24 5.80556ZM104.933 10.5393C104.799 10.9188 104.594 11.2201 104.321 11.4452C104.047 11.6702 103.708 11.7818 103.301 11.7818C102.894 11.7818 102.54 11.6702 102.265 11.4452C101.989 11.2201 101.785 10.9188 101.651 10.5393C101.515 10.1599 101.448 9.73766 101.448 9.27079C101.448 8.80393 101.515 8.37612 101.651 7.99481C101.785 7.61351 101.991 7.31032 102.265 7.0834C102.54 6.85648 102.884 6.74301 103.301 6.74301C103.718 6.74301 104.047 6.85648 104.321 7.0834C104.594 7.31032 104.797 7.61351 104.933 7.99481C105.068 8.37612 105.135 8.80207 105.135 9.27079C105.135 9.73952 105.068 10.1599 104.933 10.5393Z" fill="#3858E9"/>
<path d="M117.97 5.97982C117.523 5.53341 116.946 5.31021 116.241 5.31021C115.685 5.31021 115.205 5.43669 114.799 5.69152C114.396 5.94634 114.107 6.28672 113.938 6.71267H113.858C113.711 6.27928 113.46 5.93704 113.101 5.68594C112.743 5.43483 112.304 5.30835 111.785 5.30835C111.266 5.30835 110.831 5.43297 110.461 5.68036C110.09 5.92774 109.826 6.27184 109.666 6.71081H109.577V5.40693H107.848V13.0777H109.657V8.41274C109.657 8.09653 109.72 7.81939 109.847 7.58131C109.973 7.34322 110.142 7.15908 110.356 7.02702C110.57 6.89495 110.807 6.82985 111.065 6.82985C111.449 6.82985 111.759 6.9489 111.997 7.18512C112.236 7.42134 112.355 7.73755 112.355 8.13373V13.0777H114.128V8.2937C114.128 7.86031 114.251 7.50876 114.494 7.2372C114.74 6.96564 115.08 6.82985 115.516 6.82985C115.882 6.82985 116.191 6.94146 116.444 7.1628C116.697 7.38414 116.824 7.73383 116.824 8.20814V13.0777H118.638V7.92913C118.638 7.07352 118.414 6.42251 117.968 5.9761L117.97 5.97982Z" fill="#3858E9"/>
</svg>
